M48
; DRILL file {KiCad 5.1.5+dfsg1-2build2} date 17.03.2021 (ср) 14:18:57
; FORMAT={-:-/ absolute / metric / decimal}
; #@! TF.CreationDate,2021-03-17T14:18:57+02:00
; #@! TF.GenerationSoftware,Kicad,Pcbnew,5.1.5+dfsg1-2build2
; #@! TF.FileFunction,Plated,1,4,PTH
FMAT,2
METRIC
T1C0.400
T2C0.600
T3C0.762
T4C0.800
T5C1.000
%
G90
G05
T1
X55.994Y-95.491
X56.35Y-109.728
X56.794Y-112.243
X58.331Y-96.85
X59.118Y-98.781
X61.506Y-112.243
X62.408Y-109.537
X63.513Y-96.685
X66.904Y-96.545
X68.11Y-92.354
X68.999Y-114.998
X69.164Y-99.365
X69.177Y-97.904
X69.571Y-94.031
X70.46Y-112.268
X71.438Y-96.888
X71.501Y-102.87
X73.66Y-126.784
X75.082Y-122.885
X75.095Y-120.675
X75.108Y-103.822
X76.528Y-100.584
X77.457Y-114.567
X78.308Y-120.206
X78.334Y-104.534
X78.588Y-115.265
X79.159Y-106.197
X79.921Y-100.203
X79.985Y-97.371
X80.061Y-128.359
X80.188Y-109.271
X80.188Y-111.214
X80.899Y-101.689
X81.318Y-95.123
X82.41Y-109.233
X82.41Y-111.214
X82.525Y-104.267
X82.664Y-95.123
X82.74Y-128.359
X83.16Y-99.593
X84.988Y-99.606
X84.988Y-128.321
X85.509Y-95.148
X85.534Y-97.472
X87.224Y-98.946
X87.579Y-128.333
X87.643Y-106.87
X90.005Y-126.365
X90.233Y-103.962
X90.767Y-93.408
X90.78Y-94.678
X91.542Y-89.294
X91.58Y-107.569
X92.024Y-104.343
X92.672Y-121.463
X93.015Y-127.457
X93.701Y-128.194
X94.844Y-115.773
X95.225Y-113.081
X95.402Y-136.627
X95.517Y-87.706
X95.809Y-110.884
X96.85Y-108.458
X99.987Y-98.234
X100.66Y-94.285
X101.409Y-97.13
X101.409Y-99.035
X103.137Y-104.47
X103.378Y-96.444
X103.403Y-92.9
X103.899Y-109.753
X104.026Y-103.111
X106.541Y-96.652
X106.921Y-95.402
X107.378Y-100.978
X107.834Y-97.977
X108.064Y-100.482
X109.423Y-104.483
X109.576Y-97.52
X110.755Y-98.311
T3
X103.124Y-99.441
X105.664Y-99.441
T4
X56.9Y-127.64
X110.24Y-127.64
T5
X73.324Y-89.21
X73.324Y-91.75
X73.324Y-94.29
X73.324Y-96.83
X73.324Y-99.37
X73.324Y-101.91
X73.324Y-104.45
X73.324Y-106.99
X73.324Y-109.53
X73.324Y-112.07
X73.324Y-114.61
X73.324Y-117.15
X98.724Y-89.21
X98.724Y-91.75
X98.724Y-94.29
X98.724Y-96.83
X98.724Y-99.37
X98.724Y-101.91
X98.724Y-104.45
X98.724Y-106.99
X98.724Y-109.53
X98.724Y-112.07
X98.724Y-114.61
X98.724Y-117.15
X73.66Y-138.43
X76.2Y-138.43
X78.74Y-138.43
X81.28Y-138.43
X83.82Y-138.43
X86.36Y-138.43
X88.9Y-138.43
X91.44Y-138.43
X93.98Y-138.43
X96.52Y-138.43
X66.04Y-138.43
X68.58Y-138.43
T2
G00X80.22Y-89.572
M15
G01X80.22Y-88.972
M16
G05
G00X80.22Y-93.042
M15
G01X80.22Y-92.442
M16
G05
G00X87.42Y-89.572
M15
G01X87.42Y-88.972
M16
G05
G00X87.42Y-93.042
M15
G01X87.42Y-92.442
M16
G05
T0
M30
