G04 #@! TF.GenerationSoftware,KiCad,Pcbnew,5.1.5+dfsg1-2build2*
G04 #@! TF.CreationDate,2021-03-17T14:18:53+02:00*
G04 #@! TF.ProjectId,LoRa-STM32WL-DevKit_RevA,4c6f5261-2d53-4544-9d33-32574c2d4465,rev?*
G04 #@! TF.SameCoordinates,Original*
G04 #@! TF.FileFunction,Paste,Top*
G04 #@! TF.FilePolarity,Positive*
%FSLAX46Y46*%
G04 Gerber Fmt 4.6, Leading zero omitted, Abs format (unit mm)*
G04 Created by KiCad (PCBNEW 5.1.5+dfsg1-2build2) date 2021-03-17 14:18:53*
%MOMM*%
%LPD*%
G04 APERTURE LIST*
%ADD10R,1.270000X0.325000*%
%ADD11R,1.100000X1.000000*%
%ADD12R,0.400000X2.150000*%
%ADD13R,0.250000X0.275000*%
%ADD14R,0.275000X0.250000*%
%ADD15R,0.500000X0.325000*%
%ADD16C,0.100000*%
%ADD17R,1.998980X4.000500*%
%ADD18R,1.000760X2.501900*%
%ADD19R,1.778000X1.270000*%
%ADD20R,0.500000X0.550000*%
%ADD21R,0.550000X0.500000*%
%ADD22R,1.000000X1.400000*%
%ADD23R,1.200000X1.400000*%
%ADD24R,0.800000X0.800000*%
%ADD25R,1.400000X1.000000*%
%ADD26R,1.016000X1.016000*%
G04 APERTURE END LIST*
D10*
X81851500Y-97151000D03*
X81851500Y-97801000D03*
X81851500Y-98451000D03*
X81851500Y-99101000D03*
X81851500Y-99751000D03*
X81851500Y-100401000D03*
X81851500Y-101051000D03*
X81851500Y-101701000D03*
X81851500Y-102351000D03*
X81851500Y-103001000D03*
X89090500Y-103001000D03*
X89090500Y-102351000D03*
X89090500Y-101701000D03*
X89090500Y-101051000D03*
X89090500Y-100401000D03*
X89090500Y-99751000D03*
X89090500Y-99101000D03*
X89090500Y-98451000D03*
X89090500Y-97801000D03*
X89090500Y-97151000D03*
D11*
X82320000Y-88122000D03*
X85320000Y-88122000D03*
D12*
X82520000Y-92432000D03*
X83170000Y-92432000D03*
X83820000Y-92432000D03*
X84470000Y-92432000D03*
X85120000Y-92432000D03*
D13*
X108589000Y-95389000D03*
X109089000Y-95389000D03*
D14*
X109589000Y-95389000D03*
X109589000Y-95889000D03*
X109589000Y-96389000D03*
X109589000Y-96889000D03*
D13*
X109089000Y-96889000D03*
X108589000Y-96889000D03*
D14*
X108089000Y-96889000D03*
X108089000Y-96389000D03*
X108089000Y-95889000D03*
X108089000Y-95389000D03*
D15*
X101337000Y-93640000D03*
X101337000Y-94290000D03*
X101337000Y-94940000D03*
X101337000Y-95590000D03*
X103387000Y-95590000D03*
X103387000Y-94940000D03*
X103387000Y-94290000D03*
X103387000Y-93640000D03*
D16*
G36*
X67630000Y-113118000D02*
G01*
X63080000Y-113118000D01*
X63080000Y-111418000D01*
X67630000Y-111418000D01*
X67630000Y-113118000D01*
G37*
G36*
X67630000Y-110578000D02*
G01*
X63080000Y-110578000D01*
X63080000Y-108878000D01*
X67630000Y-108878000D01*
X67630000Y-110578000D01*
G37*
G36*
X67630000Y-108038000D02*
G01*
X63080000Y-108038000D01*
X63080000Y-106338000D01*
X67630000Y-106338000D01*
X67630000Y-108038000D01*
G37*
G36*
X67630000Y-105498000D02*
G01*
X63080000Y-105498000D01*
X63080000Y-103798000D01*
X67630000Y-103798000D01*
X67630000Y-105498000D01*
G37*
G36*
X67630000Y-102958000D02*
G01*
X63080000Y-102958000D01*
X63080000Y-101258000D01*
X67630000Y-101258000D01*
X67630000Y-102958000D01*
G37*
G36*
X61380000Y-102958000D02*
G01*
X56830000Y-102958000D01*
X56830000Y-101258000D01*
X61380000Y-101258000D01*
X61380000Y-102958000D01*
G37*
G36*
X61380000Y-105498000D02*
G01*
X56830000Y-105498000D01*
X56830000Y-103798000D01*
X61380000Y-103798000D01*
X61380000Y-105498000D01*
G37*
G36*
X61380000Y-113118000D02*
G01*
X56830000Y-113118000D01*
X56830000Y-111418000D01*
X61380000Y-111418000D01*
X61380000Y-113118000D01*
G37*
G36*
X61380000Y-110578000D02*
G01*
X56830000Y-110578000D01*
X56830000Y-108878000D01*
X61380000Y-108878000D01*
X61380000Y-110578000D01*
G37*
G36*
X61380000Y-108038000D02*
G01*
X56830000Y-108038000D01*
X56830000Y-106338000D01*
X61380000Y-106338000D01*
X61380000Y-108038000D01*
G37*
G36*
X94472760Y-91433650D02*
G01*
X93972380Y-92182950D01*
X92971620Y-92182950D01*
X92471240Y-91433650D01*
X94472760Y-91433650D01*
G37*
D17*
X93472000Y-89458800D03*
D18*
X94973140Y-93411040D03*
X93472000Y-93411040D03*
X91970860Y-93411040D03*
D19*
X111760000Y-106299000D03*
X103886000Y-106299000D03*
X111760000Y-114300000D03*
X103886000Y-114300000D03*
D20*
X75565000Y-109524800D03*
X76581000Y-109524800D03*
X75565000Y-112064800D03*
X76581000Y-112064800D03*
X108585000Y-99441000D03*
X109601000Y-99441000D03*
X79375000Y-98552000D03*
X78359000Y-98552000D03*
X76581000Y-91757500D03*
X75565000Y-91757500D03*
X76581000Y-96837500D03*
X75565000Y-96837500D03*
D21*
X84709000Y-105029000D03*
X84709000Y-106045000D03*
X86995000Y-105029000D03*
X86995000Y-106045000D03*
X90678000Y-96393000D03*
X90678000Y-95377000D03*
X91948000Y-98552000D03*
X91948000Y-99568000D03*
D22*
X86680040Y-110073440D03*
X88582500Y-110073440D03*
X87627460Y-107863640D03*
X84896960Y-107858560D03*
X82994500Y-107858560D03*
X83949540Y-110068360D03*
D23*
X79667000Y-101262000D03*
X78067000Y-103462000D03*
X79667000Y-103462000D03*
X78067000Y-101262000D03*
D24*
X102362000Y-138430000D03*
X100838000Y-138430000D03*
D25*
X93888560Y-95951040D03*
X93888560Y-97853500D03*
X96098360Y-96898460D03*
D22*
X95818960Y-99857560D03*
X93916500Y-99857560D03*
X94871540Y-102067360D03*
D21*
X103886000Y-109093000D03*
X103886000Y-108077000D03*
D26*
X68961000Y-112268000D03*
X68961000Y-114046000D03*
D20*
X103378000Y-91948000D03*
X102362000Y-91948000D03*
D26*
X75692000Y-99695000D03*
X75692000Y-101473000D03*
D20*
X109601000Y-98298000D03*
X108585000Y-98298000D03*
D26*
X110998000Y-97155000D03*
X110998000Y-95377000D03*
X91948000Y-95377000D03*
X91948000Y-97155000D03*
D20*
X78359000Y-105156000D03*
X79375000Y-105156000D03*
X79375000Y-99695000D03*
X78359000Y-99695000D03*
D26*
X91821000Y-87884000D03*
X90043000Y-87884000D03*
M02*
