G04 #@! TF.GenerationSoftware,KiCad,Pcbnew,5.1.5+dfsg1-2build2*
G04 #@! TF.CreationDate,2021-07-09T11:51:46+03:00*
G04 #@! TF.ProjectId,STM32WL-DevKit_RevB,53544d33-3257-44c2-9d44-65764b69745f,rev?*
G04 #@! TF.SameCoordinates,Original*
G04 #@! TF.FileFunction,Legend,Top*
G04 #@! TF.FilePolarity,Positive*
%FSLAX46Y46*%
G04 Gerber Fmt 4.6, Leading zero omitted, Abs format (unit mm)*
G04 Created by KiCad (PCBNEW 5.1.5+dfsg1-2build2) date 2021-07-09 11:51:46*
%MOMM*%
%LPD*%
G04 APERTURE LIST*
%ADD10C,0.158750*%
%ADD11C,0.150000*%
%ADD12C,0.400000*%
%ADD13C,0.160000*%
%ADD14C,0.254000*%
%ADD15C,0.209550*%
%ADD16C,0.349250*%
%ADD17C,0.120000*%
%ADD18C,0.508000*%
%ADD19C,0.050000*%
%ADD20C,0.100000*%
%ADD21C,0.127000*%
%ADD22C,0.700000*%
%ADD23C,0.500000*%
%ADD24C,0.152400*%
G04 APERTURE END LIST*
D10*
X80980642Y-105011461D02*
X80920166Y-104981223D01*
X80889928Y-104950985D01*
X80859690Y-104890509D01*
X80859690Y-104709080D01*
X80889928Y-104648604D01*
X80920166Y-104618366D01*
X80980642Y-104588128D01*
X81071357Y-104588128D01*
X81131833Y-104618366D01*
X81162071Y-104648604D01*
X81192309Y-104709080D01*
X81192309Y-104890509D01*
X81162071Y-104950985D01*
X81131833Y-104981223D01*
X81071357Y-105011461D01*
X80980642Y-105011461D01*
D11*
X65310000Y-140912857D02*
X65424285Y-140950952D01*
X65462380Y-140989047D01*
X65500476Y-141065238D01*
X65500476Y-141179523D01*
X65462380Y-141255714D01*
X65424285Y-141293809D01*
X65348095Y-141331904D01*
X65043333Y-141331904D01*
X65043333Y-140531904D01*
X65310000Y-140531904D01*
X65386190Y-140570000D01*
X65424285Y-140608095D01*
X65462380Y-140684285D01*
X65462380Y-140760476D01*
X65424285Y-140836666D01*
X65386190Y-140874761D01*
X65310000Y-140912857D01*
X65043333Y-140912857D01*
X65805238Y-141103333D02*
X66186190Y-141103333D01*
X65729047Y-141331904D02*
X65995714Y-140531904D01*
X66262380Y-141331904D01*
X66414761Y-140531904D02*
X66871904Y-140531904D01*
X66643333Y-141331904D02*
X66643333Y-140531904D01*
X67024285Y-140531904D02*
X67481428Y-140531904D01*
X67252857Y-141331904D02*
X67252857Y-140531904D01*
X67748095Y-140912857D02*
X68014761Y-140912857D01*
X68129047Y-141331904D02*
X67748095Y-141331904D01*
X67748095Y-140531904D01*
X68129047Y-140531904D01*
X68929047Y-141331904D02*
X68662380Y-140950952D01*
X68471904Y-141331904D02*
X68471904Y-140531904D01*
X68776666Y-140531904D01*
X68852857Y-140570000D01*
X68890952Y-140608095D01*
X68929047Y-140684285D01*
X68929047Y-140798571D01*
X68890952Y-140874761D01*
X68852857Y-140912857D01*
X68776666Y-140950952D01*
X68471904Y-140950952D01*
X69424285Y-140950952D02*
X69424285Y-141331904D01*
X69157619Y-140531904D02*
X69424285Y-140950952D01*
X69690952Y-140531904D01*
D12*
X75438000Y-141351000D02*
X76962000Y-141351000D01*
D13*
X76200000Y-140208000D02*
X76200000Y-141351000D01*
D11*
X88576190Y-140912857D02*
X88690476Y-140950952D01*
X88728571Y-140989047D01*
X88766666Y-141065238D01*
X88766666Y-141179523D01*
X88728571Y-141255714D01*
X88690476Y-141293809D01*
X88614285Y-141331904D01*
X88309523Y-141331904D01*
X88309523Y-140531904D01*
X88576190Y-140531904D01*
X88652380Y-140570000D01*
X88690476Y-140608095D01*
X88728571Y-140684285D01*
X88728571Y-140760476D01*
X88690476Y-140836666D01*
X88652380Y-140874761D01*
X88576190Y-140912857D01*
X88309523Y-140912857D01*
X89452380Y-140798571D02*
X89452380Y-141331904D01*
X89261904Y-140493809D02*
X89071428Y-141065238D01*
X89566666Y-141065238D01*
X85788571Y-141103333D02*
X86169523Y-141103333D01*
X85712380Y-141331904D02*
X85979047Y-140531904D01*
X86245714Y-141331904D01*
X86664761Y-140531904D02*
X86740952Y-140531904D01*
X86817142Y-140570000D01*
X86855238Y-140608095D01*
X86893333Y-140684285D01*
X86931428Y-140836666D01*
X86931428Y-141027142D01*
X86893333Y-141179523D01*
X86855238Y-141255714D01*
X86817142Y-141293809D01*
X86740952Y-141331904D01*
X86664761Y-141331904D01*
X86588571Y-141293809D01*
X86550476Y-141255714D01*
X86512380Y-141179523D01*
X86474285Y-141027142D01*
X86474285Y-140836666D01*
X86512380Y-140684285D01*
X86550476Y-140608095D01*
X86588571Y-140570000D01*
X86664761Y-140531904D01*
X83248571Y-141103333D02*
X83629523Y-141103333D01*
X83172380Y-141331904D02*
X83439047Y-140531904D01*
X83705714Y-141331904D01*
X84391428Y-141331904D02*
X83934285Y-141331904D01*
X84162857Y-141331904D02*
X84162857Y-140531904D01*
X84086666Y-140646190D01*
X84010476Y-140722380D01*
X83934285Y-140760476D01*
X80575238Y-140912857D02*
X80689523Y-140950952D01*
X80727619Y-140989047D01*
X80765714Y-141065238D01*
X80765714Y-141179523D01*
X80727619Y-141255714D01*
X80689523Y-141293809D01*
X80613333Y-141331904D01*
X80308571Y-141331904D01*
X80308571Y-140531904D01*
X80575238Y-140531904D01*
X80651428Y-140570000D01*
X80689523Y-140608095D01*
X80727619Y-140684285D01*
X80727619Y-140760476D01*
X80689523Y-140836666D01*
X80651428Y-140874761D01*
X80575238Y-140912857D01*
X80308571Y-140912857D01*
X81527619Y-141331904D02*
X81070476Y-141331904D01*
X81299047Y-141331904D02*
X81299047Y-140531904D01*
X81222857Y-140646190D01*
X81146666Y-140722380D01*
X81070476Y-140760476D01*
X81832380Y-140608095D02*
X81870476Y-140570000D01*
X81946666Y-140531904D01*
X82137142Y-140531904D01*
X82213333Y-140570000D01*
X82251428Y-140608095D01*
X82289523Y-140684285D01*
X82289523Y-140760476D01*
X82251428Y-140874761D01*
X81794285Y-141331904D01*
X82289523Y-141331904D01*
X78168571Y-141103333D02*
X78549523Y-141103333D01*
X78092380Y-141331904D02*
X78359047Y-140531904D01*
X78625714Y-141331904D01*
X79235238Y-140531904D02*
X79082857Y-140531904D01*
X79006666Y-140570000D01*
X78968571Y-140608095D01*
X78892380Y-140722380D01*
X78854285Y-140874761D01*
X78854285Y-141179523D01*
X78892380Y-141255714D01*
X78930476Y-141293809D01*
X79006666Y-141331904D01*
X79159047Y-141331904D01*
X79235238Y-141293809D01*
X79273333Y-141255714D01*
X79311428Y-141179523D01*
X79311428Y-140989047D01*
X79273333Y-140912857D01*
X79235238Y-140874761D01*
X79159047Y-140836666D01*
X79006666Y-140836666D01*
X78930476Y-140874761D01*
X78892380Y-140912857D01*
X78854285Y-140989047D01*
X73279047Y-141041428D02*
X74040952Y-141041428D01*
X73660000Y-141422380D02*
X73660000Y-140660476D01*
D14*
X72390000Y-137414000D02*
X72390000Y-142113000D01*
D11*
X96781904Y-140470000D02*
X96686666Y-140422380D01*
X96543809Y-140422380D01*
X96400952Y-140470000D01*
X96305714Y-140565238D01*
X96258095Y-140660476D01*
X96210476Y-140850952D01*
X96210476Y-140993809D01*
X96258095Y-141184285D01*
X96305714Y-141279523D01*
X96400952Y-141374761D01*
X96543809Y-141422380D01*
X96639047Y-141422380D01*
X96781904Y-141374761D01*
X96829523Y-141327142D01*
X96829523Y-140993809D01*
X96639047Y-140993809D01*
X91749523Y-141327142D02*
X91701904Y-141374761D01*
X91559047Y-141422380D01*
X91463809Y-141422380D01*
X91320952Y-141374761D01*
X91225714Y-141279523D01*
X91178095Y-141184285D01*
X91130476Y-140993809D01*
X91130476Y-140850952D01*
X91178095Y-140660476D01*
X91225714Y-140565238D01*
X91320952Y-140470000D01*
X91463809Y-140422380D01*
X91559047Y-140422380D01*
X91701904Y-140470000D01*
X91749523Y-140517619D01*
X93718095Y-141422380D02*
X93718095Y-140422380D01*
X93956190Y-140422380D01*
X94099047Y-140470000D01*
X94194285Y-140565238D01*
X94241904Y-140660476D01*
X94289523Y-140850952D01*
X94289523Y-140993809D01*
X94241904Y-141184285D01*
X94194285Y-141279523D01*
X94099047Y-141374761D01*
X93956190Y-141422380D01*
X93718095Y-141422380D01*
D14*
X97790000Y-137541000D02*
X97790000Y-142113000D01*
X90170000Y-137414000D02*
X90170000Y-142113000D01*
D11*
X105561095Y-103052571D02*
X105703952Y-103100190D01*
X105751571Y-103147809D01*
X105799190Y-103243047D01*
X105799190Y-103385904D01*
X105751571Y-103481142D01*
X105703952Y-103528761D01*
X105608714Y-103576380D01*
X105227761Y-103576380D01*
X105227761Y-102576380D01*
X105561095Y-102576380D01*
X105656333Y-102624000D01*
X105703952Y-102671619D01*
X105751571Y-102766857D01*
X105751571Y-102862095D01*
X105703952Y-102957333D01*
X105656333Y-103004952D01*
X105561095Y-103052571D01*
X105227761Y-103052571D01*
X106227761Y-102576380D02*
X106227761Y-103385904D01*
X106275380Y-103481142D01*
X106323000Y-103528761D01*
X106418238Y-103576380D01*
X106608714Y-103576380D01*
X106703952Y-103528761D01*
X106751571Y-103481142D01*
X106799190Y-103385904D01*
X106799190Y-102576380D01*
X107132523Y-102576380D02*
X107703952Y-102576380D01*
X107418238Y-103576380D02*
X107418238Y-102576380D01*
X107894428Y-102576380D02*
X108465857Y-102576380D01*
X108180142Y-103576380D02*
X108180142Y-102576380D01*
X108989666Y-102576380D02*
X109180142Y-102576380D01*
X109275380Y-102624000D01*
X109370619Y-102719238D01*
X109418238Y-102909714D01*
X109418238Y-103243047D01*
X109370619Y-103433523D01*
X109275380Y-103528761D01*
X109180142Y-103576380D01*
X108989666Y-103576380D01*
X108894428Y-103528761D01*
X108799190Y-103433523D01*
X108751571Y-103243047D01*
X108751571Y-102909714D01*
X108799190Y-102719238D01*
X108894428Y-102624000D01*
X108989666Y-102576380D01*
X109846809Y-103576380D02*
X109846809Y-102576380D01*
X110418238Y-103576380D01*
X110418238Y-102576380D01*
X106497619Y-111577380D02*
X106164285Y-111101190D01*
X105926190Y-111577380D02*
X105926190Y-110577380D01*
X106307142Y-110577380D01*
X106402380Y-110625000D01*
X106450000Y-110672619D01*
X106497619Y-110767857D01*
X106497619Y-110910714D01*
X106450000Y-111005952D01*
X106402380Y-111053571D01*
X106307142Y-111101190D01*
X105926190Y-111101190D01*
X106926190Y-111053571D02*
X107259523Y-111053571D01*
X107402380Y-111577380D02*
X106926190Y-111577380D01*
X106926190Y-110577380D01*
X107402380Y-110577380D01*
X107783333Y-111529761D02*
X107926190Y-111577380D01*
X108164285Y-111577380D01*
X108259523Y-111529761D01*
X108307142Y-111482142D01*
X108354761Y-111386904D01*
X108354761Y-111291666D01*
X108307142Y-111196428D01*
X108259523Y-111148809D01*
X108164285Y-111101190D01*
X107973809Y-111053571D01*
X107878571Y-111005952D01*
X107830952Y-110958333D01*
X107783333Y-110863095D01*
X107783333Y-110767857D01*
X107830952Y-110672619D01*
X107878571Y-110625000D01*
X107973809Y-110577380D01*
X108211904Y-110577380D01*
X108354761Y-110625000D01*
X108783333Y-111053571D02*
X109116666Y-111053571D01*
X109259523Y-111577380D02*
X108783333Y-111577380D01*
X108783333Y-110577380D01*
X109259523Y-110577380D01*
X109545238Y-110577380D02*
X110116666Y-110577380D01*
X109830952Y-111577380D02*
X109830952Y-110577380D01*
D15*
X67266457Y-97472500D02*
X67226542Y-97432585D01*
X67146714Y-97312842D01*
X67106800Y-97233014D01*
X67066885Y-97113271D01*
X67026971Y-96913700D01*
X67026971Y-96754042D01*
X67066885Y-96554471D01*
X67106800Y-96434728D01*
X67146714Y-96354900D01*
X67226542Y-96235157D01*
X67266457Y-96195242D01*
X67945000Y-97113271D02*
X67865171Y-97153185D01*
X67705514Y-97153185D01*
X67625685Y-97113271D01*
X67585771Y-97073357D01*
X67545857Y-96993528D01*
X67545857Y-96754042D01*
X67585771Y-96674214D01*
X67625685Y-96634300D01*
X67705514Y-96594385D01*
X67865171Y-96594385D01*
X67945000Y-96634300D01*
X68224400Y-97472500D02*
X68264314Y-97432585D01*
X68344142Y-97312842D01*
X68384057Y-97233014D01*
X68423971Y-97113271D01*
X68463885Y-96913700D01*
X68463885Y-96754042D01*
X68423971Y-96554471D01*
X68384057Y-96434728D01*
X68344142Y-96354900D01*
X68264314Y-96235157D01*
X68224400Y-96195242D01*
X68823114Y-96394814D02*
X68863028Y-96354900D01*
X68942857Y-96314985D01*
X69142428Y-96314985D01*
X69222257Y-96354900D01*
X69262171Y-96394814D01*
X69302085Y-96474642D01*
X69302085Y-96554471D01*
X69262171Y-96674214D01*
X68783200Y-97153185D01*
X69302085Y-97153185D01*
X69820971Y-96314985D02*
X69900800Y-96314985D01*
X69980628Y-96354900D01*
X70020542Y-96394814D01*
X70060457Y-96474642D01*
X70100371Y-96634300D01*
X70100371Y-96833871D01*
X70060457Y-96993528D01*
X70020542Y-97073357D01*
X69980628Y-97113271D01*
X69900800Y-97153185D01*
X69820971Y-97153185D01*
X69741142Y-97113271D01*
X69701228Y-97073357D01*
X69661314Y-96993528D01*
X69621400Y-96833871D01*
X69621400Y-96634300D01*
X69661314Y-96474642D01*
X69701228Y-96394814D01*
X69741142Y-96354900D01*
X69820971Y-96314985D01*
X70419685Y-96394814D02*
X70459600Y-96354900D01*
X70539428Y-96314985D01*
X70739000Y-96314985D01*
X70818828Y-96354900D01*
X70858742Y-96394814D01*
X70898657Y-96474642D01*
X70898657Y-96554471D01*
X70858742Y-96674214D01*
X70379771Y-97153185D01*
X70898657Y-97153185D01*
X71696942Y-97153185D02*
X71217971Y-97153185D01*
X71457457Y-97153185D02*
X71457457Y-96314985D01*
X71377628Y-96434728D01*
X71297800Y-96514557D01*
X71217971Y-96554471D01*
D16*
X61997166Y-88497077D02*
X62196738Y-88563601D01*
X62529357Y-88563601D01*
X62662404Y-88497077D01*
X62728928Y-88430553D01*
X62795452Y-88297505D01*
X62795452Y-88164458D01*
X62728928Y-88031410D01*
X62662404Y-87964886D01*
X62529357Y-87898363D01*
X62263261Y-87831839D01*
X62130214Y-87765315D01*
X62063690Y-87698791D01*
X61997166Y-87565744D01*
X61997166Y-87432696D01*
X62063690Y-87299648D01*
X62130214Y-87233125D01*
X62263261Y-87166601D01*
X62595880Y-87166601D01*
X62795452Y-87233125D01*
X63194595Y-87166601D02*
X63992880Y-87166601D01*
X63593738Y-88563601D02*
X63593738Y-87166601D01*
X64458547Y-88563601D02*
X64458547Y-87166601D01*
X64924214Y-88164458D01*
X65389880Y-87166601D01*
X65389880Y-88563601D01*
X65922071Y-87166601D02*
X66786880Y-87166601D01*
X66321214Y-87698791D01*
X66520785Y-87698791D01*
X66653833Y-87765315D01*
X66720357Y-87831839D01*
X66786880Y-87964886D01*
X66786880Y-88297505D01*
X66720357Y-88430553D01*
X66653833Y-88497077D01*
X66520785Y-88563601D01*
X66121642Y-88563601D01*
X65988595Y-88497077D01*
X65922071Y-88430553D01*
X67319071Y-87299648D02*
X67385595Y-87233125D01*
X67518642Y-87166601D01*
X67851261Y-87166601D01*
X67984309Y-87233125D01*
X68050833Y-87299648D01*
X68117357Y-87432696D01*
X68117357Y-87565744D01*
X68050833Y-87765315D01*
X67252547Y-88563601D01*
X68117357Y-88563601D01*
X68583023Y-87166601D02*
X68915642Y-88563601D01*
X69181738Y-87565744D01*
X69447833Y-88563601D01*
X69780452Y-87166601D01*
X70977880Y-88563601D02*
X70312642Y-88563601D01*
X70312642Y-87166601D01*
X63360904Y-91008351D02*
X63360904Y-89611351D01*
X63693523Y-89611351D01*
X63893095Y-89677875D01*
X64026142Y-89810922D01*
X64092666Y-89943970D01*
X64159190Y-90210065D01*
X64159190Y-90409636D01*
X64092666Y-90675732D01*
X64026142Y-90808779D01*
X63893095Y-90941827D01*
X63693523Y-91008351D01*
X63360904Y-91008351D01*
X65290095Y-90941827D02*
X65157047Y-91008351D01*
X64890952Y-91008351D01*
X64757904Y-90941827D01*
X64691380Y-90808779D01*
X64691380Y-90276589D01*
X64757904Y-90143541D01*
X64890952Y-90077017D01*
X65157047Y-90077017D01*
X65290095Y-90143541D01*
X65356619Y-90276589D01*
X65356619Y-90409636D01*
X64691380Y-90542684D01*
X65822285Y-90077017D02*
X66154904Y-91008351D01*
X66487523Y-90077017D01*
X67019714Y-91008351D02*
X67019714Y-89611351D01*
X67818000Y-91008351D02*
X67219285Y-90210065D01*
X67818000Y-89611351D02*
X67019714Y-90409636D01*
X68416714Y-91008351D02*
X68416714Y-89611351D01*
X68882380Y-89611351D02*
X69680666Y-89611351D01*
X69281523Y-91008351D02*
X69281523Y-89611351D01*
D14*
X87818400Y-102785600D02*
X87818400Y-99585600D01*
X92318400Y-102785600D02*
X87818400Y-102785600D01*
X92318400Y-99585600D02*
X92318400Y-102785600D01*
X87818400Y-99585600D02*
X92318400Y-99585600D01*
D17*
X80715200Y-99121400D02*
X80715200Y-98571400D01*
X80715200Y-98571400D02*
X81265200Y-98571400D01*
X86315200Y-99121400D02*
X86315200Y-98571400D01*
X86315200Y-98571400D02*
X85765200Y-98571400D01*
X86315200Y-103621400D02*
X86315200Y-104171400D01*
X86315200Y-104171400D02*
X85765200Y-104171400D01*
X80715200Y-103621400D02*
X80715200Y-104321400D01*
D11*
X111315500Y-95885000D02*
X111315500Y-95631000D01*
X111315500Y-95885000D02*
X111315500Y-96139000D01*
X112204500Y-95885000D02*
X112204500Y-96139000D01*
X112204500Y-95885000D02*
X112204500Y-95631000D01*
X95722440Y-89758520D02*
X95072200Y-89758520D01*
X95722440Y-89758520D02*
X95722440Y-91559380D01*
X91221560Y-89758520D02*
X91871800Y-89758520D01*
X91221560Y-89758520D02*
X91221560Y-91559380D01*
X91922600Y-90810080D02*
X91922600Y-91658440D01*
X91821000Y-90959940D02*
X91922600Y-90810080D01*
X91572080Y-91259660D02*
X91821000Y-90959940D01*
D14*
X87884000Y-86106000D02*
X87503000Y-87122000D01*
X79756000Y-86106000D02*
X80137000Y-87122000D01*
X80120000Y-91635000D02*
X80120000Y-90435000D01*
X87520000Y-87135000D02*
X87520000Y-88135000D01*
X79756000Y-86035000D02*
X87884000Y-86035000D01*
X80120000Y-88135000D02*
X80120000Y-87135000D01*
X81020000Y-93135000D02*
X82020000Y-93135000D01*
X85620000Y-93135000D02*
X86620000Y-93135000D01*
X87520000Y-91635000D02*
X87520000Y-90435000D01*
X80120000Y-87135000D02*
X87520000Y-87135000D01*
D11*
X91945800Y-96765400D02*
X94845800Y-96765400D01*
X94845800Y-98865400D02*
X91945800Y-98865400D01*
X92786200Y-96799400D02*
X92786200Y-98831400D01*
X93040200Y-96799400D02*
X93040200Y-98780600D01*
D14*
X92608400Y-102082600D02*
X93319600Y-102082600D01*
X92608400Y-101244400D02*
X92608400Y-102082600D01*
X95453200Y-101244400D02*
X95453200Y-102082600D01*
X94742000Y-102082600D02*
X95453200Y-102082600D01*
D18*
X64770000Y-139700000D02*
X64770000Y-137160000D01*
X69850000Y-139700000D02*
X64770000Y-139700000D01*
X69850000Y-137160000D02*
X69850000Y-139700000D01*
X64770000Y-137160000D02*
X69850000Y-137160000D01*
D14*
X99009200Y-139954000D02*
X100050600Y-139954000D01*
X99936300Y-140119100D02*
X99110800Y-140119100D01*
X98971100Y-139966700D02*
X99098100Y-140106400D01*
X100063300Y-139966700D02*
X99936300Y-140119100D01*
D19*
X99267200Y-138527800D02*
X99157200Y-138397800D01*
X99137200Y-138387800D02*
X99147200Y-138467800D01*
X99137200Y-138387800D02*
X99217200Y-138387800D01*
X99137200Y-138603200D02*
X99217200Y-138603200D01*
X99137200Y-138603200D02*
X99147200Y-138683200D01*
X99246200Y-138734800D02*
X99136200Y-138604800D01*
D20*
X99601800Y-138657000D02*
X99381800Y-138657000D01*
X99381800Y-138467000D02*
X99481800Y-138567000D01*
X99601800Y-138467000D02*
X99501800Y-138577000D01*
X99601800Y-138467000D02*
X99381800Y-138467000D01*
X99491800Y-138297000D02*
X99491800Y-138817000D01*
D21*
X100126800Y-138938000D02*
X100126800Y-139954000D01*
X98907600Y-139954000D02*
X98907600Y-138938000D01*
D14*
X100507800Y-139954000D02*
X101549200Y-139954000D01*
X101434900Y-140119100D02*
X100609400Y-140119100D01*
X100469700Y-139966700D02*
X100596700Y-140106400D01*
X101561900Y-139966700D02*
X101434900Y-140119100D01*
D19*
X100765800Y-138527800D02*
X100655800Y-138397800D01*
X100635800Y-138387800D02*
X100645800Y-138467800D01*
X100635800Y-138387800D02*
X100715800Y-138387800D01*
X100635800Y-138603200D02*
X100715800Y-138603200D01*
X100635800Y-138603200D02*
X100645800Y-138683200D01*
X100744800Y-138734800D02*
X100634800Y-138604800D01*
D20*
X101100400Y-138657000D02*
X100880400Y-138657000D01*
X100880400Y-138467000D02*
X100980400Y-138567000D01*
X101100400Y-138467000D02*
X101000400Y-138577000D01*
X101100400Y-138467000D02*
X100880400Y-138467000D01*
X100990400Y-138297000D02*
X100990400Y-138817000D01*
D21*
X101625400Y-138938000D02*
X101625400Y-139954000D01*
X100406200Y-139954000D02*
X100406200Y-138938000D01*
D14*
X101981000Y-139954000D02*
X103022400Y-139954000D01*
X102908100Y-140119100D02*
X102082600Y-140119100D01*
X101942900Y-139966700D02*
X102069900Y-140106400D01*
X103035100Y-139966700D02*
X102908100Y-140119100D01*
D19*
X102239000Y-138527800D02*
X102129000Y-138397800D01*
X102109000Y-138387800D02*
X102119000Y-138467800D01*
X102109000Y-138387800D02*
X102189000Y-138387800D01*
X102109000Y-138603200D02*
X102189000Y-138603200D01*
X102109000Y-138603200D02*
X102119000Y-138683200D01*
X102218000Y-138734800D02*
X102108000Y-138604800D01*
D20*
X102573600Y-138657000D02*
X102353600Y-138657000D01*
X102353600Y-138467000D02*
X102453600Y-138567000D01*
X102573600Y-138467000D02*
X102473600Y-138577000D01*
X102573600Y-138467000D02*
X102353600Y-138467000D01*
X102463600Y-138297000D02*
X102463600Y-138817000D01*
D21*
X103098600Y-138938000D02*
X103098600Y-139954000D01*
X101879400Y-139954000D02*
X101879400Y-138938000D01*
D20*
X78816200Y-103847900D02*
X79324200Y-103847900D01*
X79324200Y-102958900D02*
X78816200Y-102958900D01*
X90081100Y-96570800D02*
X90081100Y-96062800D01*
X89192100Y-96062800D02*
X89192100Y-96570800D01*
X90081100Y-98450400D02*
X90081100Y-97942400D01*
X89192100Y-97942400D02*
X89192100Y-98450400D01*
X81191100Y-96672400D02*
X81191100Y-97180400D01*
X82080100Y-97180400D02*
X82080100Y-96672400D01*
X83070700Y-96672400D02*
X83070700Y-97180400D01*
X83959700Y-97180400D02*
X83959700Y-96672400D01*
X82105500Y-96672400D02*
X82105500Y-97180400D01*
X82994500Y-97180400D02*
X82994500Y-96672400D01*
X83007200Y-109029500D02*
X83515200Y-109029500D01*
X83515200Y-108140500D02*
X83007200Y-108140500D01*
X79349600Y-99021900D02*
X78841600Y-99021900D01*
X78841600Y-99910900D02*
X79349600Y-99910900D01*
X79324200Y-99961700D02*
X78816200Y-99961700D01*
X78816200Y-100850700D02*
X79324200Y-100850700D01*
X79324200Y-100876100D02*
X78816200Y-100876100D01*
X78816200Y-101765100D02*
X79324200Y-101765100D01*
X78790800Y-102933500D02*
X79298800Y-102933500D01*
X79298800Y-102044500D02*
X78790800Y-102044500D01*
D11*
X86017100Y-96977200D02*
X86017100Y-97231200D01*
X86017100Y-96977200D02*
X86017100Y-96723200D01*
X85128100Y-96977200D02*
X85128100Y-96723200D01*
X85128100Y-96977200D02*
X85128100Y-97231200D01*
X83324700Y-105943400D02*
X83324700Y-105689400D01*
X83324700Y-105943400D02*
X83324700Y-106197400D01*
X84213700Y-105943400D02*
X84213700Y-106197400D01*
X84213700Y-105943400D02*
X84213700Y-105689400D01*
D14*
X94640400Y-96621600D02*
X93624400Y-96621600D01*
X94640400Y-95097600D02*
X93624400Y-95097600D01*
D11*
X83261200Y-108013501D02*
X83007200Y-108013501D01*
X83261200Y-108013501D02*
X83515200Y-108013501D01*
X83261200Y-107124501D02*
X83515200Y-107124501D01*
X83261200Y-107124501D02*
X83007200Y-107124501D01*
D14*
X89814400Y-87477600D02*
X90830400Y-87477600D01*
X89814400Y-89001600D02*
X90830400Y-89001600D01*
D11*
X81318100Y-105943400D02*
X81318100Y-105689400D01*
X81318100Y-105943400D02*
X81318100Y-106197400D01*
X82207100Y-105943400D02*
X82207100Y-106197400D01*
X82207100Y-105943400D02*
X82207100Y-105689400D01*
X72054000Y-118420000D02*
X72054000Y-86670000D01*
X99994000Y-118420000D02*
X72054000Y-118420000D01*
X99994000Y-86670000D02*
X99994000Y-118420000D01*
X72054000Y-86670000D02*
X99994000Y-86670000D01*
D12*
X55849147Y-93726000D02*
G75*
G03X55849147Y-93726000I-337447J0D01*
G01*
D22*
X55499000Y-92951300D02*
X56007000Y-92443300D01*
X57099200Y-92367100D02*
X57734200Y-92976700D01*
X57708800Y-94932500D02*
X57150000Y-95516700D01*
X59334400Y-95529400D02*
X58877200Y-95072200D01*
X60320200Y-95529400D02*
X59334400Y-95529400D01*
D12*
X61199324Y-95504000D02*
G75*
G03X61199324Y-95504000I-366324J0D01*
G01*
D22*
X60833000Y-92811600D02*
X60833000Y-94411800D01*
D12*
X61219218Y-92278200D02*
G75*
G03X61219218Y-92278200I-373518J0D01*
G01*
X62424559Y-95478600D02*
G75*
G03X62424559Y-95478600I-359659J0D01*
G01*
D22*
X62052200Y-94970600D02*
X62052200Y-92379800D01*
X62052200Y-92379800D02*
X62890400Y-92379800D01*
X62890400Y-92379800D02*
X63500000Y-92887800D01*
X63601600Y-93675200D02*
X63601600Y-92964000D01*
X63677800Y-92887800D02*
X64312800Y-92379800D01*
D12*
X63972518Y-94208600D02*
G75*
G03X63972518Y-94208600I-370918J0D01*
G01*
D22*
X64312800Y-92379800D02*
X65201800Y-92379800D01*
D12*
X65577729Y-95491300D02*
G75*
G03X65577729Y-95491300I-363229J0D01*
G01*
X71373266Y-95580200D02*
G75*
G03X71373266Y-95580200I-329466J0D01*
G01*
D22*
X70713600Y-95224600D02*
X69875400Y-94411800D01*
D23*
X69367400Y-94310200D02*
X69900800Y-94310200D01*
D22*
X68224400Y-95529400D02*
X69367400Y-94411800D01*
X66903600Y-95529400D02*
X68224400Y-95529400D01*
X66471800Y-95097600D02*
X66903600Y-95529400D01*
X66471800Y-92862400D02*
X66471800Y-95097600D01*
X66471800Y-92837000D02*
X66954400Y-92329000D01*
X67002500Y-92354400D02*
X68224400Y-92354400D01*
X68224400Y-92354400D02*
X69316600Y-93421200D01*
D23*
X69342000Y-93535500D02*
X69900800Y-93535500D01*
D22*
X70764400Y-92544900D02*
X69900800Y-93438600D01*
D12*
X71492135Y-92189300D02*
G75*
G03X71492135Y-92189300I-359435J0D01*
G01*
D22*
X67691000Y-93929200D02*
X66471800Y-93929200D01*
D12*
X68558659Y-93929200D02*
G75*
G03X68558659Y-93929200I-359659J0D01*
G01*
D22*
X56070500Y-95542100D02*
X57111900Y-95542100D01*
X55511700Y-94983300D02*
X55511700Y-94221300D01*
X55499000Y-94970600D02*
X56083200Y-95542100D01*
X55499000Y-93002100D02*
X55499000Y-93243400D01*
X57721500Y-92964000D02*
X57721500Y-94894400D01*
X57099200Y-92354400D02*
X56095900Y-92354400D01*
X65214500Y-92367100D02*
X65214500Y-94970600D01*
X58877200Y-95084900D02*
X58877200Y-92354400D01*
D20*
X58877200Y-92011500D02*
X58597800Y-92011500D01*
X58572400Y-92011500D02*
X58572400Y-95161100D01*
X58585100Y-92011500D02*
X58572400Y-92011500D01*
X58597800Y-92011500D02*
X58585100Y-92011500D01*
X58712100Y-92100400D02*
X58648600Y-92087700D01*
X59194700Y-92011500D02*
X59194700Y-95046800D01*
X58889900Y-92011500D02*
X59194700Y-92011500D01*
X59016900Y-92087700D02*
X59131200Y-92087700D01*
X60515500Y-92697300D02*
X60515500Y-94716600D01*
X61150500Y-94716600D02*
X61150500Y-92697300D01*
X61125100Y-94716600D02*
X61150500Y-94716600D01*
X60515500Y-94716600D02*
X61125100Y-94716600D01*
X60655200Y-94653100D02*
X60591700Y-94653100D01*
X60998100Y-94653100D02*
X61087000Y-94653100D01*
X61734700Y-95059500D02*
X61734700Y-92075000D01*
X62979300Y-92062300D02*
X63563500Y-92544900D01*
X61734700Y-92062300D02*
X62979300Y-92062300D01*
X61887100Y-92125800D02*
X61810900Y-92125800D01*
X65544700Y-95084900D02*
X65544700Y-92075000D01*
X64223900Y-92062300D02*
X63601600Y-92557600D01*
X64249300Y-92062300D02*
X64223900Y-92062300D01*
X65544700Y-92062300D02*
X64249300Y-92062300D01*
X65544700Y-92075000D02*
X65544700Y-92062300D01*
X65392300Y-92138500D02*
X65493900Y-92138500D01*
X68338700Y-92024200D02*
X69596000Y-93268800D01*
X68287900Y-92024200D02*
X68338700Y-92024200D01*
X66916300Y-92024200D02*
X68287900Y-92024200D01*
D11*
X107839000Y-94889000D02*
X107589000Y-95139000D01*
X110089000Y-94889000D02*
X107589000Y-94889000D01*
X110089000Y-97389000D02*
X110089000Y-94889000D01*
X107589000Y-97389000D02*
X110089000Y-97389000D01*
X107589000Y-94889000D02*
X107589000Y-97389000D01*
D20*
X100965000Y-96012000D02*
X100965000Y-93218000D01*
X103759000Y-96012000D02*
X100965000Y-96012000D01*
X103759000Y-93218000D02*
X103759000Y-96012000D01*
X100965000Y-93218000D02*
X103759000Y-93218000D01*
X104140000Y-93345000D02*
X103886000Y-93345000D01*
X104140000Y-93599000D02*
X104140000Y-93345000D01*
X103886000Y-93599000D02*
X104140000Y-93599000D01*
X103886000Y-93345000D02*
X103886000Y-93599000D01*
D14*
X58928000Y-98552000D02*
X58928000Y-98044000D01*
X65532000Y-98425000D02*
X65532000Y-98171000D01*
X65532000Y-115824000D02*
X65532000Y-116205000D01*
X58928000Y-115824000D02*
X58928000Y-116205000D01*
X59055000Y-116078000D02*
X59055000Y-113538000D01*
X59055000Y-100838000D02*
X59055000Y-98298000D01*
X65405000Y-98298000D02*
X59055000Y-98298000D01*
X59055000Y-116078000D02*
X65405000Y-116078000D01*
X57785000Y-117348000D02*
X57785000Y-116078000D01*
X66675000Y-97028000D02*
X66675000Y-100838000D01*
X66675000Y-97028000D02*
X57785000Y-97028000D01*
X57785000Y-117348000D02*
X66675000Y-117348000D01*
X65405000Y-98298000D02*
X65405000Y-100838000D01*
X65405000Y-113538000D02*
X65405000Y-116078000D01*
X57785000Y-98298000D02*
X57531000Y-98298000D01*
X57531000Y-98298000D02*
X57531000Y-99568000D01*
X57785000Y-99568000D02*
X57531000Y-99568000D01*
X57785000Y-98298000D02*
X57785000Y-97028000D01*
X57785000Y-100838000D02*
X57785000Y-99568000D01*
X57531000Y-114808000D02*
X57531000Y-116078000D01*
X57531000Y-116078000D02*
X57785000Y-116078000D01*
X57531000Y-114808000D02*
X57785000Y-114808000D01*
X57785000Y-114808000D02*
X57785000Y-113538000D01*
X65659000Y-100838000D02*
X65659000Y-98044000D01*
X65659000Y-98044000D02*
X58801000Y-98044000D01*
X58801000Y-98044000D02*
X58801000Y-100838000D01*
X58801000Y-113538000D02*
X58801000Y-116332000D01*
X58801000Y-116332000D02*
X65659000Y-116332000D01*
X65659000Y-116332000D02*
X65659000Y-113538000D01*
X66675000Y-113538000D02*
X66675000Y-117348000D01*
X59055000Y-100838000D02*
X58801000Y-100838000D01*
X65659000Y-100838000D02*
X65405000Y-100838000D01*
X65659000Y-113538000D02*
X65405000Y-113538000D01*
X59055000Y-113538000D02*
X58801000Y-113538000D01*
X106523000Y-106899000D02*
X106523000Y-105699000D01*
X106523000Y-105699000D02*
X109123000Y-105699000D01*
X109123000Y-106899000D02*
X109123000Y-105699000D01*
X106523000Y-106899000D02*
X109123000Y-106899000D01*
X110723000Y-104199000D02*
X104923000Y-104199000D01*
X110723000Y-108399000D02*
X110723000Y-104199000D01*
X104923000Y-108399000D02*
X110723000Y-108399000D01*
X104923000Y-104199000D02*
X104923000Y-108399000D01*
X106523000Y-114900000D02*
X106523000Y-113700000D01*
X106523000Y-113700000D02*
X109123000Y-113700000D01*
X109123000Y-114900000D02*
X109123000Y-113700000D01*
X106523000Y-114900000D02*
X109123000Y-114900000D01*
X110723000Y-112200000D02*
X104923000Y-112200000D01*
X110723000Y-116400000D02*
X110723000Y-112200000D01*
X104923000Y-116400000D02*
X110723000Y-116400000D01*
X104923000Y-112200000D02*
X104923000Y-116400000D01*
D20*
X76327000Y-109080300D02*
X75819000Y-109080300D01*
X75819000Y-109969300D02*
X76327000Y-109969300D01*
X76327000Y-111620300D02*
X75819000Y-111620300D01*
X75819000Y-112509300D02*
X76327000Y-112509300D01*
D11*
X106934000Y-99441000D02*
G75*
G03X106934000Y-99441000I-2540000J0D01*
G01*
D20*
X75793600Y-97294700D02*
X76301600Y-97294700D01*
X76301600Y-96405700D02*
X75793600Y-96405700D01*
X75895200Y-92214700D02*
X76403200Y-92214700D01*
X76403200Y-91325700D02*
X75895200Y-91325700D01*
D14*
X72390000Y-137160000D02*
X72390000Y-139700000D01*
X77470000Y-139446000D02*
X77724000Y-139700000D01*
X77216000Y-139700000D02*
X77470000Y-139446000D01*
X74676000Y-139700000D02*
X72898000Y-139700000D01*
X74930000Y-139446000D02*
X74676000Y-139700000D01*
X75184000Y-139700000D02*
X74930000Y-139446000D01*
X77216000Y-139700000D02*
X75184000Y-139700000D01*
X72898000Y-139700000D02*
X72390000Y-139700000D01*
X72644000Y-139700000D02*
X72390000Y-139446000D01*
X72390000Y-137414000D02*
X72644000Y-137160000D01*
X79756000Y-139700000D02*
X77724000Y-139700000D01*
X80010000Y-139446000D02*
X79756000Y-139700000D01*
X82804000Y-139700000D02*
X82550000Y-139446000D01*
X82296000Y-139700000D02*
X80264000Y-139700000D01*
X82550000Y-139446000D02*
X82296000Y-139700000D01*
X82296000Y-137160000D02*
X82550000Y-137414000D01*
X80264000Y-137160000D02*
X82296000Y-137160000D01*
X80010000Y-137414000D02*
X80264000Y-137160000D01*
X79756000Y-137160000D02*
X80010000Y-137414000D01*
X77724000Y-137160000D02*
X79756000Y-137160000D01*
X77470000Y-137414000D02*
X77724000Y-137160000D01*
X77216000Y-137160000D02*
X77470000Y-137414000D01*
X75184000Y-137160000D02*
X77216000Y-137160000D01*
X74930000Y-137414000D02*
X75184000Y-137160000D01*
X74676000Y-137160000D02*
X74930000Y-137414000D01*
X72644000Y-137160000D02*
X74676000Y-137160000D01*
X72390000Y-137160000D02*
X72644000Y-137160000D01*
X82550000Y-137414000D02*
X82804000Y-137160000D01*
X82804000Y-137160000D02*
X84836000Y-137160000D01*
X87376000Y-137160000D02*
X87630000Y-137414000D01*
X84836000Y-139700000D02*
X82804000Y-139700000D01*
X80264000Y-139700000D02*
X80010000Y-139446000D01*
X87630000Y-139446000D02*
X87376000Y-139700000D01*
X85344000Y-137160000D02*
X87376000Y-137160000D01*
X85090000Y-137414000D02*
X85344000Y-137160000D01*
X87376000Y-139700000D02*
X85344000Y-139700000D01*
X85090000Y-139446000D02*
X84836000Y-139700000D01*
X85344000Y-139700000D02*
X85090000Y-139446000D01*
X84836000Y-137160000D02*
X85090000Y-137414000D01*
X87376000Y-137160000D02*
X87630000Y-137414000D01*
X87630000Y-139446000D02*
X87376000Y-139700000D01*
X87376000Y-139700000D02*
X85344000Y-139700000D01*
X85344000Y-137160000D02*
X87376000Y-137160000D01*
X85090000Y-137414000D02*
X85344000Y-137160000D01*
X85344000Y-139700000D02*
X85090000Y-139446000D01*
X90424000Y-139700000D02*
X90170000Y-139446000D01*
X90170000Y-137414000D02*
X90424000Y-137160000D01*
X90424000Y-137160000D02*
X92456000Y-137160000D01*
X92456000Y-139700000D02*
X90424000Y-139700000D01*
X92710000Y-139446000D02*
X92456000Y-139700000D01*
X92456000Y-137160000D02*
X92710000Y-137414000D01*
X89916000Y-137160000D02*
X90170000Y-137414000D01*
X90424000Y-139700000D02*
X90170000Y-139446000D01*
X90170000Y-139446000D02*
X89916000Y-139700000D01*
X92456000Y-139700000D02*
X90424000Y-139700000D01*
X90170000Y-137414000D02*
X90424000Y-137160000D01*
X90424000Y-137160000D02*
X92456000Y-137160000D01*
X92710000Y-139446000D02*
X92456000Y-139700000D01*
X89916000Y-139700000D02*
X87884000Y-139700000D01*
X92456000Y-137160000D02*
X92710000Y-137414000D01*
X87884000Y-137160000D02*
X89916000Y-137160000D01*
X87630000Y-137414000D02*
X87884000Y-137160000D01*
X87884000Y-139700000D02*
X87630000Y-139446000D01*
X92964000Y-139700000D02*
X92710000Y-139446000D01*
X92710000Y-137414000D02*
X92964000Y-137160000D01*
X92964000Y-137160000D02*
X94996000Y-137160000D01*
X97536000Y-137160000D02*
X97790000Y-137414000D01*
X94996000Y-139700000D02*
X92964000Y-139700000D01*
X97790000Y-139446000D02*
X97536000Y-139700000D01*
X97790000Y-137414000D02*
X97790000Y-139446000D01*
X95504000Y-137160000D02*
X97536000Y-137160000D01*
X95250000Y-137414000D02*
X95504000Y-137160000D01*
X97536000Y-139700000D02*
X95504000Y-139700000D01*
X95250000Y-139446000D02*
X94996000Y-139700000D01*
X95504000Y-139700000D02*
X95250000Y-139446000D01*
X94996000Y-137160000D02*
X95250000Y-137414000D01*
X97536000Y-137160000D02*
X97790000Y-137414000D01*
X97790000Y-139446000D02*
X97536000Y-139700000D01*
X97536000Y-139700000D02*
X95504000Y-139700000D01*
X95504000Y-137160000D02*
X97536000Y-137160000D01*
X95250000Y-137414000D02*
X95504000Y-137160000D01*
X95504000Y-139700000D02*
X95250000Y-139446000D01*
D11*
X103441500Y-108585000D02*
X103441500Y-108331000D01*
X103441500Y-108585000D02*
X103441500Y-108839000D01*
X104330500Y-108585000D02*
X104330500Y-108839000D01*
X104330500Y-108585000D02*
X104330500Y-108331000D01*
D14*
X68199000Y-113665000D02*
X68199000Y-112649000D01*
X69723000Y-113665000D02*
X69723000Y-112649000D01*
D11*
X102870000Y-92392500D02*
X102616000Y-92392500D01*
X102870000Y-92392500D02*
X103124000Y-92392500D01*
X102870000Y-91503500D02*
X103124000Y-91503500D01*
X102870000Y-91503500D02*
X102616000Y-91503500D01*
D14*
X74930000Y-101092000D02*
X74930000Y-100076000D01*
X76454000Y-101092000D02*
X76454000Y-100076000D01*
D11*
X109651800Y-99809300D02*
X109397800Y-99809300D01*
X109651800Y-99809300D02*
X109905800Y-99809300D01*
X109651800Y-98920300D02*
X109905800Y-98920300D01*
X109651800Y-98920300D02*
X109397800Y-98920300D01*
D24*
X89208428Y-102441828D02*
X89317285Y-102478114D01*
X89498714Y-102478114D01*
X89571285Y-102441828D01*
X89607571Y-102405542D01*
X89643857Y-102332971D01*
X89643857Y-102260400D01*
X89607571Y-102187828D01*
X89571285Y-102151542D01*
X89498714Y-102115257D01*
X89353571Y-102078971D01*
X89281000Y-102042685D01*
X89244714Y-102006400D01*
X89208428Y-101933828D01*
X89208428Y-101861257D01*
X89244714Y-101788685D01*
X89281000Y-101752400D01*
X89353571Y-101716114D01*
X89535000Y-101716114D01*
X89643857Y-101752400D01*
X90224428Y-102078971D02*
X90333285Y-102115257D01*
X90369571Y-102151542D01*
X90405857Y-102224114D01*
X90405857Y-102332971D01*
X90369571Y-102405542D01*
X90333285Y-102441828D01*
X90260714Y-102478114D01*
X89970428Y-102478114D01*
X89970428Y-101716114D01*
X90224428Y-101716114D01*
X90297000Y-101752400D01*
X90333285Y-101788685D01*
X90369571Y-101861257D01*
X90369571Y-101933828D01*
X90333285Y-102006400D01*
X90297000Y-102042685D01*
X90224428Y-102078971D01*
X89970428Y-102078971D01*
X91131571Y-102478114D02*
X90696142Y-102478114D01*
X90913857Y-102478114D02*
X90913857Y-101716114D01*
X90841285Y-101824971D01*
X90768714Y-101897542D01*
X90696142Y-101933828D01*
D20*
X112071114Y-97872533D02*
X112109209Y-97910628D01*
X112147304Y-98024914D01*
X112147304Y-98101104D01*
X112109209Y-98215390D01*
X112033019Y-98291580D01*
X111956828Y-98329676D01*
X111804447Y-98367771D01*
X111690161Y-98367771D01*
X111537780Y-98329676D01*
X111461590Y-98291580D01*
X111385400Y-98215390D01*
X111347304Y-98101104D01*
X111347304Y-98024914D01*
X111385400Y-97910628D01*
X111423495Y-97872533D01*
X111347304Y-97148723D02*
X111347304Y-97529676D01*
X111728257Y-97567771D01*
X111690161Y-97529676D01*
X111652066Y-97453485D01*
X111652066Y-97263009D01*
X111690161Y-97186819D01*
X111728257Y-97148723D01*
X111804447Y-97110628D01*
X111994923Y-97110628D01*
X112071114Y-97148723D01*
X112109209Y-97186819D01*
X112147304Y-97263009D01*
X112147304Y-97453485D01*
X112109209Y-97529676D01*
X112071114Y-97567771D01*
D11*
X89408095Y-91273380D02*
X89408095Y-92082904D01*
X89455714Y-92178142D01*
X89503333Y-92225761D01*
X89598571Y-92273380D01*
X89789047Y-92273380D01*
X89884285Y-92225761D01*
X89931904Y-92178142D01*
X89979523Y-92082904D01*
X89979523Y-91273380D01*
X90979523Y-92273380D02*
X90408095Y-92273380D01*
X90693809Y-92273380D02*
X90693809Y-91273380D01*
X90598571Y-91416238D01*
X90503333Y-91511476D01*
X90408095Y-91559095D01*
D24*
X85170433Y-94229766D02*
X85170433Y-94949433D01*
X85212766Y-95034100D01*
X85255100Y-95076433D01*
X85339766Y-95118766D01*
X85509100Y-95118766D01*
X85593766Y-95076433D01*
X85636100Y-95034100D01*
X85678433Y-94949433D01*
X85678433Y-94229766D01*
X86059433Y-95076433D02*
X86186433Y-95118766D01*
X86398100Y-95118766D01*
X86482766Y-95076433D01*
X86525100Y-95034100D01*
X86567433Y-94949433D01*
X86567433Y-94864766D01*
X86525100Y-94780100D01*
X86482766Y-94737766D01*
X86398100Y-94695433D01*
X86228766Y-94653100D01*
X86144100Y-94610766D01*
X86101766Y-94568433D01*
X86059433Y-94483766D01*
X86059433Y-94399100D01*
X86101766Y-94314433D01*
X86144100Y-94272100D01*
X86228766Y-94229766D01*
X86440433Y-94229766D01*
X86567433Y-94272100D01*
X87244766Y-94653100D02*
X87371766Y-94695433D01*
X87414100Y-94737766D01*
X87456433Y-94822433D01*
X87456433Y-94949433D01*
X87414100Y-95034100D01*
X87371766Y-95076433D01*
X87287100Y-95118766D01*
X86948433Y-95118766D01*
X86948433Y-94229766D01*
X87244766Y-94229766D01*
X87329433Y-94272100D01*
X87371766Y-94314433D01*
X87414100Y-94399100D01*
X87414100Y-94483766D01*
X87371766Y-94568433D01*
X87329433Y-94610766D01*
X87244766Y-94653100D01*
X86948433Y-94653100D01*
X88303100Y-95118766D02*
X87795100Y-95118766D01*
X88049100Y-95118766D02*
X88049100Y-94229766D01*
X87964433Y-94356766D01*
X87879766Y-94441433D01*
X87795100Y-94483766D01*
D21*
X85041809Y-90966333D02*
X85549809Y-90797000D01*
X85041809Y-90627666D01*
X85283714Y-90289000D02*
X85307904Y-90216428D01*
X85332095Y-90192238D01*
X85380476Y-90168047D01*
X85453047Y-90168047D01*
X85501428Y-90192238D01*
X85525619Y-90216428D01*
X85549809Y-90264809D01*
X85549809Y-90458333D01*
X85041809Y-90458333D01*
X85041809Y-90289000D01*
X85066000Y-90240619D01*
X85090190Y-90216428D01*
X85138571Y-90192238D01*
X85186952Y-90192238D01*
X85235333Y-90216428D01*
X85259523Y-90240619D01*
X85283714Y-90289000D01*
X85283714Y-90458333D01*
X85041809Y-89950333D02*
X85453047Y-89950333D01*
X85501428Y-89926142D01*
X85525619Y-89901952D01*
X85549809Y-89853571D01*
X85549809Y-89756809D01*
X85525619Y-89708428D01*
X85501428Y-89684238D01*
X85453047Y-89660047D01*
X85041809Y-89660047D01*
X85525619Y-89442333D02*
X85549809Y-89369761D01*
X85549809Y-89248809D01*
X85525619Y-89200428D01*
X85501428Y-89176238D01*
X85453047Y-89152047D01*
X85404666Y-89152047D01*
X85356285Y-89176238D01*
X85332095Y-89200428D01*
X85307904Y-89248809D01*
X85283714Y-89345571D01*
X85259523Y-89393952D01*
X85235333Y-89418142D01*
X85186952Y-89442333D01*
X85138571Y-89442333D01*
X85090190Y-89418142D01*
X85066000Y-89393952D01*
X85041809Y-89345571D01*
X85041809Y-89224619D01*
X85066000Y-89152047D01*
X84799809Y-90982523D02*
X84291809Y-90982523D01*
X84291809Y-90861571D01*
X84316000Y-90789000D01*
X84364380Y-90740619D01*
X84412761Y-90716428D01*
X84509523Y-90692238D01*
X84582095Y-90692238D01*
X84678857Y-90716428D01*
X84727238Y-90740619D01*
X84775619Y-90789000D01*
X84799809Y-90861571D01*
X84799809Y-90982523D01*
X84606285Y-90474523D02*
X84606285Y-90087476D01*
X84049809Y-90982523D02*
X83541809Y-90982523D01*
X83541809Y-90861571D01*
X83566000Y-90789000D01*
X83614380Y-90740619D01*
X83662761Y-90716428D01*
X83759523Y-90692238D01*
X83832095Y-90692238D01*
X83928857Y-90716428D01*
X83977238Y-90740619D01*
X84025619Y-90789000D01*
X84049809Y-90861571D01*
X84049809Y-90982523D01*
X83856285Y-90474523D02*
X83856285Y-90087476D01*
X84049809Y-90281000D02*
X83662761Y-90281000D01*
X83299809Y-91039000D02*
X82791809Y-91039000D01*
X83299809Y-90797095D02*
X82791809Y-90797095D01*
X82791809Y-90676142D01*
X82816000Y-90603571D01*
X82864380Y-90555190D01*
X82912761Y-90531000D01*
X83009523Y-90506809D01*
X83082095Y-90506809D01*
X83178857Y-90531000D01*
X83227238Y-90555190D01*
X83275619Y-90603571D01*
X83299809Y-90676142D01*
X83299809Y-90797095D01*
X81966000Y-90822047D02*
X81941809Y-90870428D01*
X81941809Y-90943000D01*
X81966000Y-91015571D01*
X82014380Y-91063952D01*
X82062761Y-91088142D01*
X82159523Y-91112333D01*
X82232095Y-91112333D01*
X82328857Y-91088142D01*
X82377238Y-91063952D01*
X82425619Y-91015571D01*
X82449809Y-90943000D01*
X82449809Y-90894619D01*
X82425619Y-90822047D01*
X82401428Y-90797857D01*
X82232095Y-90797857D01*
X82232095Y-90894619D01*
X82449809Y-90580142D02*
X81941809Y-90580142D01*
X82449809Y-90289857D01*
X81941809Y-90289857D01*
X82449809Y-90047952D02*
X81941809Y-90047952D01*
X81941809Y-89927000D01*
X81966000Y-89854428D01*
X82014380Y-89806047D01*
X82062761Y-89781857D01*
X82159523Y-89757666D01*
X82232095Y-89757666D01*
X82328857Y-89781857D01*
X82377238Y-89806047D01*
X82425619Y-89854428D01*
X82449809Y-89927000D01*
X82449809Y-90047952D01*
D24*
X96954219Y-98514504D02*
X95938219Y-98514504D01*
X95938219Y-98272600D01*
X95986600Y-98127457D01*
X96083361Y-98030695D01*
X96180123Y-97982314D01*
X96373647Y-97933933D01*
X96518790Y-97933933D01*
X96712314Y-97982314D01*
X96809076Y-98030695D01*
X96905838Y-98127457D01*
X96954219Y-98272600D01*
X96954219Y-98514504D01*
X96954219Y-96966314D02*
X96954219Y-97546885D01*
X96954219Y-97256600D02*
X95938219Y-97256600D01*
X96083361Y-97353361D01*
X96180123Y-97450123D01*
X96228504Y-97546885D01*
X96466828Y-102248333D02*
X96466828Y-102615000D01*
X97043019Y-102615000D02*
X95943019Y-102615000D01*
X95943019Y-102091190D01*
X96466828Y-101672142D02*
X96466828Y-101305476D01*
X97043019Y-101148333D02*
X97043019Y-101672142D01*
X95943019Y-101672142D01*
X95943019Y-101148333D01*
X95943019Y-100834047D02*
X95943019Y-100205476D01*
X97043019Y-100519761D02*
X95943019Y-100519761D01*
X97043019Y-99262619D02*
X97043019Y-99891190D01*
X97043019Y-99576904D02*
X95943019Y-99576904D01*
X96100161Y-99681666D01*
X96204923Y-99786428D01*
X96257304Y-99891190D01*
D21*
X99861914Y-135091714D02*
X99861914Y-135454571D01*
X99099914Y-135454571D01*
X99462771Y-134837714D02*
X99462771Y-134583714D01*
X99861914Y-134474857D02*
X99861914Y-134837714D01*
X99099914Y-134837714D01*
X99099914Y-134474857D01*
X99861914Y-134148285D02*
X99099914Y-134148285D01*
X99099914Y-133966857D01*
X99136200Y-133858000D01*
X99208771Y-133785428D01*
X99281342Y-133749142D01*
X99426485Y-133712857D01*
X99535342Y-133712857D01*
X99680485Y-133749142D01*
X99753057Y-133785428D01*
X99825628Y-133858000D01*
X99861914Y-133966857D01*
X99861914Y-134148285D01*
X99861914Y-132987142D02*
X99861914Y-133422571D01*
X99861914Y-133204857D02*
X99099914Y-133204857D01*
X99208771Y-133277428D01*
X99281342Y-133350000D01*
X99317628Y-133422571D01*
X101335114Y-135142514D02*
X101335114Y-135505371D01*
X100573114Y-135505371D01*
X100935971Y-134888514D02*
X100935971Y-134634514D01*
X101335114Y-134525657D02*
X101335114Y-134888514D01*
X100573114Y-134888514D01*
X100573114Y-134525657D01*
X101335114Y-134199085D02*
X100573114Y-134199085D01*
X100573114Y-134017657D01*
X100609400Y-133908800D01*
X100681971Y-133836228D01*
X100754542Y-133799942D01*
X100899685Y-133763657D01*
X101008542Y-133763657D01*
X101153685Y-133799942D01*
X101226257Y-133836228D01*
X101298828Y-133908800D01*
X101335114Y-134017657D01*
X101335114Y-134199085D01*
X100645685Y-133473371D02*
X100609400Y-133437085D01*
X100573114Y-133364514D01*
X100573114Y-133183085D01*
X100609400Y-133110514D01*
X100645685Y-133074228D01*
X100718257Y-133037942D01*
X100790828Y-133037942D01*
X100899685Y-133074228D01*
X101335114Y-133509657D01*
X101335114Y-133037942D01*
X102833714Y-135142514D02*
X102833714Y-135505371D01*
X102071714Y-135505371D01*
X102434571Y-134888514D02*
X102434571Y-134634514D01*
X102833714Y-134525657D02*
X102833714Y-134888514D01*
X102071714Y-134888514D01*
X102071714Y-134525657D01*
X102833714Y-134199085D02*
X102071714Y-134199085D01*
X102071714Y-134017657D01*
X102108000Y-133908800D01*
X102180571Y-133836228D01*
X102253142Y-133799942D01*
X102398285Y-133763657D01*
X102507142Y-133763657D01*
X102652285Y-133799942D01*
X102724857Y-133836228D01*
X102797428Y-133908800D01*
X102833714Y-134017657D01*
X102833714Y-134199085D01*
X102071714Y-133509657D02*
X102071714Y-133037942D01*
X102362000Y-133291942D01*
X102362000Y-133183085D01*
X102398285Y-133110514D01*
X102434571Y-133074228D01*
X102507142Y-133037942D01*
X102688571Y-133037942D01*
X102761142Y-133074228D01*
X102797428Y-133110514D01*
X102833714Y-133183085D01*
X102833714Y-133400800D01*
X102797428Y-133473371D01*
X102761142Y-133509657D01*
D20*
X78902733Y-105752066D02*
X78669400Y-105418733D01*
X78502733Y-105752066D02*
X78502733Y-105052066D01*
X78769400Y-105052066D01*
X78836066Y-105085400D01*
X78869400Y-105118733D01*
X78902733Y-105185400D01*
X78902733Y-105285400D01*
X78869400Y-105352066D01*
X78836066Y-105385400D01*
X78769400Y-105418733D01*
X78502733Y-105418733D01*
X79569400Y-105752066D02*
X79169400Y-105752066D01*
X79369400Y-105752066D02*
X79369400Y-105052066D01*
X79302733Y-105152066D01*
X79236066Y-105218733D01*
X79169400Y-105252066D01*
X90943866Y-96357266D02*
X90610533Y-96590600D01*
X90943866Y-96757266D02*
X90243866Y-96757266D01*
X90243866Y-96490600D01*
X90277200Y-96423933D01*
X90310533Y-96390600D01*
X90377200Y-96357266D01*
X90477200Y-96357266D01*
X90543866Y-96390600D01*
X90577200Y-96423933D01*
X90610533Y-96490600D01*
X90610533Y-96757266D01*
X90310533Y-96090600D02*
X90277200Y-96057266D01*
X90243866Y-95990600D01*
X90243866Y-95823933D01*
X90277200Y-95757266D01*
X90310533Y-95723933D01*
X90377200Y-95690600D01*
X90443866Y-95690600D01*
X90543866Y-95723933D01*
X90943866Y-96123933D01*
X90943866Y-95690600D01*
X90943866Y-98262266D02*
X90610533Y-98495600D01*
X90943866Y-98662266D02*
X90243866Y-98662266D01*
X90243866Y-98395600D01*
X90277200Y-98328933D01*
X90310533Y-98295600D01*
X90377200Y-98262266D01*
X90477200Y-98262266D01*
X90543866Y-98295600D01*
X90577200Y-98328933D01*
X90610533Y-98395600D01*
X90610533Y-98662266D01*
X90243866Y-98028933D02*
X90243866Y-97595600D01*
X90510533Y-97828933D01*
X90510533Y-97728933D01*
X90543866Y-97662266D01*
X90577200Y-97628933D01*
X90643866Y-97595600D01*
X90810533Y-97595600D01*
X90877200Y-97628933D01*
X90910533Y-97662266D01*
X90943866Y-97728933D01*
X90943866Y-97928933D01*
X90910533Y-97995600D01*
X90877200Y-98028933D01*
X81215666Y-97043066D02*
X80882333Y-97276400D01*
X81215666Y-97443066D02*
X80515666Y-97443066D01*
X80515666Y-97176400D01*
X80549000Y-97109733D01*
X80582333Y-97076400D01*
X80649000Y-97043066D01*
X80749000Y-97043066D01*
X80815666Y-97076400D01*
X80849000Y-97109733D01*
X80882333Y-97176400D01*
X80882333Y-97443066D01*
X80749000Y-96443066D02*
X81215666Y-96443066D01*
X80482333Y-96609733D02*
X80982333Y-96776400D01*
X80982333Y-96343066D01*
X83831866Y-95569866D02*
X83498533Y-95803200D01*
X83831866Y-95969866D02*
X83131866Y-95969866D01*
X83131866Y-95703200D01*
X83165200Y-95636533D01*
X83198533Y-95603200D01*
X83265200Y-95569866D01*
X83365200Y-95569866D01*
X83431866Y-95603200D01*
X83465200Y-95636533D01*
X83498533Y-95703200D01*
X83498533Y-95969866D01*
X83131866Y-95336533D02*
X83131866Y-94869866D01*
X83831866Y-95169866D01*
X82866666Y-95573000D02*
X82533333Y-95806333D01*
X82866666Y-95973000D02*
X82166666Y-95973000D01*
X82166666Y-95706333D01*
X82200000Y-95639666D01*
X82233333Y-95606333D01*
X82300000Y-95573000D01*
X82400000Y-95573000D01*
X82466666Y-95606333D01*
X82500000Y-95639666D01*
X82533333Y-95706333D01*
X82533333Y-95973000D01*
X82866666Y-94906333D02*
X82866666Y-95306333D01*
X82866666Y-95106333D02*
X82166666Y-95106333D01*
X82266666Y-95173000D01*
X82333333Y-95239666D01*
X82366666Y-95306333D01*
X82233333Y-94639666D02*
X82200000Y-94606333D01*
X82166666Y-94539666D01*
X82166666Y-94373000D01*
X82200000Y-94306333D01*
X82233333Y-94273000D01*
X82300000Y-94239666D01*
X82366666Y-94239666D01*
X82466666Y-94273000D01*
X82866666Y-94673000D01*
X82866666Y-94239666D01*
X84767000Y-108825466D02*
X84533666Y-108492133D01*
X84367000Y-108825466D02*
X84367000Y-108125466D01*
X84633666Y-108125466D01*
X84700333Y-108158800D01*
X84733666Y-108192133D01*
X84767000Y-108258800D01*
X84767000Y-108358800D01*
X84733666Y-108425466D01*
X84700333Y-108458800D01*
X84633666Y-108492133D01*
X84367000Y-108492133D01*
X85433666Y-108825466D02*
X85033666Y-108825466D01*
X85233666Y-108825466D02*
X85233666Y-108125466D01*
X85167000Y-108225466D01*
X85100333Y-108292133D01*
X85033666Y-108325466D01*
X85667000Y-108125466D02*
X86100333Y-108125466D01*
X85867000Y-108392133D01*
X85967000Y-108392133D01*
X86033666Y-108425466D01*
X86067000Y-108458800D01*
X86100333Y-108525466D01*
X86100333Y-108692133D01*
X86067000Y-108758800D01*
X86033666Y-108792133D01*
X85967000Y-108825466D01*
X85767000Y-108825466D01*
X85700333Y-108792133D01*
X85667000Y-108758800D01*
X78721800Y-96938266D02*
X78488466Y-96604933D01*
X78321800Y-96938266D02*
X78321800Y-96238266D01*
X78588466Y-96238266D01*
X78655133Y-96271600D01*
X78688466Y-96304933D01*
X78721800Y-96371600D01*
X78721800Y-96471600D01*
X78688466Y-96538266D01*
X78655133Y-96571600D01*
X78588466Y-96604933D01*
X78321800Y-96604933D01*
X79388466Y-96938266D02*
X78988466Y-96938266D01*
X79188466Y-96938266D02*
X79188466Y-96238266D01*
X79121800Y-96338266D01*
X79055133Y-96404933D01*
X78988466Y-96438266D01*
X79988466Y-96471600D02*
X79988466Y-96938266D01*
X79821800Y-96204933D02*
X79655133Y-96704933D01*
X80088466Y-96704933D01*
X78696400Y-97903466D02*
X78463066Y-97570133D01*
X78296400Y-97903466D02*
X78296400Y-97203466D01*
X78563066Y-97203466D01*
X78629733Y-97236800D01*
X78663066Y-97270133D01*
X78696400Y-97336800D01*
X78696400Y-97436800D01*
X78663066Y-97503466D01*
X78629733Y-97536800D01*
X78563066Y-97570133D01*
X78296400Y-97570133D01*
X79363066Y-97903466D02*
X78963066Y-97903466D01*
X79163066Y-97903466D02*
X79163066Y-97203466D01*
X79096400Y-97303466D01*
X79029733Y-97370133D01*
X78963066Y-97403466D01*
X79996400Y-97203466D02*
X79663066Y-97203466D01*
X79629733Y-97536800D01*
X79663066Y-97503466D01*
X79729733Y-97470133D01*
X79896400Y-97470133D01*
X79963066Y-97503466D01*
X79996400Y-97536800D01*
X80029733Y-97603466D01*
X80029733Y-97770133D01*
X79996400Y-97836800D01*
X79963066Y-97870133D01*
X79896400Y-97903466D01*
X79729733Y-97903466D01*
X79663066Y-97870133D01*
X79629733Y-97836800D01*
X78721800Y-98792466D02*
X78488466Y-98459133D01*
X78321800Y-98792466D02*
X78321800Y-98092466D01*
X78588466Y-98092466D01*
X78655133Y-98125800D01*
X78688466Y-98159133D01*
X78721800Y-98225800D01*
X78721800Y-98325800D01*
X78688466Y-98392466D01*
X78655133Y-98425800D01*
X78588466Y-98459133D01*
X78321800Y-98459133D01*
X79388466Y-98792466D02*
X78988466Y-98792466D01*
X79188466Y-98792466D02*
X79188466Y-98092466D01*
X79121800Y-98192466D01*
X79055133Y-98259133D01*
X78988466Y-98292466D01*
X79988466Y-98092466D02*
X79855133Y-98092466D01*
X79788466Y-98125800D01*
X79755133Y-98159133D01*
X79688466Y-98259133D01*
X79655133Y-98392466D01*
X79655133Y-98659133D01*
X79688466Y-98725800D01*
X79721800Y-98759133D01*
X79788466Y-98792466D01*
X79921800Y-98792466D01*
X79988466Y-98759133D01*
X80021800Y-98725800D01*
X80055133Y-98659133D01*
X80055133Y-98492466D01*
X80021800Y-98425800D01*
X79988466Y-98392466D01*
X79921800Y-98359133D01*
X79788466Y-98359133D01*
X79721800Y-98392466D01*
X79688466Y-98425800D01*
X79655133Y-98492466D01*
X78569400Y-104761466D02*
X78336066Y-104428133D01*
X78169400Y-104761466D02*
X78169400Y-104061466D01*
X78436066Y-104061466D01*
X78502733Y-104094800D01*
X78536066Y-104128133D01*
X78569400Y-104194800D01*
X78569400Y-104294800D01*
X78536066Y-104361466D01*
X78502733Y-104394800D01*
X78436066Y-104428133D01*
X78169400Y-104428133D01*
X79236066Y-104761466D02*
X78836066Y-104761466D01*
X79036066Y-104761466D02*
X79036066Y-104061466D01*
X78969400Y-104161466D01*
X78902733Y-104228133D01*
X78836066Y-104261466D01*
X79469400Y-104061466D02*
X79936066Y-104061466D01*
X79636066Y-104761466D01*
D11*
X95511200Y-105777466D02*
X95277866Y-105444133D01*
X95111200Y-105777466D02*
X95111200Y-105077466D01*
X95377866Y-105077466D01*
X95444533Y-105110800D01*
X95477866Y-105144133D01*
X95511200Y-105210800D01*
X95511200Y-105310800D01*
X95477866Y-105377466D01*
X95444533Y-105410800D01*
X95377866Y-105444133D01*
X95111200Y-105444133D01*
X96177866Y-105777466D02*
X95777866Y-105777466D01*
X95977866Y-105777466D02*
X95977866Y-105077466D01*
X95911200Y-105177466D01*
X95844533Y-105244133D01*
X95777866Y-105277466D01*
X96577866Y-105377466D02*
X96511200Y-105344133D01*
X96477866Y-105310800D01*
X96444533Y-105244133D01*
X96444533Y-105210800D01*
X96477866Y-105144133D01*
X96511200Y-105110800D01*
X96577866Y-105077466D01*
X96711200Y-105077466D01*
X96777866Y-105110800D01*
X96811200Y-105144133D01*
X96844533Y-105210800D01*
X96844533Y-105244133D01*
X96811200Y-105310800D01*
X96777866Y-105344133D01*
X96711200Y-105377466D01*
X96577866Y-105377466D01*
X96511200Y-105410800D01*
X96477866Y-105444133D01*
X96444533Y-105510800D01*
X96444533Y-105644133D01*
X96477866Y-105710800D01*
X96511200Y-105744133D01*
X96577866Y-105777466D01*
X96711200Y-105777466D01*
X96777866Y-105744133D01*
X96811200Y-105710800D01*
X96844533Y-105644133D01*
X96844533Y-105510800D01*
X96811200Y-105444133D01*
X96777866Y-105410800D01*
X96711200Y-105377466D01*
D20*
X87102914Y-97466085D02*
X87141009Y-97504180D01*
X87179104Y-97618466D01*
X87179104Y-97694657D01*
X87141009Y-97808942D01*
X87064819Y-97885133D01*
X86988628Y-97923228D01*
X86836247Y-97961323D01*
X86721961Y-97961323D01*
X86569580Y-97923228D01*
X86493390Y-97885133D01*
X86417200Y-97808942D01*
X86379104Y-97694657D01*
X86379104Y-97618466D01*
X86417200Y-97504180D01*
X86455295Y-97466085D01*
X87179104Y-96704180D02*
X87179104Y-97161323D01*
X87179104Y-96932752D02*
X86379104Y-96932752D01*
X86493390Y-97008942D01*
X86569580Y-97085133D01*
X86607676Y-97161323D01*
X87179104Y-95942276D02*
X87179104Y-96399419D01*
X87179104Y-96170847D02*
X86379104Y-96170847D01*
X86493390Y-96247038D01*
X86569580Y-96323228D01*
X86607676Y-96399419D01*
X85197914Y-106102133D02*
X85236009Y-106140228D01*
X85274104Y-106254514D01*
X85274104Y-106330704D01*
X85236009Y-106444990D01*
X85159819Y-106521180D01*
X85083628Y-106559276D01*
X84931247Y-106597371D01*
X84816961Y-106597371D01*
X84664580Y-106559276D01*
X84588390Y-106521180D01*
X84512200Y-106444990D01*
X84474104Y-106330704D01*
X84474104Y-106254514D01*
X84512200Y-106140228D01*
X84550295Y-106102133D01*
X84474104Y-105835466D02*
X84474104Y-105340228D01*
X84778866Y-105606895D01*
X84778866Y-105492609D01*
X84816961Y-105416419D01*
X84855057Y-105378323D01*
X84931247Y-105340228D01*
X85121723Y-105340228D01*
X85197914Y-105378323D01*
X85236009Y-105416419D01*
X85274104Y-105492609D01*
X85274104Y-105721180D01*
X85236009Y-105797371D01*
X85197914Y-105835466D01*
D11*
X96293800Y-95419028D02*
X96250942Y-95461885D01*
X96122371Y-95504742D01*
X96036657Y-95504742D01*
X95908085Y-95461885D01*
X95822371Y-95376171D01*
X95779514Y-95290457D01*
X95736657Y-95119028D01*
X95736657Y-94990457D01*
X95779514Y-94819028D01*
X95822371Y-94733314D01*
X95908085Y-94647600D01*
X96036657Y-94604742D01*
X96122371Y-94604742D01*
X96250942Y-94647600D01*
X96293800Y-94690457D01*
X97065228Y-94904742D02*
X97065228Y-95504742D01*
X96850942Y-94561885D02*
X96636657Y-95204742D01*
X97193800Y-95204742D01*
D20*
X84753514Y-107854714D02*
X84715419Y-107892809D01*
X84601133Y-107930904D01*
X84524942Y-107930904D01*
X84410657Y-107892809D01*
X84334466Y-107816619D01*
X84296371Y-107740428D01*
X84258276Y-107588047D01*
X84258276Y-107473761D01*
X84296371Y-107321380D01*
X84334466Y-107245190D01*
X84410657Y-107169000D01*
X84524942Y-107130904D01*
X84601133Y-107130904D01*
X84715419Y-107169000D01*
X84753514Y-107207095D01*
X85515419Y-107930904D02*
X85058276Y-107930904D01*
X85286847Y-107930904D02*
X85286847Y-107130904D01*
X85210657Y-107245190D01*
X85134466Y-107321380D01*
X85058276Y-107359476D01*
X85820180Y-107207095D02*
X85858276Y-107169000D01*
X85934466Y-107130904D01*
X86124942Y-107130904D01*
X86201133Y-107169000D01*
X86239228Y-107207095D01*
X86277323Y-107283285D01*
X86277323Y-107359476D01*
X86239228Y-107473761D01*
X85782085Y-107930904D01*
X86277323Y-107930904D01*
D11*
X89080200Y-90212028D02*
X89037342Y-90254885D01*
X88908771Y-90297742D01*
X88823057Y-90297742D01*
X88694485Y-90254885D01*
X88608771Y-90169171D01*
X88565914Y-90083457D01*
X88523057Y-89912028D01*
X88523057Y-89783457D01*
X88565914Y-89612028D01*
X88608771Y-89526314D01*
X88694485Y-89440600D01*
X88823057Y-89397742D01*
X88908771Y-89397742D01*
X89037342Y-89440600D01*
X89080200Y-89483457D01*
X89937342Y-90297742D02*
X89423057Y-90297742D01*
X89680200Y-90297742D02*
X89680200Y-89397742D01*
X89594485Y-89526314D01*
X89508771Y-89612028D01*
X89423057Y-89654885D01*
D20*
X83089714Y-106076733D02*
X83127809Y-106114828D01*
X83165904Y-106229114D01*
X83165904Y-106305304D01*
X83127809Y-106419590D01*
X83051619Y-106495780D01*
X82975428Y-106533876D01*
X82823047Y-106571971D01*
X82708761Y-106571971D01*
X82556380Y-106533876D01*
X82480190Y-106495780D01*
X82404000Y-106419590D01*
X82365904Y-106305304D01*
X82365904Y-106229114D01*
X82404000Y-106114828D01*
X82442095Y-106076733D01*
X82442095Y-105771971D02*
X82404000Y-105733876D01*
X82365904Y-105657685D01*
X82365904Y-105467209D01*
X82404000Y-105391019D01*
X82442095Y-105352923D01*
X82518285Y-105314828D01*
X82594476Y-105314828D01*
X82708761Y-105352923D01*
X83165904Y-105810066D01*
X83165904Y-105314828D01*
D11*
X83637666Y-116530380D02*
X83637666Y-115530380D01*
X83971000Y-116244666D01*
X84304333Y-115530380D01*
X84304333Y-116530380D01*
X84971000Y-115530380D02*
X85161476Y-115530380D01*
X85256714Y-115578000D01*
X85351952Y-115673238D01*
X85399571Y-115863714D01*
X85399571Y-116197047D01*
X85351952Y-116387523D01*
X85256714Y-116482761D01*
X85161476Y-116530380D01*
X84971000Y-116530380D01*
X84875761Y-116482761D01*
X84780523Y-116387523D01*
X84732904Y-116197047D01*
X84732904Y-115863714D01*
X84780523Y-115673238D01*
X84875761Y-115578000D01*
X84971000Y-115530380D01*
X85828142Y-116530380D02*
X85828142Y-115530380D01*
X86066238Y-115530380D01*
X86209095Y-115578000D01*
X86304333Y-115673238D01*
X86351952Y-115768476D01*
X86399571Y-115958952D01*
X86399571Y-116101809D01*
X86351952Y-116292285D01*
X86304333Y-116387523D01*
X86209095Y-116482761D01*
X86066238Y-116530380D01*
X85828142Y-116530380D01*
X87351952Y-116530380D02*
X86780523Y-116530380D01*
X87066238Y-116530380D02*
X87066238Y-115530380D01*
X86971000Y-115673238D01*
X86875761Y-115768476D01*
X86780523Y-115816095D01*
X105664095Y-95337380D02*
X105664095Y-96146904D01*
X105711714Y-96242142D01*
X105759333Y-96289761D01*
X105854571Y-96337380D01*
X106045047Y-96337380D01*
X106140285Y-96289761D01*
X106187904Y-96242142D01*
X106235523Y-96146904D01*
X106235523Y-95337380D01*
X106616476Y-95337380D02*
X107235523Y-95337380D01*
X106902190Y-95718333D01*
X107045047Y-95718333D01*
X107140285Y-95765952D01*
X107187904Y-95813571D01*
X107235523Y-95908809D01*
X107235523Y-96146904D01*
X107187904Y-96242142D01*
X107140285Y-96289761D01*
X107045047Y-96337380D01*
X106759333Y-96337380D01*
X106664095Y-96289761D01*
X106616476Y-96242142D01*
X100711095Y-96480380D02*
X100711095Y-97289904D01*
X100758714Y-97385142D01*
X100806333Y-97432761D01*
X100901571Y-97480380D01*
X101092047Y-97480380D01*
X101187285Y-97432761D01*
X101234904Y-97385142D01*
X101282523Y-97289904D01*
X101282523Y-96480380D01*
X102187285Y-96813714D02*
X102187285Y-97480380D01*
X101949190Y-96432761D02*
X101711095Y-97147047D01*
X102330142Y-97147047D01*
D14*
X68900523Y-109437714D02*
X69928619Y-109437714D01*
X70049571Y-109377238D01*
X70110047Y-109316761D01*
X70170523Y-109195809D01*
X70170523Y-108953904D01*
X70110047Y-108832952D01*
X70049571Y-108772476D01*
X69928619Y-108712000D01*
X68900523Y-108712000D01*
X69505285Y-108107238D02*
X69505285Y-107683904D01*
X70170523Y-107502476D02*
X70170523Y-108107238D01*
X68900523Y-108107238D01*
X68900523Y-107502476D01*
X68900523Y-107079142D02*
X70170523Y-106232476D01*
X68900523Y-106232476D02*
X70170523Y-107079142D01*
X68900523Y-105930095D02*
X68900523Y-105204380D01*
X70170523Y-105567238D02*
X68900523Y-105567238D01*
X70170523Y-104115809D02*
X70170523Y-104841523D01*
X70170523Y-104478666D02*
X68900523Y-104478666D01*
X69081952Y-104599619D01*
X69202904Y-104720571D01*
X69263380Y-104841523D01*
X64074523Y-113810142D02*
X64074523Y-114535857D01*
X64074523Y-114173000D02*
X62804523Y-114173000D01*
X62985952Y-114293952D01*
X63106904Y-114414904D01*
X63167380Y-114535857D01*
X60385476Y-114535857D02*
X60325000Y-114475380D01*
X60264523Y-114354428D01*
X60264523Y-114052047D01*
X60325000Y-113931095D01*
X60385476Y-113870619D01*
X60506428Y-113810142D01*
X60627380Y-113810142D01*
X60808809Y-113870619D01*
X61534523Y-114596333D01*
X61534523Y-113810142D01*
X102316642Y-107696000D02*
X102371071Y-107532714D01*
X102371071Y-107260571D01*
X102316642Y-107151714D01*
X102262214Y-107097285D01*
X102153357Y-107042857D01*
X102044500Y-107042857D01*
X101935642Y-107097285D01*
X101881214Y-107151714D01*
X101826785Y-107260571D01*
X101772357Y-107478285D01*
X101717928Y-107587142D01*
X101663500Y-107641571D01*
X101554642Y-107696000D01*
X101445785Y-107696000D01*
X101336928Y-107641571D01*
X101282500Y-107587142D01*
X101228071Y-107478285D01*
X101228071Y-107206142D01*
X101282500Y-107042857D01*
X101228071Y-106661857D02*
X102371071Y-106389714D01*
X101554642Y-106172000D01*
X102371071Y-105954285D01*
X101228071Y-105682142D01*
X101336928Y-105301142D02*
X101282500Y-105246714D01*
X101228071Y-105137857D01*
X101228071Y-104865714D01*
X101282500Y-104756857D01*
X101336928Y-104702428D01*
X101445785Y-104648000D01*
X101554642Y-104648000D01*
X101717928Y-104702428D01*
X102371071Y-105355571D01*
X102371071Y-104648000D01*
X102189642Y-115824000D02*
X102244071Y-115660714D01*
X102244071Y-115388571D01*
X102189642Y-115279714D01*
X102135214Y-115225285D01*
X102026357Y-115170857D01*
X101917500Y-115170857D01*
X101808642Y-115225285D01*
X101754214Y-115279714D01*
X101699785Y-115388571D01*
X101645357Y-115606285D01*
X101590928Y-115715142D01*
X101536500Y-115769571D01*
X101427642Y-115824000D01*
X101318785Y-115824000D01*
X101209928Y-115769571D01*
X101155500Y-115715142D01*
X101101071Y-115606285D01*
X101101071Y-115334142D01*
X101155500Y-115170857D01*
X101101071Y-114789857D02*
X102244071Y-114517714D01*
X101427642Y-114300000D01*
X102244071Y-114082285D01*
X101101071Y-113810142D01*
X102244071Y-112776000D02*
X102244071Y-113429142D01*
X102244071Y-113102571D02*
X101101071Y-113102571D01*
X101264357Y-113211428D01*
X101373214Y-113320285D01*
X101427642Y-113429142D01*
D20*
X75623000Y-110841466D02*
X75389666Y-110508133D01*
X75223000Y-110841466D02*
X75223000Y-110141466D01*
X75489666Y-110141466D01*
X75556333Y-110174800D01*
X75589666Y-110208133D01*
X75623000Y-110274800D01*
X75623000Y-110374800D01*
X75589666Y-110441466D01*
X75556333Y-110474800D01*
X75489666Y-110508133D01*
X75223000Y-110508133D01*
X76289666Y-110841466D02*
X75889666Y-110841466D01*
X76089666Y-110841466D02*
X76089666Y-110141466D01*
X76023000Y-110241466D01*
X75956333Y-110308133D01*
X75889666Y-110341466D01*
X76956333Y-110841466D02*
X76556333Y-110841466D01*
X76756333Y-110841466D02*
X76756333Y-110141466D01*
X76689666Y-110241466D01*
X76623000Y-110308133D01*
X76556333Y-110341466D01*
X75623000Y-113381466D02*
X75389666Y-113048133D01*
X75223000Y-113381466D02*
X75223000Y-112681466D01*
X75489666Y-112681466D01*
X75556333Y-112714800D01*
X75589666Y-112748133D01*
X75623000Y-112814800D01*
X75623000Y-112914800D01*
X75589666Y-112981466D01*
X75556333Y-113014800D01*
X75489666Y-113048133D01*
X75223000Y-113048133D01*
X76289666Y-113381466D02*
X75889666Y-113381466D01*
X76089666Y-113381466D02*
X76089666Y-112681466D01*
X76023000Y-112781466D01*
X75956333Y-112848133D01*
X75889666Y-112881466D01*
X76723000Y-112681466D02*
X76789666Y-112681466D01*
X76856333Y-112714800D01*
X76889666Y-112748133D01*
X76923000Y-112814800D01*
X76956333Y-112948133D01*
X76956333Y-113114800D01*
X76923000Y-113248133D01*
X76889666Y-113314800D01*
X76856333Y-113348133D01*
X76789666Y-113381466D01*
X76723000Y-113381466D01*
X76656333Y-113348133D01*
X76623000Y-113314800D01*
X76589666Y-113248133D01*
X76556333Y-113114800D01*
X76556333Y-112948133D01*
X76589666Y-112814800D01*
X76623000Y-112748133D01*
X76656333Y-112714800D01*
X76723000Y-112681466D01*
D21*
X111440133Y-100697466D02*
X111206800Y-100364133D01*
X111040133Y-100697466D02*
X111040133Y-99997466D01*
X111306800Y-99997466D01*
X111373466Y-100030800D01*
X111406800Y-100064133D01*
X111440133Y-100130800D01*
X111440133Y-100230800D01*
X111406800Y-100297466D01*
X111373466Y-100330800D01*
X111306800Y-100364133D01*
X111040133Y-100364133D01*
X111773466Y-100697466D02*
X111906800Y-100697466D01*
X111973466Y-100664133D01*
X112006800Y-100630800D01*
X112073466Y-100530800D01*
X112106800Y-100397466D01*
X112106800Y-100130800D01*
X112073466Y-100064133D01*
X112040133Y-100030800D01*
X111973466Y-99997466D01*
X111840133Y-99997466D01*
X111773466Y-100030800D01*
X111740133Y-100064133D01*
X111706800Y-100130800D01*
X111706800Y-100297466D01*
X111740133Y-100364133D01*
X111773466Y-100397466D01*
X111840133Y-100430800D01*
X111973466Y-100430800D01*
X112040133Y-100397466D01*
X112073466Y-100364133D01*
X112106800Y-100297466D01*
D11*
X101433333Y-102560380D02*
X101100000Y-102084190D01*
X100861904Y-102560380D02*
X100861904Y-101560380D01*
X101242857Y-101560380D01*
X101338095Y-101608000D01*
X101385714Y-101655619D01*
X101433333Y-101750857D01*
X101433333Y-101893714D01*
X101385714Y-101988952D01*
X101338095Y-102036571D01*
X101242857Y-102084190D01*
X100861904Y-102084190D01*
X102004761Y-101988952D02*
X101909523Y-101941333D01*
X101861904Y-101893714D01*
X101814285Y-101798476D01*
X101814285Y-101750857D01*
X101861904Y-101655619D01*
X101909523Y-101608000D01*
X102004761Y-101560380D01*
X102195238Y-101560380D01*
X102290476Y-101608000D01*
X102338095Y-101655619D01*
X102385714Y-101750857D01*
X102385714Y-101798476D01*
X102338095Y-101893714D01*
X102290476Y-101941333D01*
X102195238Y-101988952D01*
X102004761Y-101988952D01*
X101909523Y-102036571D01*
X101861904Y-102084190D01*
X101814285Y-102179428D01*
X101814285Y-102369904D01*
X101861904Y-102465142D01*
X101909523Y-102512761D01*
X102004761Y-102560380D01*
X102195238Y-102560380D01*
X102290476Y-102512761D01*
X102338095Y-102465142D01*
X102385714Y-102369904D01*
X102385714Y-102179428D01*
X102338095Y-102084190D01*
X102290476Y-102036571D01*
X102195238Y-101988952D01*
D20*
X75930933Y-96166866D02*
X75697600Y-95833533D01*
X75530933Y-96166866D02*
X75530933Y-95466866D01*
X75797600Y-95466866D01*
X75864266Y-95500200D01*
X75897600Y-95533533D01*
X75930933Y-95600200D01*
X75930933Y-95700200D01*
X75897600Y-95766866D01*
X75864266Y-95800200D01*
X75797600Y-95833533D01*
X75530933Y-95833533D01*
X76530933Y-95466866D02*
X76397600Y-95466866D01*
X76330933Y-95500200D01*
X76297600Y-95533533D01*
X76230933Y-95633533D01*
X76197600Y-95766866D01*
X76197600Y-96033533D01*
X76230933Y-96100200D01*
X76264266Y-96133533D01*
X76330933Y-96166866D01*
X76464266Y-96166866D01*
X76530933Y-96133533D01*
X76564266Y-96100200D01*
X76597600Y-96033533D01*
X76597600Y-95866866D01*
X76564266Y-95800200D01*
X76530933Y-95766866D01*
X76464266Y-95733533D01*
X76330933Y-95733533D01*
X76264266Y-95766866D01*
X76230933Y-95800200D01*
X76197600Y-95866866D01*
X76032533Y-91086866D02*
X75799200Y-90753533D01*
X75632533Y-91086866D02*
X75632533Y-90386866D01*
X75899200Y-90386866D01*
X75965866Y-90420200D01*
X75999200Y-90453533D01*
X76032533Y-90520200D01*
X76032533Y-90620200D01*
X75999200Y-90686866D01*
X75965866Y-90720200D01*
X75899200Y-90753533D01*
X75632533Y-90753533D01*
X76665866Y-90386866D02*
X76332533Y-90386866D01*
X76299200Y-90720200D01*
X76332533Y-90686866D01*
X76399200Y-90653533D01*
X76565866Y-90653533D01*
X76632533Y-90686866D01*
X76665866Y-90720200D01*
X76699200Y-90786866D01*
X76699200Y-90953533D01*
X76665866Y-91020200D01*
X76632533Y-91053533D01*
X76565866Y-91086866D01*
X76399200Y-91086866D01*
X76332533Y-91053533D01*
X76299200Y-91020200D01*
D14*
X83674857Y-134057571D02*
X83614380Y-134118047D01*
X83432952Y-134178523D01*
X83312000Y-134178523D01*
X83130571Y-134118047D01*
X83009619Y-133997095D01*
X82949142Y-133876142D01*
X82888666Y-133634238D01*
X82888666Y-133452809D01*
X82949142Y-133210904D01*
X83009619Y-133089952D01*
X83130571Y-132969000D01*
X83312000Y-132908523D01*
X83432952Y-132908523D01*
X83614380Y-132969000D01*
X83674857Y-133029476D01*
X84461047Y-132908523D02*
X84702952Y-132908523D01*
X84823904Y-132969000D01*
X84944857Y-133089952D01*
X85005333Y-133331857D01*
X85005333Y-133755190D01*
X84944857Y-133997095D01*
X84823904Y-134118047D01*
X84702952Y-134178523D01*
X84461047Y-134178523D01*
X84340095Y-134118047D01*
X84219142Y-133997095D01*
X84158666Y-133755190D01*
X84158666Y-133331857D01*
X84219142Y-133089952D01*
X84340095Y-132969000D01*
X84461047Y-132908523D01*
X85549619Y-134178523D02*
X85549619Y-132908523D01*
X86275333Y-134178523D01*
X86275333Y-132908523D01*
X87545333Y-134178523D02*
X86819619Y-134178523D01*
X87182476Y-134178523D02*
X87182476Y-132908523D01*
X87061523Y-133089952D01*
X86940571Y-133210904D01*
X86819619Y-133271380D01*
D20*
X103028714Y-110445485D02*
X103066809Y-110483580D01*
X103104904Y-110597866D01*
X103104904Y-110674057D01*
X103066809Y-110788342D01*
X102990619Y-110864533D01*
X102914428Y-110902628D01*
X102762047Y-110940723D01*
X102647761Y-110940723D01*
X102495380Y-110902628D01*
X102419190Y-110864533D01*
X102343000Y-110788342D01*
X102304904Y-110674057D01*
X102304904Y-110597866D01*
X102343000Y-110483580D01*
X102381095Y-110445485D01*
X103104904Y-109683580D02*
X103104904Y-110140723D01*
X103104904Y-109912152D02*
X102304904Y-109912152D01*
X102419190Y-109988342D01*
X102495380Y-110064533D01*
X102533476Y-110140723D01*
X102304904Y-109188342D02*
X102304904Y-109112152D01*
X102343000Y-109035961D01*
X102381095Y-108997866D01*
X102457285Y-108959771D01*
X102609666Y-108921676D01*
X102800142Y-108921676D01*
X102952523Y-108959771D01*
X103028714Y-108997866D01*
X103066809Y-109035961D01*
X103104904Y-109112152D01*
X103104904Y-109188342D01*
X103066809Y-109264533D01*
X103028714Y-109302628D01*
X102952523Y-109340723D01*
X102800142Y-109378819D01*
X102609666Y-109378819D01*
X102457285Y-109340723D01*
X102381095Y-109302628D01*
X102343000Y-109264533D01*
X102304904Y-109188342D01*
D11*
X71060428Y-113307000D02*
X71103285Y-113349857D01*
X71146142Y-113478428D01*
X71146142Y-113564142D01*
X71103285Y-113692714D01*
X71017571Y-113778428D01*
X70931857Y-113821285D01*
X70760428Y-113864142D01*
X70631857Y-113864142D01*
X70460428Y-113821285D01*
X70374714Y-113778428D01*
X70289000Y-113692714D01*
X70246142Y-113564142D01*
X70246142Y-113478428D01*
X70289000Y-113349857D01*
X70331857Y-113307000D01*
X71146142Y-112878428D02*
X71146142Y-112707000D01*
X71103285Y-112621285D01*
X71060428Y-112578428D01*
X70931857Y-112492714D01*
X70760428Y-112449857D01*
X70417571Y-112449857D01*
X70331857Y-112492714D01*
X70289000Y-112535571D01*
X70246142Y-112621285D01*
X70246142Y-112792714D01*
X70289000Y-112878428D01*
X70331857Y-112921285D01*
X70417571Y-112964142D01*
X70631857Y-112964142D01*
X70717571Y-112921285D01*
X70760428Y-112878428D01*
X70803285Y-112792714D01*
X70803285Y-112621285D01*
X70760428Y-112535571D01*
X70717571Y-112492714D01*
X70631857Y-112449857D01*
D20*
X102736666Y-90836714D02*
X102698571Y-90874809D01*
X102584285Y-90912904D01*
X102508095Y-90912904D01*
X102393809Y-90874809D01*
X102317619Y-90798619D01*
X102279523Y-90722428D01*
X102241428Y-90570047D01*
X102241428Y-90455761D01*
X102279523Y-90303380D01*
X102317619Y-90227190D01*
X102393809Y-90151000D01*
X102508095Y-90112904D01*
X102584285Y-90112904D01*
X102698571Y-90151000D01*
X102736666Y-90189095D01*
X103193809Y-90455761D02*
X103117619Y-90417666D01*
X103079523Y-90379571D01*
X103041428Y-90303380D01*
X103041428Y-90265285D01*
X103079523Y-90189095D01*
X103117619Y-90151000D01*
X103193809Y-90112904D01*
X103346190Y-90112904D01*
X103422380Y-90151000D01*
X103460476Y-90189095D01*
X103498571Y-90265285D01*
X103498571Y-90303380D01*
X103460476Y-90379571D01*
X103422380Y-90417666D01*
X103346190Y-90455761D01*
X103193809Y-90455761D01*
X103117619Y-90493857D01*
X103079523Y-90531952D01*
X103041428Y-90608142D01*
X103041428Y-90760523D01*
X103079523Y-90836714D01*
X103117619Y-90874809D01*
X103193809Y-90912904D01*
X103346190Y-90912904D01*
X103422380Y-90874809D01*
X103460476Y-90836714D01*
X103498571Y-90760523D01*
X103498571Y-90608142D01*
X103460476Y-90531952D01*
X103422380Y-90493857D01*
X103346190Y-90455761D01*
D11*
X75759428Y-103147000D02*
X75802285Y-103189857D01*
X75845142Y-103318428D01*
X75845142Y-103404142D01*
X75802285Y-103532714D01*
X75716571Y-103618428D01*
X75630857Y-103661285D01*
X75459428Y-103704142D01*
X75330857Y-103704142D01*
X75159428Y-103661285D01*
X75073714Y-103618428D01*
X74988000Y-103532714D01*
X74945142Y-103404142D01*
X74945142Y-103318428D01*
X74988000Y-103189857D01*
X75030857Y-103147000D01*
X74945142Y-102847000D02*
X74945142Y-102247000D01*
X75845142Y-102632714D01*
D20*
X111372666Y-99599714D02*
X111334571Y-99637809D01*
X111220285Y-99675904D01*
X111144095Y-99675904D01*
X111029809Y-99637809D01*
X110953619Y-99561619D01*
X110915523Y-99485428D01*
X110877428Y-99333047D01*
X110877428Y-99218761D01*
X110915523Y-99066380D01*
X110953619Y-98990190D01*
X111029809Y-98914000D01*
X111144095Y-98875904D01*
X111220285Y-98875904D01*
X111334571Y-98914000D01*
X111372666Y-98952095D01*
X112058380Y-98875904D02*
X111906000Y-98875904D01*
X111829809Y-98914000D01*
X111791714Y-98952095D01*
X111715523Y-99066380D01*
X111677428Y-99218761D01*
X111677428Y-99523523D01*
X111715523Y-99599714D01*
X111753619Y-99637809D01*
X111829809Y-99675904D01*
X111982190Y-99675904D01*
X112058380Y-99637809D01*
X112096476Y-99599714D01*
X112134571Y-99523523D01*
X112134571Y-99333047D01*
X112096476Y-99256857D01*
X112058380Y-99218761D01*
X111982190Y-99180666D01*
X111829809Y-99180666D01*
X111753619Y-99218761D01*
X111715523Y-99256857D01*
X111677428Y-99333047D01*
D14*
X86146285Y-127567428D02*
X86291428Y-127615809D01*
X86339809Y-127664190D01*
X86388190Y-127760952D01*
X86388190Y-127906095D01*
X86339809Y-128002857D01*
X86291428Y-128051238D01*
X86194666Y-128099619D01*
X85807619Y-128099619D01*
X85807619Y-127083619D01*
X86146285Y-127083619D01*
X86243047Y-127132000D01*
X86291428Y-127180380D01*
X86339809Y-127277142D01*
X86339809Y-127373904D01*
X86291428Y-127470666D01*
X86243047Y-127519047D01*
X86146285Y-127567428D01*
X85807619Y-127567428D01*
X86775238Y-127809333D02*
X87259047Y-127809333D01*
X86678476Y-128099619D02*
X87017142Y-127083619D01*
X87355809Y-128099619D01*
X87549333Y-127083619D02*
X88129904Y-127083619D01*
X87839619Y-128099619D02*
X87839619Y-127083619D01*
X89000761Y-128099619D02*
X88420190Y-128099619D01*
X88710476Y-128099619D02*
X88710476Y-127083619D01*
X88613714Y-127228761D01*
X88516952Y-127325523D01*
X88420190Y-127373904D01*
M02*
