G04 #@! TF.GenerationSoftware,KiCad,Pcbnew,5.1.5+dfsg1-2build2*
G04 #@! TF.CreationDate,2021-07-09T11:51:46+03:00*
G04 #@! TF.ProjectId,STM32WL-DevKit_RevB,53544d33-3257-44c2-9d44-65764b69745f,rev?*
G04 #@! TF.SameCoordinates,Original*
G04 #@! TF.FileFunction,Soldermask,Top*
G04 #@! TF.FilePolarity,Negative*
%FSLAX46Y46*%
G04 Gerber Fmt 4.6, Leading zero omitted, Abs format (unit mm)*
G04 Created by KiCad (PCBNEW 5.1.5+dfsg1-2build2) date 2021-07-09 11:51:46*
%MOMM*%
%LPD*%
G04 APERTURE LIST*
%ADD10O,1.101600X1.601600*%
%ADD11R,0.402000X0.702000*%
%ADD12R,0.702000X0.402000*%
%ADD13R,3.552000X3.552000*%
%ADD14C,1.626000*%
%ADD15R,0.651600X0.601600*%
%ADD16C,0.100000*%
%ADD17R,2.100580X4.102100*%
%ADD18R,1.102360X2.603500*%
%ADD19R,0.601600X1.751600*%
%ADD20R,0.426600X1.751600*%
%ADD21C,0.701600*%
%ADD22R,1.201600X1.101600*%
%ADD23O,1.301600X1.901600*%
%ADD24R,1.301600X1.301600*%
%ADD25R,0.901600X1.001600*%
%ADD26C,1.901600*%
%ADD27R,1.901600X1.901600*%
%ADD28R,0.901600X0.901600*%
%ADD29R,0.601600X0.651600*%
%ADD30R,0.602000X0.652000*%
%ADD31R,1.117600X1.117600*%
%ADD32C,1.880000*%
%ADD33C,1.254000*%
%ADD34C,3.402000*%
%ADD35R,0.350000X0.375000*%
%ADD36R,0.375000X0.350000*%
%ADD37R,0.600000X0.425000*%
%ADD38C,1.301600*%
%ADD39R,4.351600X1.101600*%
%ADD40R,1.625600X1.117600*%
%ADD41C,1.879600*%
%ADD42R,1.879600X1.879600*%
%ADD43C,1.625600*%
%ADD44R,1.625600X1.625600*%
G04 APERTURE END LIST*
D10*
X90693400Y-100685600D03*
X89443400Y-100685600D03*
D11*
X81765200Y-103721400D03*
X82265200Y-103721400D03*
X82765200Y-103721400D03*
X83265200Y-103721400D03*
X83765200Y-103721400D03*
X84265200Y-103721400D03*
X84765200Y-103721400D03*
X85265200Y-103721400D03*
D12*
X85865200Y-103121400D03*
X85865200Y-102621400D03*
X85865200Y-102121400D03*
X85865200Y-101621400D03*
X85865200Y-101121400D03*
X85865200Y-100621400D03*
X85865200Y-100121400D03*
X85865200Y-99621400D03*
D11*
X85265200Y-99021400D03*
X84765200Y-99021400D03*
X84265200Y-99021400D03*
X83765200Y-99021400D03*
X83265200Y-99021400D03*
X82765200Y-99021400D03*
X82265200Y-99021400D03*
X81765200Y-99021400D03*
D12*
X81165200Y-99621400D03*
X81165200Y-100121400D03*
X81165200Y-100621400D03*
X81165200Y-101121400D03*
X81165200Y-101621400D03*
X81165200Y-102121400D03*
X81165200Y-102621400D03*
X81165200Y-103121400D03*
D13*
X83515200Y-101371400D03*
D14*
X83515200Y-101371400D03*
D15*
X111760000Y-96393000D03*
X111760000Y-95377000D03*
D16*
G36*
X94567770Y-91382850D02*
G01*
X93999542Y-92233750D01*
X92944458Y-92233750D01*
X92376230Y-91382850D01*
X94567770Y-91382850D01*
G37*
D17*
X93472000Y-89458800D03*
D18*
X94973140Y-93411040D03*
X93472000Y-93411040D03*
X91970860Y-93411040D03*
D19*
X85207500Y-92685000D03*
D20*
X84470000Y-92685000D03*
X83820000Y-92685000D03*
X83170000Y-92685000D03*
D19*
X82432500Y-92685000D03*
D21*
X85820000Y-91435000D03*
X81820000Y-91435000D03*
D22*
X85320000Y-88135000D03*
X82320000Y-88135000D03*
D23*
X87420000Y-89285000D03*
X87420000Y-92755000D03*
X80220000Y-92755000D03*
X80220000Y-89285000D03*
D24*
X95030800Y-97815400D03*
X91760800Y-97815400D03*
D25*
X95030800Y-100347600D03*
X93030800Y-100347600D03*
X94030800Y-102547600D03*
D26*
X68580000Y-138430000D03*
D27*
X66040000Y-138430000D03*
D28*
X99491800Y-137795000D03*
X99491800Y-139319000D03*
X100990400Y-137795000D03*
X100990400Y-139319000D03*
X102463600Y-137795000D03*
X102463600Y-139319000D03*
D29*
X79578200Y-103403400D03*
X78562200Y-103403400D03*
D15*
X89636600Y-95808800D03*
X89636600Y-96824800D03*
X89636600Y-97688400D03*
X89636600Y-98704400D03*
X81635600Y-97434400D03*
X81635600Y-96418400D03*
X83515200Y-97434400D03*
X83515200Y-96418400D03*
X82550000Y-97434400D03*
X82550000Y-96418400D03*
D29*
X83769200Y-108585000D03*
X82753200Y-108585000D03*
X78587600Y-99466400D03*
X79603600Y-99466400D03*
X78562200Y-100406200D03*
X79578200Y-100406200D03*
X78562200Y-101320600D03*
X79578200Y-101320600D03*
X79552800Y-102489000D03*
X78536800Y-102489000D03*
D30*
X95504000Y-104444800D03*
X96520000Y-104444800D03*
D15*
X85572600Y-96469200D03*
X85572600Y-97485200D03*
X83769200Y-106451400D03*
X83769200Y-105435400D03*
D31*
X93243400Y-95859600D03*
X95021400Y-95859600D03*
D29*
X83769200Y-107569001D03*
X82753200Y-107569001D03*
D31*
X91211400Y-88239600D03*
X89433400Y-88239600D03*
D15*
X81762600Y-106451400D03*
X81762600Y-105435400D03*
D32*
X98724000Y-89210000D03*
X98724000Y-91750000D03*
X98724000Y-94290000D03*
X98724000Y-96830000D03*
X98724000Y-99370000D03*
X98724000Y-101910000D03*
X98724000Y-104450000D03*
X98724000Y-106990000D03*
X98724000Y-109530000D03*
X98724000Y-112070000D03*
X98724000Y-114610000D03*
X98724000Y-117150000D03*
X73324000Y-89210000D03*
X73324000Y-91750000D03*
X73324000Y-94290000D03*
X73324000Y-96830000D03*
X73324000Y-99370000D03*
X73324000Y-101910000D03*
X73324000Y-104450000D03*
X73324000Y-106990000D03*
X73324000Y-109530000D03*
X73324000Y-112070000D03*
X73324000Y-114610000D03*
X73324000Y-117150000D03*
D33*
X56108600Y-140766800D03*
X111429800Y-87985600D03*
D34*
X107950000Y-90170000D03*
X59690000Y-90170000D03*
X107950000Y-138430000D03*
X59690000Y-138430000D03*
D35*
X108589000Y-95389000D03*
X109089000Y-95389000D03*
D36*
X109589000Y-95389000D03*
X109589000Y-95889000D03*
X109589000Y-96389000D03*
X109589000Y-96889000D03*
D35*
X109089000Y-96889000D03*
X108589000Y-96889000D03*
D36*
X108089000Y-96889000D03*
X108089000Y-96389000D03*
X108089000Y-95889000D03*
X108089000Y-95389000D03*
D37*
X101337000Y-93640000D03*
X101337000Y-94290000D03*
X101337000Y-94940000D03*
X101337000Y-95590000D03*
X103387000Y-95590000D03*
X103387000Y-94940000D03*
X103387000Y-94290000D03*
X103387000Y-93640000D03*
D38*
X62230000Y-103378000D03*
D39*
X65355000Y-112268000D03*
X59105000Y-112268000D03*
X65355000Y-109728000D03*
X59105000Y-109728000D03*
X65355000Y-107188000D03*
X59105000Y-107188000D03*
X65355000Y-104648000D03*
X59105000Y-104648000D03*
X65355000Y-102108000D03*
X59105000Y-102108000D03*
D38*
X62230000Y-110998000D03*
D40*
X111760000Y-106299000D03*
X103886000Y-106299000D03*
X111760000Y-114300000D03*
X103886000Y-114300000D03*
D29*
X75565000Y-109524800D03*
X76581000Y-109524800D03*
X75565000Y-112064800D03*
X76581000Y-112064800D03*
D30*
X109143800Y-100380800D03*
X110159800Y-100380800D03*
D14*
X105664000Y-99441000D03*
X103124000Y-99441000D03*
D29*
X76555600Y-96850200D03*
X75539600Y-96850200D03*
X76657200Y-91770200D03*
X75641200Y-91770200D03*
D41*
X81280000Y-138430000D03*
X78740000Y-138430000D03*
X76200000Y-138430000D03*
D42*
X73660000Y-138430000D03*
D41*
X83820000Y-138430000D03*
X86360000Y-138430000D03*
X91440000Y-138430000D03*
X88900000Y-138430000D03*
X93980000Y-138430000D03*
X96520000Y-138430000D03*
D15*
X103886000Y-109093000D03*
X103886000Y-108077000D03*
D31*
X68961000Y-112268000D03*
X68961000Y-114046000D03*
D29*
X103378000Y-91948000D03*
X102362000Y-91948000D03*
D31*
X75692000Y-99695000D03*
X75692000Y-101473000D03*
D29*
X110159800Y-99364800D03*
X109143800Y-99364800D03*
D43*
X110240000Y-127640000D03*
D44*
X56900000Y-127640000D03*
M02*
