G04 #@! TF.GenerationSoftware,KiCad,Pcbnew,5.1.5+dfsg1-2build2*
G04 #@! TF.CreationDate,2021-07-09T11:51:46+03:00*
G04 #@! TF.ProjectId,STM32WL-DevKit_RevB,53544d33-3257-44c2-9d44-65764b69745f,rev?*
G04 #@! TF.SameCoordinates,Original*
G04 #@! TF.FileFunction,Legend,Bot*
G04 #@! TF.FilePolarity,Positive*
%FSLAX46Y46*%
G04 Gerber Fmt 4.6, Leading zero omitted, Abs format (unit mm)*
G04 Created by KiCad (PCBNEW 5.1.5+dfsg1-2build2) date 2021-07-09 11:51:46*
%MOMM*%
%LPD*%
G04 APERTURE LIST*
%ADD10C,0.150000*%
%ADD11C,0.400000*%
%ADD12C,0.700000*%
%ADD13C,0.500000*%
%ADD14C,0.100000*%
%ADD15C,0.254000*%
%ADD16C,0.127000*%
%ADD17C,0.420000*%
%ADD18C,0.370000*%
%ADD19C,0.380000*%
%ADD20C,1.000000*%
%ADD21C,0.300000*%
%ADD22C,0.152400*%
%ADD23C,0.180000*%
%ADD24C,0.200000*%
G04 APERTURE END LIST*
D10*
X93361447Y-106383580D02*
X93837638Y-106383580D01*
X93837638Y-105383580D01*
X92885257Y-106383580D02*
X92980495Y-106335961D01*
X93028114Y-106288342D01*
X93075733Y-106193104D01*
X93075733Y-105907390D01*
X93028114Y-105812152D01*
X92980495Y-105764533D01*
X92885257Y-105716914D01*
X92742400Y-105716914D01*
X92647161Y-105764533D01*
X92599542Y-105812152D01*
X92551923Y-105907390D01*
X92551923Y-106193104D01*
X92599542Y-106288342D01*
X92647161Y-106335961D01*
X92742400Y-106383580D01*
X92885257Y-106383580D01*
X91551923Y-106383580D02*
X91885257Y-105907390D01*
X92123352Y-106383580D02*
X92123352Y-105383580D01*
X91742400Y-105383580D01*
X91647161Y-105431200D01*
X91599542Y-105478819D01*
X91551923Y-105574057D01*
X91551923Y-105716914D01*
X91599542Y-105812152D01*
X91647161Y-105859771D01*
X91742400Y-105907390D01*
X92123352Y-105907390D01*
X90694780Y-106383580D02*
X90694780Y-105859771D01*
X90742400Y-105764533D01*
X90837638Y-105716914D01*
X91028114Y-105716914D01*
X91123352Y-105764533D01*
X90694780Y-106335961D02*
X90790019Y-106383580D01*
X91028114Y-106383580D01*
X91123352Y-106335961D01*
X91170971Y-106240723D01*
X91170971Y-106145485D01*
X91123352Y-106050247D01*
X91028114Y-106002628D01*
X90790019Y-106002628D01*
X90694780Y-105955009D01*
X90218590Y-106002628D02*
X89456685Y-106002628D01*
X89028114Y-106335961D02*
X88885257Y-106383580D01*
X88647161Y-106383580D01*
X88551923Y-106335961D01*
X88504304Y-106288342D01*
X88456685Y-106193104D01*
X88456685Y-106097866D01*
X88504304Y-106002628D01*
X88551923Y-105955009D01*
X88647161Y-105907390D01*
X88837638Y-105859771D01*
X88932876Y-105812152D01*
X88980495Y-105764533D01*
X89028114Y-105669295D01*
X89028114Y-105574057D01*
X88980495Y-105478819D01*
X88932876Y-105431200D01*
X88837638Y-105383580D01*
X88599542Y-105383580D01*
X88456685Y-105431200D01*
X88170971Y-105383580D02*
X87599542Y-105383580D01*
X87885257Y-106383580D02*
X87885257Y-105383580D01*
X87266209Y-106383580D02*
X87266209Y-105383580D01*
X86932876Y-106097866D01*
X86599542Y-105383580D01*
X86599542Y-106383580D01*
X86218590Y-105383580D02*
X85599542Y-105383580D01*
X85932876Y-105764533D01*
X85790019Y-105764533D01*
X85694780Y-105812152D01*
X85647161Y-105859771D01*
X85599542Y-105955009D01*
X85599542Y-106193104D01*
X85647161Y-106288342D01*
X85694780Y-106335961D01*
X85790019Y-106383580D01*
X86075733Y-106383580D01*
X86170971Y-106335961D01*
X86218590Y-106288342D01*
X85218590Y-105478819D02*
X85170971Y-105431200D01*
X85075733Y-105383580D01*
X84837638Y-105383580D01*
X84742400Y-105431200D01*
X84694780Y-105478819D01*
X84647161Y-105574057D01*
X84647161Y-105669295D01*
X84694780Y-105812152D01*
X85266209Y-106383580D01*
X84647161Y-106383580D01*
X84313828Y-105383580D02*
X84075733Y-106383580D01*
X83885257Y-105669295D01*
X83694780Y-106383580D01*
X83456685Y-105383580D01*
X82599542Y-106383580D02*
X83075733Y-106383580D01*
X83075733Y-105383580D01*
X82266209Y-106002628D02*
X81504304Y-106002628D01*
X81028114Y-106383580D02*
X81028114Y-105383580D01*
X80790019Y-105383580D01*
X80647161Y-105431200D01*
X80551923Y-105526438D01*
X80504304Y-105621676D01*
X80456685Y-105812152D01*
X80456685Y-105955009D01*
X80504304Y-106145485D01*
X80551923Y-106240723D01*
X80647161Y-106335961D01*
X80790019Y-106383580D01*
X81028114Y-106383580D01*
X79647161Y-106335961D02*
X79742400Y-106383580D01*
X79932876Y-106383580D01*
X80028114Y-106335961D01*
X80075733Y-106240723D01*
X80075733Y-105859771D01*
X80028114Y-105764533D01*
X79932876Y-105716914D01*
X79742400Y-105716914D01*
X79647161Y-105764533D01*
X79599542Y-105859771D01*
X79599542Y-105955009D01*
X80075733Y-106050247D01*
X79266209Y-105716914D02*
X79028114Y-106383580D01*
X78790019Y-105716914D01*
X78409066Y-106383580D02*
X78409066Y-105383580D01*
X77837638Y-106383580D02*
X78266209Y-105812152D01*
X77837638Y-105383580D02*
X78409066Y-105955009D01*
X77409066Y-106383580D02*
X77409066Y-105383580D01*
X77075733Y-105383580D02*
X76504304Y-105383580D01*
X76790019Y-106383580D02*
X76790019Y-105383580D01*
X86099542Y-108033580D02*
X86432876Y-107557390D01*
X86670971Y-108033580D02*
X86670971Y-107033580D01*
X86290019Y-107033580D01*
X86194780Y-107081200D01*
X86147161Y-107128819D01*
X86099542Y-107224057D01*
X86099542Y-107366914D01*
X86147161Y-107462152D01*
X86194780Y-107509771D01*
X86290019Y-107557390D01*
X86670971Y-107557390D01*
X85290019Y-107985961D02*
X85385257Y-108033580D01*
X85575733Y-108033580D01*
X85670971Y-107985961D01*
X85718590Y-107890723D01*
X85718590Y-107509771D01*
X85670971Y-107414533D01*
X85575733Y-107366914D01*
X85385257Y-107366914D01*
X85290019Y-107414533D01*
X85242400Y-107509771D01*
X85242400Y-107605009D01*
X85718590Y-107700247D01*
X84909066Y-107366914D02*
X84670971Y-108033580D01*
X84432876Y-107366914D01*
X84051923Y-107938342D02*
X84004304Y-107985961D01*
X84051923Y-108033580D01*
X84099542Y-107985961D01*
X84051923Y-107938342D01*
X84051923Y-108033580D01*
X83242400Y-107509771D02*
X83099542Y-107557390D01*
X83051923Y-107605009D01*
X83004304Y-107700247D01*
X83004304Y-107843104D01*
X83051923Y-107938342D01*
X83099542Y-107985961D01*
X83194780Y-108033580D01*
X83575733Y-108033580D01*
X83575733Y-107033580D01*
X83242400Y-107033580D01*
X83147161Y-107081200D01*
X83099542Y-107128819D01*
X83051923Y-107224057D01*
X83051923Y-107319295D01*
X83099542Y-107414533D01*
X83147161Y-107462152D01*
X83242400Y-107509771D01*
X83575733Y-107509771D01*
X71767557Y-128125480D02*
X72100890Y-127649290D01*
X72338985Y-128125480D02*
X72338985Y-127125480D01*
X71958033Y-127125480D01*
X71862795Y-127173100D01*
X71815176Y-127220719D01*
X71767557Y-127315957D01*
X71767557Y-127458814D01*
X71815176Y-127554052D01*
X71862795Y-127601671D01*
X71958033Y-127649290D01*
X72338985Y-127649290D01*
X71196128Y-128125480D02*
X71291366Y-128077861D01*
X71338985Y-128030242D01*
X71386604Y-127935004D01*
X71386604Y-127649290D01*
X71338985Y-127554052D01*
X71291366Y-127506433D01*
X71196128Y-127458814D01*
X71053271Y-127458814D01*
X70958033Y-127506433D01*
X70910414Y-127554052D01*
X70862795Y-127649290D01*
X70862795Y-127935004D01*
X70910414Y-128030242D01*
X70958033Y-128077861D01*
X71053271Y-128125480D01*
X71196128Y-128125480D01*
X70434223Y-128125480D02*
X70434223Y-127125480D01*
X70434223Y-127601671D02*
X69862795Y-127601671D01*
X69862795Y-128125480D02*
X69862795Y-127125480D01*
X69434223Y-128077861D02*
X69291366Y-128125480D01*
X69053271Y-128125480D01*
X68958033Y-128077861D01*
X68910414Y-128030242D01*
X68862795Y-127935004D01*
X68862795Y-127839766D01*
X68910414Y-127744528D01*
X68958033Y-127696909D01*
X69053271Y-127649290D01*
X69243747Y-127601671D01*
X69338985Y-127554052D01*
X69386604Y-127506433D01*
X69434223Y-127411195D01*
X69434223Y-127315957D01*
X69386604Y-127220719D01*
X69338985Y-127173100D01*
X69243747Y-127125480D01*
X69005652Y-127125480D01*
X68862795Y-127173100D01*
D11*
X93491947Y-102412800D02*
G75*
G03X93491947Y-102412800I-337447J0D01*
G01*
D12*
X93167200Y-101638100D02*
X92659200Y-101130100D01*
X91567000Y-101053900D02*
X90932000Y-101663500D01*
X90957400Y-103619300D02*
X91516200Y-104203500D01*
X89331800Y-104216200D02*
X89789000Y-103759000D01*
X88346000Y-104216200D02*
X89331800Y-104216200D01*
D11*
X88199524Y-104190800D02*
G75*
G03X88199524Y-104190800I-366324J0D01*
G01*
D12*
X87833200Y-101498400D02*
X87833200Y-103098600D01*
D11*
X88194018Y-100965000D02*
G75*
G03X88194018Y-100965000I-373518J0D01*
G01*
X86960959Y-104165400D02*
G75*
G03X86960959Y-104165400I-359659J0D01*
G01*
D12*
X86614000Y-103657400D02*
X86614000Y-101066600D01*
X86614000Y-101066600D02*
X85775800Y-101066600D01*
X85775800Y-101066600D02*
X85166200Y-101574600D01*
X85064600Y-102362000D02*
X85064600Y-101650800D01*
X84988400Y-101574600D02*
X84353400Y-101066600D01*
D11*
X85435518Y-102895400D02*
G75*
G03X85435518Y-102895400I-370918J0D01*
G01*
D12*
X84353400Y-101066600D02*
X83464400Y-101066600D01*
D11*
X83814929Y-104178100D02*
G75*
G03X83814929Y-104178100I-363229J0D01*
G01*
X77951866Y-104267000D02*
G75*
G03X77951866Y-104267000I-329466J0D01*
G01*
D12*
X77952600Y-103911400D02*
X78790800Y-103098600D01*
D13*
X79298800Y-102997000D02*
X78765400Y-102997000D01*
D12*
X80441800Y-104216200D02*
X79298800Y-103098600D01*
X81762600Y-104216200D02*
X80441800Y-104216200D01*
X82194400Y-103784400D02*
X81762600Y-104216200D01*
X82194400Y-101549200D02*
X82194400Y-103784400D01*
X82194400Y-101523800D02*
X81711800Y-101015800D01*
X81663700Y-101041200D02*
X80441800Y-101041200D01*
X80441800Y-101041200D02*
X79349600Y-102108000D01*
D13*
X79324200Y-102222300D02*
X78765400Y-102222300D01*
D12*
X77901800Y-101231700D02*
X78765400Y-102125400D01*
D11*
X77892935Y-100876100D02*
G75*
G03X77892935Y-100876100I-359435J0D01*
G01*
D12*
X80975200Y-102616000D02*
X82194400Y-102616000D01*
D11*
X80826859Y-102616000D02*
G75*
G03X80826859Y-102616000I-359659J0D01*
G01*
D12*
X92595700Y-104228900D02*
X91554300Y-104228900D01*
X93154500Y-103670100D02*
X93154500Y-102908100D01*
X93167200Y-103657400D02*
X92583000Y-104228900D01*
X93167200Y-101688900D02*
X93167200Y-101930200D01*
X90944700Y-101650800D02*
X90944700Y-103581200D01*
X91567000Y-101041200D02*
X92570300Y-101041200D01*
X83451700Y-101053900D02*
X83451700Y-103657400D01*
X89789000Y-103771700D02*
X89789000Y-101041200D01*
D14*
X89789000Y-100698300D02*
X90068400Y-100698300D01*
X90093800Y-100698300D02*
X90093800Y-103847900D01*
X90081100Y-100698300D02*
X90093800Y-100698300D01*
X90068400Y-100698300D02*
X90081100Y-100698300D01*
X89954100Y-100787200D02*
X90017600Y-100774500D01*
X89471500Y-100698300D02*
X89471500Y-103733600D01*
X89776300Y-100698300D02*
X89471500Y-100698300D01*
X89649300Y-100774500D02*
X89535000Y-100774500D01*
X88150700Y-101384100D02*
X88150700Y-103403400D01*
X87515700Y-103403400D02*
X87515700Y-101384100D01*
X87541100Y-103403400D02*
X87515700Y-103403400D01*
X88150700Y-103403400D02*
X87541100Y-103403400D01*
X88011000Y-103339900D02*
X88074500Y-103339900D01*
X87668100Y-103339900D02*
X87579200Y-103339900D01*
X86931500Y-103746300D02*
X86931500Y-100761800D01*
X85686900Y-100749100D02*
X85102700Y-101231700D01*
X86931500Y-100749100D02*
X85686900Y-100749100D01*
X86779100Y-100812600D02*
X86855300Y-100812600D01*
X83121500Y-103771700D02*
X83121500Y-100761800D01*
X84442300Y-100749100D02*
X85064600Y-101244400D01*
X84416900Y-100749100D02*
X84442300Y-100749100D01*
X83121500Y-100749100D02*
X84416900Y-100749100D01*
X83121500Y-100761800D02*
X83121500Y-100749100D01*
X83273900Y-100825300D02*
X83172300Y-100825300D01*
X80327500Y-100711000D02*
X79070200Y-101955600D01*
X80378300Y-100711000D02*
X80327500Y-100711000D01*
X81749900Y-100711000D02*
X80378300Y-100711000D01*
D10*
X68201800Y-124968800D02*
X68201800Y-125730800D01*
X72773800Y-124968800D02*
X68201800Y-124968800D01*
X72773800Y-125730800D02*
X72773800Y-124968800D01*
X68201800Y-125730800D02*
X72773800Y-125730800D01*
X68252600Y-125019600D02*
X72672200Y-125019600D01*
X72723000Y-125121200D02*
X68252600Y-125121200D01*
X68252600Y-125273600D02*
X72672200Y-125273600D01*
X68252600Y-125426000D02*
X72672200Y-125426000D01*
X72723000Y-125172000D02*
X68303400Y-125172000D01*
X72723000Y-125324400D02*
X68252600Y-125324400D01*
X68303400Y-125527600D02*
X72672200Y-125527600D01*
X72723000Y-125629200D02*
X68303400Y-125629200D01*
D15*
X72567800Y-120192800D02*
X68376800Y-124383800D01*
X72440800Y-124256800D02*
X68376800Y-120319800D01*
X71424800Y-123875800D02*
X70027800Y-123875800D01*
X71424800Y-123875800D02*
X71678800Y-120827800D01*
X71932800Y-120700800D02*
X69011800Y-120700800D01*
X70916800Y-124256800D02*
X70916800Y-124002800D01*
X71424800Y-124256800D02*
X70916800Y-124256800D01*
X71424800Y-123875800D02*
X71424800Y-124256800D01*
X69519800Y-123367800D02*
X69392800Y-121335800D01*
X69921409Y-123875800D02*
G75*
G03X69921409Y-123875800I-401609J0D01*
G01*
X71297800Y-120065800D02*
X71297800Y-120573800D01*
X71424800Y-120065800D02*
X71297800Y-120065800D01*
X71424800Y-120573800D02*
X71424800Y-120065800D01*
X69011800Y-121208800D02*
X69011800Y-120700800D01*
X69392800Y-121208800D02*
X69011800Y-121208800D01*
X69392800Y-120700800D02*
X69392800Y-121208800D01*
X69265800Y-120827800D02*
X69265800Y-120954800D01*
X69265800Y-120700800D02*
X69138800Y-121081800D01*
X69265800Y-120827800D02*
X69265800Y-120954800D01*
X69138800Y-120827800D02*
X69138800Y-121208800D01*
X69265800Y-120827800D02*
X69138800Y-120827800D01*
X69265800Y-121208800D02*
X69265800Y-120827800D01*
X70662800Y-121589800D02*
X70662800Y-121208800D01*
X69773800Y-121589800D02*
X70662800Y-121589800D01*
X69773800Y-121208800D02*
X69773800Y-121589800D01*
X70662800Y-121208800D02*
X69773800Y-121208800D01*
X70535800Y-121335800D02*
X69900800Y-121335800D01*
X70281800Y-119811800D02*
X70662800Y-119811800D01*
X70281800Y-119938800D02*
X70281800Y-119811800D01*
X70662800Y-119938800D02*
X70281800Y-119938800D01*
X70662800Y-119811800D02*
X70662800Y-119938800D01*
X69392800Y-120573800D02*
G75*
G02X71678800Y-120573800I1143000J-1143000D01*
G01*
D16*
X69646800Y-123875800D02*
G75*
G03X69646800Y-123875800I-127000J0D01*
G01*
D17*
X88361520Y-124736860D02*
X87810340Y-123314460D01*
D18*
X88706960Y-124551440D02*
X88389460Y-124757180D01*
D11*
X89496900Y-125100080D02*
X88717120Y-124569220D01*
D19*
X90073480Y-124561600D02*
X89509600Y-125100080D01*
D18*
X90058240Y-124561600D02*
X89524840Y-123728480D01*
X89882980Y-122801380D02*
X89524840Y-123685300D01*
X90860880Y-122560080D02*
X89910920Y-122778520D01*
D19*
X90850720Y-121782840D02*
X90855800Y-122570240D01*
D18*
X90863420Y-121770140D02*
X89844880Y-121589800D01*
X89814400Y-121554240D02*
X89466420Y-120688100D01*
X90043000Y-119786400D02*
X89486740Y-120637300D01*
D19*
X90053160Y-119763540D02*
X89552780Y-119230140D01*
D18*
X89504520Y-119204740D02*
X88676480Y-119857520D01*
X88615520Y-119847360D02*
X87769700Y-119440960D01*
X87510620Y-118407180D02*
X87716360Y-119420640D01*
X87518240Y-118394480D02*
X86733380Y-118394480D01*
X86751160Y-118414800D02*
X86537800Y-119433340D01*
X86537800Y-119433340D02*
X85636100Y-119882920D01*
X85623400Y-119877840D02*
X84719160Y-119243400D01*
X84719160Y-119245380D02*
X84165440Y-119791480D01*
X84165440Y-119794020D02*
X84782660Y-120583960D01*
X84782660Y-120583960D02*
X84442300Y-121521220D01*
X84442300Y-121521220D02*
X83360260Y-121749820D01*
X83360260Y-121749820D02*
X83360260Y-122585480D01*
X83360260Y-122585480D02*
X84373720Y-122755660D01*
X84373720Y-122755660D02*
X84780120Y-123667520D01*
X84729320Y-125115320D02*
X85564980Y-124548900D01*
X85564980Y-124548900D02*
X85902800Y-124734320D01*
X85902800Y-124734320D02*
X86476840Y-123294140D01*
X86466680Y-123291600D02*
G75*
G02X86095840Y-121427240I746760J1117600D01*
G01*
X86085680Y-121442480D02*
G75*
G02X88011000Y-121244360I1061720J-863600D01*
G01*
X88036400Y-121269760D02*
G75*
G02X87960200Y-123123960I-965200J-889000D01*
G01*
X84780120Y-123667520D02*
X84160360Y-124553980D01*
X84714080Y-125107700D02*
X84160360Y-124561600D01*
D10*
X88280240Y-124917200D02*
X87630000Y-123248420D01*
X88663780Y-124714000D02*
X88318340Y-124934980D01*
X88676480Y-124703840D02*
X89501980Y-125267720D01*
X89509600Y-125275340D02*
X90230960Y-124581920D01*
X90238580Y-124579380D02*
X89641680Y-123715780D01*
X91000580Y-122671840D02*
X89928700Y-122867420D01*
X91000580Y-121678700D02*
X91000580Y-122664220D01*
X91003120Y-121676160D02*
X89832180Y-121472960D01*
X89933780Y-121478040D02*
X89598500Y-120644920D01*
X90195400Y-119794020D02*
X89601040Y-120647460D01*
X90215720Y-119758460D02*
X89542620Y-119044720D01*
X89529920Y-119042180D02*
X88559640Y-119758460D01*
X88595200Y-119689880D02*
X87690960Y-119311420D01*
X87607140Y-118295420D02*
X87807800Y-119321580D01*
X87596980Y-118287800D02*
X86631780Y-118287800D01*
X86631780Y-118287800D02*
X86405720Y-119458740D01*
X86415880Y-119377460D02*
X85610700Y-119715280D01*
X85730080Y-119763540D02*
X84719160Y-119090440D01*
X84714080Y-119087900D02*
X84020660Y-119778780D01*
X84015580Y-119786400D02*
X84719160Y-120777000D01*
X84630260Y-120667780D02*
X84264500Y-121536460D01*
X83327240Y-122438160D02*
X84434680Y-122661680D01*
X83243420Y-121696480D02*
X83245960Y-122654060D01*
X84381340Y-122885200D02*
X83258660Y-122674380D01*
X84277200Y-122852180D02*
X84658200Y-123832620D01*
X84310220Y-124487940D02*
X84795360Y-125018800D01*
X84706460Y-125262640D02*
X84023200Y-124571760D01*
X85592920Y-124647960D02*
X84716620Y-125267720D01*
X84729320Y-124952760D02*
X85549740Y-124424440D01*
X85412580Y-124620020D02*
X85940900Y-124947680D01*
X85940900Y-124947680D02*
X86326980Y-123967240D01*
X86332060Y-123268740D02*
X85803740Y-124650500D01*
X90708480Y-121866660D02*
X90708480Y-122516900D01*
X90850720Y-121922540D02*
X89735660Y-121676160D01*
X89321640Y-120655080D02*
X89707720Y-121653300D01*
X89316560Y-120660160D02*
X89918540Y-119750840D01*
X89560400Y-119306340D02*
X88676480Y-120027700D01*
X86288880Y-123327160D02*
X86111080Y-123205240D01*
X86111080Y-123205240D02*
X85735160Y-122494040D01*
X85735160Y-122494040D02*
X85735160Y-121975880D01*
X85730080Y-121988580D02*
X85963760Y-121315480D01*
X85963760Y-121315480D02*
X86474300Y-120886220D01*
X86474300Y-120886220D02*
X87289640Y-120726200D01*
X87289640Y-120718580D02*
X88160860Y-121147840D01*
X88160860Y-121147840D02*
X88579960Y-121879360D01*
X88585040Y-121884440D02*
X88452960Y-122707400D01*
X88447880Y-122737880D02*
X88353900Y-122908060D01*
X88447880Y-122737880D02*
X88353900Y-122908060D01*
X88224360Y-122958860D02*
X87965280Y-123296680D01*
X87856060Y-123073160D02*
X87630000Y-123248420D01*
X86354920Y-123075700D02*
X86608920Y-123240800D01*
X86492080Y-123530360D02*
X86614000Y-123245880D01*
X88671400Y-120025160D02*
X87688420Y-119532400D01*
X88341200Y-122938540D02*
X88033860Y-123205240D01*
D20*
X89357200Y-124368560D02*
X88503760Y-123347480D01*
X90393520Y-122163840D02*
X88976200Y-122102880D01*
X89408000Y-119877840D02*
X88346280Y-120985280D01*
X87147400Y-118902480D02*
X87142320Y-120416320D01*
X84881720Y-119959120D02*
X85994240Y-121025920D01*
X83891120Y-122143520D02*
X85359240Y-122229880D01*
X88681560Y-124195840D02*
X88315800Y-123433840D01*
X89347040Y-123296680D02*
X88783160Y-122816620D01*
X89595960Y-122651520D02*
X88889840Y-122524520D01*
X89270840Y-121406920D02*
X88828880Y-121566940D01*
X89095580Y-120926860D02*
X88638380Y-121216420D01*
X88097360Y-120149620D02*
X87922100Y-120507760D01*
X87663020Y-119890540D02*
X87495380Y-120500140D01*
X86398100Y-119905780D02*
X86619080Y-120591580D01*
X85811360Y-120157240D02*
X86230460Y-120743980D01*
X84942680Y-121025920D02*
X85598000Y-121391680D01*
X84701380Y-121719340D02*
X85422740Y-121866660D01*
X85537040Y-122877580D02*
X84927440Y-122984260D01*
X85857080Y-123296680D02*
X85239860Y-123624340D01*
X85971380Y-123433840D02*
X84790280Y-124447300D01*
X85971380Y-123342400D02*
X85638640Y-124073920D01*
D15*
X101065200Y-124117100D02*
X102315200Y-124117100D01*
X101065200Y-124367100D02*
X102315200Y-124367100D01*
X101065200Y-123867100D02*
X101065200Y-124367100D01*
X102315200Y-123867100D02*
X101065200Y-123867100D01*
X100815200Y-122117100D02*
X100815200Y-122617100D01*
X100815200Y-126117100D02*
G75*
G03X100815200Y-122117100I0J2000000D01*
G01*
X100815200Y-125617100D02*
X100815200Y-126117100D01*
D21*
X100865180Y-125867100D02*
G75*
G03X100865200Y-122367100I-49980J1750000D01*
G01*
D15*
X100815200Y-125617100D02*
G75*
G03X100815200Y-122617100I0J1500000D01*
G01*
D21*
X104365180Y-125867100D02*
G75*
G03X104365200Y-122367100I-49980J1750000D01*
G01*
D15*
X104315200Y-125617100D02*
X104315200Y-126117100D01*
X104315200Y-122117100D02*
X104315200Y-122617100D01*
X104315200Y-126117100D02*
G75*
G03X104315200Y-122117100I0J2000000D01*
G01*
X104315200Y-125617100D02*
G75*
G03X104315200Y-122617100I0J1500000D01*
G01*
D22*
X103886000Y-102590600D02*
G75*
G02X103632000Y-102336600I0J254000D01*
G01*
X105156000Y-102336600D02*
G75*
G02X104902000Y-102590600I-254000J0D01*
G01*
X104902000Y-101574600D02*
G75*
G02X105156000Y-101828600I0J-254000D01*
G01*
X103632000Y-101828600D02*
G75*
G02X103886000Y-101574600I254000J0D01*
G01*
D10*
X103632000Y-102336600D02*
X103632000Y-101828600D01*
X103886000Y-101574600D02*
X104902000Y-101574600D01*
X105156000Y-101828600D02*
X105156000Y-102336600D01*
X104902000Y-102590600D02*
X103886000Y-102590600D01*
D15*
X92080998Y-126948979D02*
X92185760Y-126896598D01*
X92238140Y-126844217D01*
X92290521Y-126739455D01*
X92290521Y-126425169D01*
X92238140Y-126320407D01*
X92185760Y-126268026D01*
X92080998Y-126215645D01*
X91923855Y-126215645D01*
X91819093Y-126268026D01*
X91766712Y-126320407D01*
X91714331Y-126425169D01*
X91714331Y-126739455D01*
X91766712Y-126844217D01*
X91819093Y-126896598D01*
X91923855Y-126948979D01*
X92080998Y-126948979D01*
X91242902Y-126215645D02*
X91242902Y-127315645D01*
X91242902Y-126268026D02*
X91138140Y-126215645D01*
X90928617Y-126215645D01*
X90823855Y-126268026D01*
X90771474Y-126320407D01*
X90719093Y-126425169D01*
X90719093Y-126739455D01*
X90771474Y-126844217D01*
X90823855Y-126896598D01*
X90928617Y-126948979D01*
X91138140Y-126948979D01*
X91242902Y-126896598D01*
X89828617Y-126896598D02*
X89933379Y-126948979D01*
X90142902Y-126948979D01*
X90247664Y-126896598D01*
X90300045Y-126791836D01*
X90300045Y-126372788D01*
X90247664Y-126268026D01*
X90142902Y-126215645D01*
X89933379Y-126215645D01*
X89828617Y-126268026D01*
X89776236Y-126372788D01*
X89776236Y-126477550D01*
X90300045Y-126582312D01*
X89304807Y-126215645D02*
X89304807Y-126948979D01*
X89304807Y-126320407D02*
X89252426Y-126268026D01*
X89147664Y-126215645D01*
X88990521Y-126215645D01*
X88885760Y-126268026D01*
X88833379Y-126372788D01*
X88833379Y-126948979D01*
D23*
X87765497Y-126995180D02*
X87765497Y-125995180D01*
X87336925Y-126995180D02*
X87336925Y-126471371D01*
X87384544Y-126376133D01*
X87479782Y-126328514D01*
X87622640Y-126328514D01*
X87717878Y-126376133D01*
X87765497Y-126423752D01*
X86432163Y-126995180D02*
X86432163Y-126471371D01*
X86479782Y-126376133D01*
X86575020Y-126328514D01*
X86765497Y-126328514D01*
X86860735Y-126376133D01*
X86432163Y-126947561D02*
X86527401Y-126995180D01*
X86765497Y-126995180D01*
X86860735Y-126947561D01*
X86908354Y-126852323D01*
X86908354Y-126757085D01*
X86860735Y-126661847D01*
X86765497Y-126614228D01*
X86527401Y-126614228D01*
X86432163Y-126566609D01*
X85955973Y-126995180D02*
X85955973Y-126328514D01*
X85955973Y-126518990D02*
X85908354Y-126423752D01*
X85860735Y-126376133D01*
X85765497Y-126328514D01*
X85670259Y-126328514D01*
X84908354Y-126995180D02*
X84908354Y-125995180D01*
X84908354Y-126947561D02*
X85003592Y-126995180D01*
X85194068Y-126995180D01*
X85289306Y-126947561D01*
X85336925Y-126899942D01*
X85384544Y-126804704D01*
X85384544Y-126518990D01*
X85336925Y-126423752D01*
X85289306Y-126376133D01*
X85194068Y-126328514D01*
X85003592Y-126328514D01*
X84908354Y-126376133D01*
X84527401Y-126328514D02*
X84336925Y-126995180D01*
X84146449Y-126518990D01*
X83955973Y-126995180D01*
X83765497Y-126328514D01*
X82955973Y-126995180D02*
X82955973Y-126471371D01*
X83003592Y-126376133D01*
X83098830Y-126328514D01*
X83289306Y-126328514D01*
X83384544Y-126376133D01*
X82955973Y-126947561D02*
X83051211Y-126995180D01*
X83289306Y-126995180D01*
X83384544Y-126947561D01*
X83432163Y-126852323D01*
X83432163Y-126757085D01*
X83384544Y-126661847D01*
X83289306Y-126614228D01*
X83051211Y-126614228D01*
X82955973Y-126566609D01*
X82479782Y-126995180D02*
X82479782Y-126328514D01*
X82479782Y-126518990D02*
X82432163Y-126423752D01*
X82384544Y-126376133D01*
X82289306Y-126328514D01*
X82194068Y-126328514D01*
X81479782Y-126947561D02*
X81575020Y-126995180D01*
X81765497Y-126995180D01*
X81860735Y-126947561D01*
X81908354Y-126852323D01*
X81908354Y-126471371D01*
X81860735Y-126376133D01*
X81765497Y-126328514D01*
X81575020Y-126328514D01*
X81479782Y-126376133D01*
X81432163Y-126471371D01*
X81432163Y-126566609D01*
X81908354Y-126661847D01*
D24*
X105333685Y-103816109D02*
X105219400Y-103854204D01*
X105028923Y-103854204D01*
X104952733Y-103816109D01*
X104914638Y-103778014D01*
X104876542Y-103701823D01*
X104876542Y-103625633D01*
X104914638Y-103549442D01*
X104952733Y-103511347D01*
X105028923Y-103473252D01*
X105181304Y-103435157D01*
X105257495Y-103397061D01*
X105295590Y-103358966D01*
X105333685Y-103282776D01*
X105333685Y-103206585D01*
X105295590Y-103130395D01*
X105257495Y-103092300D01*
X105181304Y-103054204D01*
X104990828Y-103054204D01*
X104876542Y-103092300D01*
X104305114Y-103054204D02*
X104305114Y-103625633D01*
X104343209Y-103739919D01*
X104419400Y-103816109D01*
X104533685Y-103854204D01*
X104609876Y-103854204D01*
X103505114Y-103854204D02*
X103962257Y-103854204D01*
X103733685Y-103854204D02*
X103733685Y-103054204D01*
X103809876Y-103168490D01*
X103886066Y-103244680D01*
X103962257Y-103282776D01*
M02*
