M48
; DRILL file {KiCad 5.1.5+dfsg1-2build2} date  9.07.2021 (пт) 11:51:49
; FORMAT={-:-/ absolute / metric / decimal}
; #@! TF.CreationDate,2021-07-09T11:51:49+03:00
; #@! TF.GenerationSoftware,Kicad,Pcbnew,5.1.5+dfsg1-2build2
; #@! TF.FileFunction,Plated,1,4,PTH
FMAT,2
METRIC
T1C0.300
T2C0.400
T3C0.600
T4C0.762
T5C0.800
T6C1.000
%
G90
G05
T1
X59.131Y-113.792
X62.154Y-105.791
X62.23Y-100.152
X69.748Y-120.625
X69.774Y-125.781
X70.866Y-91.491
X71.323Y-128.194
X74.955Y-108.382
X75.006Y-120.421
X76.251Y-93.548
X76.606Y-100.025
X76.642Y-97.978
X76.962Y-102.489
X77.622Y-113.919
X77.648Y-121.285
X77.876Y-96.856
X77.902Y-118.161
X77.927Y-99.466
X77.927Y-100.406
X77.953Y-101.295
X78.232Y-98.349
X78.867Y-98.349
X79.045Y-116.434
X79.553Y-98.349
X79.934Y-118.542
X79.967Y-104.757
X80.315Y-117.45
X80.874Y-106.451
X81.026Y-98.908
X81.28Y-117.551
X82.118Y-98.337
X82.144Y-107.544
X82.855Y-106.451
X83.109Y-104.623
X83.642Y-113.055
X84.912Y-106.451
X86.284Y-97.46
X86.868Y-106.451
X87.274Y-103.454
X87.274Y-104.191
X87.3Y-101.938
X87.3Y-102.616
X87.808Y-98.425
X89.601Y-121.65
X89.662Y-99.263
X89.764Y-128.041
X90.145Y-136.119
X90.221Y-106.375
X90.399Y-102.591
X90.627Y-121.361
X90.754Y-97.358
X91.948Y-104.699
X91.973Y-99.238
X91.973Y-103.962
X93.031Y-97.977
X93.853Y-97.968
X93.98Y-125.501
X94.056Y-100.559
X94.158Y-101.346
X99.492Y-136.246
X100.559Y-113.208
X100.559Y-115.875
X100.584Y-110.795
X100.99Y-136.246
X102.514Y-136.246
X102.559Y-94.355
T2
X55.994Y-95.491
X56.35Y-109.728
X56.794Y-112.243
X58.331Y-96.85
X59.118Y-98.781
X61.506Y-112.243
X62.408Y-109.537
X63.513Y-96.685
X66.904Y-96.545
X68.11Y-92.354
X68.999Y-114.998
X69.164Y-99.365
X69.177Y-97.904
X69.571Y-94.031
X70.46Y-112.268
X71.438Y-96.888
X73.66Y-126.784
X75.082Y-122.885
X80.061Y-128.359
X82.74Y-128.359
X84.988Y-128.321
X87.579Y-128.333
X90.784Y-93.813
X92.672Y-121.463
X93.015Y-127.457
X93.701Y-128.194
X94.844Y-115.773
X95.225Y-113.081
X95.809Y-110.884
X96.85Y-108.458
X100.66Y-94.285
X101.409Y-97.13
X101.409Y-99.035
X103.137Y-104.47
X103.378Y-96.444
X103.403Y-92.9
X103.899Y-109.753
X104.026Y-103.111
X106.541Y-96.652
X106.921Y-95.402
X107.378Y-100.978
X108.064Y-100.482
X109.423Y-104.483
X109.677Y-98.425
T3
X89.443Y-100.686
X90.693Y-100.686
T4
X103.124Y-99.441
X105.664Y-99.441
T5
X56.9Y-127.64
X110.24Y-127.64
T6
X73.66Y-138.43
X76.2Y-138.43
X78.74Y-138.43
X81.28Y-138.43
X83.82Y-138.43
X86.36Y-138.43
X88.9Y-138.43
X91.44Y-138.43
X93.98Y-138.43
X96.52Y-138.43
X83.515Y-101.371
X73.324Y-89.21
X73.324Y-91.75
X73.324Y-94.29
X73.324Y-96.83
X73.324Y-99.37
X73.324Y-101.91
X73.324Y-104.45
X73.324Y-106.99
X73.324Y-109.53
X73.324Y-112.07
X73.324Y-114.61
X73.324Y-117.15
X98.724Y-89.21
X98.724Y-91.75
X98.724Y-94.29
X98.724Y-96.83
X98.724Y-99.37
X98.724Y-101.91
X98.724Y-104.45
X98.724Y-106.99
X98.724Y-109.53
X98.724Y-112.07
X98.724Y-114.61
X98.724Y-117.15
X66.04Y-138.43
X68.58Y-138.43
T3
G00X80.22Y-89.585
M15
G01X80.22Y-88.985
M16
G05
G00X80.22Y-93.055
M15
G01X80.22Y-92.455
M16
G05
G00X87.42Y-89.585
M15
G01X87.42Y-88.985
M16
G05
G00X87.42Y-93.055
M15
G01X87.42Y-92.455
M16
G05
T0
M30
