G04 #@! TF.GenerationSoftware,KiCad,Pcbnew,5.1.0-rc2-unknown-036be7d~80~ubuntu16.04.1*
G04 #@! TF.CreationDate,2022-05-16T13:48:37+03:00*
G04 #@! TF.ProjectId,LoRa-STM32WL-DevKit_RevD,4c6f5261-2d53-4544-9d33-32574c2d4465,D*
G04 #@! TF.SameCoordinates,Original*
G04 #@! TF.FileFunction,Legend,Top*
G04 #@! TF.FilePolarity,Positive*
%FSLAX46Y46*%
G04 Gerber Fmt 4.6, Leading zero omitted, Abs format (unit mm)*
G04 Created by KiCad (PCBNEW 5.1.0-rc2-unknown-036be7d~80~ubuntu16.04.1) date 2022-05-16 13:48:37*
%MOMM*%
%LPD*%
G04 APERTURE LIST*
%ADD10C,0.254000*%
%ADD11C,0.222250*%
%ADD12C,0.190500*%
%ADD13C,0.350000*%
%ADD14C,0.400000*%
%ADD15C,0.160000*%
%ADD16C,0.127000*%
%ADD17C,0.100000*%
%ADD18C,0.050000*%
%ADD19C,0.150000*%
%ADD20C,0.508000*%
%ADD21C,0.700000*%
%ADD22C,0.500000*%
%ADD23C,0.200000*%
G04 APERTURE END LIST*
D10*
X55547380Y-117807619D02*
X56176333Y-117807619D01*
X55837666Y-118194666D01*
X55982809Y-118194666D01*
X56079571Y-118243047D01*
X56127952Y-118291428D01*
X56176333Y-118388190D01*
X56176333Y-118630095D01*
X56127952Y-118726857D01*
X56079571Y-118775238D01*
X55982809Y-118823619D01*
X55692523Y-118823619D01*
X55595761Y-118775238D01*
X55547380Y-118726857D01*
X56466619Y-117807619D02*
X56805285Y-118823619D01*
X57143952Y-117807619D01*
X57240714Y-118920380D02*
X58014809Y-118920380D01*
X58208333Y-118533333D02*
X58692142Y-118533333D01*
X58111571Y-118823619D02*
X58450238Y-117807619D01*
X58788904Y-118823619D01*
X59079190Y-118533333D02*
X59563000Y-118533333D01*
X58982428Y-118823619D02*
X59321095Y-117807619D01*
X59659761Y-118823619D01*
X59756523Y-118920380D02*
X60530619Y-118920380D01*
X61111190Y-118291428D02*
X61256333Y-118339809D01*
X61304714Y-118388190D01*
X61353095Y-118484952D01*
X61353095Y-118630095D01*
X61304714Y-118726857D01*
X61256333Y-118775238D01*
X61159571Y-118823619D01*
X60772523Y-118823619D01*
X60772523Y-117807619D01*
X61111190Y-117807619D01*
X61207952Y-117856000D01*
X61256333Y-117904380D01*
X61304714Y-118001142D01*
X61304714Y-118097904D01*
X61256333Y-118194666D01*
X61207952Y-118243047D01*
X61111190Y-118291428D01*
X60772523Y-118291428D01*
X61740142Y-118533333D02*
X62223952Y-118533333D01*
X61643380Y-118823619D02*
X61982047Y-117807619D01*
X62320714Y-118823619D01*
X62514238Y-117807619D02*
X63094809Y-117807619D01*
X62804523Y-118823619D02*
X62804523Y-117807619D01*
X63288333Y-117807619D02*
X63868904Y-117807619D01*
X63578619Y-118823619D02*
X63578619Y-117807619D01*
X64207571Y-118291428D02*
X64546238Y-118291428D01*
X64691380Y-118823619D02*
X64207571Y-118823619D01*
X64207571Y-117807619D01*
X64691380Y-117807619D01*
X65707380Y-118823619D02*
X65368714Y-118339809D01*
X65126809Y-118823619D02*
X65126809Y-117807619D01*
X65513857Y-117807619D01*
X65610619Y-117856000D01*
X65659000Y-117904380D01*
X65707380Y-118001142D01*
X65707380Y-118146285D01*
X65659000Y-118243047D01*
X65610619Y-118291428D01*
X65513857Y-118339809D01*
X65126809Y-118339809D01*
X66336333Y-118339809D02*
X66336333Y-118823619D01*
X65997666Y-117807619D02*
X66336333Y-118339809D01*
X66675000Y-117807619D01*
X79754642Y-114919075D02*
X79756000Y-114935000D01*
X96072476Y-118061619D02*
X95491904Y-118061619D01*
X95782190Y-118061619D02*
X95782190Y-117045619D01*
X95685428Y-117190761D01*
X95588666Y-117287523D01*
X95491904Y-117335904D01*
X96411142Y-117045619D02*
X97040095Y-117045619D01*
X96701428Y-117432666D01*
X96846571Y-117432666D01*
X96943333Y-117481047D01*
X96991714Y-117529428D01*
X97040095Y-117626190D01*
X97040095Y-117868095D01*
X96991714Y-117964857D01*
X96943333Y-118013238D01*
X96846571Y-118061619D01*
X96556285Y-118061619D01*
X96459523Y-118013238D01*
X96411142Y-117964857D01*
D11*
X86190666Y-113220500D02*
X86360000Y-113813166D01*
X86529333Y-113389833D01*
X86698666Y-113813166D01*
X86868000Y-113220500D01*
X87122000Y-113220500D02*
X87291333Y-113813166D01*
X87460666Y-113389833D01*
X87630000Y-113813166D01*
X87799333Y-113220500D01*
X88053333Y-113220500D02*
X88222666Y-113813166D01*
X88392000Y-113389833D01*
X88561333Y-113813166D01*
X88730666Y-113220500D01*
X89069333Y-113728500D02*
X89111666Y-113770833D01*
X89069333Y-113813166D01*
X89027000Y-113770833D01*
X89069333Y-113728500D01*
X89069333Y-113813166D01*
X89619666Y-113813166D02*
X89535000Y-113770833D01*
X89492666Y-113728500D01*
X89450333Y-113643833D01*
X89450333Y-113389833D01*
X89492666Y-113305166D01*
X89535000Y-113262833D01*
X89619666Y-113220500D01*
X89746666Y-113220500D01*
X89831333Y-113262833D01*
X89873666Y-113305166D01*
X89916000Y-113389833D01*
X89916000Y-113643833D01*
X89873666Y-113728500D01*
X89831333Y-113770833D01*
X89746666Y-113813166D01*
X89619666Y-113813166D01*
X90424000Y-113813166D02*
X90339333Y-113770833D01*
X90297000Y-113686166D01*
X90297000Y-112924166D01*
X90762666Y-113813166D02*
X90762666Y-113220500D01*
X90762666Y-112924166D02*
X90720333Y-112966500D01*
X90762666Y-113008833D01*
X90805000Y-112966500D01*
X90762666Y-112924166D01*
X90762666Y-113008833D01*
X91186000Y-113813166D02*
X91186000Y-113220500D01*
X91186000Y-113305166D02*
X91228333Y-113262833D01*
X91313000Y-113220500D01*
X91440000Y-113220500D01*
X91524666Y-113262833D01*
X91567000Y-113347500D01*
X91567000Y-113813166D01*
X91567000Y-113347500D02*
X91609333Y-113262833D01*
X91694000Y-113220500D01*
X91821000Y-113220500D01*
X91905666Y-113262833D01*
X91948000Y-113347500D01*
X91948000Y-113813166D01*
X92710000Y-113770833D02*
X92625333Y-113813166D01*
X92456000Y-113813166D01*
X92371333Y-113770833D01*
X92329000Y-113686166D01*
X92329000Y-113347500D01*
X92371333Y-113262833D01*
X92456000Y-113220500D01*
X92625333Y-113220500D01*
X92710000Y-113262833D01*
X92752333Y-113347500D01*
X92752333Y-113432166D01*
X92329000Y-113516833D01*
X93048666Y-113813166D02*
X93514333Y-113220500D01*
X93048666Y-113220500D02*
X93514333Y-113813166D01*
X93853000Y-113728500D02*
X93895333Y-113770833D01*
X93853000Y-113813166D01*
X93810666Y-113770833D01*
X93853000Y-113728500D01*
X93853000Y-113813166D01*
X94657333Y-113770833D02*
X94572666Y-113813166D01*
X94403333Y-113813166D01*
X94318666Y-113770833D01*
X94276333Y-113728500D01*
X94234000Y-113643833D01*
X94234000Y-113389833D01*
X94276333Y-113305166D01*
X94318666Y-113262833D01*
X94403333Y-113220500D01*
X94572666Y-113220500D01*
X94657333Y-113262833D01*
X95165333Y-113813166D02*
X95080666Y-113770833D01*
X95038333Y-113728500D01*
X94996000Y-113643833D01*
X94996000Y-113389833D01*
X95038333Y-113305166D01*
X95080666Y-113262833D01*
X95165333Y-113220500D01*
X95292333Y-113220500D01*
X95377000Y-113262833D01*
X95419333Y-113305166D01*
X95461666Y-113389833D01*
X95461666Y-113643833D01*
X95419333Y-113728500D01*
X95377000Y-113770833D01*
X95292333Y-113813166D01*
X95165333Y-113813166D01*
X95842666Y-113813166D02*
X95842666Y-113220500D01*
X95842666Y-113305166D02*
X95885000Y-113262833D01*
X95969666Y-113220500D01*
X96096666Y-113220500D01*
X96181333Y-113262833D01*
X96223666Y-113347500D01*
X96223666Y-113813166D01*
X96223666Y-113347500D02*
X96266000Y-113262833D01*
X96350666Y-113220500D01*
X96477666Y-113220500D01*
X96562333Y-113262833D01*
X96604666Y-113347500D01*
X96604666Y-113813166D01*
D12*
X100203000Y-103898095D02*
X100166714Y-103994857D01*
X100166714Y-104140000D01*
X100203000Y-104285142D01*
X100275571Y-104381904D01*
X100348142Y-104430285D01*
X100493285Y-104478666D01*
X100602142Y-104478666D01*
X100747285Y-104430285D01*
X100819857Y-104381904D01*
X100892428Y-104285142D01*
X100928714Y-104140000D01*
X100928714Y-104043238D01*
X100892428Y-103898095D01*
X100856142Y-103849714D01*
X100602142Y-103849714D01*
X100602142Y-104043238D01*
X100928714Y-103414285D02*
X100166714Y-103414285D01*
X100928714Y-102833714D01*
X100166714Y-102833714D01*
X100928714Y-102349904D02*
X100166714Y-102349904D01*
X100166714Y-102108000D01*
X100203000Y-101962857D01*
X100275571Y-101866095D01*
X100348142Y-101817714D01*
X100493285Y-101769333D01*
X100602142Y-101769333D01*
X100747285Y-101817714D01*
X100819857Y-101866095D01*
X100892428Y-101962857D01*
X100928714Y-102108000D01*
X100928714Y-102349904D01*
D10*
X75474285Y-118061619D02*
X74893714Y-118061619D01*
X75184000Y-118061619D02*
X75184000Y-117045619D01*
X75087238Y-117190761D01*
X74990476Y-117287523D01*
X74893714Y-117335904D01*
X100777523Y-92232238D02*
X100922666Y-92280619D01*
X101164571Y-92280619D01*
X101261333Y-92232238D01*
X101309714Y-92183857D01*
X101358095Y-92087095D01*
X101358095Y-91990333D01*
X101309714Y-91893571D01*
X101261333Y-91845190D01*
X101164571Y-91796809D01*
X100971047Y-91748428D01*
X100874285Y-91700047D01*
X100825904Y-91651666D01*
X100777523Y-91554904D01*
X100777523Y-91458142D01*
X100825904Y-91361380D01*
X100874285Y-91313000D01*
X100971047Y-91264619D01*
X101212952Y-91264619D01*
X101358095Y-91313000D01*
X101793523Y-92280619D02*
X101793523Y-91264619D01*
X102035428Y-91264619D01*
X102180571Y-91313000D01*
X102277333Y-91409761D01*
X102325714Y-91506523D01*
X102374095Y-91700047D01*
X102374095Y-91845190D01*
X102325714Y-92038714D01*
X102277333Y-92135476D01*
X102180571Y-92232238D01*
X102035428Y-92280619D01*
X101793523Y-92280619D01*
X103003047Y-91264619D02*
X103196571Y-91264619D01*
X103293333Y-91313000D01*
X103390095Y-91409761D01*
X103438476Y-91603285D01*
X103438476Y-91941952D01*
X103390095Y-92135476D01*
X103293333Y-92232238D01*
X103196571Y-92280619D01*
X103003047Y-92280619D01*
X102906285Y-92232238D01*
X102809523Y-92135476D01*
X102761142Y-91941952D01*
X102761142Y-91603285D01*
X102809523Y-91409761D01*
X102906285Y-91313000D01*
X103003047Y-91264619D01*
X100686809Y-89184238D02*
X100831952Y-89232619D01*
X101073857Y-89232619D01*
X101170619Y-89184238D01*
X101219000Y-89135857D01*
X101267380Y-89039095D01*
X101267380Y-88942333D01*
X101219000Y-88845571D01*
X101170619Y-88797190D01*
X101073857Y-88748809D01*
X100880333Y-88700428D01*
X100783571Y-88652047D01*
X100735190Y-88603666D01*
X100686809Y-88506904D01*
X100686809Y-88410142D01*
X100735190Y-88313380D01*
X100783571Y-88265000D01*
X100880333Y-88216619D01*
X101122238Y-88216619D01*
X101267380Y-88265000D01*
X101702809Y-89232619D02*
X101702809Y-88216619D01*
X101944714Y-88216619D01*
X102089857Y-88265000D01*
X102186619Y-88361761D01*
X102235000Y-88458523D01*
X102283380Y-88652047D01*
X102283380Y-88797190D01*
X102235000Y-88990714D01*
X102186619Y-89087476D01*
X102089857Y-89184238D01*
X101944714Y-89232619D01*
X101702809Y-89232619D01*
X102718809Y-89232619D02*
X102718809Y-88216619D01*
X100674714Y-93883238D02*
X100819857Y-93931619D01*
X101061761Y-93931619D01*
X101158523Y-93883238D01*
X101206904Y-93834857D01*
X101255285Y-93738095D01*
X101255285Y-93641333D01*
X101206904Y-93544571D01*
X101158523Y-93496190D01*
X101061761Y-93447809D01*
X100868238Y-93399428D01*
X100771476Y-93351047D01*
X100723095Y-93302666D01*
X100674714Y-93205904D01*
X100674714Y-93109142D01*
X100723095Y-93012380D01*
X100771476Y-92964000D01*
X100868238Y-92915619D01*
X101110142Y-92915619D01*
X101255285Y-92964000D01*
X102271285Y-93834857D02*
X102222904Y-93883238D01*
X102077761Y-93931619D01*
X101981000Y-93931619D01*
X101835857Y-93883238D01*
X101739095Y-93786476D01*
X101690714Y-93689714D01*
X101642333Y-93496190D01*
X101642333Y-93351047D01*
X101690714Y-93157523D01*
X101739095Y-93060761D01*
X101835857Y-92964000D01*
X101981000Y-92915619D01*
X102077761Y-92915619D01*
X102222904Y-92964000D01*
X102271285Y-93012380D01*
X102706714Y-93931619D02*
X102706714Y-92915619D01*
X103287285Y-93931619D02*
X102851857Y-93351047D01*
X103287285Y-92915619D02*
X102706714Y-93496190D01*
X100723095Y-96090619D02*
X100723095Y-95074619D01*
X101303666Y-96090619D01*
X101303666Y-95074619D01*
X101739095Y-96042238D02*
X101884238Y-96090619D01*
X102126142Y-96090619D01*
X102222904Y-96042238D01*
X102271285Y-95993857D01*
X102319666Y-95897095D01*
X102319666Y-95800333D01*
X102271285Y-95703571D01*
X102222904Y-95655190D01*
X102126142Y-95606809D01*
X101932619Y-95558428D01*
X101835857Y-95510047D01*
X101787476Y-95461666D01*
X101739095Y-95364904D01*
X101739095Y-95268142D01*
X101787476Y-95171380D01*
X101835857Y-95123000D01*
X101932619Y-95074619D01*
X102174523Y-95074619D01*
X102319666Y-95123000D01*
X102706714Y-96042238D02*
X102851857Y-96090619D01*
X103093761Y-96090619D01*
X103190523Y-96042238D01*
X103238904Y-95993857D01*
X103287285Y-95897095D01*
X103287285Y-95800333D01*
X103238904Y-95703571D01*
X103190523Y-95655190D01*
X103093761Y-95606809D01*
X102900238Y-95558428D01*
X102803476Y-95510047D01*
X102755095Y-95461666D01*
X102706714Y-95364904D01*
X102706714Y-95268142D01*
X102755095Y-95171380D01*
X102803476Y-95123000D01*
X102900238Y-95074619D01*
X103142142Y-95074619D01*
X103287285Y-95123000D01*
X101319052Y-98593946D02*
X100737474Y-98491315D01*
X100908526Y-99004472D02*
X100190106Y-98286052D01*
X100463790Y-98012368D01*
X100566421Y-97978157D01*
X100634842Y-97978157D01*
X100737474Y-98012368D01*
X100840105Y-98114999D01*
X100874316Y-98217631D01*
X100874316Y-98286052D01*
X100840105Y-98388683D01*
X100566421Y-98662367D01*
X100840105Y-97636052D02*
X102037473Y-97875526D01*
X101319052Y-97157105D02*
X101558526Y-98354473D01*
X102311157Y-97601842D02*
X101592736Y-96883421D01*
X101763789Y-96712369D01*
X101900631Y-96643948D01*
X102037473Y-96643948D01*
X102140104Y-96678158D01*
X102311157Y-96780790D01*
X102413788Y-96883421D01*
X102516420Y-97054474D01*
X102550630Y-97157105D01*
X102550630Y-97293947D01*
X102482209Y-97430789D01*
X102311157Y-97601842D01*
X100731242Y-99588801D02*
X101141768Y-99999327D01*
X100218085Y-100512484D02*
X100936505Y-99794064D01*
X101312820Y-100170379D02*
X101073347Y-101367746D01*
X101791767Y-100649326D02*
X100594400Y-100888799D01*
X101347031Y-101641430D02*
X102065451Y-100923010D01*
X102236504Y-101094062D01*
X102304925Y-101230904D01*
X102304925Y-101367746D01*
X102270714Y-101470378D01*
X102168083Y-101641430D01*
X102065451Y-101744062D01*
X101894399Y-101846693D01*
X101791767Y-101880904D01*
X101654925Y-101880904D01*
X101518083Y-101812483D01*
X101347031Y-101641430D01*
X100668666Y-116410619D02*
X100668666Y-115394619D01*
X101055714Y-115394619D01*
X101152476Y-115443000D01*
X101200857Y-115491380D01*
X101249238Y-115588142D01*
X101249238Y-115733285D01*
X101200857Y-115830047D01*
X101152476Y-115878428D01*
X101055714Y-115926809D01*
X100668666Y-115926809D01*
X101636285Y-116120333D02*
X102120095Y-116120333D01*
X101539523Y-116410619D02*
X101878190Y-115394619D01*
X102216857Y-116410619D01*
X102749047Y-115394619D02*
X102845809Y-115394619D01*
X102942571Y-115443000D01*
X102990952Y-115491380D01*
X103039333Y-115588142D01*
X103087714Y-115781666D01*
X103087714Y-116023571D01*
X103039333Y-116217095D01*
X102990952Y-116313857D01*
X102942571Y-116362238D01*
X102845809Y-116410619D01*
X102749047Y-116410619D01*
X102652285Y-116362238D01*
X102603904Y-116313857D01*
X102555523Y-116217095D01*
X102507142Y-116023571D01*
X102507142Y-115781666D01*
X102555523Y-115588142D01*
X102603904Y-115491380D01*
X102652285Y-115443000D01*
X102749047Y-115394619D01*
X100668666Y-113235619D02*
X100668666Y-112219619D01*
X101055714Y-112219619D01*
X101152476Y-112268000D01*
X101200857Y-112316380D01*
X101249238Y-112413142D01*
X101249238Y-112558285D01*
X101200857Y-112655047D01*
X101152476Y-112703428D01*
X101055714Y-112751809D01*
X100668666Y-112751809D01*
X101636285Y-112945333D02*
X102120095Y-112945333D01*
X101539523Y-113235619D02*
X101878190Y-112219619D01*
X102216857Y-113235619D01*
X103087714Y-113235619D02*
X102507142Y-113235619D01*
X102797428Y-113235619D02*
X102797428Y-112219619D01*
X102700666Y-112364761D01*
X102603904Y-112461523D01*
X102507142Y-112509904D01*
X101297619Y-109044619D02*
X100958952Y-108560809D01*
X100717047Y-109044619D02*
X100717047Y-108028619D01*
X101104095Y-108028619D01*
X101200857Y-108077000D01*
X101249238Y-108125380D01*
X101297619Y-108222142D01*
X101297619Y-108367285D01*
X101249238Y-108464047D01*
X101200857Y-108512428D01*
X101104095Y-108560809D01*
X100717047Y-108560809D01*
X101587904Y-108028619D02*
X102168476Y-108028619D01*
X101878190Y-109044619D02*
X101878190Y-108028619D01*
X102458761Y-108996238D02*
X102603904Y-109044619D01*
X102845809Y-109044619D01*
X102942571Y-108996238D01*
X102990952Y-108947857D01*
X103039333Y-108851095D01*
X103039333Y-108754333D01*
X102990952Y-108657571D01*
X102942571Y-108609190D01*
X102845809Y-108560809D01*
X102652285Y-108512428D01*
X102555523Y-108464047D01*
X102507142Y-108415666D01*
X102458761Y-108318904D01*
X102458761Y-108222142D01*
X102507142Y-108125380D01*
X102555523Y-108077000D01*
X102652285Y-108028619D01*
X102894190Y-108028619D01*
X103039333Y-108077000D01*
X67394666Y-88216619D02*
X67394666Y-87200619D01*
X67781714Y-87200619D01*
X67878476Y-87249000D01*
X67926857Y-87297380D01*
X67975238Y-87394142D01*
X67975238Y-87539285D01*
X67926857Y-87636047D01*
X67878476Y-87684428D01*
X67781714Y-87732809D01*
X67394666Y-87732809D01*
X68362285Y-87926333D02*
X68846095Y-87926333D01*
X68265523Y-88216619D02*
X68604190Y-87200619D01*
X68942857Y-88216619D01*
X69426666Y-87636047D02*
X69329904Y-87587666D01*
X69281523Y-87539285D01*
X69233142Y-87442523D01*
X69233142Y-87394142D01*
X69281523Y-87297380D01*
X69329904Y-87249000D01*
X69426666Y-87200619D01*
X69620190Y-87200619D01*
X69716952Y-87249000D01*
X69765333Y-87297380D01*
X69813714Y-87394142D01*
X69813714Y-87442523D01*
X69765333Y-87539285D01*
X69716952Y-87587666D01*
X69620190Y-87636047D01*
X69426666Y-87636047D01*
X69329904Y-87684428D01*
X69281523Y-87732809D01*
X69233142Y-87829571D01*
X69233142Y-88023095D01*
X69281523Y-88119857D01*
X69329904Y-88168238D01*
X69426666Y-88216619D01*
X69620190Y-88216619D01*
X69716952Y-88168238D01*
X69765333Y-88119857D01*
X69813714Y-88023095D01*
X69813714Y-87829571D01*
X69765333Y-87732809D01*
X69716952Y-87684428D01*
X69620190Y-87636047D01*
X67424904Y-88851619D02*
X68005476Y-88851619D01*
X67715190Y-89867619D02*
X67715190Y-88851619D01*
X68247380Y-88851619D02*
X68924714Y-89867619D01*
X68924714Y-88851619D02*
X68247380Y-89867619D01*
X69311761Y-89867619D02*
X69311761Y-88851619D01*
X69553666Y-88851619D01*
X69698809Y-88900000D01*
X69795571Y-88996761D01*
X69843952Y-89093523D01*
X69892333Y-89287047D01*
X69892333Y-89432190D01*
X69843952Y-89625714D01*
X69795571Y-89722476D01*
X69698809Y-89819238D01*
X69553666Y-89867619D01*
X69311761Y-89867619D01*
X67963142Y-91113428D02*
X68108285Y-91161809D01*
X68156666Y-91210190D01*
X68205047Y-91306952D01*
X68205047Y-91452095D01*
X68156666Y-91548857D01*
X68108285Y-91597238D01*
X68011523Y-91645619D01*
X67624476Y-91645619D01*
X67624476Y-90629619D01*
X67963142Y-90629619D01*
X68059904Y-90678000D01*
X68108285Y-90726380D01*
X68156666Y-90823142D01*
X68156666Y-90919904D01*
X68108285Y-91016666D01*
X68059904Y-91065047D01*
X67963142Y-91113428D01*
X67624476Y-91113428D01*
X68834000Y-90629619D02*
X69027523Y-90629619D01*
X69124285Y-90678000D01*
X69221047Y-90774761D01*
X69269428Y-90968285D01*
X69269428Y-91306952D01*
X69221047Y-91500476D01*
X69124285Y-91597238D01*
X69027523Y-91645619D01*
X68834000Y-91645619D01*
X68737238Y-91597238D01*
X68640476Y-91500476D01*
X68592095Y-91306952D01*
X68592095Y-90968285D01*
X68640476Y-90774761D01*
X68737238Y-90678000D01*
X68834000Y-90629619D01*
X69898380Y-90629619D02*
X70091904Y-90629619D01*
X70188666Y-90678000D01*
X70285428Y-90774761D01*
X70333809Y-90968285D01*
X70333809Y-91306952D01*
X70285428Y-91500476D01*
X70188666Y-91597238D01*
X70091904Y-91645619D01*
X69898380Y-91645619D01*
X69801619Y-91597238D01*
X69704857Y-91500476D01*
X69656476Y-91306952D01*
X69656476Y-90968285D01*
X69704857Y-90774761D01*
X69801619Y-90678000D01*
X69898380Y-90629619D01*
X70624095Y-90629619D02*
X71204666Y-90629619D01*
X70914380Y-91645619D02*
X70914380Y-90629619D01*
X69553666Y-98249619D02*
X69215000Y-97765809D01*
X68973095Y-98249619D02*
X68973095Y-97233619D01*
X69360142Y-97233619D01*
X69456904Y-97282000D01*
X69505285Y-97330380D01*
X69553666Y-97427142D01*
X69553666Y-97572285D01*
X69505285Y-97669047D01*
X69456904Y-97717428D01*
X69360142Y-97765809D01*
X68973095Y-97765809D01*
X69892333Y-97233619D02*
X70569666Y-98249619D01*
X70569666Y-97233619D02*
X69892333Y-98249619D01*
X70956714Y-98249619D02*
X70956714Y-97233619D01*
X71198619Y-97233619D01*
X71343761Y-97282000D01*
X71440523Y-97378761D01*
X71488904Y-97475523D01*
X71537285Y-97669047D01*
X71537285Y-97814190D01*
X71488904Y-98007714D01*
X71440523Y-98104476D01*
X71343761Y-98201238D01*
X71198619Y-98249619D01*
X70956714Y-98249619D01*
X101297619Y-105772857D02*
X101249238Y-105821238D01*
X101104095Y-105869619D01*
X101007333Y-105869619D01*
X100862190Y-105821238D01*
X100765428Y-105724476D01*
X100717047Y-105627714D01*
X100668666Y-105434190D01*
X100668666Y-105289047D01*
X100717047Y-105095523D01*
X100765428Y-104998761D01*
X100862190Y-104902000D01*
X101007333Y-104853619D01*
X101104095Y-104853619D01*
X101249238Y-104902000D01*
X101297619Y-104950380D01*
X101587904Y-104853619D02*
X102168476Y-104853619D01*
X101878190Y-105869619D02*
X101878190Y-104853619D01*
X102458761Y-105821238D02*
X102603904Y-105869619D01*
X102845809Y-105869619D01*
X102942571Y-105821238D01*
X102990952Y-105772857D01*
X103039333Y-105676095D01*
X103039333Y-105579333D01*
X102990952Y-105482571D01*
X102942571Y-105434190D01*
X102845809Y-105385809D01*
X102652285Y-105337428D01*
X102555523Y-105289047D01*
X102507142Y-105240666D01*
X102458761Y-105143904D01*
X102458761Y-105047142D01*
X102507142Y-104950380D01*
X102555523Y-104902000D01*
X102652285Y-104853619D01*
X102894190Y-104853619D01*
X103039333Y-104902000D01*
X69456904Y-98933000D02*
X69360142Y-98884619D01*
X69215000Y-98884619D01*
X69069857Y-98933000D01*
X68973095Y-99029761D01*
X68924714Y-99126523D01*
X68876333Y-99320047D01*
X68876333Y-99465190D01*
X68924714Y-99658714D01*
X68973095Y-99755476D01*
X69069857Y-99852238D01*
X69215000Y-99900619D01*
X69311761Y-99900619D01*
X69456904Y-99852238D01*
X69505285Y-99803857D01*
X69505285Y-99465190D01*
X69311761Y-99465190D01*
X69940714Y-99900619D02*
X69940714Y-98884619D01*
X70521285Y-99900619D01*
X70521285Y-98884619D01*
X71005095Y-99900619D02*
X71005095Y-98884619D01*
X71247000Y-98884619D01*
X71392142Y-98933000D01*
X71488904Y-99029761D01*
X71537285Y-99126523D01*
X71585666Y-99320047D01*
X71585666Y-99465190D01*
X71537285Y-99658714D01*
X71488904Y-99755476D01*
X71392142Y-99852238D01*
X71247000Y-99900619D01*
X71005095Y-99900619D01*
X68876333Y-101678619D02*
X69215000Y-102694619D01*
X69553666Y-101678619D01*
X69892333Y-102694619D02*
X69892333Y-101678619D01*
X70134238Y-101678619D01*
X70279380Y-101727000D01*
X70376142Y-101823761D01*
X70424523Y-101920523D01*
X70472904Y-102114047D01*
X70472904Y-102259190D01*
X70424523Y-102452714D01*
X70376142Y-102549476D01*
X70279380Y-102646238D01*
X70134238Y-102694619D01*
X69892333Y-102694619D01*
X70908333Y-102694619D02*
X70908333Y-101678619D01*
X71150238Y-101678619D01*
X71295380Y-101727000D01*
X71392142Y-101823761D01*
X71440523Y-101920523D01*
X71488904Y-102114047D01*
X71488904Y-102259190D01*
X71440523Y-102452714D01*
X71392142Y-102549476D01*
X71295380Y-102646238D01*
X71150238Y-102694619D01*
X70908333Y-102694619D01*
X69674619Y-104726619D02*
X69335952Y-104242809D01*
X69094047Y-104726619D02*
X69094047Y-103710619D01*
X69481095Y-103710619D01*
X69577857Y-103759000D01*
X69626238Y-103807380D01*
X69674619Y-103904142D01*
X69674619Y-104049285D01*
X69626238Y-104146047D01*
X69577857Y-104194428D01*
X69481095Y-104242809D01*
X69094047Y-104242809D01*
X70061666Y-104678238D02*
X70206809Y-104726619D01*
X70448714Y-104726619D01*
X70545476Y-104678238D01*
X70593857Y-104629857D01*
X70642238Y-104533095D01*
X70642238Y-104436333D01*
X70593857Y-104339571D01*
X70545476Y-104291190D01*
X70448714Y-104242809D01*
X70255190Y-104194428D01*
X70158428Y-104146047D01*
X70110047Y-104097666D01*
X70061666Y-104000904D01*
X70061666Y-103904142D01*
X70110047Y-103807380D01*
X70158428Y-103759000D01*
X70255190Y-103710619D01*
X70497095Y-103710619D01*
X70642238Y-103759000D01*
X70932523Y-103710619D02*
X71513095Y-103710619D01*
X71222809Y-104726619D02*
X71222809Y-103710619D01*
X68973095Y-107520619D02*
X68973095Y-106504619D01*
X69360142Y-106504619D01*
X69456904Y-106553000D01*
X69505285Y-106601380D01*
X69553666Y-106698142D01*
X69553666Y-106843285D01*
X69505285Y-106940047D01*
X69456904Y-106988428D01*
X69360142Y-107036809D01*
X68973095Y-107036809D01*
X70327761Y-106988428D02*
X70472904Y-107036809D01*
X70521285Y-107085190D01*
X70569666Y-107181952D01*
X70569666Y-107327095D01*
X70521285Y-107423857D01*
X70472904Y-107472238D01*
X70376142Y-107520619D01*
X69989095Y-107520619D01*
X69989095Y-106504619D01*
X70327761Y-106504619D01*
X70424523Y-106553000D01*
X70472904Y-106601380D01*
X70521285Y-106698142D01*
X70521285Y-106794904D01*
X70472904Y-106891666D01*
X70424523Y-106940047D01*
X70327761Y-106988428D01*
X69989095Y-106988428D01*
X70956714Y-106601380D02*
X71005095Y-106553000D01*
X71101857Y-106504619D01*
X71343761Y-106504619D01*
X71440523Y-106553000D01*
X71488904Y-106601380D01*
X71537285Y-106698142D01*
X71537285Y-106794904D01*
X71488904Y-106940047D01*
X70908333Y-107520619D01*
X71537285Y-107520619D01*
X69148476Y-109631238D02*
X69293619Y-109679619D01*
X69535523Y-109679619D01*
X69632285Y-109631238D01*
X69680666Y-109582857D01*
X69729047Y-109486095D01*
X69729047Y-109389333D01*
X69680666Y-109292571D01*
X69632285Y-109244190D01*
X69535523Y-109195809D01*
X69342000Y-109147428D01*
X69245238Y-109099047D01*
X69196857Y-109050666D01*
X69148476Y-108953904D01*
X69148476Y-108857142D01*
X69196857Y-108760380D01*
X69245238Y-108712000D01*
X69342000Y-108663619D01*
X69583904Y-108663619D01*
X69729047Y-108712000D01*
X70745047Y-109582857D02*
X70696666Y-109631238D01*
X70551523Y-109679619D01*
X70454761Y-109679619D01*
X70309619Y-109631238D01*
X70212857Y-109534476D01*
X70164476Y-109437714D01*
X70116095Y-109244190D01*
X70116095Y-109099047D01*
X70164476Y-108905523D01*
X70212857Y-108808761D01*
X70309619Y-108712000D01*
X70454761Y-108663619D01*
X70551523Y-108663619D01*
X70696666Y-108712000D01*
X70745047Y-108760380D01*
X71664285Y-109679619D02*
X71180476Y-109679619D01*
X71180476Y-108663619D01*
X69124285Y-111409238D02*
X69269428Y-111457619D01*
X69511333Y-111457619D01*
X69608095Y-111409238D01*
X69656476Y-111360857D01*
X69704857Y-111264095D01*
X69704857Y-111167333D01*
X69656476Y-111070571D01*
X69608095Y-111022190D01*
X69511333Y-110973809D01*
X69317809Y-110925428D01*
X69221047Y-110877047D01*
X69172666Y-110828666D01*
X69124285Y-110731904D01*
X69124285Y-110635142D01*
X69172666Y-110538380D01*
X69221047Y-110490000D01*
X69317809Y-110441619D01*
X69559714Y-110441619D01*
X69704857Y-110490000D01*
X70140285Y-111457619D02*
X70140285Y-110441619D01*
X70382190Y-110441619D01*
X70527333Y-110490000D01*
X70624095Y-110586761D01*
X70672476Y-110683523D01*
X70720857Y-110877047D01*
X70720857Y-111022190D01*
X70672476Y-111215714D01*
X70624095Y-111312476D01*
X70527333Y-111409238D01*
X70382190Y-111457619D01*
X70140285Y-111457619D01*
X71107904Y-111167333D02*
X71591714Y-111167333D01*
X71011142Y-111457619D02*
X71349809Y-110441619D01*
X71688476Y-111457619D01*
X71531238Y-116059857D02*
X71579619Y-115914714D01*
X71579619Y-115672809D01*
X71531238Y-115576047D01*
X71482857Y-115527666D01*
X71386095Y-115479285D01*
X71289333Y-115479285D01*
X71192571Y-115527666D01*
X71144190Y-115576047D01*
X71095809Y-115672809D01*
X71047428Y-115866333D01*
X70999047Y-115963095D01*
X70950666Y-116011476D01*
X70853904Y-116059857D01*
X70757142Y-116059857D01*
X70660380Y-116011476D01*
X70612000Y-115963095D01*
X70563619Y-115866333D01*
X70563619Y-115624428D01*
X70612000Y-115479285D01*
X70563619Y-115140619D02*
X71579619Y-114898714D01*
X70853904Y-114705190D01*
X71579619Y-114511666D01*
X70563619Y-114269761D01*
X71579619Y-113882714D02*
X70563619Y-113882714D01*
X70563619Y-113640809D01*
X70612000Y-113495666D01*
X70708761Y-113398904D01*
X70805523Y-113350523D01*
X70999047Y-113302142D01*
X71144190Y-113302142D01*
X71337714Y-113350523D01*
X71434476Y-113398904D01*
X71531238Y-113495666D01*
X71579619Y-113640809D01*
X71579619Y-113882714D01*
X68725142Y-118267238D02*
X68870285Y-118315619D01*
X69112190Y-118315619D01*
X69208952Y-118267238D01*
X69257333Y-118218857D01*
X69305714Y-118122095D01*
X69305714Y-118025333D01*
X69257333Y-117928571D01*
X69208952Y-117880190D01*
X69112190Y-117831809D01*
X68918666Y-117783428D01*
X68821904Y-117735047D01*
X68773523Y-117686666D01*
X68725142Y-117589904D01*
X68725142Y-117493142D01*
X68773523Y-117396380D01*
X68821904Y-117348000D01*
X68918666Y-117299619D01*
X69160571Y-117299619D01*
X69305714Y-117348000D01*
X69644380Y-117299619D02*
X69886285Y-118315619D01*
X70079809Y-117589904D01*
X70273333Y-118315619D01*
X70515238Y-117299619D01*
X71482857Y-118218857D02*
X71434476Y-118267238D01*
X71289333Y-118315619D01*
X71192571Y-118315619D01*
X71047428Y-118267238D01*
X70950666Y-118170476D01*
X70902285Y-118073714D01*
X70853904Y-117880190D01*
X70853904Y-117735047D01*
X70902285Y-117541523D01*
X70950666Y-117444761D01*
X71047428Y-117348000D01*
X71192571Y-117299619D01*
X71289333Y-117299619D01*
X71434476Y-117348000D01*
X71482857Y-117396380D01*
X100596095Y-118315619D02*
X100596095Y-117299619D01*
X100983142Y-117299619D01*
X101079904Y-117348000D01*
X101128285Y-117396380D01*
X101176666Y-117493142D01*
X101176666Y-117638285D01*
X101128285Y-117735047D01*
X101079904Y-117783428D01*
X100983142Y-117831809D01*
X100596095Y-117831809D01*
X101950761Y-117783428D02*
X102095904Y-117831809D01*
X102144285Y-117880190D01*
X102192666Y-117976952D01*
X102192666Y-118122095D01*
X102144285Y-118218857D01*
X102095904Y-118267238D01*
X101999142Y-118315619D01*
X101612095Y-118315619D01*
X101612095Y-117299619D01*
X101950761Y-117299619D01*
X102047523Y-117348000D01*
X102095904Y-117396380D01*
X102144285Y-117493142D01*
X102144285Y-117589904D01*
X102095904Y-117686666D01*
X102047523Y-117735047D01*
X101950761Y-117783428D01*
X101612095Y-117783428D01*
X103063523Y-117638285D02*
X103063523Y-118315619D01*
X102821619Y-117251238D02*
X102579714Y-117976952D01*
X103208666Y-117976952D01*
X68150619Y-113882714D02*
X68150619Y-114463285D01*
X68150619Y-114173000D02*
X67134619Y-114173000D01*
X67279761Y-114269761D01*
X67376523Y-114366523D01*
X67424904Y-114463285D01*
D13*
X56134142Y-130643285D02*
X58419857Y-130643285D01*
X57277000Y-131786142D02*
X57277000Y-129500428D01*
D10*
X64770000Y-140897428D02*
X64915142Y-140945809D01*
X64963523Y-140994190D01*
X65011904Y-141090952D01*
X65011904Y-141236095D01*
X64963523Y-141332857D01*
X64915142Y-141381238D01*
X64818380Y-141429619D01*
X64431333Y-141429619D01*
X64431333Y-140413619D01*
X64770000Y-140413619D01*
X64866761Y-140462000D01*
X64915142Y-140510380D01*
X64963523Y-140607142D01*
X64963523Y-140703904D01*
X64915142Y-140800666D01*
X64866761Y-140849047D01*
X64770000Y-140897428D01*
X64431333Y-140897428D01*
X65398952Y-141139333D02*
X65882761Y-141139333D01*
X65302190Y-141429619D02*
X65640857Y-140413619D01*
X65979523Y-141429619D01*
X66173047Y-140413619D02*
X66753619Y-140413619D01*
X66463333Y-141429619D02*
X66463333Y-140413619D01*
X66947142Y-140413619D02*
X67527714Y-140413619D01*
X67237428Y-141429619D02*
X67237428Y-140413619D01*
X67866380Y-140897428D02*
X68205047Y-140897428D01*
X68350190Y-141429619D02*
X67866380Y-141429619D01*
X67866380Y-140413619D01*
X68350190Y-140413619D01*
X69366190Y-141429619D02*
X69027523Y-140945809D01*
X68785619Y-141429619D02*
X68785619Y-140413619D01*
X69172666Y-140413619D01*
X69269428Y-140462000D01*
X69317809Y-140510380D01*
X69366190Y-140607142D01*
X69366190Y-140752285D01*
X69317809Y-140849047D01*
X69269428Y-140897428D01*
X69172666Y-140945809D01*
X68785619Y-140945809D01*
X69995142Y-140945809D02*
X69995142Y-141429619D01*
X69656476Y-140413619D02*
X69995142Y-140945809D01*
X70333809Y-140413619D01*
D14*
X75438000Y-141351000D02*
X76962000Y-141351000D01*
D15*
X76200000Y-140208000D02*
X76200000Y-141351000D01*
D12*
X88591571Y-140915571D02*
X88700428Y-140951857D01*
X88736714Y-140988142D01*
X88773000Y-141060714D01*
X88773000Y-141169571D01*
X88736714Y-141242142D01*
X88700428Y-141278428D01*
X88627857Y-141314714D01*
X88337571Y-141314714D01*
X88337571Y-140552714D01*
X88591571Y-140552714D01*
X88664142Y-140589000D01*
X88700428Y-140625285D01*
X88736714Y-140697857D01*
X88736714Y-140770428D01*
X88700428Y-140843000D01*
X88664142Y-140879285D01*
X88591571Y-140915571D01*
X88337571Y-140915571D01*
X89426142Y-140806714D02*
X89426142Y-141314714D01*
X89244714Y-140516428D02*
X89063285Y-141060714D01*
X89535000Y-141060714D01*
X85815714Y-141097000D02*
X86178571Y-141097000D01*
X85743142Y-141314714D02*
X85997142Y-140552714D01*
X86251142Y-141314714D01*
X86650285Y-140552714D02*
X86722857Y-140552714D01*
X86795428Y-140589000D01*
X86831714Y-140625285D01*
X86868000Y-140697857D01*
X86904285Y-140843000D01*
X86904285Y-141024428D01*
X86868000Y-141169571D01*
X86831714Y-141242142D01*
X86795428Y-141278428D01*
X86722857Y-141314714D01*
X86650285Y-141314714D01*
X86577714Y-141278428D01*
X86541428Y-141242142D01*
X86505142Y-141169571D01*
X86468857Y-141024428D01*
X86468857Y-140843000D01*
X86505142Y-140697857D01*
X86541428Y-140625285D01*
X86577714Y-140589000D01*
X86650285Y-140552714D01*
X83275714Y-141097000D02*
X83638571Y-141097000D01*
X83203142Y-141314714D02*
X83457142Y-140552714D01*
X83711142Y-141314714D01*
X84364285Y-141314714D02*
X83928857Y-141314714D01*
X84146571Y-141314714D02*
X84146571Y-140552714D01*
X84074000Y-140661571D01*
X84001428Y-140734142D01*
X83928857Y-140770428D01*
X80608714Y-140915571D02*
X80717571Y-140951857D01*
X80753857Y-140988142D01*
X80790142Y-141060714D01*
X80790142Y-141169571D01*
X80753857Y-141242142D01*
X80717571Y-141278428D01*
X80645000Y-141314714D01*
X80354714Y-141314714D01*
X80354714Y-140552714D01*
X80608714Y-140552714D01*
X80681285Y-140589000D01*
X80717571Y-140625285D01*
X80753857Y-140697857D01*
X80753857Y-140770428D01*
X80717571Y-140843000D01*
X80681285Y-140879285D01*
X80608714Y-140915571D01*
X80354714Y-140915571D01*
X81515857Y-141314714D02*
X81080428Y-141314714D01*
X81298142Y-141314714D02*
X81298142Y-140552714D01*
X81225571Y-140661571D01*
X81153000Y-140734142D01*
X81080428Y-140770428D01*
X81806142Y-140625285D02*
X81842428Y-140589000D01*
X81915000Y-140552714D01*
X82096428Y-140552714D01*
X82169000Y-140589000D01*
X82205285Y-140625285D01*
X82241571Y-140697857D01*
X82241571Y-140770428D01*
X82205285Y-140879285D01*
X81769857Y-141314714D01*
X82241571Y-141314714D01*
X78195714Y-141097000D02*
X78558571Y-141097000D01*
X78123142Y-141314714D02*
X78377142Y-140552714D01*
X78631142Y-141314714D01*
X79211714Y-140552714D02*
X79066571Y-140552714D01*
X78994000Y-140589000D01*
X78957714Y-140625285D01*
X78885142Y-140734142D01*
X78848857Y-140879285D01*
X78848857Y-141169571D01*
X78885142Y-141242142D01*
X78921428Y-141278428D01*
X78994000Y-141314714D01*
X79139142Y-141314714D01*
X79211714Y-141278428D01*
X79248000Y-141242142D01*
X79284285Y-141169571D01*
X79284285Y-140988142D01*
X79248000Y-140915571D01*
X79211714Y-140879285D01*
X79139142Y-140843000D01*
X78994000Y-140843000D01*
X78921428Y-140879285D01*
X78885142Y-140915571D01*
X78848857Y-140988142D01*
D10*
X73272952Y-141042571D02*
X74047047Y-141042571D01*
X73660000Y-141429619D02*
X73660000Y-140655523D01*
X72390000Y-137414000D02*
X72390000Y-142113000D01*
D12*
X96719571Y-140589000D02*
X96647000Y-140552714D01*
X96538142Y-140552714D01*
X96429285Y-140589000D01*
X96356714Y-140661571D01*
X96320428Y-140734142D01*
X96284142Y-140879285D01*
X96284142Y-140988142D01*
X96320428Y-141133285D01*
X96356714Y-141205857D01*
X96429285Y-141278428D01*
X96538142Y-141314714D01*
X96610714Y-141314714D01*
X96719571Y-141278428D01*
X96755857Y-141242142D01*
X96755857Y-140988142D01*
X96610714Y-140988142D01*
X91675857Y-141242142D02*
X91639571Y-141278428D01*
X91530714Y-141314714D01*
X91458142Y-141314714D01*
X91349285Y-141278428D01*
X91276714Y-141205857D01*
X91240428Y-141133285D01*
X91204142Y-140988142D01*
X91204142Y-140879285D01*
X91240428Y-140734142D01*
X91276714Y-140661571D01*
X91349285Y-140589000D01*
X91458142Y-140552714D01*
X91530714Y-140552714D01*
X91639571Y-140589000D01*
X91675857Y-140625285D01*
X93780428Y-141314714D02*
X93780428Y-140552714D01*
X93961857Y-140552714D01*
X94070714Y-140589000D01*
X94143285Y-140661571D01*
X94179571Y-140734142D01*
X94215857Y-140879285D01*
X94215857Y-140988142D01*
X94179571Y-141133285D01*
X94143285Y-141205857D01*
X94070714Y-141278428D01*
X93961857Y-141314714D01*
X93780428Y-141314714D01*
D10*
X97790000Y-137541000D02*
X97790000Y-142113000D01*
X90170000Y-137414000D02*
X90170000Y-142113000D01*
D16*
X102158800Y-139954000D02*
X102158800Y-138938000D01*
X103378000Y-138938000D02*
X103378000Y-139954000D01*
D17*
X102743000Y-138297000D02*
X102743000Y-138817000D01*
X102853000Y-138467000D02*
X102633000Y-138467000D01*
X102853000Y-138467000D02*
X102753000Y-138577000D01*
X102633000Y-138467000D02*
X102733000Y-138567000D01*
X102853000Y-138657000D02*
X102633000Y-138657000D01*
D18*
X102497400Y-138734800D02*
X102387400Y-138604800D01*
X102388400Y-138603200D02*
X102398400Y-138683200D01*
X102388400Y-138603200D02*
X102468400Y-138603200D01*
X102388400Y-138387800D02*
X102468400Y-138387800D01*
X102388400Y-138387800D02*
X102398400Y-138467800D01*
X102518400Y-138527800D02*
X102408400Y-138397800D01*
D10*
X103314500Y-139966700D02*
X103187500Y-140119100D01*
X102222300Y-139966700D02*
X102349300Y-140106400D01*
X103187500Y-140119100D02*
X102362000Y-140119100D01*
X102260400Y-139954000D02*
X103301800Y-139954000D01*
X105761000Y-107280000D02*
X105761000Y-106080000D01*
X105761000Y-106080000D02*
X108361000Y-106080000D01*
X108361000Y-107280000D02*
X108361000Y-106080000D01*
X105761000Y-107280000D02*
X108361000Y-107280000D01*
X109961000Y-104580000D02*
X104161000Y-104580000D01*
X109961000Y-108780000D02*
X109961000Y-104580000D01*
X104161000Y-108780000D02*
X109961000Y-108780000D01*
X104161000Y-104580000D02*
X104161000Y-108780000D01*
X58928000Y-98552000D02*
X58928000Y-98044000D01*
X65532000Y-98425000D02*
X65532000Y-98171000D01*
X65532000Y-115824000D02*
X65532000Y-116205000D01*
X58928000Y-115824000D02*
X58928000Y-116205000D01*
X59055000Y-116078000D02*
X59055000Y-113538000D01*
X59055000Y-100838000D02*
X59055000Y-98298000D01*
X65405000Y-98298000D02*
X59055000Y-98298000D01*
X59055000Y-116078000D02*
X65405000Y-116078000D01*
X57785000Y-117348000D02*
X57785000Y-116078000D01*
X66675000Y-97028000D02*
X66675000Y-100838000D01*
X66675000Y-97028000D02*
X57785000Y-97028000D01*
X57785000Y-117348000D02*
X66675000Y-117348000D01*
X65405000Y-98298000D02*
X65405000Y-100838000D01*
X65405000Y-113538000D02*
X65405000Y-116078000D01*
X57785000Y-98298000D02*
X57531000Y-98298000D01*
X57531000Y-98298000D02*
X57531000Y-99568000D01*
X57785000Y-99568000D02*
X57531000Y-99568000D01*
X57785000Y-98298000D02*
X57785000Y-97028000D01*
X57785000Y-100838000D02*
X57785000Y-99568000D01*
X57531000Y-114808000D02*
X57531000Y-116078000D01*
X57531000Y-116078000D02*
X57785000Y-116078000D01*
X57531000Y-114808000D02*
X57785000Y-114808000D01*
X57785000Y-114808000D02*
X57785000Y-113538000D01*
X65659000Y-100838000D02*
X65659000Y-98044000D01*
X65659000Y-98044000D02*
X58801000Y-98044000D01*
X58801000Y-98044000D02*
X58801000Y-100838000D01*
X58801000Y-113538000D02*
X58801000Y-116332000D01*
X58801000Y-116332000D02*
X65659000Y-116332000D01*
X65659000Y-116332000D02*
X65659000Y-113538000D01*
X66675000Y-113538000D02*
X66675000Y-117348000D01*
X59055000Y-100838000D02*
X58801000Y-100838000D01*
X65659000Y-100838000D02*
X65405000Y-100838000D01*
X65659000Y-113538000D02*
X65405000Y-113538000D01*
X59055000Y-113538000D02*
X58801000Y-113538000D01*
X75120500Y-112522000D02*
X75120500Y-112268000D01*
X75120500Y-112522000D02*
X75120500Y-112776000D01*
X76009500Y-112522000D02*
X76009500Y-112776000D01*
X76009500Y-112522000D02*
X76009500Y-112268000D01*
D17*
X77203000Y-114422000D02*
X77203000Y-111628000D01*
X79997000Y-111628000D02*
X79997000Y-114422000D01*
X79616000Y-114803000D02*
X79616000Y-115057000D01*
X79997000Y-114422000D02*
X77203000Y-114422000D01*
X79616000Y-115057000D02*
X79870000Y-115057000D01*
X77203000Y-111628000D02*
X79997000Y-111628000D01*
X79870000Y-114803000D02*
X79616000Y-114803000D01*
X79870000Y-115057000D02*
X79870000Y-114803000D01*
D10*
X84709000Y-111125000D02*
G75*
G03X84709000Y-111125000I-254000J0D01*
G01*
D19*
X81789000Y-111761000D02*
X85089000Y-111761000D01*
X85339000Y-112811000D02*
X85339000Y-114011000D01*
X85089000Y-115061000D02*
X81789000Y-115061000D01*
X85089000Y-111761000D02*
X85089000Y-115061000D01*
X81789000Y-115061000D02*
X81789000Y-111761000D01*
X95722440Y-89758520D02*
X95072200Y-89758520D01*
X95722440Y-89758520D02*
X95722440Y-91559380D01*
X91221560Y-89758520D02*
X91871800Y-89758520D01*
X91221560Y-89758520D02*
X91221560Y-91559380D01*
X91922600Y-90810080D02*
X91922600Y-91658440D01*
X91821000Y-90959940D02*
X91922600Y-90810080D01*
X91572080Y-91259660D02*
X91821000Y-90959940D01*
D10*
X87884000Y-86360000D02*
X87503000Y-87376000D01*
X79756000Y-86360000D02*
X80137000Y-87376000D01*
X80120000Y-91889000D02*
X80120000Y-90689000D01*
X87520000Y-87389000D02*
X87520000Y-88389000D01*
X79756000Y-86289000D02*
X87884000Y-86289000D01*
X80120000Y-88389000D02*
X80120000Y-87389000D01*
X81020000Y-93389000D02*
X82020000Y-93389000D01*
X85620000Y-93389000D02*
X86620000Y-93389000D01*
X87520000Y-91889000D02*
X87520000Y-90689000D01*
X80120000Y-87389000D02*
X87520000Y-87389000D01*
X91694000Y-104114600D02*
X91694000Y-104825800D01*
X92532200Y-104114600D02*
X91694000Y-104114600D01*
X92532200Y-106959400D02*
X91694000Y-106959400D01*
X91694000Y-106248200D02*
X91694000Y-106959400D01*
D19*
X106934000Y-99441000D02*
G75*
G03X106934000Y-99441000I-2540000J0D01*
G01*
D10*
X105761000Y-114900000D02*
X105761000Y-113700000D01*
X105761000Y-113700000D02*
X108361000Y-113700000D01*
X108361000Y-114900000D02*
X108361000Y-113700000D01*
X105761000Y-114900000D02*
X108361000Y-114900000D01*
X109961000Y-112200000D02*
X104161000Y-112200000D01*
X109961000Y-116400000D02*
X109961000Y-112200000D01*
X104161000Y-116400000D02*
X109961000Y-116400000D01*
X104161000Y-112200000D02*
X104161000Y-116400000D01*
D16*
X98856800Y-139954000D02*
X98856800Y-138938000D01*
X100076000Y-138938000D02*
X100076000Y-139954000D01*
D17*
X99441000Y-138297000D02*
X99441000Y-138817000D01*
X99551000Y-138467000D02*
X99331000Y-138467000D01*
X99551000Y-138467000D02*
X99451000Y-138577000D01*
X99331000Y-138467000D02*
X99431000Y-138567000D01*
X99551000Y-138657000D02*
X99331000Y-138657000D01*
D18*
X99195400Y-138734800D02*
X99085400Y-138604800D01*
X99086400Y-138603200D02*
X99096400Y-138683200D01*
X99086400Y-138603200D02*
X99166400Y-138603200D01*
X99086400Y-138387800D02*
X99166400Y-138387800D01*
X99086400Y-138387800D02*
X99096400Y-138467800D01*
X99216400Y-138527800D02*
X99106400Y-138397800D01*
D10*
X100012500Y-139966700D02*
X99885500Y-140119100D01*
X98920300Y-139966700D02*
X99047300Y-140106400D01*
X99885500Y-140119100D02*
X99060000Y-140119100D01*
X98958400Y-139954000D02*
X99999800Y-139954000D01*
D16*
X100507800Y-139954000D02*
X100507800Y-138938000D01*
X101727000Y-138938000D02*
X101727000Y-139954000D01*
D17*
X101092000Y-138297000D02*
X101092000Y-138817000D01*
X101202000Y-138467000D02*
X100982000Y-138467000D01*
X101202000Y-138467000D02*
X101102000Y-138577000D01*
X100982000Y-138467000D02*
X101082000Y-138567000D01*
X101202000Y-138657000D02*
X100982000Y-138657000D01*
D18*
X100846400Y-138734800D02*
X100736400Y-138604800D01*
X100737400Y-138603200D02*
X100747400Y-138683200D01*
X100737400Y-138603200D02*
X100817400Y-138603200D01*
X100737400Y-138387800D02*
X100817400Y-138387800D01*
X100737400Y-138387800D02*
X100747400Y-138467800D01*
X100867400Y-138527800D02*
X100757400Y-138397800D01*
D10*
X101663500Y-139966700D02*
X101536500Y-140119100D01*
X100571300Y-139966700D02*
X100698300Y-140106400D01*
X101536500Y-140119100D02*
X100711000Y-140119100D01*
X100609400Y-139954000D02*
X101650800Y-139954000D01*
X93319600Y-102362000D02*
X94030800Y-102362000D01*
X93319600Y-101523800D02*
X93319600Y-102362000D01*
X96164400Y-101523800D02*
X96164400Y-102362000D01*
X95453200Y-102362000D02*
X96164400Y-102362000D01*
X87818400Y-102785600D02*
X87818400Y-99585600D01*
X92318400Y-102785600D02*
X87818400Y-102785600D01*
X92318400Y-99585600D02*
X92318400Y-102785600D01*
X87818400Y-99585600D02*
X92318400Y-99585600D01*
X111315500Y-95885000D02*
X111315500Y-95631000D01*
X111315500Y-95885000D02*
X111315500Y-96139000D01*
X112204500Y-95885000D02*
X112204500Y-96139000D01*
X112204500Y-95885000D02*
X112204500Y-95631000D01*
D19*
X94132400Y-97028000D02*
X94132400Y-99009200D01*
X93878400Y-97028000D02*
X93878400Y-99060000D01*
X95938000Y-99094000D02*
X93038000Y-99094000D01*
X93038000Y-96994000D02*
X95938000Y-96994000D01*
D20*
X64770000Y-137160000D02*
X69850000Y-137160000D01*
X69850000Y-137160000D02*
X69850000Y-139700000D01*
X69850000Y-139700000D02*
X64770000Y-139700000D01*
X64770000Y-139700000D02*
X64770000Y-137160000D01*
D10*
X79121000Y-104584500D02*
X78867000Y-104584500D01*
X79121000Y-104584500D02*
X79375000Y-104584500D01*
X79121000Y-103695500D02*
X79375000Y-103695500D01*
X79121000Y-103695500D02*
X78867000Y-103695500D01*
X88963500Y-97028000D02*
X88963500Y-97282000D01*
X88963500Y-97028000D02*
X88963500Y-96774000D01*
X88074500Y-97028000D02*
X88074500Y-96774000D01*
X88074500Y-97028000D02*
X88074500Y-97282000D01*
X89027000Y-98107500D02*
X89281000Y-98107500D01*
X89027000Y-98107500D02*
X88773000Y-98107500D01*
X89027000Y-98996500D02*
X88773000Y-98996500D01*
X89027000Y-98996500D02*
X89281000Y-98996500D01*
X81089500Y-96393000D02*
X81089500Y-96139000D01*
X81089500Y-96393000D02*
X81089500Y-96647000D01*
X81978500Y-96393000D02*
X81978500Y-96647000D01*
X81978500Y-96393000D02*
X81978500Y-96139000D01*
X83121500Y-96393000D02*
X83121500Y-96139000D01*
X83121500Y-96393000D02*
X83121500Y-96647000D01*
X84010500Y-96393000D02*
X84010500Y-96647000D01*
X84010500Y-96393000D02*
X84010500Y-96139000D01*
X82105500Y-96393000D02*
X82105500Y-96139000D01*
X82105500Y-96393000D02*
X82105500Y-96647000D01*
X82994500Y-96393000D02*
X82994500Y-96647000D01*
X82994500Y-96393000D02*
X82994500Y-96139000D01*
X83121500Y-106045000D02*
X83121500Y-105791000D01*
X83121500Y-106045000D02*
X83121500Y-106299000D01*
X84010500Y-106045000D02*
X84010500Y-106299000D01*
X84010500Y-106045000D02*
X84010500Y-105791000D01*
X79121000Y-99123500D02*
X79375000Y-99123500D01*
X79121000Y-99123500D02*
X78867000Y-99123500D01*
X79121000Y-100012500D02*
X78867000Y-100012500D01*
X79121000Y-100012500D02*
X79375000Y-100012500D01*
X79121000Y-100139500D02*
X79375000Y-100139500D01*
X79121000Y-100139500D02*
X78867000Y-100139500D01*
X79121000Y-101028500D02*
X78867000Y-101028500D01*
X79121000Y-101028500D02*
X79375000Y-101028500D01*
X79121000Y-101155500D02*
X79375000Y-101155500D01*
X79121000Y-101155500D02*
X78867000Y-101155500D01*
X79121000Y-102044500D02*
X78867000Y-102044500D01*
X79121000Y-102044500D02*
X79375000Y-102044500D01*
X79121000Y-103568500D02*
X78867000Y-103568500D01*
X79121000Y-103568500D02*
X79375000Y-103568500D01*
X79121000Y-102679500D02*
X79375000Y-102679500D01*
X79121000Y-102679500D02*
X78867000Y-102679500D01*
X86169500Y-97028000D02*
X86169500Y-97282000D01*
X86169500Y-97028000D02*
X86169500Y-96774000D01*
X85280500Y-97028000D02*
X85280500Y-96774000D01*
X85280500Y-97028000D02*
X85280500Y-97282000D01*
X84137500Y-106045000D02*
X84137500Y-105791000D01*
X84137500Y-106045000D02*
X84137500Y-106299000D01*
X85026500Y-106045000D02*
X85026500Y-106299000D01*
X85026500Y-106045000D02*
X85026500Y-105791000D01*
X94640400Y-96621600D02*
X93624400Y-96621600D01*
X94640400Y-95097600D02*
X93624400Y-95097600D01*
X82105500Y-106045000D02*
X82105500Y-105791000D01*
X82105500Y-106045000D02*
X82105500Y-106299000D01*
X82994500Y-106045000D02*
X82994500Y-106299000D01*
X82994500Y-106045000D02*
X82994500Y-105791000D01*
X89408000Y-94996000D02*
X89408000Y-93980000D01*
X90932000Y-94996000D02*
X90932000Y-93980000D01*
X81089500Y-106045000D02*
X81089500Y-105791000D01*
X81089500Y-106045000D02*
X81089500Y-106299000D01*
X81978500Y-106045000D02*
X81978500Y-106299000D01*
X81978500Y-106045000D02*
X81978500Y-105791000D01*
D14*
X55976147Y-94488000D02*
G75*
G03X55976147Y-94488000I-337447J0D01*
G01*
D21*
X55626000Y-93713300D02*
X56134000Y-93205300D01*
X57226200Y-93129100D02*
X57861200Y-93738700D01*
X57835800Y-95694500D02*
X57277000Y-96278700D01*
X59461400Y-96291400D02*
X59004200Y-95834200D01*
X60447200Y-96291400D02*
X59461400Y-96291400D01*
D14*
X61326324Y-96266000D02*
G75*
G03X61326324Y-96266000I-366324J0D01*
G01*
D21*
X60960000Y-93573600D02*
X60960000Y-95173800D01*
D14*
X61346218Y-93040200D02*
G75*
G03X61346218Y-93040200I-373518J0D01*
G01*
X62551559Y-96240600D02*
G75*
G03X62551559Y-96240600I-359659J0D01*
G01*
D21*
X62179200Y-95732600D02*
X62179200Y-93141800D01*
X62179200Y-93141800D02*
X63017400Y-93141800D01*
X63017400Y-93141800D02*
X63627000Y-93649800D01*
X63728600Y-94437200D02*
X63728600Y-93726000D01*
X63804800Y-93649800D02*
X64439800Y-93141800D01*
D14*
X64099518Y-94970600D02*
G75*
G03X64099518Y-94970600I-370918J0D01*
G01*
D21*
X64439800Y-93141800D02*
X65328800Y-93141800D01*
D14*
X65704729Y-96253300D02*
G75*
G03X65704729Y-96253300I-363229J0D01*
G01*
X71500266Y-96342200D02*
G75*
G03X71500266Y-96342200I-329466J0D01*
G01*
D21*
X70840600Y-95986600D02*
X70002400Y-95173800D01*
D22*
X69494400Y-95072200D02*
X70027800Y-95072200D01*
D21*
X68351400Y-96291400D02*
X69494400Y-95173800D01*
X67030600Y-96291400D02*
X68351400Y-96291400D01*
X66598800Y-95859600D02*
X67030600Y-96291400D01*
X66598800Y-93624400D02*
X66598800Y-95859600D01*
X66598800Y-93599000D02*
X67081400Y-93091000D01*
X67129500Y-93116400D02*
X68351400Y-93116400D01*
X68351400Y-93116400D02*
X69443600Y-94183200D01*
D22*
X69469000Y-94297500D02*
X70027800Y-94297500D01*
D21*
X70891400Y-93306900D02*
X70027800Y-94200600D01*
D14*
X71619135Y-92951300D02*
G75*
G03X71619135Y-92951300I-359435J0D01*
G01*
D21*
X67818000Y-94691200D02*
X66598800Y-94691200D01*
D14*
X68685659Y-94691200D02*
G75*
G03X68685659Y-94691200I-359659J0D01*
G01*
D21*
X56197500Y-96304100D02*
X57238900Y-96304100D01*
X55638700Y-95745300D02*
X55638700Y-94983300D01*
X55626000Y-95732600D02*
X56210200Y-96304100D01*
X55626000Y-93764100D02*
X55626000Y-94005400D01*
X57848500Y-93726000D02*
X57848500Y-95656400D01*
X57226200Y-93116400D02*
X56222900Y-93116400D01*
X65341500Y-93129100D02*
X65341500Y-95732600D01*
X59004200Y-95846900D02*
X59004200Y-93116400D01*
D17*
X59004200Y-92773500D02*
X58724800Y-92773500D01*
X58699400Y-92773500D02*
X58699400Y-95923100D01*
X58712100Y-92773500D02*
X58699400Y-92773500D01*
X58724800Y-92773500D02*
X58712100Y-92773500D01*
X58839100Y-92862400D02*
X58775600Y-92849700D01*
X59321700Y-92773500D02*
X59321700Y-95808800D01*
X59016900Y-92773500D02*
X59321700Y-92773500D01*
X59143900Y-92849700D02*
X59258200Y-92849700D01*
X60642500Y-93459300D02*
X60642500Y-95478600D01*
X61277500Y-95478600D02*
X61277500Y-93459300D01*
X61252100Y-95478600D02*
X61277500Y-95478600D01*
X60642500Y-95478600D02*
X61252100Y-95478600D01*
X60782200Y-95415100D02*
X60718700Y-95415100D01*
X61125100Y-95415100D02*
X61214000Y-95415100D01*
X61861700Y-95821500D02*
X61861700Y-92837000D01*
X63106300Y-92824300D02*
X63690500Y-93306900D01*
X61861700Y-92824300D02*
X63106300Y-92824300D01*
X62014100Y-92887800D02*
X61937900Y-92887800D01*
X65671700Y-95846900D02*
X65671700Y-92837000D01*
X64350900Y-92824300D02*
X63728600Y-93319600D01*
X64376300Y-92824300D02*
X64350900Y-92824300D01*
X65671700Y-92824300D02*
X64376300Y-92824300D01*
X65671700Y-92837000D02*
X65671700Y-92824300D01*
X65519300Y-92900500D02*
X65620900Y-92900500D01*
X68465700Y-92786200D02*
X69723000Y-94030800D01*
X68414900Y-92786200D02*
X68465700Y-92786200D01*
X67043300Y-92786200D02*
X68414900Y-92786200D01*
D19*
X107589000Y-94889000D02*
X107589000Y-97389000D01*
X107589000Y-97389000D02*
X110089000Y-97389000D01*
X110089000Y-97389000D02*
X110089000Y-94889000D01*
X110089000Y-94889000D02*
X107589000Y-94889000D01*
X107839000Y-94889000D02*
X107589000Y-95139000D01*
D10*
X76009500Y-110236000D02*
X76009500Y-110490000D01*
X76009500Y-110236000D02*
X76009500Y-109982000D01*
X75120500Y-110236000D02*
X75120500Y-109982000D01*
X75120500Y-110236000D02*
X75120500Y-110490000D01*
X75120500Y-97282000D02*
X75120500Y-97028000D01*
X75120500Y-97282000D02*
X75120500Y-97536000D01*
X76009500Y-97282000D02*
X76009500Y-97536000D01*
X76009500Y-97282000D02*
X76009500Y-97028000D01*
X75120500Y-92329000D02*
X75120500Y-92075000D01*
X75120500Y-92329000D02*
X75120500Y-92583000D01*
X76009500Y-92329000D02*
X76009500Y-92583000D01*
X76009500Y-92329000D02*
X76009500Y-92075000D01*
X72390000Y-137160000D02*
X72390000Y-139700000D01*
X77470000Y-139446000D02*
X77724000Y-139700000D01*
X77216000Y-139700000D02*
X77470000Y-139446000D01*
X74676000Y-139700000D02*
X72898000Y-139700000D01*
X74930000Y-139446000D02*
X74676000Y-139700000D01*
X75184000Y-139700000D02*
X74930000Y-139446000D01*
X77216000Y-139700000D02*
X75184000Y-139700000D01*
X72898000Y-139700000D02*
X72390000Y-139700000D01*
X72644000Y-139700000D02*
X72390000Y-139446000D01*
X72390000Y-137414000D02*
X72644000Y-137160000D01*
X79756000Y-139700000D02*
X77724000Y-139700000D01*
X80010000Y-139446000D02*
X79756000Y-139700000D01*
X82804000Y-139700000D02*
X82550000Y-139446000D01*
X82296000Y-139700000D02*
X80264000Y-139700000D01*
X82550000Y-139446000D02*
X82296000Y-139700000D01*
X82296000Y-137160000D02*
X82550000Y-137414000D01*
X80264000Y-137160000D02*
X82296000Y-137160000D01*
X80010000Y-137414000D02*
X80264000Y-137160000D01*
X79756000Y-137160000D02*
X80010000Y-137414000D01*
X77724000Y-137160000D02*
X79756000Y-137160000D01*
X77470000Y-137414000D02*
X77724000Y-137160000D01*
X77216000Y-137160000D02*
X77470000Y-137414000D01*
X75184000Y-137160000D02*
X77216000Y-137160000D01*
X74930000Y-137414000D02*
X75184000Y-137160000D01*
X74676000Y-137160000D02*
X74930000Y-137414000D01*
X72644000Y-137160000D02*
X74676000Y-137160000D01*
X72390000Y-137160000D02*
X72644000Y-137160000D01*
X82550000Y-137414000D02*
X82804000Y-137160000D01*
X82804000Y-137160000D02*
X84836000Y-137160000D01*
X87376000Y-137160000D02*
X87630000Y-137414000D01*
X84836000Y-139700000D02*
X82804000Y-139700000D01*
X80264000Y-139700000D02*
X80010000Y-139446000D01*
X87630000Y-139446000D02*
X87376000Y-139700000D01*
X85344000Y-137160000D02*
X87376000Y-137160000D01*
X85090000Y-137414000D02*
X85344000Y-137160000D01*
X87376000Y-139700000D02*
X85344000Y-139700000D01*
X85090000Y-139446000D02*
X84836000Y-139700000D01*
X85344000Y-139700000D02*
X85090000Y-139446000D01*
X84836000Y-137160000D02*
X85090000Y-137414000D01*
X87376000Y-137160000D02*
X87630000Y-137414000D01*
X87630000Y-139446000D02*
X87376000Y-139700000D01*
X87376000Y-139700000D02*
X85344000Y-139700000D01*
X85344000Y-137160000D02*
X87376000Y-137160000D01*
X85090000Y-137414000D02*
X85344000Y-137160000D01*
X85344000Y-139700000D02*
X85090000Y-139446000D01*
X90424000Y-139700000D02*
X90170000Y-139446000D01*
X90170000Y-137414000D02*
X90424000Y-137160000D01*
X90424000Y-137160000D02*
X92456000Y-137160000D01*
X92456000Y-139700000D02*
X90424000Y-139700000D01*
X92710000Y-139446000D02*
X92456000Y-139700000D01*
X92456000Y-137160000D02*
X92710000Y-137414000D01*
X89916000Y-137160000D02*
X90170000Y-137414000D01*
X90424000Y-139700000D02*
X90170000Y-139446000D01*
X90170000Y-139446000D02*
X89916000Y-139700000D01*
X92456000Y-139700000D02*
X90424000Y-139700000D01*
X90170000Y-137414000D02*
X90424000Y-137160000D01*
X90424000Y-137160000D02*
X92456000Y-137160000D01*
X92710000Y-139446000D02*
X92456000Y-139700000D01*
X89916000Y-139700000D02*
X87884000Y-139700000D01*
X92456000Y-137160000D02*
X92710000Y-137414000D01*
X87884000Y-137160000D02*
X89916000Y-137160000D01*
X87630000Y-137414000D02*
X87884000Y-137160000D01*
X87884000Y-139700000D02*
X87630000Y-139446000D01*
X92964000Y-139700000D02*
X92710000Y-139446000D01*
X92710000Y-137414000D02*
X92964000Y-137160000D01*
X92964000Y-137160000D02*
X94996000Y-137160000D01*
X97536000Y-137160000D02*
X97790000Y-137414000D01*
X94996000Y-139700000D02*
X92964000Y-139700000D01*
X97790000Y-139446000D02*
X97536000Y-139700000D01*
X97790000Y-137414000D02*
X97790000Y-139446000D01*
X95504000Y-137160000D02*
X97536000Y-137160000D01*
X95250000Y-137414000D02*
X95504000Y-137160000D01*
X97536000Y-139700000D02*
X95504000Y-139700000D01*
X95250000Y-139446000D02*
X94996000Y-139700000D01*
X95504000Y-139700000D02*
X95250000Y-139446000D01*
X94996000Y-137160000D02*
X95250000Y-137414000D01*
X97536000Y-137160000D02*
X97790000Y-137414000D01*
X97790000Y-139446000D02*
X97536000Y-139700000D01*
X97536000Y-139700000D02*
X95504000Y-139700000D01*
X95504000Y-137160000D02*
X97536000Y-137160000D01*
X95250000Y-137414000D02*
X95504000Y-137160000D01*
X95504000Y-139700000D02*
X95250000Y-139446000D01*
X101155500Y-110490000D02*
X101155500Y-110236000D01*
X101155500Y-110490000D02*
X101155500Y-110744000D01*
X102044500Y-110490000D02*
X102044500Y-110744000D01*
X102044500Y-110490000D02*
X102044500Y-110236000D01*
X68580000Y-113665000D02*
X68580000Y-112649000D01*
X70104000Y-113665000D02*
X70104000Y-112649000D01*
X82931000Y-110299500D02*
X83185000Y-110299500D01*
X82931000Y-110299500D02*
X82677000Y-110299500D01*
X82931000Y-111188500D02*
X82677000Y-111188500D01*
X82931000Y-111188500D02*
X83185000Y-111188500D01*
X74930000Y-101092000D02*
X74930000Y-100076000D01*
X76454000Y-101092000D02*
X76454000Y-100076000D01*
X109093000Y-99758500D02*
X108839000Y-99758500D01*
X109093000Y-99758500D02*
X109347000Y-99758500D01*
X109093000Y-98869500D02*
X109347000Y-98869500D01*
X109093000Y-98869500D02*
X108839000Y-98869500D01*
X54820000Y-136262000D02*
X54820000Y-119262000D01*
X112820000Y-136262000D02*
X54820000Y-136262000D01*
X112820000Y-119262000D02*
X112820000Y-136262000D01*
X54820000Y-119262000D02*
X112820000Y-119262000D01*
X102044500Y-102870000D02*
X102044500Y-103124000D01*
X102044500Y-102870000D02*
X102044500Y-102616000D01*
X101155500Y-102870000D02*
X101155500Y-102616000D01*
X101155500Y-102870000D02*
X101155500Y-103124000D01*
X86677500Y-97028000D02*
X86677500Y-96774000D01*
X86677500Y-97028000D02*
X86677500Y-97282000D01*
X87566500Y-97028000D02*
X87566500Y-97282000D01*
X87566500Y-97028000D02*
X87566500Y-96774000D01*
X95567500Y-105029000D02*
X95567500Y-105283000D01*
X95567500Y-105029000D02*
X95567500Y-104775000D01*
X94678500Y-105029000D02*
X94678500Y-104775000D01*
X94678500Y-105029000D02*
X94678500Y-105283000D01*
D23*
X80793073Y-104269540D02*
G75*
G03X80793073Y-104269540I-176013J0D01*
G01*
D10*
X81015840Y-103469440D02*
X81015840Y-103695500D01*
X81015840Y-98872040D02*
X81015840Y-99273360D01*
X81417160Y-98872040D02*
X81015840Y-98872040D01*
X86014560Y-98872040D02*
X85613240Y-98872040D01*
X86014560Y-99273360D02*
X86014560Y-98872040D01*
X86014560Y-103870760D02*
X86014560Y-103469440D01*
X85613240Y-103870760D02*
X86014560Y-103870760D01*
X81191100Y-103870760D02*
X81417160Y-103870760D01*
X81015840Y-103695500D02*
X81191100Y-103870760D01*
D19*
X72054000Y-86670000D02*
X99994000Y-86670000D01*
X72054000Y-118420000D02*
X72054000Y-86670000D01*
X99994000Y-86670000D02*
X99994000Y-118420000D01*
X99994000Y-118420000D02*
X72054000Y-118420000D01*
D10*
X79248000Y-94792800D02*
X79248000Y-93954600D01*
X77470000Y-94792800D02*
X77470000Y-93954600D01*
D12*
X104611714Y-139409714D02*
X104611714Y-139772571D01*
X103849714Y-139772571D01*
X104212571Y-139155714D02*
X104212571Y-138901714D01*
X104611714Y-138792857D02*
X104611714Y-139155714D01*
X103849714Y-139155714D01*
X103849714Y-138792857D01*
X104611714Y-138466285D02*
X103849714Y-138466285D01*
X103849714Y-138284857D01*
X103886000Y-138176000D01*
X103958571Y-138103428D01*
X104031142Y-138067142D01*
X104176285Y-138030857D01*
X104285142Y-138030857D01*
X104430285Y-138067142D01*
X104502857Y-138103428D01*
X104575428Y-138176000D01*
X104611714Y-138284857D01*
X104611714Y-138466285D01*
X103849714Y-137776857D02*
X103849714Y-137305142D01*
X104140000Y-137559142D01*
X104140000Y-137450285D01*
X104176285Y-137377714D01*
X104212571Y-137341428D01*
X104285142Y-137305142D01*
X104466571Y-137305142D01*
X104539142Y-137341428D01*
X104575428Y-137377714D01*
X104611714Y-137450285D01*
X104611714Y-137668000D01*
X104575428Y-137740571D01*
X104539142Y-137776857D01*
D10*
X104566357Y-103169357D02*
X104729642Y-103223785D01*
X104784071Y-103278214D01*
X104838500Y-103387071D01*
X104838500Y-103550357D01*
X104784071Y-103659214D01*
X104729642Y-103713642D01*
X104620785Y-103768071D01*
X104185357Y-103768071D01*
X104185357Y-102625071D01*
X104566357Y-102625071D01*
X104675214Y-102679500D01*
X104729642Y-102733928D01*
X104784071Y-102842785D01*
X104784071Y-102951642D01*
X104729642Y-103060500D01*
X104675214Y-103114928D01*
X104566357Y-103169357D01*
X104185357Y-103169357D01*
X105328357Y-102625071D02*
X105328357Y-103550357D01*
X105382785Y-103659214D01*
X105437214Y-103713642D01*
X105546071Y-103768071D01*
X105763785Y-103768071D01*
X105872642Y-103713642D01*
X105927071Y-103659214D01*
X105981500Y-103550357D01*
X105981500Y-102625071D01*
X106362500Y-102625071D02*
X107015642Y-102625071D01*
X106689071Y-103768071D02*
X106689071Y-102625071D01*
X107233357Y-102625071D02*
X107886500Y-102625071D01*
X107559928Y-103768071D02*
X107559928Y-102625071D01*
X108485214Y-102625071D02*
X108702928Y-102625071D01*
X108811785Y-102679500D01*
X108920642Y-102788357D01*
X108975071Y-103006071D01*
X108975071Y-103387071D01*
X108920642Y-103604785D01*
X108811785Y-103713642D01*
X108702928Y-103768071D01*
X108485214Y-103768071D01*
X108376357Y-103713642D01*
X108267500Y-103604785D01*
X108213071Y-103387071D01*
X108213071Y-103006071D01*
X108267500Y-102788357D01*
X108376357Y-102679500D01*
X108485214Y-102625071D01*
X109464928Y-103768071D02*
X109464928Y-102625071D01*
X110118071Y-103768071D01*
X110118071Y-102625071D01*
X111261071Y-103768071D02*
X110607928Y-103768071D01*
X110934500Y-103768071D02*
X110934500Y-102625071D01*
X110825642Y-102788357D01*
X110716785Y-102897214D01*
X110607928Y-102951642D01*
X55184523Y-109818714D02*
X56212619Y-109818714D01*
X56333571Y-109758238D01*
X56394047Y-109697761D01*
X56454523Y-109576809D01*
X56454523Y-109334904D01*
X56394047Y-109213952D01*
X56333571Y-109153476D01*
X56212619Y-109093000D01*
X55184523Y-109093000D01*
X55789285Y-108488238D02*
X55789285Y-108064904D01*
X56454523Y-107883476D02*
X56454523Y-108488238D01*
X55184523Y-108488238D01*
X55184523Y-107883476D01*
X55184523Y-107460142D02*
X56454523Y-106613476D01*
X55184523Y-106613476D02*
X56454523Y-107460142D01*
X55184523Y-106311095D02*
X55184523Y-105585380D01*
X56454523Y-105948238D02*
X55184523Y-105948238D01*
X56454523Y-104496809D02*
X56454523Y-105222523D01*
X56454523Y-104859666D02*
X55184523Y-104859666D01*
X55365952Y-104980619D01*
X55486904Y-105101571D01*
X55547380Y-105222523D01*
X64074523Y-113810142D02*
X64074523Y-114535857D01*
X64074523Y-114173000D02*
X62804523Y-114173000D01*
X62985952Y-114293952D01*
X63106904Y-114414904D01*
X63167380Y-114535857D01*
X60385476Y-114535857D02*
X60325000Y-114475380D01*
X60264523Y-114354428D01*
X60264523Y-114052047D01*
X60325000Y-113931095D01*
X60385476Y-113870619D01*
X60506428Y-113810142D01*
X60627380Y-113810142D01*
X60808809Y-113870619D01*
X61534523Y-114596333D01*
X61534523Y-113810142D01*
D12*
X75909714Y-115170857D02*
X75546857Y-115424857D01*
X75909714Y-115606285D02*
X75147714Y-115606285D01*
X75147714Y-115316000D01*
X75184000Y-115243428D01*
X75220285Y-115207142D01*
X75292857Y-115170857D01*
X75401714Y-115170857D01*
X75474285Y-115207142D01*
X75510571Y-115243428D01*
X75546857Y-115316000D01*
X75546857Y-115606285D01*
X75909714Y-114445142D02*
X75909714Y-114880571D01*
X75909714Y-114662857D02*
X75147714Y-114662857D01*
X75256571Y-114735428D01*
X75329142Y-114808000D01*
X75365428Y-114880571D01*
X75147714Y-113973428D02*
X75147714Y-113900857D01*
X75184000Y-113828285D01*
X75220285Y-113792000D01*
X75292857Y-113755714D01*
X75438000Y-113719428D01*
X75619428Y-113719428D01*
X75764571Y-113755714D01*
X75837142Y-113792000D01*
X75873428Y-113828285D01*
X75909714Y-113900857D01*
X75909714Y-113973428D01*
X75873428Y-114046000D01*
X75837142Y-114082285D01*
X75764571Y-114118571D01*
X75619428Y-114154857D01*
X75438000Y-114154857D01*
X75292857Y-114118571D01*
X75220285Y-114082285D01*
X75184000Y-114046000D01*
X75147714Y-113973428D01*
X80318428Y-114136714D02*
X80318428Y-114753571D01*
X80354714Y-114826142D01*
X80391000Y-114862428D01*
X80463571Y-114898714D01*
X80608714Y-114898714D01*
X80681285Y-114862428D01*
X80717571Y-114826142D01*
X80753857Y-114753571D01*
X80753857Y-114136714D01*
X81443285Y-114390714D02*
X81443285Y-114898714D01*
X81261857Y-114100428D02*
X81080428Y-114644714D01*
X81552142Y-114644714D01*
X85144428Y-110580714D02*
X85144428Y-111197571D01*
X85180714Y-111270142D01*
X85217000Y-111306428D01*
X85289571Y-111342714D01*
X85434714Y-111342714D01*
X85507285Y-111306428D01*
X85543571Y-111270142D01*
X85579857Y-111197571D01*
X85579857Y-110580714D01*
X86305571Y-110580714D02*
X85942714Y-110580714D01*
X85906428Y-110943571D01*
X85942714Y-110907285D01*
X86015285Y-110871000D01*
X86196714Y-110871000D01*
X86269285Y-110907285D01*
X86305571Y-110943571D01*
X86341857Y-111016142D01*
X86341857Y-111197571D01*
X86305571Y-111270142D01*
X86269285Y-111306428D01*
X86196714Y-111342714D01*
X86015285Y-111342714D01*
X85942714Y-111306428D01*
X85906428Y-111270142D01*
D10*
X89395904Y-90502619D02*
X89395904Y-91325095D01*
X89444285Y-91421857D01*
X89492666Y-91470238D01*
X89589428Y-91518619D01*
X89782952Y-91518619D01*
X89879714Y-91470238D01*
X89928095Y-91421857D01*
X89976476Y-91325095D01*
X89976476Y-90502619D01*
X90992476Y-91518619D02*
X90411904Y-91518619D01*
X90702190Y-91518619D02*
X90702190Y-90502619D01*
X90605428Y-90647761D01*
X90508666Y-90744523D01*
X90411904Y-90792904D01*
X78056619Y-91554904D02*
X78879095Y-91554904D01*
X78975857Y-91506523D01*
X79024238Y-91458142D01*
X79072619Y-91361380D01*
X79072619Y-91167857D01*
X79024238Y-91071095D01*
X78975857Y-91022714D01*
X78879095Y-90974333D01*
X78056619Y-90974333D01*
X79024238Y-90538904D02*
X79072619Y-90393761D01*
X79072619Y-90151857D01*
X79024238Y-90055095D01*
X78975857Y-90006714D01*
X78879095Y-89958333D01*
X78782333Y-89958333D01*
X78685571Y-90006714D01*
X78637190Y-90055095D01*
X78588809Y-90151857D01*
X78540428Y-90345380D01*
X78492047Y-90442142D01*
X78443666Y-90490523D01*
X78346904Y-90538904D01*
X78250142Y-90538904D01*
X78153380Y-90490523D01*
X78105000Y-90442142D01*
X78056619Y-90345380D01*
X78056619Y-90103476D01*
X78105000Y-89958333D01*
X78540428Y-89184238D02*
X78588809Y-89039095D01*
X78637190Y-88990714D01*
X78733952Y-88942333D01*
X78879095Y-88942333D01*
X78975857Y-88990714D01*
X79024238Y-89039095D01*
X79072619Y-89135857D01*
X79072619Y-89522904D01*
X78056619Y-89522904D01*
X78056619Y-89184238D01*
X78105000Y-89087476D01*
X78153380Y-89039095D01*
X78250142Y-88990714D01*
X78346904Y-88990714D01*
X78443666Y-89039095D01*
X78492047Y-89087476D01*
X78540428Y-89184238D01*
X78540428Y-89522904D01*
X79072619Y-87974714D02*
X79072619Y-88555285D01*
X79072619Y-88265000D02*
X78056619Y-88265000D01*
X78201761Y-88361761D01*
X78298523Y-88458523D01*
X78346904Y-88555285D01*
D16*
X85041809Y-91220333D02*
X85549809Y-91051000D01*
X85041809Y-90881666D01*
X85283714Y-90543000D02*
X85307904Y-90470428D01*
X85332095Y-90446238D01*
X85380476Y-90422047D01*
X85453047Y-90422047D01*
X85501428Y-90446238D01*
X85525619Y-90470428D01*
X85549809Y-90518809D01*
X85549809Y-90712333D01*
X85041809Y-90712333D01*
X85041809Y-90543000D01*
X85066000Y-90494619D01*
X85090190Y-90470428D01*
X85138571Y-90446238D01*
X85186952Y-90446238D01*
X85235333Y-90470428D01*
X85259523Y-90494619D01*
X85283714Y-90543000D01*
X85283714Y-90712333D01*
X85041809Y-90204333D02*
X85453047Y-90204333D01*
X85501428Y-90180142D01*
X85525619Y-90155952D01*
X85549809Y-90107571D01*
X85549809Y-90010809D01*
X85525619Y-89962428D01*
X85501428Y-89938238D01*
X85453047Y-89914047D01*
X85041809Y-89914047D01*
X85525619Y-89696333D02*
X85549809Y-89623761D01*
X85549809Y-89502809D01*
X85525619Y-89454428D01*
X85501428Y-89430238D01*
X85453047Y-89406047D01*
X85404666Y-89406047D01*
X85356285Y-89430238D01*
X85332095Y-89454428D01*
X85307904Y-89502809D01*
X85283714Y-89599571D01*
X85259523Y-89647952D01*
X85235333Y-89672142D01*
X85186952Y-89696333D01*
X85138571Y-89696333D01*
X85090190Y-89672142D01*
X85066000Y-89647952D01*
X85041809Y-89599571D01*
X85041809Y-89478619D01*
X85066000Y-89406047D01*
X84799809Y-91236523D02*
X84291809Y-91236523D01*
X84291809Y-91115571D01*
X84316000Y-91043000D01*
X84364380Y-90994619D01*
X84412761Y-90970428D01*
X84509523Y-90946238D01*
X84582095Y-90946238D01*
X84678857Y-90970428D01*
X84727238Y-90994619D01*
X84775619Y-91043000D01*
X84799809Y-91115571D01*
X84799809Y-91236523D01*
X84606285Y-90728523D02*
X84606285Y-90341476D01*
X84049809Y-91236523D02*
X83541809Y-91236523D01*
X83541809Y-91115571D01*
X83566000Y-91043000D01*
X83614380Y-90994619D01*
X83662761Y-90970428D01*
X83759523Y-90946238D01*
X83832095Y-90946238D01*
X83928857Y-90970428D01*
X83977238Y-90994619D01*
X84025619Y-91043000D01*
X84049809Y-91115571D01*
X84049809Y-91236523D01*
X83856285Y-90728523D02*
X83856285Y-90341476D01*
X84049809Y-90535000D02*
X83662761Y-90535000D01*
X83299809Y-91293000D02*
X82791809Y-91293000D01*
X83299809Y-91051095D02*
X82791809Y-91051095D01*
X82791809Y-90930142D01*
X82816000Y-90857571D01*
X82864380Y-90809190D01*
X82912761Y-90785000D01*
X83009523Y-90760809D01*
X83082095Y-90760809D01*
X83178857Y-90785000D01*
X83227238Y-90809190D01*
X83275619Y-90857571D01*
X83299809Y-90930142D01*
X83299809Y-91051095D01*
X81966000Y-91076047D02*
X81941809Y-91124428D01*
X81941809Y-91197000D01*
X81966000Y-91269571D01*
X82014380Y-91317952D01*
X82062761Y-91342142D01*
X82159523Y-91366333D01*
X82232095Y-91366333D01*
X82328857Y-91342142D01*
X82377238Y-91317952D01*
X82425619Y-91269571D01*
X82449809Y-91197000D01*
X82449809Y-91148619D01*
X82425619Y-91076047D01*
X82401428Y-91051857D01*
X82232095Y-91051857D01*
X82232095Y-91148619D01*
X82449809Y-90834142D02*
X81941809Y-90834142D01*
X82449809Y-90543857D01*
X81941809Y-90543857D01*
X82449809Y-90301952D02*
X81941809Y-90301952D01*
X81941809Y-90181000D01*
X81966000Y-90108428D01*
X82014380Y-90060047D01*
X82062761Y-90035857D01*
X82159523Y-90011666D01*
X82232095Y-90011666D01*
X82328857Y-90035857D01*
X82377238Y-90060047D01*
X82425619Y-90108428D01*
X82449809Y-90181000D01*
X82449809Y-90301952D01*
D10*
X58504666Y-81062285D02*
X58686095Y-81122761D01*
X58746571Y-81183238D01*
X58807047Y-81304190D01*
X58807047Y-81485619D01*
X58746571Y-81606571D01*
X58686095Y-81667047D01*
X58565142Y-81727523D01*
X58081333Y-81727523D01*
X58081333Y-80457523D01*
X58504666Y-80457523D01*
X58625619Y-80518000D01*
X58686095Y-80578476D01*
X58746571Y-80699428D01*
X58746571Y-80820380D01*
X58686095Y-80941333D01*
X58625619Y-81001809D01*
X58504666Y-81062285D01*
X58081333Y-81062285D01*
X59351333Y-81304190D02*
X59895619Y-81304190D01*
X59351333Y-80880857D02*
X59351333Y-81727523D01*
X59895619Y-80880857D02*
X59895619Y-81727523D01*
X60500380Y-80880857D02*
X60500380Y-81727523D01*
X61105142Y-80880857D01*
X61105142Y-81727523D01*
X61709904Y-81727523D02*
X61709904Y-80880857D01*
X62072761Y-81546095D01*
X62435619Y-80880857D01*
X62435619Y-81727523D01*
X63584666Y-81727523D02*
X63584666Y-81062285D01*
X63524190Y-80941333D01*
X63403238Y-80880857D01*
X63161333Y-80880857D01*
X63040380Y-80941333D01*
X63584666Y-81667047D02*
X63463714Y-81727523D01*
X63161333Y-81727523D01*
X63040380Y-81667047D01*
X62979904Y-81546095D01*
X62979904Y-81425142D01*
X63040380Y-81304190D01*
X63161333Y-81243714D01*
X63463714Y-81243714D01*
X63584666Y-81183238D01*
X64189428Y-81304190D02*
X64733714Y-81304190D01*
X64189428Y-80880857D02*
X64189428Y-81727523D01*
X64733714Y-80880857D02*
X64733714Y-81727523D01*
X65338476Y-80880857D02*
X65338476Y-81727523D01*
X65943238Y-80880857D01*
X65943238Y-81727523D01*
X67031809Y-81667047D02*
X66910857Y-81727523D01*
X66668952Y-81727523D01*
X66548000Y-81667047D01*
X66487523Y-81546095D01*
X66487523Y-81062285D01*
X66548000Y-80941333D01*
X66668952Y-80880857D01*
X66910857Y-80880857D01*
X67031809Y-80941333D01*
X67092285Y-81062285D01*
X67092285Y-81183238D01*
X66487523Y-81304190D01*
X67636571Y-81606571D02*
X67697047Y-81667047D01*
X67636571Y-81727523D01*
X67576095Y-81667047D01*
X67636571Y-81606571D01*
X67636571Y-81727523D01*
X67636571Y-81243714D02*
X67576095Y-80518000D01*
X67636571Y-80457523D01*
X67697047Y-80518000D01*
X67636571Y-81243714D01*
X67636571Y-80457523D01*
X69208952Y-80457523D02*
X69208952Y-81727523D01*
X69934666Y-80457523D01*
X69934666Y-81727523D01*
X70539428Y-81727523D02*
X70539428Y-80880857D01*
X70902285Y-81546095D01*
X71265142Y-80880857D01*
X71265142Y-81727523D01*
X72414190Y-81727523D02*
X72414190Y-81062285D01*
X72353714Y-80941333D01*
X72232761Y-80880857D01*
X71990857Y-80880857D01*
X71869904Y-80941333D01*
X72414190Y-81667047D02*
X72293238Y-81727523D01*
X71990857Y-81727523D01*
X71869904Y-81667047D01*
X71809428Y-81546095D01*
X71809428Y-81425142D01*
X71869904Y-81304190D01*
X71990857Y-81243714D01*
X72293238Y-81243714D01*
X72414190Y-81183238D01*
X74349428Y-80457523D02*
X74349428Y-82150857D01*
X74228476Y-80880857D02*
X74470380Y-80880857D01*
X74591333Y-80941333D01*
X74712285Y-81062285D01*
X74772761Y-81183238D01*
X74772761Y-81425142D01*
X74712285Y-81546095D01*
X74591333Y-81667047D01*
X74470380Y-81727523D01*
X74228476Y-81727523D01*
X74107523Y-81667047D01*
X73986571Y-81546095D01*
X73926095Y-81425142D01*
X73926095Y-81183238D01*
X73986571Y-81062285D01*
X74107523Y-80941333D01*
X74228476Y-80880857D01*
X75317047Y-80880857D02*
X75317047Y-82150857D01*
X75317047Y-80941333D02*
X75438000Y-80880857D01*
X75679904Y-80880857D01*
X75800857Y-80941333D01*
X75861333Y-81001809D01*
X75921809Y-81122761D01*
X75921809Y-81485619D01*
X75861333Y-81606571D01*
X75800857Y-81667047D01*
X75679904Y-81727523D01*
X75438000Y-81727523D01*
X75317047Y-81667047D01*
X76949904Y-81667047D02*
X76828952Y-81727523D01*
X76587047Y-81727523D01*
X76466095Y-81667047D01*
X76405619Y-81546095D01*
X76405619Y-81062285D01*
X76466095Y-80941333D01*
X76587047Y-80880857D01*
X76828952Y-80880857D01*
X76949904Y-80941333D01*
X77010380Y-81062285D01*
X77010380Y-81183238D01*
X76405619Y-81304190D01*
X77675619Y-81304190D02*
X77796571Y-81304190D01*
X77433714Y-80941333D02*
X77554666Y-80880857D01*
X77796571Y-80880857D01*
X77917523Y-80941333D01*
X77978000Y-81062285D01*
X77978000Y-81122761D01*
X77917523Y-81243714D01*
X77796571Y-81304190D01*
X77917523Y-81364666D01*
X77978000Y-81485619D01*
X77978000Y-81546095D01*
X77917523Y-81667047D01*
X77796571Y-81727523D01*
X77554666Y-81727523D01*
X77433714Y-81667047D01*
X78703714Y-81727523D02*
X78582761Y-81667047D01*
X78522285Y-81606571D01*
X78461809Y-81485619D01*
X78461809Y-81122761D01*
X78522285Y-81001809D01*
X78582761Y-80941333D01*
X78703714Y-80880857D01*
X78885142Y-80880857D01*
X79006095Y-80941333D01*
X79066571Y-81001809D01*
X79127047Y-81122761D01*
X79127047Y-81485619D01*
X79066571Y-81606571D01*
X79006095Y-81667047D01*
X78885142Y-81727523D01*
X78703714Y-81727523D01*
X79973714Y-81304190D02*
X80155142Y-81364666D01*
X80215619Y-81485619D01*
X80215619Y-81546095D01*
X80155142Y-81667047D01*
X80034190Y-81727523D01*
X79671333Y-81727523D01*
X79671333Y-80880857D01*
X79973714Y-80880857D01*
X80094666Y-80941333D01*
X80155142Y-81062285D01*
X80155142Y-81122761D01*
X80094666Y-81243714D01*
X79973714Y-81304190D01*
X79671333Y-81304190D01*
X81304190Y-81727523D02*
X81304190Y-81062285D01*
X81243714Y-80941333D01*
X81122761Y-80880857D01*
X80880857Y-80880857D01*
X80759904Y-80941333D01*
X81304190Y-81667047D02*
X81183238Y-81727523D01*
X80880857Y-81727523D01*
X80759904Y-81667047D01*
X80699428Y-81546095D01*
X80699428Y-81425142D01*
X80759904Y-81304190D01*
X80880857Y-81243714D01*
X81183238Y-81243714D01*
X81304190Y-81183238D01*
X81908952Y-81304190D02*
X82453238Y-81304190D01*
X81908952Y-80880857D02*
X81908952Y-81727523D01*
X82453238Y-80880857D02*
X82453238Y-81727523D01*
X83541809Y-81667047D02*
X83420857Y-81727523D01*
X83178952Y-81727523D01*
X83058000Y-81667047D01*
X82997523Y-81546095D01*
X82997523Y-81062285D01*
X83058000Y-80941333D01*
X83178952Y-80880857D01*
X83420857Y-80880857D01*
X83541809Y-80941333D01*
X83602285Y-81062285D01*
X83602285Y-81183238D01*
X82997523Y-81304190D01*
X85114190Y-81304190D02*
X85658476Y-81304190D01*
X85114190Y-80880857D02*
X85114190Y-81727523D01*
X85658476Y-80880857D02*
X85658476Y-81727523D01*
X86807523Y-81727523D02*
X86807523Y-81062285D01*
X86747047Y-80941333D01*
X86626095Y-80880857D01*
X86384190Y-80880857D01*
X86263238Y-80941333D01*
X86807523Y-81667047D02*
X86686571Y-81727523D01*
X86384190Y-81727523D01*
X86263238Y-81667047D01*
X86202761Y-81546095D01*
X86202761Y-81425142D01*
X86263238Y-81304190D01*
X86384190Y-81243714D01*
X86686571Y-81243714D01*
X86807523Y-81183238D01*
X87412285Y-81727523D02*
X87412285Y-80880857D01*
X87956571Y-80880857D01*
X87956571Y-81727523D01*
X88561333Y-80880857D02*
X88561333Y-82150857D01*
X88561333Y-80941333D02*
X88682285Y-80880857D01*
X88924190Y-80880857D01*
X89045142Y-80941333D01*
X89105619Y-81001809D01*
X89166095Y-81122761D01*
X89166095Y-81485619D01*
X89105619Y-81606571D01*
X89045142Y-81667047D01*
X88924190Y-81727523D01*
X88682285Y-81727523D01*
X88561333Y-81667047D01*
X90254666Y-81727523D02*
X90254666Y-81062285D01*
X90194190Y-80941333D01*
X90073238Y-80880857D01*
X89831333Y-80880857D01*
X89710380Y-80941333D01*
X90254666Y-81667047D02*
X90133714Y-81727523D01*
X89831333Y-81727523D01*
X89710380Y-81667047D01*
X89649904Y-81546095D01*
X89649904Y-81425142D01*
X89710380Y-81304190D01*
X89831333Y-81243714D01*
X90133714Y-81243714D01*
X90254666Y-81183238D01*
X91161809Y-81304190D02*
X91343238Y-81364666D01*
X91403714Y-81485619D01*
X91403714Y-81546095D01*
X91343238Y-81667047D01*
X91222285Y-81727523D01*
X90859428Y-81727523D01*
X90859428Y-80880857D01*
X91161809Y-80880857D01*
X91282761Y-80941333D01*
X91343238Y-81062285D01*
X91343238Y-81122761D01*
X91282761Y-81243714D01*
X91161809Y-81304190D01*
X90859428Y-81304190D01*
X92431809Y-81667047D02*
X92310857Y-81727523D01*
X92068952Y-81727523D01*
X91948000Y-81667047D01*
X91887523Y-81546095D01*
X91887523Y-81062285D01*
X91948000Y-80941333D01*
X92068952Y-80880857D01*
X92310857Y-80880857D01*
X92431809Y-80941333D01*
X92492285Y-81062285D01*
X92492285Y-81183238D01*
X91887523Y-81304190D01*
X93036571Y-81304190D02*
X93580857Y-81304190D01*
X93036571Y-80880857D02*
X93036571Y-81727523D01*
X93580857Y-80880857D02*
X93580857Y-81727523D01*
X94367047Y-81727523D02*
X94246095Y-81667047D01*
X94185619Y-81606571D01*
X94125142Y-81485619D01*
X94125142Y-81122761D01*
X94185619Y-81001809D01*
X94246095Y-80941333D01*
X94367047Y-80880857D01*
X94548476Y-80880857D01*
X94669428Y-80941333D01*
X94729904Y-81001809D01*
X94790380Y-81122761D01*
X94790380Y-81485619D01*
X94729904Y-81606571D01*
X94669428Y-81667047D01*
X94548476Y-81727523D01*
X94367047Y-81727523D01*
X96846571Y-81667047D02*
X96725619Y-81727523D01*
X96483714Y-81727523D01*
X96362761Y-81667047D01*
X96302285Y-81606571D01*
X96241809Y-81485619D01*
X96241809Y-81122761D01*
X96302285Y-81001809D01*
X96362761Y-80941333D01*
X96483714Y-80880857D01*
X96725619Y-80880857D01*
X96846571Y-80941333D01*
X98358476Y-81727523D02*
X98358476Y-80457523D01*
X98660857Y-80457523D01*
X98842285Y-80518000D01*
X98963238Y-80638952D01*
X99023714Y-80759904D01*
X99084190Y-81001809D01*
X99084190Y-81183238D01*
X99023714Y-81425142D01*
X98963238Y-81546095D01*
X98842285Y-81667047D01*
X98660857Y-81727523D01*
X98358476Y-81727523D01*
X99628476Y-81727523D02*
X99628476Y-80880857D01*
X99628476Y-81122761D02*
X99688952Y-81001809D01*
X99749428Y-80941333D01*
X99870380Y-80880857D01*
X99991333Y-80880857D01*
X100414666Y-81727523D02*
X100414666Y-80880857D01*
X100414666Y-80457523D02*
X100354190Y-80518000D01*
X100414666Y-80578476D01*
X100475142Y-80518000D01*
X100414666Y-80457523D01*
X100414666Y-80578476D01*
X101200857Y-81727523D02*
X101079904Y-81667047D01*
X101019428Y-81546095D01*
X101019428Y-80457523D01*
X101866095Y-81727523D02*
X101745142Y-81667047D01*
X101684666Y-81546095D01*
X101684666Y-80457523D01*
X103257047Y-81667047D02*
X103438476Y-81727523D01*
X103740857Y-81727523D01*
X103861809Y-81667047D01*
X103922285Y-81606571D01*
X103982761Y-81485619D01*
X103982761Y-81364666D01*
X103922285Y-81243714D01*
X103861809Y-81183238D01*
X103740857Y-81122761D01*
X103498952Y-81062285D01*
X103378000Y-81001809D01*
X103317523Y-80941333D01*
X103257047Y-80820380D01*
X103257047Y-80699428D01*
X103317523Y-80578476D01*
X103378000Y-80518000D01*
X103498952Y-80457523D01*
X103801333Y-80457523D01*
X103982761Y-80518000D01*
X104708476Y-81727523D02*
X104587523Y-81667047D01*
X104527047Y-81546095D01*
X104527047Y-80457523D01*
X105373714Y-81727523D02*
X105252761Y-81667047D01*
X105192285Y-81606571D01*
X105131809Y-81485619D01*
X105131809Y-81122761D01*
X105192285Y-81001809D01*
X105252761Y-80941333D01*
X105373714Y-80880857D01*
X105555142Y-80880857D01*
X105676095Y-80941333D01*
X105736571Y-81001809D01*
X105797047Y-81122761D01*
X105797047Y-81485619D01*
X105736571Y-81606571D01*
X105676095Y-81667047D01*
X105555142Y-81727523D01*
X105373714Y-81727523D01*
X106159904Y-80880857D02*
X106643714Y-80880857D01*
X106341333Y-80457523D02*
X106341333Y-81546095D01*
X106401809Y-81667047D01*
X106522761Y-81727523D01*
X106643714Y-81727523D01*
X107006571Y-81667047D02*
X107127523Y-81727523D01*
X107369428Y-81727523D01*
X107490380Y-81667047D01*
X107550857Y-81546095D01*
X107550857Y-81485619D01*
X107490380Y-81364666D01*
X107369428Y-81304190D01*
X107188000Y-81304190D01*
X107067047Y-81243714D01*
X107006571Y-81122761D01*
X107006571Y-81062285D01*
X107067047Y-80941333D01*
X107188000Y-80880857D01*
X107369428Y-80880857D01*
X107490380Y-80941333D01*
X108095142Y-81606571D02*
X108155619Y-81667047D01*
X108095142Y-81727523D01*
X108034666Y-81667047D01*
X108095142Y-81606571D01*
X108095142Y-81727523D01*
X108095142Y-81243714D02*
X108034666Y-80518000D01*
X108095142Y-80457523D01*
X108155619Y-80518000D01*
X108095142Y-81243714D01*
X108095142Y-80457523D01*
X108699904Y-81606571D02*
X108760380Y-81667047D01*
X108699904Y-81727523D01*
X108639428Y-81667047D01*
X108699904Y-81606571D01*
X108699904Y-81727523D01*
X108699904Y-81243714D02*
X108639428Y-80518000D01*
X108699904Y-80457523D01*
X108760380Y-80518000D01*
X108699904Y-81243714D01*
X108699904Y-80457523D01*
X109304666Y-81606571D02*
X109365142Y-81667047D01*
X109304666Y-81727523D01*
X109244190Y-81667047D01*
X109304666Y-81606571D01*
X109304666Y-81727523D01*
X109304666Y-81243714D02*
X109244190Y-80518000D01*
X109304666Y-80457523D01*
X109365142Y-80518000D01*
X109304666Y-81243714D01*
X109304666Y-80457523D01*
D12*
X92583000Y-107895571D02*
X92329000Y-107895571D01*
X92329000Y-108294714D02*
X92329000Y-107532714D01*
X92691857Y-107532714D01*
X92982142Y-107895571D02*
X93236142Y-107895571D01*
X93345000Y-108294714D02*
X92982142Y-108294714D01*
X92982142Y-107532714D01*
X93345000Y-107532714D01*
X93562714Y-107532714D02*
X93998142Y-107532714D01*
X93780428Y-108294714D02*
X93780428Y-107532714D01*
X94215857Y-107605285D02*
X94252142Y-107569000D01*
X94324714Y-107532714D01*
X94506142Y-107532714D01*
X94578714Y-107569000D01*
X94615000Y-107605285D01*
X94651285Y-107677857D01*
X94651285Y-107750428D01*
X94615000Y-107859285D01*
X94179571Y-108294714D01*
X94651285Y-108294714D01*
X105156000Y-96356714D02*
X104902000Y-95993857D01*
X104720571Y-96356714D02*
X104720571Y-95594714D01*
X105010857Y-95594714D01*
X105083428Y-95631000D01*
X105119714Y-95667285D01*
X105156000Y-95739857D01*
X105156000Y-95848714D01*
X105119714Y-95921285D01*
X105083428Y-95957571D01*
X105010857Y-95993857D01*
X104720571Y-95993857D01*
X105591428Y-95921285D02*
X105518857Y-95885000D01*
X105482571Y-95848714D01*
X105446285Y-95776142D01*
X105446285Y-95739857D01*
X105482571Y-95667285D01*
X105518857Y-95631000D01*
X105591428Y-95594714D01*
X105736571Y-95594714D01*
X105809142Y-95631000D01*
X105845428Y-95667285D01*
X105881714Y-95739857D01*
X105881714Y-95776142D01*
X105845428Y-95848714D01*
X105809142Y-95885000D01*
X105736571Y-95921285D01*
X105591428Y-95921285D01*
X105518857Y-95957571D01*
X105482571Y-95993857D01*
X105446285Y-96066428D01*
X105446285Y-96211571D01*
X105482571Y-96284142D01*
X105518857Y-96320428D01*
X105591428Y-96356714D01*
X105736571Y-96356714D01*
X105809142Y-96320428D01*
X105845428Y-96284142D01*
X105881714Y-96211571D01*
X105881714Y-96066428D01*
X105845428Y-95993857D01*
X105809142Y-95957571D01*
X105736571Y-95921285D01*
D10*
X104856642Y-111388071D02*
X104475642Y-110843785D01*
X104203500Y-111388071D02*
X104203500Y-110245071D01*
X104638928Y-110245071D01*
X104747785Y-110299500D01*
X104802214Y-110353928D01*
X104856642Y-110462785D01*
X104856642Y-110626071D01*
X104802214Y-110734928D01*
X104747785Y-110789357D01*
X104638928Y-110843785D01*
X104203500Y-110843785D01*
X105346500Y-110789357D02*
X105727500Y-110789357D01*
X105890785Y-111388071D02*
X105346500Y-111388071D01*
X105346500Y-110245071D01*
X105890785Y-110245071D01*
X106326214Y-111333642D02*
X106489500Y-111388071D01*
X106761642Y-111388071D01*
X106870500Y-111333642D01*
X106924928Y-111279214D01*
X106979357Y-111170357D01*
X106979357Y-111061500D01*
X106924928Y-110952642D01*
X106870500Y-110898214D01*
X106761642Y-110843785D01*
X106543928Y-110789357D01*
X106435071Y-110734928D01*
X106380642Y-110680500D01*
X106326214Y-110571642D01*
X106326214Y-110462785D01*
X106380642Y-110353928D01*
X106435071Y-110299500D01*
X106543928Y-110245071D01*
X106816071Y-110245071D01*
X106979357Y-110299500D01*
X107469214Y-110789357D02*
X107850214Y-110789357D01*
X108013500Y-111388071D02*
X107469214Y-111388071D01*
X107469214Y-110245071D01*
X108013500Y-110245071D01*
X108340071Y-110245071D02*
X108993214Y-110245071D01*
X108666642Y-111388071D02*
X108666642Y-110245071D01*
X109972928Y-111388071D02*
X109319785Y-111388071D01*
X109646357Y-111388071D02*
X109646357Y-110245071D01*
X109537500Y-110408357D01*
X109428642Y-110517214D01*
X109319785Y-110571642D01*
D12*
X98613685Y-141441714D02*
X98250828Y-141441714D01*
X98250828Y-140679714D01*
X98867685Y-141042571D02*
X99121685Y-141042571D01*
X99230542Y-141441714D02*
X98867685Y-141441714D01*
X98867685Y-140679714D01*
X99230542Y-140679714D01*
X99557114Y-141441714D02*
X99557114Y-140679714D01*
X99738542Y-140679714D01*
X99847400Y-140716000D01*
X99919971Y-140788571D01*
X99956257Y-140861142D01*
X99992542Y-141006285D01*
X99992542Y-141115142D01*
X99956257Y-141260285D01*
X99919971Y-141332857D01*
X99847400Y-141405428D01*
X99738542Y-141441714D01*
X99557114Y-141441714D01*
X100718257Y-141441714D02*
X100282828Y-141441714D01*
X100500542Y-141441714D02*
X100500542Y-140679714D01*
X100427971Y-140788571D01*
X100355400Y-140861142D01*
X100282828Y-140897428D01*
X101636285Y-141441714D02*
X101273428Y-141441714D01*
X101273428Y-140679714D01*
X101890285Y-141042571D02*
X102144285Y-141042571D01*
X102253142Y-141441714D02*
X101890285Y-141441714D01*
X101890285Y-140679714D01*
X102253142Y-140679714D01*
X102579714Y-141441714D02*
X102579714Y-140679714D01*
X102761142Y-140679714D01*
X102870000Y-140716000D01*
X102942571Y-140788571D01*
X102978857Y-140861142D01*
X103015142Y-141006285D01*
X103015142Y-141115142D01*
X102978857Y-141260285D01*
X102942571Y-141332857D01*
X102870000Y-141405428D01*
X102761142Y-141441714D01*
X102579714Y-141441714D01*
X103305428Y-140752285D02*
X103341714Y-140716000D01*
X103414285Y-140679714D01*
X103595714Y-140679714D01*
X103668285Y-140716000D01*
X103704571Y-140752285D01*
X103740857Y-140824857D01*
X103740857Y-140897428D01*
X103704571Y-141006285D01*
X103269142Y-141441714D01*
X103740857Y-141441714D01*
X96465571Y-104775000D02*
X96465571Y-105029000D01*
X96864714Y-105029000D02*
X96102714Y-105029000D01*
X96102714Y-104666142D01*
X96465571Y-104375857D02*
X96465571Y-104121857D01*
X96864714Y-104013000D02*
X96864714Y-104375857D01*
X96102714Y-104375857D01*
X96102714Y-104013000D01*
X96102714Y-103795285D02*
X96102714Y-103359857D01*
X96864714Y-103577571D02*
X96102714Y-103577571D01*
X96864714Y-102706714D02*
X96864714Y-103142142D01*
X96864714Y-102924428D02*
X96102714Y-102924428D01*
X96211571Y-102997000D01*
X96284142Y-103069571D01*
X96320428Y-103142142D01*
D10*
X87871904Y-104424238D02*
X88017047Y-104472619D01*
X88258952Y-104472619D01*
X88355714Y-104424238D01*
X88404095Y-104375857D01*
X88452476Y-104279095D01*
X88452476Y-104182333D01*
X88404095Y-104085571D01*
X88355714Y-104037190D01*
X88258952Y-103988809D01*
X88065428Y-103940428D01*
X87968666Y-103892047D01*
X87920285Y-103843666D01*
X87871904Y-103746904D01*
X87871904Y-103650142D01*
X87920285Y-103553380D01*
X87968666Y-103505000D01*
X88065428Y-103456619D01*
X88307333Y-103456619D01*
X88452476Y-103505000D01*
X89226571Y-103940428D02*
X89371714Y-103988809D01*
X89420095Y-104037190D01*
X89468476Y-104133952D01*
X89468476Y-104279095D01*
X89420095Y-104375857D01*
X89371714Y-104424238D01*
X89274952Y-104472619D01*
X88887904Y-104472619D01*
X88887904Y-103456619D01*
X89226571Y-103456619D01*
X89323333Y-103505000D01*
X89371714Y-103553380D01*
X89420095Y-103650142D01*
X89420095Y-103746904D01*
X89371714Y-103843666D01*
X89323333Y-103892047D01*
X89226571Y-103940428D01*
X88887904Y-103940428D01*
X90436095Y-104472619D02*
X89855523Y-104472619D01*
X90145809Y-104472619D02*
X90145809Y-103456619D01*
X90049047Y-103601761D01*
X89952285Y-103698523D01*
X89855523Y-103746904D01*
D12*
X112057542Y-97866200D02*
X112093828Y-97902485D01*
X112130114Y-98011342D01*
X112130114Y-98083914D01*
X112093828Y-98192771D01*
X112021257Y-98265342D01*
X111948685Y-98301628D01*
X111803542Y-98337914D01*
X111694685Y-98337914D01*
X111549542Y-98301628D01*
X111476971Y-98265342D01*
X111404400Y-98192771D01*
X111368114Y-98083914D01*
X111368114Y-98011342D01*
X111404400Y-97902485D01*
X111440685Y-97866200D01*
X111368114Y-97176771D02*
X111368114Y-97539628D01*
X111730971Y-97575914D01*
X111694685Y-97539628D01*
X111658400Y-97467057D01*
X111658400Y-97285628D01*
X111694685Y-97213057D01*
X111730971Y-97176771D01*
X111803542Y-97140485D01*
X111984971Y-97140485D01*
X112057542Y-97176771D01*
X112093828Y-97213057D01*
X112130114Y-97285628D01*
X112130114Y-97467057D01*
X112093828Y-97539628D01*
X112057542Y-97575914D01*
X95830571Y-96610714D02*
X95830571Y-95848714D01*
X96012000Y-95848714D01*
X96120857Y-95885000D01*
X96193428Y-95957571D01*
X96229714Y-96030142D01*
X96266000Y-96175285D01*
X96266000Y-96284142D01*
X96229714Y-96429285D01*
X96193428Y-96501857D01*
X96120857Y-96574428D01*
X96012000Y-96610714D01*
X95830571Y-96610714D01*
X96991714Y-96610714D02*
X96556285Y-96610714D01*
X96774000Y-96610714D02*
X96774000Y-95848714D01*
X96701428Y-95957571D01*
X96628857Y-96030142D01*
X96556285Y-96066428D01*
X76708000Y-108548714D02*
X76454000Y-108185857D01*
X76272571Y-108548714D02*
X76272571Y-107786714D01*
X76562857Y-107786714D01*
X76635428Y-107823000D01*
X76671714Y-107859285D01*
X76708000Y-107931857D01*
X76708000Y-108040714D01*
X76671714Y-108113285D01*
X76635428Y-108149571D01*
X76562857Y-108185857D01*
X76272571Y-108185857D01*
X77433714Y-108548714D02*
X76998285Y-108548714D01*
X77216000Y-108548714D02*
X77216000Y-107786714D01*
X77143428Y-107895571D01*
X77070857Y-107968142D01*
X76998285Y-108004428D01*
X88863714Y-95504000D02*
X88500857Y-95758000D01*
X88863714Y-95939428D02*
X88101714Y-95939428D01*
X88101714Y-95649142D01*
X88138000Y-95576571D01*
X88174285Y-95540285D01*
X88246857Y-95504000D01*
X88355714Y-95504000D01*
X88428285Y-95540285D01*
X88464571Y-95576571D01*
X88500857Y-95649142D01*
X88500857Y-95939428D01*
X88174285Y-95213714D02*
X88138000Y-95177428D01*
X88101714Y-95104857D01*
X88101714Y-94923428D01*
X88138000Y-94850857D01*
X88174285Y-94814571D01*
X88246857Y-94778285D01*
X88319428Y-94778285D01*
X88428285Y-94814571D01*
X88863714Y-95250000D01*
X88863714Y-94778285D01*
X90424000Y-98896714D02*
X90170000Y-98533857D01*
X89988571Y-98896714D02*
X89988571Y-98134714D01*
X90278857Y-98134714D01*
X90351428Y-98171000D01*
X90387714Y-98207285D01*
X90424000Y-98279857D01*
X90424000Y-98388714D01*
X90387714Y-98461285D01*
X90351428Y-98497571D01*
X90278857Y-98533857D01*
X89988571Y-98533857D01*
X90678000Y-98134714D02*
X91149714Y-98134714D01*
X90895714Y-98425000D01*
X91004571Y-98425000D01*
X91077142Y-98461285D01*
X91113428Y-98497571D01*
X91149714Y-98570142D01*
X91149714Y-98751571D01*
X91113428Y-98824142D01*
X91077142Y-98860428D01*
X91004571Y-98896714D01*
X90786857Y-98896714D01*
X90714285Y-98860428D01*
X90678000Y-98824142D01*
X80862714Y-94996000D02*
X80499857Y-95250000D01*
X80862714Y-95431428D02*
X80100714Y-95431428D01*
X80100714Y-95141142D01*
X80137000Y-95068571D01*
X80173285Y-95032285D01*
X80245857Y-94996000D01*
X80354714Y-94996000D01*
X80427285Y-95032285D01*
X80463571Y-95068571D01*
X80499857Y-95141142D01*
X80499857Y-95431428D01*
X80354714Y-94342857D02*
X80862714Y-94342857D01*
X80064428Y-94524285D02*
X80608714Y-94705714D01*
X80608714Y-94234000D01*
X85053714Y-95123000D02*
X84690857Y-95377000D01*
X85053714Y-95558428D02*
X84291714Y-95558428D01*
X84291714Y-95268142D01*
X84328000Y-95195571D01*
X84364285Y-95159285D01*
X84436857Y-95123000D01*
X84545714Y-95123000D01*
X84618285Y-95159285D01*
X84654571Y-95195571D01*
X84690857Y-95268142D01*
X84690857Y-95558428D01*
X84291714Y-94869000D02*
X84291714Y-94361000D01*
X85053714Y-94687571D01*
X82060142Y-95086714D02*
X81806142Y-94723857D01*
X81624714Y-95086714D02*
X81624714Y-94324714D01*
X81915000Y-94324714D01*
X81987571Y-94361000D01*
X82023857Y-94397285D01*
X82060142Y-94469857D01*
X82060142Y-94578714D01*
X82023857Y-94651285D01*
X81987571Y-94687571D01*
X81915000Y-94723857D01*
X81624714Y-94723857D01*
X82785857Y-95086714D02*
X82350428Y-95086714D01*
X82568142Y-95086714D02*
X82568142Y-94324714D01*
X82495571Y-94433571D01*
X82423000Y-94506142D01*
X82350428Y-94542428D01*
X83076142Y-94397285D02*
X83112428Y-94361000D01*
X83185000Y-94324714D01*
X83366428Y-94324714D01*
X83439000Y-94361000D01*
X83475285Y-94397285D01*
X83511571Y-94469857D01*
X83511571Y-94542428D01*
X83475285Y-94651285D01*
X83039857Y-95086714D01*
X83511571Y-95086714D01*
X83910714Y-108693857D02*
X83547857Y-108947857D01*
X83910714Y-109129285D02*
X83148714Y-109129285D01*
X83148714Y-108839000D01*
X83185000Y-108766428D01*
X83221285Y-108730142D01*
X83293857Y-108693857D01*
X83402714Y-108693857D01*
X83475285Y-108730142D01*
X83511571Y-108766428D01*
X83547857Y-108839000D01*
X83547857Y-109129285D01*
X83910714Y-107968142D02*
X83910714Y-108403571D01*
X83910714Y-108185857D02*
X83148714Y-108185857D01*
X83257571Y-108258428D01*
X83330142Y-108331000D01*
X83366428Y-108403571D01*
X83148714Y-107714142D02*
X83148714Y-107242428D01*
X83439000Y-107496428D01*
X83439000Y-107387571D01*
X83475285Y-107315000D01*
X83511571Y-107278714D01*
X83584142Y-107242428D01*
X83765571Y-107242428D01*
X83838142Y-107278714D01*
X83874428Y-107315000D01*
X83910714Y-107387571D01*
X83910714Y-107605285D01*
X83874428Y-107677857D01*
X83838142Y-107714142D01*
X76345142Y-103087714D02*
X76091142Y-102724857D01*
X75909714Y-103087714D02*
X75909714Y-102325714D01*
X76200000Y-102325714D01*
X76272571Y-102362000D01*
X76308857Y-102398285D01*
X76345142Y-102470857D01*
X76345142Y-102579714D01*
X76308857Y-102652285D01*
X76272571Y-102688571D01*
X76200000Y-102724857D01*
X75909714Y-102724857D01*
X77070857Y-103087714D02*
X76635428Y-103087714D01*
X76853142Y-103087714D02*
X76853142Y-102325714D01*
X76780571Y-102434571D01*
X76708000Y-102507142D01*
X76635428Y-102543428D01*
X77724000Y-102579714D02*
X77724000Y-103087714D01*
X77542571Y-102289428D02*
X77361142Y-102833714D01*
X77832857Y-102833714D01*
X76345142Y-104611714D02*
X76091142Y-104248857D01*
X75909714Y-104611714D02*
X75909714Y-103849714D01*
X76200000Y-103849714D01*
X76272571Y-103886000D01*
X76308857Y-103922285D01*
X76345142Y-103994857D01*
X76345142Y-104103714D01*
X76308857Y-104176285D01*
X76272571Y-104212571D01*
X76200000Y-104248857D01*
X75909714Y-104248857D01*
X77070857Y-104611714D02*
X76635428Y-104611714D01*
X76853142Y-104611714D02*
X76853142Y-103849714D01*
X76780571Y-103958571D01*
X76708000Y-104031142D01*
X76635428Y-104067428D01*
X77760285Y-103849714D02*
X77397428Y-103849714D01*
X77361142Y-104212571D01*
X77397428Y-104176285D01*
X77470000Y-104140000D01*
X77651428Y-104140000D01*
X77724000Y-104176285D01*
X77760285Y-104212571D01*
X77796571Y-104285142D01*
X77796571Y-104466571D01*
X77760285Y-104539142D01*
X77724000Y-104575428D01*
X77651428Y-104611714D01*
X77470000Y-104611714D01*
X77397428Y-104575428D01*
X77361142Y-104539142D01*
X76345142Y-105881714D02*
X76091142Y-105518857D01*
X75909714Y-105881714D02*
X75909714Y-105119714D01*
X76200000Y-105119714D01*
X76272571Y-105156000D01*
X76308857Y-105192285D01*
X76345142Y-105264857D01*
X76345142Y-105373714D01*
X76308857Y-105446285D01*
X76272571Y-105482571D01*
X76200000Y-105518857D01*
X75909714Y-105518857D01*
X77070857Y-105881714D02*
X76635428Y-105881714D01*
X76853142Y-105881714D02*
X76853142Y-105119714D01*
X76780571Y-105228571D01*
X76708000Y-105301142D01*
X76635428Y-105337428D01*
X77724000Y-105119714D02*
X77578857Y-105119714D01*
X77506285Y-105156000D01*
X77470000Y-105192285D01*
X77397428Y-105301142D01*
X77361142Y-105446285D01*
X77361142Y-105736571D01*
X77397428Y-105809142D01*
X77433714Y-105845428D01*
X77506285Y-105881714D01*
X77651428Y-105881714D01*
X77724000Y-105845428D01*
X77760285Y-105809142D01*
X77796571Y-105736571D01*
X77796571Y-105555142D01*
X77760285Y-105482571D01*
X77724000Y-105446285D01*
X77651428Y-105410000D01*
X77506285Y-105410000D01*
X77433714Y-105446285D01*
X77397428Y-105482571D01*
X77361142Y-105555142D01*
X76345142Y-107151714D02*
X76091142Y-106788857D01*
X75909714Y-107151714D02*
X75909714Y-106389714D01*
X76200000Y-106389714D01*
X76272571Y-106426000D01*
X76308857Y-106462285D01*
X76345142Y-106534857D01*
X76345142Y-106643714D01*
X76308857Y-106716285D01*
X76272571Y-106752571D01*
X76200000Y-106788857D01*
X75909714Y-106788857D01*
X77070857Y-107151714D02*
X76635428Y-107151714D01*
X76853142Y-107151714D02*
X76853142Y-106389714D01*
X76780571Y-106498571D01*
X76708000Y-106571142D01*
X76635428Y-106607428D01*
X77324857Y-106389714D02*
X77832857Y-106389714D01*
X77506285Y-107151714D01*
X86251142Y-95485857D02*
X86287428Y-95522142D01*
X86323714Y-95631000D01*
X86323714Y-95703571D01*
X86287428Y-95812428D01*
X86214857Y-95885000D01*
X86142285Y-95921285D01*
X85997142Y-95957571D01*
X85888285Y-95957571D01*
X85743142Y-95921285D01*
X85670571Y-95885000D01*
X85598000Y-95812428D01*
X85561714Y-95703571D01*
X85561714Y-95631000D01*
X85598000Y-95522142D01*
X85634285Y-95485857D01*
X86323714Y-94760142D02*
X86323714Y-95195571D01*
X86323714Y-94977857D02*
X85561714Y-94977857D01*
X85670571Y-95050428D01*
X85743142Y-95123000D01*
X85779428Y-95195571D01*
X86323714Y-94034428D02*
X86323714Y-94469857D01*
X86323714Y-94252142D02*
X85561714Y-94252142D01*
X85670571Y-94324714D01*
X85743142Y-94397285D01*
X85779428Y-94469857D01*
X85108142Y-108712000D02*
X85144428Y-108748285D01*
X85180714Y-108857142D01*
X85180714Y-108929714D01*
X85144428Y-109038571D01*
X85071857Y-109111142D01*
X84999285Y-109147428D01*
X84854142Y-109183714D01*
X84745285Y-109183714D01*
X84600142Y-109147428D01*
X84527571Y-109111142D01*
X84455000Y-109038571D01*
X84418714Y-108929714D01*
X84418714Y-108857142D01*
X84455000Y-108748285D01*
X84491285Y-108712000D01*
X84418714Y-108458000D02*
X84418714Y-107986285D01*
X84709000Y-108240285D01*
X84709000Y-108131428D01*
X84745285Y-108058857D01*
X84781571Y-108022571D01*
X84854142Y-107986285D01*
X85035571Y-107986285D01*
X85108142Y-108022571D01*
X85144428Y-108058857D01*
X85180714Y-108131428D01*
X85180714Y-108349142D01*
X85144428Y-108421714D01*
X85108142Y-108458000D01*
X96266000Y-95268142D02*
X96229714Y-95304428D01*
X96120857Y-95340714D01*
X96048285Y-95340714D01*
X95939428Y-95304428D01*
X95866857Y-95231857D01*
X95830571Y-95159285D01*
X95794285Y-95014142D01*
X95794285Y-94905285D01*
X95830571Y-94760142D01*
X95866857Y-94687571D01*
X95939428Y-94615000D01*
X96048285Y-94578714D01*
X96120857Y-94578714D01*
X96229714Y-94615000D01*
X96266000Y-94651285D01*
X96919142Y-94832714D02*
X96919142Y-95340714D01*
X96737714Y-94542428D02*
X96556285Y-95086714D01*
X97028000Y-95086714D01*
X82314142Y-108947857D02*
X82350428Y-108984142D01*
X82386714Y-109093000D01*
X82386714Y-109165571D01*
X82350428Y-109274428D01*
X82277857Y-109347000D01*
X82205285Y-109383285D01*
X82060142Y-109419571D01*
X81951285Y-109419571D01*
X81806142Y-109383285D01*
X81733571Y-109347000D01*
X81661000Y-109274428D01*
X81624714Y-109165571D01*
X81624714Y-109093000D01*
X81661000Y-108984142D01*
X81697285Y-108947857D01*
X82386714Y-108222142D02*
X82386714Y-108657571D01*
X82386714Y-108439857D02*
X81624714Y-108439857D01*
X81733571Y-108512428D01*
X81806142Y-108585000D01*
X81842428Y-108657571D01*
X81697285Y-107931857D02*
X81661000Y-107895571D01*
X81624714Y-107823000D01*
X81624714Y-107641571D01*
X81661000Y-107569000D01*
X81697285Y-107532714D01*
X81769857Y-107496428D01*
X81842428Y-107496428D01*
X81951285Y-107532714D01*
X82386714Y-107968142D01*
X82386714Y-107496428D01*
X89045142Y-93726000D02*
X89081428Y-93762285D01*
X89117714Y-93871142D01*
X89117714Y-93943714D01*
X89081428Y-94052571D01*
X89008857Y-94125142D01*
X88936285Y-94161428D01*
X88791142Y-94197714D01*
X88682285Y-94197714D01*
X88537142Y-94161428D01*
X88464571Y-94125142D01*
X88392000Y-94052571D01*
X88355714Y-93943714D01*
X88355714Y-93871142D01*
X88392000Y-93762285D01*
X88428285Y-93726000D01*
X89117714Y-93000285D02*
X89117714Y-93435714D01*
X89117714Y-93218000D02*
X88355714Y-93218000D01*
X88464571Y-93290571D01*
X88537142Y-93363142D01*
X88573428Y-93435714D01*
X81044142Y-108839000D02*
X81080428Y-108875285D01*
X81116714Y-108984142D01*
X81116714Y-109056714D01*
X81080428Y-109165571D01*
X81007857Y-109238142D01*
X80935285Y-109274428D01*
X80790142Y-109310714D01*
X80681285Y-109310714D01*
X80536142Y-109274428D01*
X80463571Y-109238142D01*
X80391000Y-109165571D01*
X80354714Y-109056714D01*
X80354714Y-108984142D01*
X80391000Y-108875285D01*
X80427285Y-108839000D01*
X80427285Y-108548714D02*
X80391000Y-108512428D01*
X80354714Y-108439857D01*
X80354714Y-108258428D01*
X80391000Y-108185857D01*
X80427285Y-108149571D01*
X80499857Y-108113285D01*
X80572428Y-108113285D01*
X80681285Y-108149571D01*
X81116714Y-108585000D01*
X81116714Y-108113285D01*
D10*
X105524904Y-93677619D02*
X105524904Y-94500095D01*
X105573285Y-94596857D01*
X105621666Y-94645238D01*
X105718428Y-94693619D01*
X105911952Y-94693619D01*
X106008714Y-94645238D01*
X106057095Y-94596857D01*
X106105476Y-94500095D01*
X106105476Y-93677619D01*
X106492523Y-93677619D02*
X107121476Y-93677619D01*
X106782809Y-94064666D01*
X106927952Y-94064666D01*
X107024714Y-94113047D01*
X107073095Y-94161428D01*
X107121476Y-94258190D01*
X107121476Y-94500095D01*
X107073095Y-94596857D01*
X107024714Y-94645238D01*
X106927952Y-94693619D01*
X106637666Y-94693619D01*
X106540904Y-94645238D01*
X106492523Y-94596857D01*
X108004428Y-94566619D02*
X107907666Y-94518238D01*
X107859285Y-94469857D01*
X107810904Y-94373095D01*
X107810904Y-94082809D01*
X107859285Y-93986047D01*
X107907666Y-93937666D01*
X108004428Y-93889285D01*
X108149571Y-93889285D01*
X108246333Y-93937666D01*
X108294714Y-93986047D01*
X108343095Y-94082809D01*
X108343095Y-94373095D01*
X108294714Y-94469857D01*
X108246333Y-94518238D01*
X108149571Y-94566619D01*
X108004428Y-94566619D01*
D12*
X77179714Y-110725857D02*
X76816857Y-110979857D01*
X77179714Y-111161285D02*
X76417714Y-111161285D01*
X76417714Y-110871000D01*
X76454000Y-110798428D01*
X76490285Y-110762142D01*
X76562857Y-110725857D01*
X76671714Y-110725857D01*
X76744285Y-110762142D01*
X76780571Y-110798428D01*
X76816857Y-110871000D01*
X76816857Y-111161285D01*
X77179714Y-110000142D02*
X77179714Y-110435571D01*
X77179714Y-110217857D02*
X76417714Y-110217857D01*
X76526571Y-110290428D01*
X76599142Y-110363000D01*
X76635428Y-110435571D01*
X77179714Y-109274428D02*
X77179714Y-109709857D01*
X77179714Y-109492142D02*
X76417714Y-109492142D01*
X76526571Y-109564714D01*
X76599142Y-109637285D01*
X76635428Y-109709857D01*
X77560714Y-98044000D02*
X77197857Y-98298000D01*
X77560714Y-98479428D02*
X76798714Y-98479428D01*
X76798714Y-98189142D01*
X76835000Y-98116571D01*
X76871285Y-98080285D01*
X76943857Y-98044000D01*
X77052714Y-98044000D01*
X77125285Y-98080285D01*
X77161571Y-98116571D01*
X77197857Y-98189142D01*
X77197857Y-98479428D01*
X76798714Y-97390857D02*
X76798714Y-97536000D01*
X76835000Y-97608571D01*
X76871285Y-97644857D01*
X76980142Y-97717428D01*
X77125285Y-97753714D01*
X77415571Y-97753714D01*
X77488142Y-97717428D01*
X77524428Y-97681142D01*
X77560714Y-97608571D01*
X77560714Y-97463428D01*
X77524428Y-97390857D01*
X77488142Y-97354571D01*
X77415571Y-97318285D01*
X77234142Y-97318285D01*
X77161571Y-97354571D01*
X77125285Y-97390857D01*
X77089000Y-97463428D01*
X77089000Y-97608571D01*
X77125285Y-97681142D01*
X77161571Y-97717428D01*
X77234142Y-97753714D01*
X75909714Y-90678000D02*
X75546857Y-90932000D01*
X75909714Y-91113428D02*
X75147714Y-91113428D01*
X75147714Y-90823142D01*
X75184000Y-90750571D01*
X75220285Y-90714285D01*
X75292857Y-90678000D01*
X75401714Y-90678000D01*
X75474285Y-90714285D01*
X75510571Y-90750571D01*
X75546857Y-90823142D01*
X75546857Y-91113428D01*
X75147714Y-89988571D02*
X75147714Y-90351428D01*
X75510571Y-90387714D01*
X75474285Y-90351428D01*
X75438000Y-90278857D01*
X75438000Y-90097428D01*
X75474285Y-90024857D01*
X75510571Y-89988571D01*
X75583142Y-89952285D01*
X75764571Y-89952285D01*
X75837142Y-89988571D01*
X75873428Y-90024857D01*
X75909714Y-90097428D01*
X75909714Y-90278857D01*
X75873428Y-90351428D01*
X75837142Y-90387714D01*
X103523142Y-111106857D02*
X103559428Y-111143142D01*
X103595714Y-111252000D01*
X103595714Y-111324571D01*
X103559428Y-111433428D01*
X103486857Y-111506000D01*
X103414285Y-111542285D01*
X103269142Y-111578571D01*
X103160285Y-111578571D01*
X103015142Y-111542285D01*
X102942571Y-111506000D01*
X102870000Y-111433428D01*
X102833714Y-111324571D01*
X102833714Y-111252000D01*
X102870000Y-111143142D01*
X102906285Y-111106857D01*
X103595714Y-110381142D02*
X103595714Y-110816571D01*
X103595714Y-110598857D02*
X102833714Y-110598857D01*
X102942571Y-110671428D01*
X103015142Y-110744000D01*
X103051428Y-110816571D01*
X102833714Y-109909428D02*
X102833714Y-109836857D01*
X102870000Y-109764285D01*
X102906285Y-109728000D01*
X102978857Y-109691714D01*
X103124000Y-109655428D01*
X103305428Y-109655428D01*
X103450571Y-109691714D01*
X103523142Y-109728000D01*
X103559428Y-109764285D01*
X103595714Y-109836857D01*
X103595714Y-109909428D01*
X103559428Y-109982000D01*
X103523142Y-110018285D01*
X103450571Y-110054571D01*
X103305428Y-110090857D01*
X103124000Y-110090857D01*
X102978857Y-110054571D01*
X102906285Y-110018285D01*
X102870000Y-109982000D01*
X102833714Y-109909428D01*
D10*
X69704857Y-115993333D02*
X69753238Y-116041714D01*
X69801619Y-116186857D01*
X69801619Y-116283619D01*
X69753238Y-116428761D01*
X69656476Y-116525523D01*
X69559714Y-116573904D01*
X69366190Y-116622285D01*
X69221047Y-116622285D01*
X69027523Y-116573904D01*
X68930761Y-116525523D01*
X68834000Y-116428761D01*
X68785619Y-116283619D01*
X68785619Y-116186857D01*
X68834000Y-116041714D01*
X68882380Y-115993333D01*
X69801619Y-115509523D02*
X69801619Y-115316000D01*
X69753238Y-115219238D01*
X69704857Y-115170857D01*
X69559714Y-115074095D01*
X69366190Y-115025714D01*
X68979142Y-115025714D01*
X68882380Y-115074095D01*
X68834000Y-115122476D01*
X68785619Y-115219238D01*
X68785619Y-115412761D01*
X68834000Y-115509523D01*
X68882380Y-115557904D01*
X68979142Y-115606285D01*
X69221047Y-115606285D01*
X69317809Y-115557904D01*
X69366190Y-115509523D01*
X69414571Y-115412761D01*
X69414571Y-115219238D01*
X69366190Y-115122476D01*
X69317809Y-115074095D01*
X69221047Y-115025714D01*
D12*
X80264000Y-110762142D02*
X80227714Y-110798428D01*
X80118857Y-110834714D01*
X80046285Y-110834714D01*
X79937428Y-110798428D01*
X79864857Y-110725857D01*
X79828571Y-110653285D01*
X79792285Y-110508142D01*
X79792285Y-110399285D01*
X79828571Y-110254142D01*
X79864857Y-110181571D01*
X79937428Y-110109000D01*
X80046285Y-110072714D01*
X80118857Y-110072714D01*
X80227714Y-110109000D01*
X80264000Y-110145285D01*
X80699428Y-110399285D02*
X80626857Y-110363000D01*
X80590571Y-110326714D01*
X80554285Y-110254142D01*
X80554285Y-110217857D01*
X80590571Y-110145285D01*
X80626857Y-110109000D01*
X80699428Y-110072714D01*
X80844571Y-110072714D01*
X80917142Y-110109000D01*
X80953428Y-110145285D01*
X80989714Y-110217857D01*
X80989714Y-110254142D01*
X80953428Y-110326714D01*
X80917142Y-110363000D01*
X80844571Y-110399285D01*
X80699428Y-110399285D01*
X80626857Y-110435571D01*
X80590571Y-110471857D01*
X80554285Y-110544428D01*
X80554285Y-110689571D01*
X80590571Y-110762142D01*
X80626857Y-110798428D01*
X80699428Y-110834714D01*
X80844571Y-110834714D01*
X80917142Y-110798428D01*
X80953428Y-110762142D01*
X80989714Y-110689571D01*
X80989714Y-110544428D01*
X80953428Y-110471857D01*
X80917142Y-110435571D01*
X80844571Y-110399285D01*
X77488142Y-100711000D02*
X77524428Y-100747285D01*
X77560714Y-100856142D01*
X77560714Y-100928714D01*
X77524428Y-101037571D01*
X77451857Y-101110142D01*
X77379285Y-101146428D01*
X77234142Y-101182714D01*
X77125285Y-101182714D01*
X76980142Y-101146428D01*
X76907571Y-101110142D01*
X76835000Y-101037571D01*
X76798714Y-100928714D01*
X76798714Y-100856142D01*
X76835000Y-100747285D01*
X76871285Y-100711000D01*
X76798714Y-100457000D02*
X76798714Y-99949000D01*
X77560714Y-100275571D01*
X110744000Y-99586142D02*
X110707714Y-99622428D01*
X110598857Y-99658714D01*
X110526285Y-99658714D01*
X110417428Y-99622428D01*
X110344857Y-99549857D01*
X110308571Y-99477285D01*
X110272285Y-99332142D01*
X110272285Y-99223285D01*
X110308571Y-99078142D01*
X110344857Y-99005571D01*
X110417428Y-98933000D01*
X110526285Y-98896714D01*
X110598857Y-98896714D01*
X110707714Y-98933000D01*
X110744000Y-98969285D01*
X111397142Y-98896714D02*
X111252000Y-98896714D01*
X111179428Y-98933000D01*
X111143142Y-98969285D01*
X111070571Y-99078142D01*
X111034285Y-99223285D01*
X111034285Y-99513571D01*
X111070571Y-99586142D01*
X111106857Y-99622428D01*
X111179428Y-99658714D01*
X111324571Y-99658714D01*
X111397142Y-99622428D01*
X111433428Y-99586142D01*
X111469714Y-99513571D01*
X111469714Y-99332142D01*
X111433428Y-99259571D01*
X111397142Y-99223285D01*
X111324571Y-99187000D01*
X111179428Y-99187000D01*
X111106857Y-99223285D01*
X111070571Y-99259571D01*
X111034285Y-99332142D01*
D10*
X108871285Y-117905428D02*
X109016428Y-117953809D01*
X109064809Y-118002190D01*
X109113190Y-118098952D01*
X109113190Y-118244095D01*
X109064809Y-118340857D01*
X109016428Y-118389238D01*
X108919666Y-118437619D01*
X108532619Y-118437619D01*
X108532619Y-117421619D01*
X108871285Y-117421619D01*
X108968047Y-117470000D01*
X109016428Y-117518380D01*
X109064809Y-117615142D01*
X109064809Y-117711904D01*
X109016428Y-117808666D01*
X108968047Y-117857047D01*
X108871285Y-117905428D01*
X108532619Y-117905428D01*
X109500238Y-118147333D02*
X109984047Y-118147333D01*
X109403476Y-118437619D02*
X109742142Y-117421619D01*
X110080809Y-118437619D01*
X110274333Y-117421619D02*
X110854904Y-117421619D01*
X110564619Y-118437619D02*
X110564619Y-117421619D01*
X111725761Y-118437619D02*
X111145190Y-118437619D01*
X111435476Y-118437619D02*
X111435476Y-117421619D01*
X111338714Y-117566761D01*
X111241952Y-117663523D01*
X111145190Y-117711904D01*
D12*
X103214714Y-102997000D02*
X102851857Y-103251000D01*
X103214714Y-103432428D02*
X102452714Y-103432428D01*
X102452714Y-103142142D01*
X102489000Y-103069571D01*
X102525285Y-103033285D01*
X102597857Y-102997000D01*
X102706714Y-102997000D01*
X102779285Y-103033285D01*
X102815571Y-103069571D01*
X102851857Y-103142142D01*
X102851857Y-103432428D01*
X103214714Y-102634142D02*
X103214714Y-102489000D01*
X103178428Y-102416428D01*
X103142142Y-102380142D01*
X103033285Y-102307571D01*
X102888142Y-102271285D01*
X102597857Y-102271285D01*
X102525285Y-102307571D01*
X102489000Y-102343857D01*
X102452714Y-102416428D01*
X102452714Y-102561571D01*
X102489000Y-102634142D01*
X102525285Y-102670428D01*
X102597857Y-102706714D01*
X102779285Y-102706714D01*
X102851857Y-102670428D01*
X102888142Y-102634142D01*
X102924428Y-102561571D01*
X102924428Y-102416428D01*
X102888142Y-102343857D01*
X102851857Y-102307571D01*
X102779285Y-102271285D01*
X87593714Y-95485857D02*
X87230857Y-95739857D01*
X87593714Y-95921285D02*
X86831714Y-95921285D01*
X86831714Y-95631000D01*
X86868000Y-95558428D01*
X86904285Y-95522142D01*
X86976857Y-95485857D01*
X87085714Y-95485857D01*
X87158285Y-95522142D01*
X87194571Y-95558428D01*
X87230857Y-95631000D01*
X87230857Y-95921285D01*
X87593714Y-94760142D02*
X87593714Y-95195571D01*
X87593714Y-94977857D02*
X86831714Y-94977857D01*
X86940571Y-95050428D01*
X87013142Y-95123000D01*
X87049428Y-95195571D01*
X87158285Y-94324714D02*
X87122000Y-94397285D01*
X87085714Y-94433571D01*
X87013142Y-94469857D01*
X86976857Y-94469857D01*
X86904285Y-94433571D01*
X86868000Y-94397285D01*
X86831714Y-94324714D01*
X86831714Y-94179571D01*
X86868000Y-94107000D01*
X86904285Y-94070714D01*
X86976857Y-94034428D01*
X87013142Y-94034428D01*
X87085714Y-94070714D01*
X87122000Y-94107000D01*
X87158285Y-94179571D01*
X87158285Y-94324714D01*
X87194571Y-94397285D01*
X87230857Y-94433571D01*
X87303428Y-94469857D01*
X87448571Y-94469857D01*
X87521142Y-94433571D01*
X87557428Y-94397285D01*
X87593714Y-94324714D01*
X87593714Y-94179571D01*
X87557428Y-94107000D01*
X87521142Y-94070714D01*
X87448571Y-94034428D01*
X87303428Y-94034428D01*
X87230857Y-94070714D01*
X87194571Y-94107000D01*
X87158285Y-94179571D01*
X96229714Y-107804857D02*
X95866857Y-108058857D01*
X96229714Y-108240285D02*
X95467714Y-108240285D01*
X95467714Y-107950000D01*
X95504000Y-107877428D01*
X95540285Y-107841142D01*
X95612857Y-107804857D01*
X95721714Y-107804857D01*
X95794285Y-107841142D01*
X95830571Y-107877428D01*
X95866857Y-107950000D01*
X95866857Y-108240285D01*
X96229714Y-107079142D02*
X96229714Y-107514571D01*
X96229714Y-107296857D02*
X95467714Y-107296857D01*
X95576571Y-107369428D01*
X95649142Y-107442000D01*
X95685428Y-107514571D01*
X96229714Y-106716285D02*
X96229714Y-106571142D01*
X96193428Y-106498571D01*
X96157142Y-106462285D01*
X96048285Y-106389714D01*
X95903142Y-106353428D01*
X95612857Y-106353428D01*
X95540285Y-106389714D01*
X95504000Y-106426000D01*
X95467714Y-106498571D01*
X95467714Y-106643714D01*
X95504000Y-106716285D01*
X95540285Y-106752571D01*
X95612857Y-106788857D01*
X95794285Y-106788857D01*
X95866857Y-106752571D01*
X95903142Y-106716285D01*
X95939428Y-106643714D01*
X95939428Y-106498571D01*
X95903142Y-106426000D01*
X95866857Y-106389714D01*
X95794285Y-106353428D01*
D10*
X78661380Y-104968523D02*
X78661380Y-105996619D01*
X78721857Y-106117571D01*
X78782333Y-106178047D01*
X78903285Y-106238523D01*
X79145190Y-106238523D01*
X79266142Y-106178047D01*
X79326619Y-106117571D01*
X79387095Y-105996619D01*
X79387095Y-104968523D01*
X79931380Y-105089476D02*
X79991857Y-105029000D01*
X80112809Y-104968523D01*
X80415190Y-104968523D01*
X80536142Y-105029000D01*
X80596619Y-105089476D01*
X80657095Y-105210428D01*
X80657095Y-105331380D01*
X80596619Y-105512809D01*
X79870904Y-106238523D01*
X80657095Y-106238523D01*
X76200000Y-116640428D02*
X76345142Y-116688809D01*
X76393523Y-116737190D01*
X76441904Y-116833952D01*
X76441904Y-116979095D01*
X76393523Y-117075857D01*
X76345142Y-117124238D01*
X76248380Y-117172619D01*
X75861333Y-117172619D01*
X75861333Y-116156619D01*
X76200000Y-116156619D01*
X76296761Y-116205000D01*
X76345142Y-116253380D01*
X76393523Y-116350142D01*
X76393523Y-116446904D01*
X76345142Y-116543666D01*
X76296761Y-116592047D01*
X76200000Y-116640428D01*
X75861333Y-116640428D01*
X77216000Y-116640428D02*
X77361142Y-116688809D01*
X77409523Y-116737190D01*
X77457904Y-116833952D01*
X77457904Y-116979095D01*
X77409523Y-117075857D01*
X77361142Y-117124238D01*
X77264380Y-117172619D01*
X76877333Y-117172619D01*
X76877333Y-116156619D01*
X77216000Y-116156619D01*
X77312761Y-116205000D01*
X77361142Y-116253380D01*
X77409523Y-116350142D01*
X77409523Y-116446904D01*
X77361142Y-116543666D01*
X77312761Y-116592047D01*
X77216000Y-116640428D01*
X76877333Y-116640428D01*
X77893333Y-116785571D02*
X78667428Y-116785571D01*
X79102857Y-117124238D02*
X79248000Y-117172619D01*
X79489904Y-117172619D01*
X79586666Y-117124238D01*
X79635047Y-117075857D01*
X79683428Y-116979095D01*
X79683428Y-116882333D01*
X79635047Y-116785571D01*
X79586666Y-116737190D01*
X79489904Y-116688809D01*
X79296380Y-116640428D01*
X79199619Y-116592047D01*
X79151238Y-116543666D01*
X79102857Y-116446904D01*
X79102857Y-116350142D01*
X79151238Y-116253380D01*
X79199619Y-116205000D01*
X79296380Y-116156619D01*
X79538285Y-116156619D01*
X79683428Y-116205000D01*
X79973714Y-116156619D02*
X80554285Y-116156619D01*
X80264000Y-117172619D02*
X80264000Y-116156619D01*
X80892952Y-117172619D02*
X80892952Y-116156619D01*
X81231619Y-116882333D01*
X81570285Y-116156619D01*
X81570285Y-117172619D01*
X81957333Y-116156619D02*
X82586285Y-116156619D01*
X82247619Y-116543666D01*
X82392761Y-116543666D01*
X82489523Y-116592047D01*
X82537904Y-116640428D01*
X82586285Y-116737190D01*
X82586285Y-116979095D01*
X82537904Y-117075857D01*
X82489523Y-117124238D01*
X82392761Y-117172619D01*
X82102476Y-117172619D01*
X82005714Y-117124238D01*
X81957333Y-117075857D01*
X82973333Y-116253380D02*
X83021714Y-116205000D01*
X83118476Y-116156619D01*
X83360380Y-116156619D01*
X83457142Y-116205000D01*
X83505523Y-116253380D01*
X83553904Y-116350142D01*
X83553904Y-116446904D01*
X83505523Y-116592047D01*
X82924952Y-117172619D01*
X83553904Y-117172619D01*
X83892571Y-116156619D02*
X84134476Y-117172619D01*
X84328000Y-116446904D01*
X84521523Y-117172619D01*
X84763428Y-116156619D01*
X85634285Y-117172619D02*
X85150476Y-117172619D01*
X85150476Y-116156619D01*
X85731047Y-117269380D02*
X86505142Y-117269380D01*
X86747047Y-117172619D02*
X86747047Y-116156619D01*
X87134095Y-116156619D01*
X87230857Y-116205000D01*
X87279238Y-116253380D01*
X87327619Y-116350142D01*
X87327619Y-116495285D01*
X87279238Y-116592047D01*
X87230857Y-116640428D01*
X87134095Y-116688809D01*
X86747047Y-116688809D01*
X88246857Y-117172619D02*
X87763047Y-117172619D01*
X87763047Y-116156619D01*
X88537142Y-116882333D02*
X89020952Y-116882333D01*
X88440380Y-117172619D02*
X88779047Y-116156619D01*
X89117714Y-117172619D01*
X89311238Y-116156619D02*
X89891809Y-116156619D01*
X89601523Y-117172619D02*
X89601523Y-116156619D01*
X90569142Y-116640428D02*
X90230476Y-116640428D01*
X90230476Y-117172619D02*
X90230476Y-116156619D01*
X90714285Y-116156619D01*
X91294857Y-116156619D02*
X91488380Y-116156619D01*
X91585142Y-116205000D01*
X91681904Y-116301761D01*
X91730285Y-116495285D01*
X91730285Y-116833952D01*
X91681904Y-117027476D01*
X91585142Y-117124238D01*
X91488380Y-117172619D01*
X91294857Y-117172619D01*
X91198095Y-117124238D01*
X91101333Y-117027476D01*
X91052952Y-116833952D01*
X91052952Y-116495285D01*
X91101333Y-116301761D01*
X91198095Y-116205000D01*
X91294857Y-116156619D01*
X92746285Y-117172619D02*
X92407619Y-116688809D01*
X92165714Y-117172619D02*
X92165714Y-116156619D01*
X92552761Y-116156619D01*
X92649523Y-116205000D01*
X92697904Y-116253380D01*
X92746285Y-116350142D01*
X92746285Y-116495285D01*
X92697904Y-116592047D01*
X92649523Y-116640428D01*
X92552761Y-116688809D01*
X92165714Y-116688809D01*
X93181714Y-117172619D02*
X93181714Y-116156619D01*
X93520380Y-116882333D01*
X93859047Y-116156619D01*
X93859047Y-117172619D01*
X94875047Y-117172619D02*
X94294476Y-117172619D01*
X94584761Y-117172619D02*
X94584761Y-116156619D01*
X94488000Y-116301761D01*
X94391238Y-116398523D01*
X94294476Y-116446904D01*
D12*
X76798714Y-94488000D02*
X76798714Y-94850857D01*
X76036714Y-94850857D01*
X76798714Y-93834857D02*
X76798714Y-94270285D01*
X76798714Y-94052571D02*
X76036714Y-94052571D01*
X76145571Y-94125142D01*
X76218142Y-94197714D01*
X76254428Y-94270285D01*
M02*
