G04 #@! TF.GenerationSoftware,KiCad,Pcbnew,5.1.0-rc2-unknown-036be7d~80~ubuntu16.04.1*
G04 #@! TF.CreationDate,2022-05-16T13:48:37+03:00*
G04 #@! TF.ProjectId,LoRa-STM32WL-DevKit_RevD,4c6f5261-2d53-4544-9d33-32574c2d4465,D*
G04 #@! TF.SameCoordinates,Original*
G04 #@! TF.FileFunction,Copper,L2,Bot*
G04 #@! TF.FilePolarity,Positive*
%FSLAX46Y46*%
G04 Gerber Fmt 4.6, Leading zero omitted, Abs format (unit mm)*
G04 Created by KiCad (PCBNEW 5.1.0-rc2-unknown-036be7d~80~ubuntu16.04.1) date 2022-05-16 13:48:37*
%MOMM*%
%LPD*%
G04 APERTURE LIST*
%ADD10C,0.508000*%
%ADD11O,1.200000X1.800000*%
%ADD12C,1.524000*%
%ADD13R,1.524000X1.524000*%
%ADD14O,1.000000X1.500000*%
%ADD15C,1.800000*%
%ADD16R,1.800000X1.800000*%
%ADD17R,0.762000X0.508000*%
%ADD18C,1.778000*%
%ADD19R,1.778000X1.778000*%
%ADD20R,0.400000X0.400000*%
%ADD21R,1.422400X1.422400*%
%ADD22C,1.000000*%
%ADD23C,0.700000*%
%ADD24C,0.800000*%
%ADD25C,0.457200*%
%ADD26C,1.016000*%
%ADD27C,0.254000*%
%ADD28C,0.762000*%
%ADD29C,0.177800*%
%ADD30C,0.250000*%
G04 APERTURE END LIST*
D10*
X102997000Y-102362000D02*
X102997000Y-103124000D01*
D11*
X87420000Y-89539000D03*
X87420000Y-93009000D03*
X80220000Y-93009000D03*
X80220000Y-89539000D03*
D12*
X103124000Y-99441000D03*
D13*
X105664000Y-99441000D03*
D14*
X90693400Y-100685600D03*
X89443400Y-100685600D03*
D15*
X68580000Y-138430000D03*
D16*
X66040000Y-138430000D03*
D17*
X102997000Y-103124000D03*
X102997000Y-102362000D03*
D18*
X81280000Y-138430000D03*
X78740000Y-138430000D03*
X76200000Y-138430000D03*
D19*
X73660000Y-138430000D03*
D18*
X83820000Y-138430000D03*
X86360000Y-138430000D03*
X91440000Y-138430000D03*
X88900000Y-138430000D03*
X93980000Y-138430000D03*
X96520000Y-138430000D03*
D13*
X57150000Y-127762000D03*
D12*
X110490000Y-127762000D03*
D13*
X59470000Y-127762000D03*
D20*
X83015200Y-100071400D03*
X84015200Y-100071400D03*
X84815200Y-100871400D03*
X84815200Y-101871400D03*
X84015200Y-102671400D03*
X83015200Y-102671400D03*
X82215200Y-101871400D03*
X82215200Y-100871400D03*
D21*
X83515200Y-101371400D03*
D18*
X98724000Y-112070000D03*
X98724000Y-106990000D03*
X98724000Y-101910000D03*
X73324000Y-94290000D03*
X98724000Y-89210000D03*
X98724000Y-94290000D03*
X98724000Y-96830000D03*
X98724000Y-99370000D03*
X73324000Y-112070000D03*
X73324000Y-101910000D03*
X98724000Y-91750000D03*
X98724000Y-114610000D03*
X73324000Y-89210000D03*
X73324000Y-114610000D03*
X73324000Y-99370000D03*
D19*
X98724000Y-117150000D03*
D18*
X73324000Y-96830000D03*
X73324000Y-104450000D03*
X98724000Y-104450000D03*
X73324000Y-106990000D03*
X73324000Y-91750000D03*
X73324000Y-109530000D03*
X98724000Y-109530000D03*
D19*
X73324000Y-117150000D03*
D22*
X70231000Y-101092000D03*
X91821000Y-108331000D03*
X84582000Y-96901000D03*
X79502000Y-98298000D03*
X78232000Y-98298000D03*
X80010000Y-97028000D03*
X78740000Y-97028000D03*
X89662000Y-96901000D03*
X90932000Y-96901000D03*
D23*
X82042000Y-107188000D03*
X84582000Y-107188000D03*
D24*
X81661000Y-110871000D03*
D22*
X85979000Y-114808000D03*
X91821000Y-111252000D03*
D23*
X96393000Y-115824000D03*
D24*
X77216000Y-103251000D03*
D22*
X70231000Y-99695000D03*
D23*
X103505000Y-112776000D03*
X102489000Y-110998000D03*
X101600000Y-104140000D03*
D22*
X109601000Y-101727000D03*
X110998000Y-108077000D03*
X110998000Y-115697000D03*
D23*
X76835000Y-91821000D03*
D22*
X58928000Y-113792000D03*
X57023000Y-113792000D03*
X67818000Y-115316000D03*
X80264000Y-117856000D03*
X80264000Y-120523000D03*
X74803000Y-120523000D03*
X86614000Y-112903000D03*
X78613000Y-117856000D03*
X90678000Y-133731000D03*
D23*
X87630000Y-136525000D03*
X86741000Y-134874000D03*
X84201000Y-134874000D03*
X81661000Y-134874000D03*
D22*
X77089000Y-133096000D03*
X84709000Y-128016000D03*
X77851000Y-127381000D03*
X82169000Y-130937000D03*
X71247000Y-134874000D03*
X56007000Y-134874000D03*
X71628000Y-124206000D03*
X67183000Y-129159000D03*
X64516000Y-124079000D03*
X57023000Y-123825000D03*
X60198000Y-118364000D03*
X71247000Y-140716000D03*
X104394000Y-141097000D03*
X92837000Y-140716000D03*
X85090000Y-140716000D03*
X63754000Y-140716000D03*
X56134000Y-97282000D03*
X62230000Y-97282000D03*
X69977000Y-105283000D03*
X66040000Y-91694000D03*
X64643000Y-89281000D03*
X70739000Y-89535000D03*
X77216000Y-87757000D03*
X75565000Y-108204000D03*
X84709000Y-124460000D03*
X90805000Y-128270000D03*
X95377000Y-130683000D03*
X97917000Y-133985000D03*
X111506000Y-132715000D03*
X103759000Y-132842000D03*
X103759000Y-127000000D03*
X97917000Y-127000000D03*
X95123000Y-123317000D03*
X101219000Y-123317000D03*
X107823000Y-123190000D03*
X111252000Y-120142000D03*
X106680000Y-118872000D03*
X108458000Y-109093000D03*
X112014000Y-101727000D03*
X100838000Y-96901000D03*
X103124000Y-87376000D03*
X103124000Y-94488000D03*
X101219000Y-89916000D03*
X101219000Y-106807000D03*
D23*
X96393000Y-117856000D03*
X94361000Y-120142000D03*
X80899000Y-104775000D03*
X92710000Y-120269000D03*
D22*
X87376000Y-98552000D03*
X95250000Y-99314000D03*
X85725000Y-105537000D03*
D23*
X102997000Y-104013000D03*
X94681040Y-106486960D03*
X77851000Y-101600000D03*
X99441000Y-136652000D03*
D22*
X91694000Y-98171000D03*
D23*
X90551000Y-88011000D03*
X91821000Y-91059000D03*
X89154000Y-88900000D03*
X95123000Y-88011000D03*
X95123000Y-91059000D03*
X96520000Y-89535000D03*
X97028000Y-88011000D03*
X89154000Y-90678000D03*
X90551000Y-92075000D03*
X90551000Y-89916000D03*
X91821000Y-88900000D03*
X95123000Y-89535000D03*
X81026000Y-98806000D03*
X92456000Y-122555000D03*
X82042000Y-97917000D03*
X93345000Y-123444000D03*
X77851000Y-100584000D03*
X100965000Y-136652000D03*
X77851000Y-99568000D03*
X102489000Y-136652000D03*
X77216000Y-96901000D03*
X76581000Y-106934000D03*
X76327000Y-97790000D03*
X75819000Y-106172000D03*
D22*
X86995000Y-109982000D03*
X89662000Y-109982000D03*
X89662000Y-114427000D03*
D23*
X107061000Y-96520000D03*
D22*
X96266000Y-119761000D03*
X73787000Y-121793000D03*
X68326000Y-109728000D03*
D23*
X80899000Y-124714000D03*
D22*
X67564000Y-94742000D03*
X65355000Y-99745000D03*
X59055000Y-100711000D03*
X61976000Y-109220000D03*
D23*
X79883000Y-124079000D03*
X78486000Y-115062000D03*
X79883000Y-116459000D03*
X90551000Y-124968000D03*
D22*
X56896000Y-99822000D03*
D23*
X110109000Y-97917000D03*
X89662000Y-124079000D03*
X80010000Y-115316000D03*
D25*
X73318800Y-99364800D02*
X73324000Y-99370000D01*
D26*
X84582000Y-98044000D02*
X84582000Y-96901000D01*
X83515200Y-99110800D02*
X84582000Y-98044000D01*
X83515200Y-101371400D02*
X83515200Y-99110800D01*
X79502000Y-98171000D02*
X80899000Y-96774000D01*
X84455000Y-96774000D02*
X84582000Y-96901000D01*
X80899000Y-96774000D02*
X84455000Y-96774000D01*
X79502000Y-98298000D02*
X79502000Y-98171000D01*
X84582000Y-96901000D02*
X89662000Y-96901000D01*
X91719400Y-100685600D02*
X90693400Y-100685600D01*
X94742000Y-97663000D02*
X91719400Y-100685600D01*
X98724000Y-104450000D02*
X97084000Y-104450000D01*
X97084000Y-104450000D02*
X96520000Y-103886000D01*
X96520000Y-103886000D02*
X96520000Y-97663000D01*
X96520000Y-97663000D02*
X94742000Y-97663000D01*
D10*
X83515200Y-103073200D02*
X83515200Y-101371400D01*
X84582000Y-107188000D02*
X84709000Y-107061000D01*
X84709000Y-107061000D02*
X84709000Y-104267000D01*
X84709000Y-104267000D02*
X83515200Y-103073200D01*
D26*
X85217000Y-107823000D02*
X84582000Y-107188000D01*
X85217000Y-114046000D02*
X85217000Y-107823000D01*
X85979000Y-114808000D02*
X85217000Y-114046000D01*
D10*
X77851000Y-98298000D02*
X78232000Y-98298000D01*
X76962000Y-99187000D02*
X77851000Y-98298000D01*
X76962000Y-102997000D02*
X76962000Y-99187000D01*
X77216000Y-103251000D02*
X76962000Y-102997000D01*
D26*
X70561200Y-99364800D02*
X73318800Y-99364800D01*
X70231000Y-99695000D02*
X70561200Y-99364800D01*
X70231000Y-99695000D02*
X70231000Y-101092000D01*
D25*
X101600000Y-104140000D02*
X101290000Y-104450000D01*
X101290000Y-104450000D02*
X98724000Y-104450000D01*
X102997000Y-105537000D02*
X101600000Y-104140000D01*
X109601000Y-101727000D02*
X109601000Y-102870000D01*
X109601000Y-102870000D02*
X106934000Y-105537000D01*
X106934000Y-105537000D02*
X102997000Y-105537000D01*
D26*
X80264000Y-117856000D02*
X80264000Y-120523000D01*
X65659000Y-120523000D02*
X58928000Y-113792000D01*
X74803000Y-120523000D02*
X65659000Y-120523000D01*
X76200000Y-121920000D02*
X74803000Y-120523000D01*
X80264000Y-120523000D02*
X82804000Y-123063000D01*
X82804000Y-123063000D02*
X82804000Y-126111000D01*
X76200000Y-126238000D02*
X76200000Y-121920000D01*
X76327000Y-126111000D02*
X76200000Y-126238000D01*
X82804000Y-126111000D02*
X76327000Y-126111000D01*
X76200000Y-138430000D02*
X76200000Y-126238000D01*
X88900000Y-126111000D02*
X82804000Y-126111000D01*
X96520000Y-133731000D02*
X88900000Y-126111000D01*
X96520000Y-138430000D02*
X96520000Y-133731000D01*
X90693400Y-99456400D02*
X90693400Y-100685600D01*
X89662000Y-98425000D02*
X90693400Y-99456400D01*
X89662000Y-96901000D02*
X89662000Y-98425000D01*
D27*
X80772000Y-104902000D02*
X80899000Y-104775000D01*
X92710000Y-120269000D02*
X92329000Y-119888000D01*
X92329000Y-119888000D02*
X89535000Y-119888000D01*
X89535000Y-119888000D02*
X80772000Y-111125000D01*
X80772000Y-111125000D02*
X80772000Y-104902000D01*
D26*
X89027000Y-105537000D02*
X85725000Y-105537000D01*
X95250000Y-99314000D02*
X89027000Y-105537000D01*
X85979000Y-99949000D02*
X87376000Y-98552000D01*
X85979000Y-105283000D02*
X85979000Y-99949000D01*
X85725000Y-105537000D02*
X85979000Y-105283000D01*
D10*
X102997000Y-103124000D02*
X102997000Y-104013000D01*
D26*
X98724000Y-109530000D02*
X98724000Y-109519000D01*
X98724000Y-109519000D02*
X97790000Y-108585000D01*
D27*
X95691960Y-106486960D02*
X94681040Y-106486960D01*
X97790000Y-108585000D02*
X95691960Y-106486960D01*
X78105000Y-101854000D02*
X77851000Y-101600000D01*
X99441000Y-136652000D02*
X99441000Y-132461000D01*
X99441000Y-132461000D02*
X90043000Y-123063000D01*
X90043000Y-123063000D02*
X88900000Y-123063000D01*
X78105000Y-112268000D02*
X78105000Y-101854000D01*
X88900000Y-123063000D02*
X78105000Y-112268000D01*
D28*
X75057000Y-97282000D02*
X75057000Y-100177000D01*
X76657200Y-95681800D02*
X75057000Y-97282000D01*
X75057000Y-100177000D02*
X73324000Y-101910000D01*
X91694000Y-98171000D02*
X92202000Y-97663000D01*
X92202000Y-97663000D02*
X92202000Y-96139000D01*
X92202000Y-96139000D02*
X91744800Y-95681800D01*
X91744800Y-95681800D02*
X76657200Y-95681800D01*
D27*
X79629000Y-100203000D02*
X81026000Y-98806000D01*
X92456000Y-122555000D02*
X91059000Y-121158000D01*
X91059000Y-121158000D02*
X89281000Y-121158000D01*
X89281000Y-121158000D02*
X79629000Y-111506000D01*
X79629000Y-111506000D02*
X79629000Y-100203000D01*
X82042000Y-99187000D02*
X82042000Y-97917000D01*
X80137000Y-101092000D02*
X82042000Y-99187000D01*
X80137000Y-111252000D02*
X80137000Y-101092000D01*
X93345000Y-123444000D02*
X93345000Y-122174000D01*
X91694000Y-120523000D02*
X89408000Y-120523000D01*
X93345000Y-122174000D02*
X91694000Y-120523000D01*
X89408000Y-120523000D02*
X80137000Y-111252000D01*
X77978000Y-100584000D02*
X77851000Y-100584000D01*
X78613000Y-101219000D02*
X77978000Y-100584000D01*
X78613000Y-112014000D02*
X78613000Y-101219000D01*
X89027000Y-122428000D02*
X78613000Y-112014000D01*
X100965000Y-136652000D02*
X100203000Y-135890000D01*
X100203000Y-135890000D02*
X100203000Y-132461000D01*
X100203000Y-132461000D02*
X90170000Y-122428000D01*
X90170000Y-122428000D02*
X89027000Y-122428000D01*
X77978000Y-99568000D02*
X77851000Y-99568000D01*
X79121000Y-100711000D02*
X77978000Y-99568000D01*
X79121000Y-111760000D02*
X79121000Y-100711000D01*
X89154000Y-121793000D02*
X79121000Y-111760000D01*
X102489000Y-136652000D02*
X100965000Y-135128000D01*
X100965000Y-135128000D02*
X100965000Y-132461000D01*
X100965000Y-132461000D02*
X90297000Y-121793000D01*
X90297000Y-121793000D02*
X89154000Y-121793000D01*
X76327000Y-98806000D02*
X77216000Y-97917000D01*
X76327000Y-105156000D02*
X76327000Y-98806000D01*
X77216000Y-97917000D02*
X77216000Y-96901000D01*
X76581000Y-106934000D02*
X76581000Y-105410000D01*
X76581000Y-105410000D02*
X76327000Y-105156000D01*
X75819000Y-98298000D02*
X76327000Y-97790000D01*
X75819000Y-106172000D02*
X75819000Y-98298000D01*
D28*
X89662000Y-109982000D02*
X86995000Y-109982000D01*
X90932000Y-114427000D02*
X89662000Y-114427000D01*
X96266000Y-119761000D02*
X90932000Y-114427000D01*
D10*
X105664000Y-97917000D02*
X107061000Y-96520000D01*
X105664000Y-99441000D02*
X105664000Y-97917000D01*
D26*
X73660000Y-136144000D02*
X73660000Y-138430000D01*
D28*
X73660000Y-121920000D02*
X73660000Y-136144000D01*
X73787000Y-121793000D02*
X73660000Y-121920000D01*
D10*
X102997000Y-102362000D02*
X102997000Y-101219000D01*
X102997000Y-99568000D02*
X102997000Y-101219000D01*
X103124000Y-99441000D02*
X102997000Y-99568000D01*
D27*
X70231000Y-111633000D02*
X68326000Y-109728000D01*
X70231000Y-116840000D02*
X70231000Y-111633000D01*
X80899000Y-122809000D02*
X76962000Y-118872000D01*
X76962000Y-118872000D02*
X72263000Y-118872000D01*
X80899000Y-124714000D02*
X80899000Y-122809000D01*
X72263000Y-118872000D02*
X70231000Y-116840000D01*
D26*
X98724000Y-89210000D02*
X98526000Y-89408000D01*
X98526000Y-89408000D02*
X97663000Y-89408000D01*
D29*
X72644000Y-87757000D02*
X72263000Y-88138000D01*
X95504000Y-93345000D02*
X89535000Y-93345000D01*
X74041000Y-87757000D02*
X72644000Y-87757000D01*
X89535000Y-93345000D02*
X89154000Y-92964000D01*
X96393000Y-92456000D02*
X95504000Y-93345000D01*
X97663000Y-89408000D02*
X96393000Y-90678000D01*
X96393000Y-90678000D02*
X96393000Y-92456000D01*
X89154000Y-91948000D02*
X88265000Y-91059000D01*
X89154000Y-92964000D02*
X89154000Y-91948000D01*
X88265000Y-91059000D02*
X87122000Y-91059000D01*
X87122000Y-91059000D02*
X86779100Y-90716100D01*
X77000100Y-90716100D02*
X74041000Y-87757000D01*
X86779100Y-90716100D02*
X77000100Y-90716100D01*
D27*
X72263000Y-88138000D02*
X71755000Y-88646000D01*
X71755000Y-88646000D02*
X71755000Y-90170000D01*
X71755000Y-90170000D02*
X70993000Y-90932000D01*
X70993000Y-90932000D02*
X70993000Y-92075000D01*
X68326000Y-94742000D02*
X67564000Y-94742000D01*
X70993000Y-92075000D02*
X68326000Y-94742000D01*
D26*
X98724000Y-94290000D02*
X98399000Y-94615000D01*
X98399000Y-94615000D02*
X97663000Y-94615000D01*
D29*
X75692000Y-94615000D02*
X74091800Y-93014800D01*
X74091800Y-93014800D02*
X72313800Y-93014800D01*
X97663000Y-94615000D02*
X75692000Y-94615000D01*
D27*
X65583600Y-99745000D02*
X65355000Y-99745000D01*
X72313800Y-93014800D02*
X65583600Y-99745000D01*
D26*
X98724000Y-96830000D02*
X98724000Y-96819000D01*
X98724000Y-96830000D02*
X98481000Y-96830000D01*
X98481000Y-96830000D02*
X97790000Y-96139000D01*
D29*
X97790000Y-96139000D02*
X96647000Y-94996000D01*
X96647000Y-94996000D02*
X74930000Y-94996000D01*
X74930000Y-94996000D02*
X74371200Y-95554800D01*
X74371200Y-95554800D02*
X72720200Y-95554800D01*
D27*
X70942200Y-95554800D02*
X72720200Y-95554800D01*
X65786000Y-100711000D02*
X70942200Y-95554800D01*
X59055000Y-100711000D02*
X65786000Y-100711000D01*
X69469000Y-112395000D02*
X66294000Y-109220000D01*
X66294000Y-109220000D02*
X61976000Y-109220000D01*
X69469000Y-117094000D02*
X69469000Y-112395000D01*
X79883000Y-124079000D02*
X79883000Y-122682000D01*
X79883000Y-122682000D02*
X76708000Y-119507000D01*
X76708000Y-119507000D02*
X71882000Y-119507000D01*
X71882000Y-119507000D02*
X69469000Y-117094000D01*
X78486000Y-114173000D02*
X76383000Y-112070000D01*
X78486000Y-115062000D02*
X78486000Y-114173000D01*
X79883000Y-116459000D02*
X78486000Y-115062000D01*
D26*
X73324000Y-112070000D02*
X74493000Y-112070000D01*
D30*
X76383000Y-112070000D02*
X74493000Y-112070000D01*
D27*
X80772000Y-116459000D02*
X79883000Y-116459000D01*
X90551000Y-124968000D02*
X89281000Y-124968000D01*
X89281000Y-124968000D02*
X80772000Y-116459000D01*
D26*
X98724000Y-91750000D02*
X98623000Y-91750000D01*
X98623000Y-91750000D02*
X97917000Y-92456000D01*
D29*
X73914000Y-90424000D02*
X72517000Y-90424000D01*
X74803000Y-91313000D02*
X73914000Y-90424000D01*
X97917000Y-92456000D02*
X96139000Y-94234000D01*
X76327000Y-94234000D02*
X74803000Y-92710000D01*
X96139000Y-94234000D02*
X76327000Y-94234000D01*
X74803000Y-92710000D02*
X74803000Y-91313000D01*
D27*
X57023000Y-99695000D02*
X56896000Y-99822000D01*
X63627000Y-99695000D02*
X57023000Y-99695000D01*
X64770000Y-98552000D02*
X63627000Y-99695000D01*
X72517000Y-90424000D02*
X71755000Y-91186000D01*
X71755000Y-91186000D02*
X71755000Y-92456000D01*
X71755000Y-92456000D02*
X65659000Y-98552000D01*
X65659000Y-98552000D02*
X64770000Y-98552000D01*
D26*
X73324000Y-89210000D02*
X73970000Y-89210000D01*
X73970000Y-89210000D02*
X74549000Y-89789000D01*
D29*
X75831700Y-91071700D02*
X74549000Y-89789000D01*
X86347300Y-91071700D02*
X75831700Y-91071700D01*
X86842600Y-91567000D02*
X86347300Y-91071700D01*
X88011000Y-91567000D02*
X86842600Y-91567000D01*
X88646000Y-92202000D02*
X88011000Y-91567000D01*
X89281000Y-93853000D02*
X88646000Y-93218000D01*
X104902000Y-101219000D02*
X104267000Y-100584000D01*
X96901000Y-92710000D02*
X95758000Y-93853000D01*
X110109000Y-99822000D02*
X108712000Y-101219000D01*
X110109000Y-97917000D02*
X110109000Y-99822000D01*
X95758000Y-93853000D02*
X89281000Y-93853000D01*
X108712000Y-101219000D02*
X104902000Y-101219000D01*
X104267000Y-98552000D02*
X100457000Y-94742000D01*
X88646000Y-93218000D02*
X88646000Y-92202000D01*
X104267000Y-100584000D02*
X104267000Y-98552000D01*
X100457000Y-94742000D02*
X100457000Y-91059000D01*
X99872800Y-90474800D02*
X97739200Y-90474800D01*
X100457000Y-91059000D02*
X99872800Y-90474800D01*
X96901000Y-91313000D02*
X96901000Y-92710000D01*
X97739200Y-90474800D02*
X96901000Y-91313000D01*
D26*
X74605000Y-109530000D02*
X73324000Y-109530000D01*
D27*
X80010000Y-114935000D02*
X74605000Y-109530000D01*
X80010000Y-115316000D02*
X80010000Y-114935000D01*
X80391000Y-115316000D02*
X89154000Y-124079000D01*
X80010000Y-115316000D02*
X80391000Y-115316000D01*
X89154000Y-124079000D02*
X89662000Y-124079000D01*
G36*
X58719550Y-86970855D02*
G01*
X58114075Y-87221651D01*
X57569161Y-87585750D01*
X57105750Y-88049161D01*
X56741651Y-88594075D01*
X56490855Y-89199550D01*
X56363000Y-89842319D01*
X56363000Y-90497681D01*
X56490855Y-91140450D01*
X56741651Y-91745925D01*
X57105750Y-92290839D01*
X57569161Y-92754250D01*
X58114075Y-93118349D01*
X58719550Y-93369145D01*
X59362319Y-93497000D01*
X60017681Y-93497000D01*
X60660450Y-93369145D01*
X61265925Y-93118349D01*
X61810839Y-92754250D01*
X62274250Y-92290839D01*
X62638349Y-91745925D01*
X62889145Y-91140450D01*
X63017000Y-90497681D01*
X63017000Y-89842319D01*
X62889145Y-89199550D01*
X62638349Y-88594075D01*
X62274250Y-88049161D01*
X61810839Y-87585750D01*
X61265925Y-87221651D01*
X60660450Y-86970855D01*
X60143364Y-86868000D01*
X78148580Y-86868000D01*
X78998150Y-87717571D01*
X79014052Y-87736948D01*
X79033429Y-87752850D01*
X79091404Y-87800429D01*
X79131853Y-87822049D01*
X79179657Y-87847601D01*
X79275415Y-87876649D01*
X79350053Y-87884000D01*
X79350056Y-87884000D01*
X79375000Y-87886457D01*
X79399944Y-87884000D01*
X88240056Y-87884000D01*
X88265000Y-87886457D01*
X88289944Y-87884000D01*
X88289947Y-87884000D01*
X88364585Y-87876649D01*
X88460343Y-87847601D01*
X88548595Y-87800429D01*
X88625948Y-87736948D01*
X88641855Y-87717565D01*
X89491421Y-86868000D01*
X104368600Y-86868000D01*
X104368600Y-97989061D01*
X100926900Y-94547362D01*
X100926900Y-91082077D01*
X100929173Y-91059000D01*
X100920100Y-90966883D01*
X100893231Y-90878307D01*
X100883569Y-90860231D01*
X100849598Y-90796675D01*
X100790877Y-90725123D01*
X100772948Y-90710409D01*
X100221395Y-90158857D01*
X100206677Y-90140923D01*
X100135125Y-90082202D01*
X100053493Y-90038569D01*
X99964916Y-90011700D01*
X99895877Y-90004900D01*
X99872800Y-90002627D01*
X99849723Y-90004900D01*
X99720281Y-90004900D01*
X99849459Y-89811571D01*
X99945195Y-89580445D01*
X99994000Y-89335084D01*
X99994000Y-89084916D01*
X99945195Y-88839555D01*
X99849459Y-88608429D01*
X99710473Y-88400422D01*
X99533578Y-88223527D01*
X99325571Y-88084541D01*
X99094445Y-87988805D01*
X98849084Y-87940000D01*
X98598916Y-87940000D01*
X98353555Y-87988805D01*
X98122429Y-88084541D01*
X97917000Y-88221804D01*
X97917000Y-87371149D01*
X97909679Y-87296820D01*
X97887998Y-87225347D01*
X97852790Y-87159477D01*
X97805408Y-87101741D01*
X97747672Y-87054359D01*
X97681802Y-87019151D01*
X97610329Y-86997470D01*
X97536000Y-86990149D01*
X90043000Y-86990149D01*
X89968671Y-86997470D01*
X89897198Y-87019151D01*
X89831328Y-87054359D01*
X89773592Y-87101741D01*
X88249592Y-88625741D01*
X88217684Y-88664622D01*
X88117028Y-88541972D01*
X87967651Y-88419382D01*
X87797229Y-88328289D01*
X87612310Y-88272195D01*
X87420000Y-88253254D01*
X87227691Y-88272195D01*
X87042772Y-88328289D01*
X86872350Y-88419382D01*
X86722973Y-88541972D01*
X86600383Y-88691349D01*
X86509290Y-88861771D01*
X86453195Y-89046690D01*
X86439000Y-89190813D01*
X86439000Y-89887186D01*
X86453195Y-90031309D01*
X86509289Y-90216228D01*
X86525309Y-90246200D01*
X81114691Y-90246200D01*
X81130711Y-90216229D01*
X81186805Y-90031310D01*
X81201000Y-89887187D01*
X81201000Y-89190814D01*
X81186805Y-89046691D01*
X81130711Y-88861771D01*
X81039618Y-88691349D01*
X80917028Y-88541972D01*
X80767651Y-88419382D01*
X80597229Y-88328289D01*
X80412310Y-88272195D01*
X80220000Y-88253254D01*
X80027691Y-88272195D01*
X79842772Y-88328289D01*
X79672350Y-88419382D01*
X79522973Y-88541972D01*
X79400383Y-88691349D01*
X79309290Y-88861771D01*
X79253195Y-89046690D01*
X79239000Y-89190813D01*
X79239000Y-89887186D01*
X79253195Y-90031309D01*
X79309289Y-90216228D01*
X79325309Y-90246200D01*
X77194739Y-90246200D01*
X74389595Y-87441057D01*
X74374877Y-87423123D01*
X74303325Y-87364402D01*
X74221693Y-87320769D01*
X74133116Y-87293900D01*
X74064077Y-87287100D01*
X74041000Y-87284827D01*
X74017923Y-87287100D01*
X72667076Y-87287100D01*
X72643999Y-87284827D01*
X72551882Y-87293900D01*
X72518436Y-87304046D01*
X72463307Y-87320769D01*
X72381675Y-87364402D01*
X72310123Y-87423123D01*
X72295409Y-87441052D01*
X72071110Y-87665352D01*
X72067655Y-87666400D01*
X71979404Y-87713571D01*
X71921429Y-87761150D01*
X71413434Y-88269145D01*
X71394052Y-88285052D01*
X71330571Y-88362405D01*
X71283399Y-88450658D01*
X71254351Y-88546416D01*
X71248072Y-88610173D01*
X71244543Y-88646000D01*
X71247000Y-88670945D01*
X71247001Y-89959579D01*
X70651435Y-90555145D01*
X70632052Y-90571052D01*
X70568571Y-90648405D01*
X70521399Y-90736658D01*
X70492351Y-90832416D01*
X70486559Y-90891225D01*
X70482543Y-90932000D01*
X70485000Y-90956945D01*
X70485001Y-91864579D01*
X68208752Y-94140829D01*
X68125605Y-94057682D01*
X67981310Y-93961268D01*
X67820978Y-93894856D01*
X67650771Y-93861000D01*
X67477229Y-93861000D01*
X67307022Y-93894856D01*
X67146690Y-93961268D01*
X67002395Y-94057682D01*
X66879682Y-94180395D01*
X66783268Y-94324690D01*
X66716856Y-94485022D01*
X66683000Y-94655229D01*
X66683000Y-94828771D01*
X66716856Y-94998978D01*
X66783268Y-95159310D01*
X66879682Y-95303605D01*
X67002395Y-95426318D01*
X67146690Y-95522732D01*
X67307022Y-95589144D01*
X67477229Y-95623000D01*
X67650771Y-95623000D01*
X67820978Y-95589144D01*
X67961743Y-95530837D01*
X65448580Y-98044000D01*
X64794943Y-98044000D01*
X64769999Y-98041543D01*
X64745055Y-98044000D01*
X64745053Y-98044000D01*
X64670415Y-98051351D01*
X64574657Y-98080399D01*
X64558753Y-98088900D01*
X64486404Y-98127571D01*
X64447618Y-98159402D01*
X64409052Y-98191052D01*
X64393150Y-98210429D01*
X63416580Y-99187000D01*
X57506923Y-99187000D01*
X57457605Y-99137682D01*
X57313310Y-99041268D01*
X57152978Y-98974856D01*
X56982771Y-98941000D01*
X56809229Y-98941000D01*
X56639022Y-98974856D01*
X56478690Y-99041268D01*
X56334395Y-99137682D01*
X56211682Y-99260395D01*
X56115268Y-99404690D01*
X56048856Y-99565022D01*
X56015000Y-99735229D01*
X56015000Y-99908771D01*
X56048856Y-100078978D01*
X56115268Y-100239310D01*
X56211682Y-100383605D01*
X56334395Y-100506318D01*
X56478690Y-100602732D01*
X56639022Y-100669144D01*
X56809229Y-100703000D01*
X56982771Y-100703000D01*
X57152978Y-100669144D01*
X57313310Y-100602732D01*
X57457605Y-100506318D01*
X57580318Y-100383605D01*
X57676732Y-100239310D01*
X57691772Y-100203000D01*
X58334865Y-100203000D01*
X58274268Y-100293690D01*
X58207856Y-100454022D01*
X58174000Y-100624229D01*
X58174000Y-100797771D01*
X58207856Y-100967978D01*
X58274268Y-101128310D01*
X58370682Y-101272605D01*
X58493395Y-101395318D01*
X58637690Y-101491732D01*
X58798022Y-101558144D01*
X58968229Y-101592000D01*
X59141771Y-101592000D01*
X59311978Y-101558144D01*
X59472310Y-101491732D01*
X59616605Y-101395318D01*
X59739318Y-101272605D01*
X59775135Y-101219000D01*
X65761056Y-101219000D01*
X65786000Y-101221457D01*
X65810944Y-101219000D01*
X65810947Y-101219000D01*
X65885585Y-101211649D01*
X65981343Y-101182601D01*
X66069595Y-101135429D01*
X66146948Y-101071948D01*
X66162855Y-101052565D01*
X67778432Y-99436988D01*
X71794092Y-99436988D01*
X71836557Y-99734171D01*
X71936184Y-100017359D01*
X72014711Y-100164273D01*
X72267769Y-100246626D01*
X73144395Y-99370000D01*
X72267769Y-98493374D01*
X72014711Y-98575727D01*
X71884914Y-98846418D01*
X71810420Y-99137230D01*
X71794092Y-99436988D01*
X67778432Y-99436988D01*
X71152621Y-96062800D01*
X72309211Y-96062800D01*
X72198541Y-96228429D01*
X72102805Y-96459555D01*
X72054000Y-96704916D01*
X72054000Y-96955084D01*
X72102805Y-97200445D01*
X72198541Y-97431571D01*
X72337527Y-97639578D01*
X72514422Y-97816473D01*
X72722429Y-97955459D01*
X72736288Y-97961200D01*
X72676641Y-97982184D01*
X72529727Y-98060711D01*
X72447374Y-98313769D01*
X73324000Y-99190395D01*
X73338143Y-99176253D01*
X73517748Y-99355858D01*
X73503605Y-99370000D01*
X73517748Y-99384143D01*
X73338143Y-99563748D01*
X73324000Y-99549605D01*
X72447374Y-100426231D01*
X72529727Y-100679289D01*
X72736808Y-100778585D01*
X72722429Y-100784541D01*
X72514422Y-100923527D01*
X72337527Y-101100422D01*
X72198541Y-101308429D01*
X72102805Y-101539555D01*
X72054000Y-101784916D01*
X72054000Y-102035084D01*
X72102805Y-102280445D01*
X72198541Y-102511571D01*
X72337527Y-102719578D01*
X72514422Y-102896473D01*
X72722429Y-103035459D01*
X72953555Y-103131195D01*
X73198916Y-103180000D01*
X72953555Y-103228805D01*
X72722429Y-103324541D01*
X72514422Y-103463527D01*
X72337527Y-103640422D01*
X72198541Y-103848429D01*
X72102805Y-104079555D01*
X72054000Y-104324916D01*
X72054000Y-104575084D01*
X72102805Y-104820445D01*
X72198541Y-105051571D01*
X72337527Y-105259578D01*
X72514422Y-105436473D01*
X72722429Y-105575459D01*
X72953555Y-105671195D01*
X73198916Y-105720000D01*
X72953555Y-105768805D01*
X72722429Y-105864541D01*
X72514422Y-106003527D01*
X72337527Y-106180422D01*
X72198541Y-106388429D01*
X72102805Y-106619555D01*
X72054000Y-106864916D01*
X72054000Y-107115084D01*
X72102805Y-107360445D01*
X72198541Y-107591571D01*
X72337527Y-107799578D01*
X72514422Y-107976473D01*
X72722429Y-108115459D01*
X72953555Y-108211195D01*
X73198916Y-108260000D01*
X72953555Y-108308805D01*
X72722429Y-108404541D01*
X72514422Y-108543527D01*
X72337527Y-108720422D01*
X72198541Y-108928429D01*
X72102805Y-109159555D01*
X72054000Y-109404916D01*
X72054000Y-109655084D01*
X72102805Y-109900445D01*
X72198541Y-110131571D01*
X72337527Y-110339578D01*
X72514422Y-110516473D01*
X72722429Y-110655459D01*
X72953555Y-110751195D01*
X73198916Y-110800000D01*
X72953555Y-110848805D01*
X72722429Y-110944541D01*
X72514422Y-111083527D01*
X72337527Y-111260422D01*
X72198541Y-111468429D01*
X72102805Y-111699555D01*
X72054000Y-111944916D01*
X72054000Y-112195084D01*
X72102805Y-112440445D01*
X72198541Y-112671571D01*
X72337527Y-112879578D01*
X72514422Y-113056473D01*
X72722429Y-113195459D01*
X72953555Y-113291195D01*
X73198916Y-113340000D01*
X72953555Y-113388805D01*
X72722429Y-113484541D01*
X72514422Y-113623527D01*
X72337527Y-113800422D01*
X72198541Y-114008429D01*
X72102805Y-114239555D01*
X72054000Y-114484916D01*
X72054000Y-114735084D01*
X72102805Y-114980445D01*
X72198541Y-115211571D01*
X72337527Y-115419578D01*
X72514422Y-115596473D01*
X72722429Y-115735459D01*
X72953555Y-115831195D01*
X73189651Y-115878157D01*
X72435000Y-115878157D01*
X72360311Y-115885513D01*
X72288492Y-115907299D01*
X72222304Y-115942678D01*
X72164289Y-115990289D01*
X72116678Y-116048304D01*
X72081299Y-116114492D01*
X72059513Y-116186311D01*
X72052157Y-116261000D01*
X72052157Y-117942736D01*
X70739000Y-116629580D01*
X70739000Y-111657944D01*
X70741457Y-111633000D01*
X70737872Y-111596601D01*
X70731649Y-111533415D01*
X70702601Y-111437657D01*
X70655429Y-111349405D01*
X70591948Y-111272052D01*
X70572565Y-111256145D01*
X69194423Y-109878003D01*
X69207000Y-109814771D01*
X69207000Y-109641229D01*
X69173144Y-109471022D01*
X69106732Y-109310690D01*
X69010318Y-109166395D01*
X68887605Y-109043682D01*
X68743310Y-108947268D01*
X68582978Y-108880856D01*
X68412771Y-108847000D01*
X68239229Y-108847000D01*
X68069022Y-108880856D01*
X67908690Y-108947268D01*
X67764395Y-109043682D01*
X67641682Y-109166395D01*
X67545268Y-109310690D01*
X67478856Y-109471022D01*
X67445000Y-109641229D01*
X67445000Y-109652580D01*
X66670855Y-108878435D01*
X66654948Y-108859052D01*
X66577595Y-108795571D01*
X66489343Y-108748399D01*
X66393585Y-108719351D01*
X66318947Y-108712000D01*
X66318944Y-108712000D01*
X66294000Y-108709543D01*
X66269056Y-108712000D01*
X62696135Y-108712000D01*
X62660318Y-108658395D01*
X62537605Y-108535682D01*
X62393310Y-108439268D01*
X62232978Y-108372856D01*
X62062771Y-108339000D01*
X61889229Y-108339000D01*
X61719022Y-108372856D01*
X61558690Y-108439268D01*
X61414395Y-108535682D01*
X61291682Y-108658395D01*
X61195268Y-108802690D01*
X61128856Y-108963022D01*
X61095000Y-109133229D01*
X61095000Y-109306771D01*
X61128856Y-109476978D01*
X61195268Y-109637310D01*
X61291682Y-109781605D01*
X61414395Y-109904318D01*
X61558690Y-110000732D01*
X61719022Y-110067144D01*
X61850615Y-110093319D01*
X61765322Y-110128649D01*
X61604649Y-110236007D01*
X61468007Y-110372649D01*
X61360649Y-110533322D01*
X61286699Y-110711853D01*
X61249000Y-110901380D01*
X61249000Y-111094620D01*
X61286699Y-111284147D01*
X61360649Y-111462678D01*
X61468007Y-111623351D01*
X61604649Y-111759993D01*
X61765322Y-111867351D01*
X61943853Y-111941301D01*
X62133380Y-111979000D01*
X62326620Y-111979000D01*
X62516147Y-111941301D01*
X62694678Y-111867351D01*
X62855351Y-111759993D01*
X62991993Y-111623351D01*
X63099351Y-111462678D01*
X63173301Y-111284147D01*
X63211000Y-111094620D01*
X63211000Y-110901380D01*
X63173301Y-110711853D01*
X63099351Y-110533322D01*
X62991993Y-110372649D01*
X62855351Y-110236007D01*
X62694678Y-110128649D01*
X62516147Y-110054699D01*
X62345142Y-110020684D01*
X62393310Y-110000732D01*
X62537605Y-109904318D01*
X62660318Y-109781605D01*
X62696135Y-109728000D01*
X66083580Y-109728000D01*
X68961001Y-112605422D01*
X68961000Y-117069056D01*
X68958543Y-117094000D01*
X68961000Y-117118944D01*
X68961000Y-117118946D01*
X68968351Y-117193584D01*
X68997399Y-117289342D01*
X69044571Y-117377595D01*
X69108052Y-117454948D01*
X69127435Y-117470855D01*
X71505149Y-119848570D01*
X71521052Y-119867948D01*
X71540429Y-119883850D01*
X71598404Y-119931429D01*
X71686655Y-119978600D01*
X71686657Y-119978601D01*
X71782415Y-120007649D01*
X71857053Y-120015000D01*
X71857055Y-120015000D01*
X71881999Y-120017457D01*
X71906943Y-120015000D01*
X76497580Y-120015000D01*
X79375001Y-122892422D01*
X79375000Y-123553210D01*
X79315195Y-123613015D01*
X79235196Y-123732742D01*
X79180092Y-123865775D01*
X79152000Y-124007003D01*
X79152000Y-124150997D01*
X79180092Y-124292225D01*
X79235196Y-124425258D01*
X79315195Y-124544985D01*
X79417015Y-124646805D01*
X79536742Y-124726804D01*
X79669775Y-124781908D01*
X79811003Y-124810000D01*
X79954997Y-124810000D01*
X80096225Y-124781908D01*
X80168000Y-124752178D01*
X80168000Y-124785997D01*
X80196092Y-124927225D01*
X80251196Y-125060258D01*
X80331195Y-125179985D01*
X80433015Y-125281805D01*
X80552742Y-125361804D01*
X80685775Y-125416908D01*
X80827003Y-125445000D01*
X80970997Y-125445000D01*
X81112225Y-125416908D01*
X81245258Y-125361804D01*
X81364985Y-125281805D01*
X81466805Y-125179985D01*
X81546804Y-125060258D01*
X81601908Y-124927225D01*
X81630000Y-124785997D01*
X81630000Y-124642003D01*
X81601908Y-124500775D01*
X81546804Y-124367742D01*
X81466805Y-124248015D01*
X81407000Y-124188210D01*
X81407000Y-122833944D01*
X81409457Y-122809000D01*
X81406542Y-122779404D01*
X81399649Y-122709415D01*
X81370601Y-122613657D01*
X81323429Y-122525405D01*
X81259948Y-122448052D01*
X81240565Y-122432145D01*
X77338855Y-118530435D01*
X77322948Y-118511052D01*
X77245595Y-118447571D01*
X77157343Y-118400399D01*
X77061585Y-118371351D01*
X76986947Y-118364000D01*
X76986944Y-118364000D01*
X76962000Y-118361543D01*
X76937056Y-118364000D01*
X74413203Y-118364000D01*
X74425696Y-118357322D01*
X74483711Y-118309711D01*
X74531322Y-118251696D01*
X74566701Y-118185508D01*
X74588487Y-118113689D01*
X74595843Y-118039000D01*
X74595843Y-116261000D01*
X74588487Y-116186311D01*
X74566701Y-116114492D01*
X74531322Y-116048304D01*
X74483711Y-115990289D01*
X74425696Y-115942678D01*
X74359508Y-115907299D01*
X74287689Y-115885513D01*
X74213000Y-115878157D01*
X73458349Y-115878157D01*
X73694445Y-115831195D01*
X73925571Y-115735459D01*
X74133578Y-115596473D01*
X74310473Y-115419578D01*
X74449459Y-115211571D01*
X74545195Y-114980445D01*
X74594000Y-114735084D01*
X74594000Y-114484916D01*
X74545195Y-114239555D01*
X74449459Y-114008429D01*
X74310473Y-113800422D01*
X74133578Y-113623527D01*
X73925571Y-113484541D01*
X73694445Y-113388805D01*
X73449084Y-113340000D01*
X73694445Y-113291195D01*
X73925571Y-113195459D01*
X74133578Y-113056473D01*
X74231051Y-112959000D01*
X74536667Y-112959000D01*
X74667274Y-112946136D01*
X74834851Y-112895303D01*
X74989291Y-112812753D01*
X75124659Y-112701659D01*
X75227785Y-112576000D01*
X76170580Y-112576000D01*
X77978001Y-114383422D01*
X77978001Y-114536209D01*
X77918195Y-114596015D01*
X77838196Y-114715742D01*
X77783092Y-114848775D01*
X77755000Y-114990003D01*
X77755000Y-115133997D01*
X77783092Y-115275225D01*
X77838196Y-115408258D01*
X77918195Y-115527985D01*
X78020015Y-115629805D01*
X78139742Y-115709804D01*
X78272775Y-115764908D01*
X78414003Y-115793000D01*
X78498580Y-115793000D01*
X79152000Y-116446421D01*
X79152000Y-116530997D01*
X79180092Y-116672225D01*
X79235196Y-116805258D01*
X79315195Y-116924985D01*
X79417015Y-117026805D01*
X79536742Y-117106804D01*
X79669775Y-117161908D01*
X79811003Y-117190000D01*
X79954997Y-117190000D01*
X80096225Y-117161908D01*
X80229258Y-117106804D01*
X80348985Y-117026805D01*
X80408790Y-116967000D01*
X80561580Y-116967000D01*
X88904150Y-125309571D01*
X88920052Y-125328948D01*
X88939429Y-125344850D01*
X88997404Y-125392429D01*
X89075150Y-125433985D01*
X89085657Y-125439601D01*
X89181415Y-125468649D01*
X89256053Y-125476000D01*
X89256055Y-125476000D01*
X89280999Y-125478457D01*
X89305943Y-125476000D01*
X90025210Y-125476000D01*
X90085015Y-125535805D01*
X90204742Y-125615804D01*
X90337775Y-125670908D01*
X90479003Y-125699000D01*
X90622997Y-125699000D01*
X90764225Y-125670908D01*
X90897258Y-125615804D01*
X91016985Y-125535805D01*
X91118805Y-125433985D01*
X91198804Y-125314258D01*
X91253908Y-125181225D01*
X91282000Y-125039997D01*
X91282000Y-125020420D01*
X98933001Y-132671422D01*
X98933000Y-136126210D01*
X98873195Y-136186015D01*
X98793196Y-136305742D01*
X98738092Y-136438775D01*
X98710000Y-136580003D01*
X98710000Y-136723997D01*
X98738092Y-136865225D01*
X98793196Y-136998258D01*
X98873195Y-137117985D01*
X98975015Y-137219805D01*
X99094742Y-137299804D01*
X99227775Y-137354908D01*
X99369003Y-137383000D01*
X99512997Y-137383000D01*
X99654225Y-137354908D01*
X99787258Y-137299804D01*
X99906985Y-137219805D01*
X100008805Y-137117985D01*
X100088804Y-136998258D01*
X100143908Y-136865225D01*
X100172000Y-136723997D01*
X100172000Y-136580003D01*
X100171359Y-136576779D01*
X100234000Y-136639420D01*
X100234000Y-136723997D01*
X100262092Y-136865225D01*
X100317196Y-136998258D01*
X100397195Y-137117985D01*
X100499015Y-137219805D01*
X100618742Y-137299804D01*
X100751775Y-137354908D01*
X100893003Y-137383000D01*
X101036997Y-137383000D01*
X101178225Y-137354908D01*
X101311258Y-137299804D01*
X101430985Y-137219805D01*
X101532805Y-137117985D01*
X101612804Y-136998258D01*
X101667908Y-136865225D01*
X101696000Y-136723997D01*
X101696000Y-136580003D01*
X101695359Y-136576780D01*
X101758000Y-136639421D01*
X101758000Y-136723997D01*
X101786092Y-136865225D01*
X101841196Y-136998258D01*
X101921195Y-137117985D01*
X102023015Y-137219805D01*
X102142742Y-137299804D01*
X102275775Y-137354908D01*
X102417003Y-137383000D01*
X102560997Y-137383000D01*
X102702225Y-137354908D01*
X102835258Y-137299804D01*
X102954985Y-137219805D01*
X103056805Y-137117985D01*
X103136804Y-136998258D01*
X103191908Y-136865225D01*
X103220000Y-136723997D01*
X103220000Y-136580003D01*
X103191908Y-136438775D01*
X103136804Y-136305742D01*
X103056805Y-136186015D01*
X102954985Y-136084195D01*
X102835258Y-136004196D01*
X102702225Y-135949092D01*
X102560997Y-135921000D01*
X102476421Y-135921000D01*
X101473000Y-134917580D01*
X101473000Y-132485943D01*
X101475457Y-132460999D01*
X101473000Y-132436053D01*
X101465649Y-132361415D01*
X101436601Y-132265657D01*
X101436600Y-132265655D01*
X101389429Y-132177404D01*
X101341850Y-132119429D01*
X101325948Y-132100052D01*
X101306571Y-132084150D01*
X97949986Y-128727565D01*
X109704040Y-128727565D01*
X109771020Y-128967656D01*
X110020048Y-129084756D01*
X110287135Y-129151023D01*
X110562017Y-129163910D01*
X110834133Y-129122922D01*
X111093023Y-129029636D01*
X111208980Y-128967656D01*
X111275960Y-128727565D01*
X110490000Y-127941605D01*
X109704040Y-128727565D01*
X97949986Y-128727565D01*
X97056438Y-127834017D01*
X109088090Y-127834017D01*
X109129078Y-128106133D01*
X109222364Y-128365023D01*
X109284344Y-128480980D01*
X109524435Y-128547960D01*
X110310395Y-127762000D01*
X110669605Y-127762000D01*
X111455565Y-128547960D01*
X111695656Y-128480980D01*
X111812756Y-128231952D01*
X111879023Y-127964865D01*
X111891910Y-127689983D01*
X111850922Y-127417867D01*
X111757636Y-127158977D01*
X111695656Y-127043020D01*
X111455565Y-126976040D01*
X110669605Y-127762000D01*
X110310395Y-127762000D01*
X109524435Y-126976040D01*
X109284344Y-127043020D01*
X109167244Y-127292048D01*
X109100977Y-127559135D01*
X109088090Y-127834017D01*
X97056438Y-127834017D01*
X96018856Y-126796435D01*
X109704040Y-126796435D01*
X110490000Y-127582395D01*
X111275960Y-126796435D01*
X111208980Y-126556344D01*
X110959952Y-126439244D01*
X110692865Y-126372977D01*
X110417983Y-126360090D01*
X110145867Y-126401078D01*
X109886977Y-126494364D01*
X109771020Y-126556344D01*
X109704040Y-126796435D01*
X96018856Y-126796435D01*
X93397420Y-124175000D01*
X93416997Y-124175000D01*
X93558225Y-124146908D01*
X93691258Y-124091804D01*
X93810985Y-124011805D01*
X93912805Y-123909985D01*
X93992804Y-123790258D01*
X94047908Y-123657225D01*
X94076000Y-123515997D01*
X94076000Y-123372003D01*
X94047908Y-123230775D01*
X93992804Y-123097742D01*
X93912805Y-122978015D01*
X93853000Y-122918210D01*
X93853000Y-122198944D01*
X93855457Y-122174000D01*
X93852542Y-122144404D01*
X93845649Y-122074415D01*
X93816601Y-121978657D01*
X93769429Y-121890405D01*
X93705948Y-121813052D01*
X93686565Y-121797145D01*
X92871597Y-120982177D01*
X92923225Y-120971908D01*
X93056258Y-120916804D01*
X93175985Y-120836805D01*
X93277805Y-120734985D01*
X93357804Y-120615258D01*
X93412908Y-120482225D01*
X93441000Y-120340997D01*
X93441000Y-120197003D01*
X93412908Y-120055775D01*
X93357804Y-119922742D01*
X93277805Y-119803015D01*
X93175985Y-119701195D01*
X93056258Y-119621196D01*
X92923225Y-119566092D01*
X92781997Y-119538000D01*
X92698933Y-119538000D01*
X92689948Y-119527052D01*
X92612595Y-119463571D01*
X92524343Y-119416399D01*
X92428585Y-119387351D01*
X92353947Y-119380000D01*
X92353944Y-119380000D01*
X92329000Y-119377543D01*
X92304056Y-119380000D01*
X89745421Y-119380000D01*
X84705650Y-114340229D01*
X88781000Y-114340229D01*
X88781000Y-114513771D01*
X88814856Y-114683978D01*
X88881268Y-114844310D01*
X88977682Y-114988605D01*
X89100395Y-115111318D01*
X89244690Y-115207732D01*
X89405022Y-115274144D01*
X89575229Y-115308000D01*
X89748771Y-115308000D01*
X89918978Y-115274144D01*
X90079310Y-115207732D01*
X90107345Y-115189000D01*
X90616370Y-115189000D01*
X95412278Y-119984909D01*
X95418856Y-120017978D01*
X95485268Y-120178310D01*
X95581682Y-120322605D01*
X95704395Y-120445318D01*
X95848690Y-120541732D01*
X96009022Y-120608144D01*
X96179229Y-120642000D01*
X96352771Y-120642000D01*
X96522978Y-120608144D01*
X96683310Y-120541732D01*
X96827605Y-120445318D01*
X96950318Y-120322605D01*
X97046732Y-120178310D01*
X97113144Y-120017978D01*
X97147000Y-119847771D01*
X97147000Y-119674229D01*
X97113144Y-119504022D01*
X97046732Y-119343690D01*
X96950318Y-119199395D01*
X96827605Y-119076682D01*
X96683310Y-118980268D01*
X96522978Y-118913856D01*
X96489909Y-118907278D01*
X91497284Y-113914654D01*
X91473422Y-113885578D01*
X91357392Y-113790355D01*
X91225015Y-113719598D01*
X91081378Y-113676026D01*
X90969426Y-113665000D01*
X90969423Y-113665000D01*
X90932000Y-113661314D01*
X90894577Y-113665000D01*
X90107345Y-113665000D01*
X90079310Y-113646268D01*
X89918978Y-113579856D01*
X89748771Y-113546000D01*
X89575229Y-113546000D01*
X89405022Y-113579856D01*
X89244690Y-113646268D01*
X89100395Y-113742682D01*
X88977682Y-113865395D01*
X88881268Y-114009690D01*
X88814856Y-114170022D01*
X88781000Y-114340229D01*
X84705650Y-114340229D01*
X81280000Y-110914580D01*
X81280000Y-109895229D01*
X86114000Y-109895229D01*
X86114000Y-110068771D01*
X86147856Y-110238978D01*
X86214268Y-110399310D01*
X86310682Y-110543605D01*
X86433395Y-110666318D01*
X86577690Y-110762732D01*
X86738022Y-110829144D01*
X86908229Y-110863000D01*
X87081771Y-110863000D01*
X87251978Y-110829144D01*
X87412310Y-110762732D01*
X87440345Y-110744000D01*
X89216655Y-110744000D01*
X89244690Y-110762732D01*
X89405022Y-110829144D01*
X89575229Y-110863000D01*
X89748771Y-110863000D01*
X89918978Y-110829144D01*
X90079310Y-110762732D01*
X90223605Y-110666318D01*
X90346318Y-110543605D01*
X90442732Y-110399310D01*
X90509144Y-110238978D01*
X90543000Y-110068771D01*
X90543000Y-109895229D01*
X90509144Y-109725022D01*
X90442732Y-109564690D01*
X90346318Y-109420395D01*
X90223605Y-109297682D01*
X90079310Y-109201268D01*
X89918978Y-109134856D01*
X89748771Y-109101000D01*
X89575229Y-109101000D01*
X89405022Y-109134856D01*
X89244690Y-109201268D01*
X89216655Y-109220000D01*
X87440345Y-109220000D01*
X87412310Y-109201268D01*
X87251978Y-109134856D01*
X87081771Y-109101000D01*
X86908229Y-109101000D01*
X86738022Y-109134856D01*
X86577690Y-109201268D01*
X86433395Y-109297682D01*
X86310682Y-109420395D01*
X86214268Y-109564690D01*
X86147856Y-109725022D01*
X86114000Y-109895229D01*
X81280000Y-109895229D01*
X81280000Y-105537000D01*
X84831699Y-105537000D01*
X84848864Y-105711274D01*
X84899697Y-105878851D01*
X84982247Y-106033291D01*
X85093341Y-106168659D01*
X85228709Y-106279753D01*
X85383149Y-106362303D01*
X85550726Y-106413136D01*
X85681333Y-106426000D01*
X85681340Y-106426000D01*
X85725000Y-106430300D01*
X85768660Y-106426000D01*
X88983340Y-106426000D01*
X89027000Y-106430300D01*
X89070660Y-106426000D01*
X89070667Y-106426000D01*
X89182724Y-106414963D01*
X93950040Y-106414963D01*
X93950040Y-106558957D01*
X93978132Y-106700185D01*
X94033236Y-106833218D01*
X94113235Y-106952945D01*
X94215055Y-107054765D01*
X94334782Y-107134764D01*
X94467815Y-107189868D01*
X94609043Y-107217960D01*
X94753037Y-107217960D01*
X94894265Y-107189868D01*
X95027298Y-107134764D01*
X95147025Y-107054765D01*
X95206830Y-106994960D01*
X95481540Y-106994960D01*
X96912379Y-108425799D01*
X96896700Y-108585000D01*
X96913864Y-108759274D01*
X96964698Y-108926852D01*
X97047248Y-109081291D01*
X97130505Y-109182740D01*
X97454000Y-109506235D01*
X97454000Y-109655084D01*
X97502805Y-109900445D01*
X97598541Y-110131571D01*
X97737527Y-110339578D01*
X97914422Y-110516473D01*
X98122429Y-110655459D01*
X98353555Y-110751195D01*
X98598916Y-110800000D01*
X98353555Y-110848805D01*
X98122429Y-110944541D01*
X97914422Y-111083527D01*
X97737527Y-111260422D01*
X97598541Y-111468429D01*
X97502805Y-111699555D01*
X97454000Y-111944916D01*
X97454000Y-112195084D01*
X97502805Y-112440445D01*
X97598541Y-112671571D01*
X97737527Y-112879578D01*
X97914422Y-113056473D01*
X98122429Y-113195459D01*
X98353555Y-113291195D01*
X98598916Y-113340000D01*
X98353555Y-113388805D01*
X98122429Y-113484541D01*
X97914422Y-113623527D01*
X97737527Y-113800422D01*
X97598541Y-114008429D01*
X97502805Y-114239555D01*
X97454000Y-114484916D01*
X97454000Y-114735084D01*
X97502805Y-114980445D01*
X97598541Y-115211571D01*
X97737527Y-115419578D01*
X97914422Y-115596473D01*
X98122429Y-115735459D01*
X98353555Y-115831195D01*
X98589651Y-115878157D01*
X97835000Y-115878157D01*
X97760311Y-115885513D01*
X97688492Y-115907299D01*
X97622304Y-115942678D01*
X97564289Y-115990289D01*
X97516678Y-116048304D01*
X97481299Y-116114492D01*
X97459513Y-116186311D01*
X97452157Y-116261000D01*
X97452157Y-118039000D01*
X97459513Y-118113689D01*
X97481299Y-118185508D01*
X97516678Y-118251696D01*
X97564289Y-118309711D01*
X97622304Y-118357322D01*
X97688492Y-118392701D01*
X97760311Y-118414487D01*
X97835000Y-118421843D01*
X99613000Y-118421843D01*
X99687689Y-118414487D01*
X99759508Y-118392701D01*
X99825696Y-118357322D01*
X99883711Y-118309711D01*
X99931322Y-118251696D01*
X99966701Y-118185508D01*
X99988487Y-118113689D01*
X99995843Y-118039000D01*
X99995843Y-116261000D01*
X99988487Y-116186311D01*
X99966701Y-116114492D01*
X99931322Y-116048304D01*
X99883711Y-115990289D01*
X99825696Y-115942678D01*
X99759508Y-115907299D01*
X99687689Y-115885513D01*
X99613000Y-115878157D01*
X98858349Y-115878157D01*
X99094445Y-115831195D01*
X99325571Y-115735459D01*
X99533578Y-115596473D01*
X99710473Y-115419578D01*
X99849459Y-115211571D01*
X99945195Y-114980445D01*
X99994000Y-114735084D01*
X99994000Y-114484916D01*
X99945195Y-114239555D01*
X99849459Y-114008429D01*
X99710473Y-113800422D01*
X99533578Y-113623527D01*
X99325571Y-113484541D01*
X99094445Y-113388805D01*
X98849084Y-113340000D01*
X99094445Y-113291195D01*
X99325571Y-113195459D01*
X99533578Y-113056473D01*
X99710473Y-112879578D01*
X99849459Y-112671571D01*
X99945195Y-112440445D01*
X99994000Y-112195084D01*
X99994000Y-111944916D01*
X99945195Y-111699555D01*
X99849459Y-111468429D01*
X99710473Y-111260422D01*
X99533578Y-111083527D01*
X99325571Y-110944541D01*
X99094445Y-110848805D01*
X98849084Y-110800000D01*
X99094445Y-110751195D01*
X99325571Y-110655459D01*
X99533578Y-110516473D01*
X99710473Y-110339578D01*
X99849459Y-110131571D01*
X99945195Y-109900445D01*
X99994000Y-109655084D01*
X99994000Y-109404916D01*
X99945195Y-109159555D01*
X99849459Y-108928429D01*
X99710473Y-108720422D01*
X99533578Y-108543527D01*
X99325571Y-108404541D01*
X99094445Y-108308805D01*
X98849084Y-108260000D01*
X99094445Y-108211195D01*
X99325571Y-108115459D01*
X99533578Y-107976473D01*
X99710473Y-107799578D01*
X99849459Y-107591571D01*
X99945195Y-107360445D01*
X99994000Y-107115084D01*
X99994000Y-106864916D01*
X99945195Y-106619555D01*
X99849459Y-106388429D01*
X99710473Y-106180422D01*
X99533578Y-106003527D01*
X99325571Y-105864541D01*
X99311712Y-105858800D01*
X99371359Y-105837816D01*
X99518273Y-105759289D01*
X99600626Y-105506231D01*
X98724000Y-104629605D01*
X97847374Y-105506231D01*
X97929727Y-105759289D01*
X98136808Y-105858585D01*
X98122429Y-105864541D01*
X97914422Y-106003527D01*
X97737527Y-106180422D01*
X97598541Y-106388429D01*
X97502805Y-106619555D01*
X97454000Y-106864916D01*
X97454000Y-107115084D01*
X97502805Y-107360445D01*
X97598541Y-107591571D01*
X97673136Y-107703210D01*
X97630799Y-107707379D01*
X96068815Y-106145395D01*
X96052908Y-106126012D01*
X95975555Y-106062531D01*
X95887303Y-106015359D01*
X95791545Y-105986311D01*
X95716907Y-105978960D01*
X95716904Y-105978960D01*
X95691960Y-105976503D01*
X95667016Y-105978960D01*
X95206830Y-105978960D01*
X95147025Y-105919155D01*
X95027298Y-105839156D01*
X94894265Y-105784052D01*
X94753037Y-105755960D01*
X94609043Y-105755960D01*
X94467815Y-105784052D01*
X94334782Y-105839156D01*
X94215055Y-105919155D01*
X94113235Y-106020975D01*
X94033236Y-106140702D01*
X93978132Y-106273735D01*
X93950040Y-106414963D01*
X89182724Y-106414963D01*
X89201274Y-106413136D01*
X89368851Y-106362303D01*
X89523291Y-106279753D01*
X89658659Y-106168659D01*
X89686499Y-106134736D01*
X91304247Y-104516988D01*
X97194092Y-104516988D01*
X97236557Y-104814171D01*
X97336184Y-105097359D01*
X97414711Y-105244273D01*
X97667769Y-105326626D01*
X98544395Y-104450000D01*
X98903605Y-104450000D01*
X99780231Y-105326626D01*
X100033289Y-105244273D01*
X100163086Y-104973582D01*
X100237580Y-104682770D01*
X100253908Y-104383012D01*
X100211443Y-104085829D01*
X100111816Y-103802641D01*
X100033289Y-103655727D01*
X99780231Y-103573374D01*
X98903605Y-104450000D01*
X98544395Y-104450000D01*
X97667769Y-103573374D01*
X97414711Y-103655727D01*
X97284914Y-103926418D01*
X97210420Y-104217230D01*
X97194092Y-104516988D01*
X91304247Y-104516988D01*
X95909495Y-99911741D01*
X95992752Y-99810292D01*
X96075302Y-99655853D01*
X96126136Y-99488275D01*
X96143300Y-99314000D01*
X96126136Y-99139726D01*
X96075302Y-98972148D01*
X95992752Y-98817709D01*
X95881659Y-98682341D01*
X95746291Y-98571248D01*
X95591852Y-98488698D01*
X95424274Y-98437864D01*
X95250000Y-98420700D01*
X95075725Y-98437864D01*
X94908147Y-98488698D01*
X94753708Y-98571248D01*
X94652259Y-98654505D01*
X88658765Y-104648000D01*
X86868000Y-104648000D01*
X86868000Y-100392328D01*
X88562400Y-100392328D01*
X88562400Y-100978873D01*
X88575148Y-101108306D01*
X88625525Y-101274375D01*
X88707333Y-101427425D01*
X88817426Y-101561575D01*
X88951576Y-101671668D01*
X89104626Y-101753475D01*
X89270695Y-101803852D01*
X89443400Y-101820862D01*
X89616106Y-101803852D01*
X89782175Y-101753475D01*
X89856275Y-101713868D01*
X89922725Y-101787083D01*
X90103649Y-101921073D01*
X90307237Y-102017192D01*
X90391526Y-102029719D01*
X90566400Y-101903554D01*
X90566400Y-100812600D01*
X90820400Y-100812600D01*
X90820400Y-101903554D01*
X90995274Y-102029719D01*
X91079563Y-102017192D01*
X91283151Y-101921073D01*
X91464075Y-101787083D01*
X91615383Y-101620371D01*
X91731259Y-101427343D01*
X91807251Y-101215418D01*
X91840438Y-100992740D01*
X91676505Y-100812600D01*
X90820400Y-100812600D01*
X90566400Y-100812600D01*
X90546400Y-100812600D01*
X90546400Y-100558600D01*
X90566400Y-100558600D01*
X90566400Y-99467646D01*
X90820400Y-99467646D01*
X90820400Y-100558600D01*
X91676505Y-100558600D01*
X91840438Y-100378460D01*
X91807251Y-100155782D01*
X91731259Y-99943857D01*
X91615383Y-99750829D01*
X91464075Y-99584117D01*
X91283151Y-99450127D01*
X91079563Y-99354008D01*
X90995274Y-99341481D01*
X90820400Y-99467646D01*
X90566400Y-99467646D01*
X90391526Y-99341481D01*
X90307237Y-99354008D01*
X90103649Y-99450127D01*
X89922725Y-99584117D01*
X89856274Y-99657333D01*
X89782174Y-99617725D01*
X89616105Y-99567348D01*
X89443400Y-99550338D01*
X89270694Y-99567348D01*
X89104625Y-99617725D01*
X88951575Y-99699532D01*
X88817425Y-99809625D01*
X88707332Y-99943776D01*
X88625525Y-100096826D01*
X88575148Y-100262895D01*
X88562400Y-100392328D01*
X86868000Y-100392328D01*
X86868000Y-100317235D01*
X88035494Y-99149741D01*
X88118751Y-99048292D01*
X88201302Y-98893853D01*
X88252136Y-98726276D01*
X88269300Y-98552001D01*
X88252136Y-98377726D01*
X88201302Y-98210149D01*
X88118751Y-98055709D01*
X88007658Y-97920342D01*
X87872291Y-97809249D01*
X87717851Y-97726698D01*
X87550274Y-97675864D01*
X87375999Y-97658700D01*
X87201724Y-97675864D01*
X87034147Y-97726698D01*
X86879708Y-97809249D01*
X86778259Y-97892506D01*
X85381259Y-99289506D01*
X85347342Y-99317341D01*
X85319507Y-99351258D01*
X85319505Y-99351260D01*
X85236248Y-99452709D01*
X85153698Y-99607148D01*
X85102864Y-99774726D01*
X85085700Y-99949000D01*
X85090001Y-99992670D01*
X85090000Y-104909412D01*
X84982247Y-105040709D01*
X84899697Y-105195149D01*
X84848864Y-105362726D01*
X84831699Y-105537000D01*
X81280000Y-105537000D01*
X81280000Y-105399590D01*
X81364985Y-105342805D01*
X81466805Y-105240985D01*
X81546804Y-105121258D01*
X81601908Y-104988225D01*
X81630000Y-104846997D01*
X81630000Y-104703003D01*
X81601908Y-104561775D01*
X81546804Y-104428742D01*
X81466805Y-104309015D01*
X81364985Y-104207195D01*
X81245258Y-104127196D01*
X81112225Y-104072092D01*
X80970997Y-104044000D01*
X80827003Y-104044000D01*
X80685775Y-104072092D01*
X80645000Y-104088982D01*
X80645000Y-101302420D01*
X82383565Y-99563855D01*
X82402948Y-99547948D01*
X82466429Y-99470595D01*
X82513601Y-99382343D01*
X82542649Y-99286585D01*
X82550000Y-99211947D01*
X82550000Y-99211944D01*
X82552457Y-99187000D01*
X82550000Y-99162056D01*
X82550000Y-98442790D01*
X82609805Y-98382985D01*
X82689804Y-98263258D01*
X82744908Y-98130225D01*
X82773000Y-97988997D01*
X82773000Y-97845003D01*
X82744908Y-97703775D01*
X82689804Y-97570742D01*
X82609805Y-97451015D01*
X82507985Y-97349195D01*
X82388258Y-97269196D01*
X82255225Y-97214092D01*
X82113997Y-97186000D01*
X81970003Y-97186000D01*
X81828775Y-97214092D01*
X81695742Y-97269196D01*
X81576015Y-97349195D01*
X81474195Y-97451015D01*
X81394196Y-97570742D01*
X81339092Y-97703775D01*
X81311000Y-97845003D01*
X81311000Y-97988997D01*
X81339092Y-98130225D01*
X81346209Y-98147406D01*
X81239225Y-98103092D01*
X81097997Y-98075000D01*
X80954003Y-98075000D01*
X80812775Y-98103092D01*
X80679742Y-98158196D01*
X80560015Y-98238195D01*
X80458195Y-98340015D01*
X80378196Y-98459742D01*
X80323092Y-98592775D01*
X80295000Y-98734003D01*
X80295000Y-98818579D01*
X79287430Y-99826150D01*
X79268053Y-99842052D01*
X79252151Y-99861429D01*
X79252150Y-99861430D01*
X79204571Y-99919405D01*
X79160053Y-100002693D01*
X79157400Y-100007657D01*
X79152437Y-100024017D01*
X78571466Y-99443046D01*
X78553908Y-99354775D01*
X78498804Y-99221742D01*
X78418805Y-99102015D01*
X78316985Y-99000195D01*
X78197258Y-98920196D01*
X78064225Y-98865092D01*
X77922997Y-98837000D01*
X77779003Y-98837000D01*
X77637775Y-98865092D01*
X77504742Y-98920196D01*
X77385015Y-99000195D01*
X77283195Y-99102015D01*
X77203196Y-99221742D01*
X77148092Y-99354775D01*
X77120000Y-99496003D01*
X77120000Y-99639997D01*
X77148092Y-99781225D01*
X77203196Y-99914258D01*
X77283195Y-100033985D01*
X77325210Y-100076000D01*
X77283195Y-100118015D01*
X77203196Y-100237742D01*
X77148092Y-100370775D01*
X77120000Y-100512003D01*
X77120000Y-100655997D01*
X77148092Y-100797225D01*
X77203196Y-100930258D01*
X77283195Y-101049985D01*
X77325210Y-101092000D01*
X77283195Y-101134015D01*
X77203196Y-101253742D01*
X77148092Y-101386775D01*
X77120000Y-101528003D01*
X77120000Y-101671997D01*
X77148092Y-101813225D01*
X77203196Y-101946258D01*
X77283195Y-102065985D01*
X77385015Y-102167805D01*
X77504742Y-102247804D01*
X77597001Y-102286019D01*
X77597000Y-111803580D01*
X75482621Y-109689201D01*
X75498301Y-109530000D01*
X75481136Y-109355726D01*
X75430303Y-109188149D01*
X75347753Y-109033709D01*
X75236659Y-108898341D01*
X75101291Y-108787247D01*
X74946851Y-108704697D01*
X74779274Y-108653864D01*
X74648667Y-108641000D01*
X74231051Y-108641000D01*
X74133578Y-108543527D01*
X73925571Y-108404541D01*
X73694445Y-108308805D01*
X73449084Y-108260000D01*
X73694445Y-108211195D01*
X73925571Y-108115459D01*
X74133578Y-107976473D01*
X74310473Y-107799578D01*
X74449459Y-107591571D01*
X74545195Y-107360445D01*
X74594000Y-107115084D01*
X74594000Y-106864916D01*
X74545195Y-106619555D01*
X74449459Y-106388429D01*
X74310473Y-106180422D01*
X74133578Y-106003527D01*
X73925571Y-105864541D01*
X73694445Y-105768805D01*
X73449084Y-105720000D01*
X73694445Y-105671195D01*
X73925571Y-105575459D01*
X74133578Y-105436473D01*
X74310473Y-105259578D01*
X74449459Y-105051571D01*
X74545195Y-104820445D01*
X74594000Y-104575084D01*
X74594000Y-104324916D01*
X74545195Y-104079555D01*
X74449459Y-103848429D01*
X74310473Y-103640422D01*
X74133578Y-103463527D01*
X73925571Y-103324541D01*
X73694445Y-103228805D01*
X73449084Y-103180000D01*
X73694445Y-103131195D01*
X73925571Y-103035459D01*
X74133578Y-102896473D01*
X74310473Y-102719578D01*
X74449459Y-102511571D01*
X74545195Y-102280445D01*
X74594000Y-102035084D01*
X74594000Y-101784916D01*
X74582837Y-101728794D01*
X75311001Y-101000630D01*
X75311000Y-105646210D01*
X75251195Y-105706015D01*
X75171196Y-105825742D01*
X75116092Y-105958775D01*
X75088000Y-106100003D01*
X75088000Y-106243997D01*
X75116092Y-106385225D01*
X75171196Y-106518258D01*
X75251195Y-106637985D01*
X75353015Y-106739805D01*
X75472742Y-106819804D01*
X75605775Y-106874908D01*
X75747003Y-106903000D01*
X75850000Y-106903000D01*
X75850000Y-107005997D01*
X75878092Y-107147225D01*
X75933196Y-107280258D01*
X76013195Y-107399985D01*
X76115015Y-107501805D01*
X76234742Y-107581804D01*
X76367775Y-107636908D01*
X76509003Y-107665000D01*
X76652997Y-107665000D01*
X76794225Y-107636908D01*
X76927258Y-107581804D01*
X77046985Y-107501805D01*
X77148805Y-107399985D01*
X77228804Y-107280258D01*
X77283908Y-107147225D01*
X77312000Y-107005997D01*
X77312000Y-106862003D01*
X77283908Y-106720775D01*
X77228804Y-106587742D01*
X77148805Y-106468015D01*
X77089000Y-106408210D01*
X77089000Y-105434943D01*
X77091457Y-105409999D01*
X77086801Y-105362726D01*
X77081649Y-105310415D01*
X77052601Y-105214657D01*
X77005429Y-105126405D01*
X76941948Y-105049052D01*
X76922565Y-105033145D01*
X76835000Y-104945580D01*
X76835000Y-99016420D01*
X77557565Y-98293855D01*
X77576948Y-98277948D01*
X77640429Y-98200595D01*
X77687601Y-98112343D01*
X77716649Y-98016585D01*
X77724000Y-97941947D01*
X77724000Y-97941944D01*
X77726457Y-97917000D01*
X77724000Y-97892053D01*
X77724000Y-97426790D01*
X77783805Y-97366985D01*
X77863804Y-97247258D01*
X77918908Y-97114225D01*
X77947000Y-96972997D01*
X77947000Y-96829003D01*
X77918908Y-96687775D01*
X77863804Y-96554742D01*
X77789675Y-96443800D01*
X91429170Y-96443800D01*
X91440001Y-96454631D01*
X91440000Y-97323264D01*
X91437022Y-97323856D01*
X91276690Y-97390268D01*
X91132395Y-97486682D01*
X91009682Y-97609395D01*
X90913268Y-97753690D01*
X90846856Y-97914022D01*
X90813000Y-98084229D01*
X90813000Y-98257771D01*
X90846856Y-98427978D01*
X90913268Y-98588310D01*
X91009682Y-98732605D01*
X91132395Y-98855318D01*
X91276690Y-98951732D01*
X91437022Y-99018144D01*
X91607229Y-99052000D01*
X91780771Y-99052000D01*
X91950978Y-99018144D01*
X92111310Y-98951732D01*
X92255605Y-98855318D01*
X92378318Y-98732605D01*
X92474732Y-98588310D01*
X92541144Y-98427978D01*
X92547722Y-98394908D01*
X92714347Y-98228283D01*
X92743422Y-98204422D01*
X92838645Y-98088392D01*
X92909402Y-97956015D01*
X92952974Y-97812378D01*
X92964000Y-97700426D01*
X92964000Y-97700417D01*
X92967685Y-97663001D01*
X92964000Y-97625585D01*
X92964000Y-96176422D01*
X92967686Y-96138999D01*
X92962589Y-96087247D01*
X92952974Y-95989622D01*
X92909402Y-95845985D01*
X92901488Y-95831178D01*
X92858173Y-95750143D01*
X92838645Y-95713608D01*
X92743422Y-95597578D01*
X92714346Y-95573716D01*
X92606530Y-95465900D01*
X96452362Y-95465900D01*
X96922551Y-95936089D01*
X96913864Y-95964726D01*
X96896700Y-96139000D01*
X96913864Y-96313274D01*
X96964698Y-96480852D01*
X97047248Y-96635291D01*
X97130505Y-96736740D01*
X97480109Y-97086345D01*
X97502805Y-97200445D01*
X97598541Y-97431571D01*
X97737527Y-97639578D01*
X97914422Y-97816473D01*
X98122429Y-97955459D01*
X98353555Y-98051195D01*
X98598916Y-98100000D01*
X98353555Y-98148805D01*
X98122429Y-98244541D01*
X97914422Y-98383527D01*
X97737527Y-98560422D01*
X97598541Y-98768429D01*
X97502805Y-98999555D01*
X97454000Y-99244916D01*
X97454000Y-99495084D01*
X97502805Y-99740445D01*
X97598541Y-99971571D01*
X97737527Y-100179578D01*
X97914422Y-100356473D01*
X98122429Y-100495459D01*
X98353555Y-100591195D01*
X98598916Y-100640000D01*
X98353555Y-100688805D01*
X98122429Y-100784541D01*
X97914422Y-100923527D01*
X97737527Y-101100422D01*
X97598541Y-101308429D01*
X97502805Y-101539555D01*
X97454000Y-101784916D01*
X97454000Y-102035084D01*
X97502805Y-102280445D01*
X97598541Y-102511571D01*
X97737527Y-102719578D01*
X97914422Y-102896473D01*
X98122429Y-103035459D01*
X98136288Y-103041200D01*
X98076641Y-103062184D01*
X97929727Y-103140711D01*
X97847374Y-103393769D01*
X98724000Y-104270395D01*
X99600626Y-103393769D01*
X99518273Y-103140711D01*
X99311192Y-103041415D01*
X99325571Y-103035459D01*
X99533578Y-102896473D01*
X99710473Y-102719578D01*
X99849459Y-102511571D01*
X99945195Y-102280445D01*
X99994000Y-102035084D01*
X99994000Y-101784916D01*
X99945195Y-101539555D01*
X99849459Y-101308429D01*
X99710473Y-101100422D01*
X99533578Y-100923527D01*
X99325571Y-100784541D01*
X99094445Y-100688805D01*
X98849084Y-100640000D01*
X99094445Y-100591195D01*
X99325571Y-100495459D01*
X99533578Y-100356473D01*
X99710473Y-100179578D01*
X99849459Y-99971571D01*
X99945195Y-99740445D01*
X99994000Y-99495084D01*
X99994000Y-99244916D01*
X99945195Y-98999555D01*
X99849459Y-98768429D01*
X99710473Y-98560422D01*
X99533578Y-98383527D01*
X99325571Y-98244541D01*
X99094445Y-98148805D01*
X98849084Y-98100000D01*
X99094445Y-98051195D01*
X99325571Y-97955459D01*
X99533578Y-97816473D01*
X99710473Y-97639578D01*
X99849459Y-97431571D01*
X99945195Y-97200445D01*
X99994000Y-96955084D01*
X99994000Y-96704916D01*
X99945195Y-96459555D01*
X99849459Y-96228429D01*
X99710473Y-96020422D01*
X99533578Y-95843527D01*
X99325571Y-95704541D01*
X99094445Y-95608805D01*
X98849084Y-95560000D01*
X99094445Y-95511195D01*
X99325571Y-95415459D01*
X99533578Y-95276473D01*
X99710473Y-95099578D01*
X99849459Y-94891571D01*
X99945195Y-94660445D01*
X99987100Y-94449772D01*
X99987100Y-94718923D01*
X99984827Y-94742000D01*
X99993900Y-94834116D01*
X99996166Y-94841585D01*
X100020769Y-94922692D01*
X100064402Y-95004325D01*
X100123123Y-95075877D01*
X100141057Y-95090595D01*
X103376243Y-98325782D01*
X103236576Y-98298000D01*
X103011424Y-98298000D01*
X102790599Y-98341925D01*
X102582587Y-98428087D01*
X102395380Y-98553174D01*
X102236174Y-98712380D01*
X102111087Y-98899587D01*
X102024925Y-99107599D01*
X101981000Y-99328424D01*
X101981000Y-99553576D01*
X102024925Y-99774401D01*
X102111087Y-99982413D01*
X102236174Y-100169620D01*
X102362000Y-100295446D01*
X102362001Y-101187808D01*
X102362000Y-101823574D01*
X102345289Y-101837289D01*
X102297678Y-101895304D01*
X102262299Y-101961492D01*
X102240513Y-102033311D01*
X102233157Y-102108000D01*
X102233157Y-102616000D01*
X102240513Y-102690689D01*
X102256381Y-102743000D01*
X102240513Y-102795311D01*
X102233157Y-102870000D01*
X102233157Y-103378000D01*
X102240513Y-103452689D01*
X102262299Y-103524508D01*
X102297678Y-103590696D01*
X102345289Y-103648711D01*
X102355593Y-103657168D01*
X102349196Y-103666742D01*
X102294092Y-103799775D01*
X102266000Y-103941003D01*
X102266000Y-104084997D01*
X102294092Y-104226225D01*
X102349196Y-104359258D01*
X102429195Y-104478985D01*
X102531015Y-104580805D01*
X102650742Y-104660804D01*
X102783775Y-104715908D01*
X102925003Y-104744000D01*
X103068997Y-104744000D01*
X103210225Y-104715908D01*
X103343258Y-104660804D01*
X103462985Y-104580805D01*
X103564805Y-104478985D01*
X103644804Y-104359258D01*
X103699908Y-104226225D01*
X103728000Y-104084997D01*
X103728000Y-103941003D01*
X103699908Y-103799775D01*
X103644804Y-103666742D01*
X103638407Y-103657168D01*
X103648711Y-103648711D01*
X103696322Y-103590696D01*
X103731701Y-103524508D01*
X103753487Y-103452689D01*
X103760843Y-103378000D01*
X103760843Y-102870000D01*
X103753487Y-102795311D01*
X103737619Y-102743000D01*
X103753487Y-102690689D01*
X103760843Y-102616000D01*
X103760843Y-102108000D01*
X103753487Y-102033311D01*
X103731701Y-101961492D01*
X103696322Y-101895304D01*
X103648711Y-101837289D01*
X103632000Y-101823575D01*
X103632000Y-100467753D01*
X103665413Y-100453913D01*
X103797100Y-100365923D01*
X103797100Y-100560923D01*
X103794827Y-100584000D01*
X103803900Y-100676116D01*
X103807749Y-100688805D01*
X103830769Y-100764692D01*
X103874402Y-100846325D01*
X103933123Y-100917877D01*
X103951057Y-100932595D01*
X104553409Y-101534948D01*
X104568123Y-101552877D01*
X104639675Y-101611598D01*
X104699227Y-101643429D01*
X104721307Y-101655231D01*
X104809883Y-101682100D01*
X104902000Y-101691173D01*
X104925077Y-101688900D01*
X108688923Y-101688900D01*
X108712000Y-101691173D01*
X108735077Y-101688900D01*
X108804116Y-101682100D01*
X108892693Y-101655231D01*
X108974325Y-101611598D01*
X109045877Y-101552877D01*
X109060595Y-101534943D01*
X109427338Y-101168200D01*
X112522000Y-101168200D01*
X112522001Y-141732000D01*
X108403364Y-141732000D01*
X108920450Y-141629145D01*
X109525925Y-141378349D01*
X110070839Y-141014250D01*
X110534250Y-140550839D01*
X110898349Y-140005925D01*
X111149145Y-139400450D01*
X111277000Y-138757681D01*
X111277000Y-138102319D01*
X111149145Y-137459550D01*
X110898349Y-136854075D01*
X110534250Y-136309161D01*
X110070839Y-135845750D01*
X109525925Y-135481651D01*
X108920450Y-135230855D01*
X108277681Y-135103000D01*
X107622319Y-135103000D01*
X106979550Y-135230855D01*
X106374075Y-135481651D01*
X105829161Y-135845750D01*
X105365750Y-136309161D01*
X105001651Y-136854075D01*
X104750855Y-137459550D01*
X104623000Y-138102319D01*
X104623000Y-138757681D01*
X104750855Y-139400450D01*
X105001651Y-140005925D01*
X105365750Y-140550839D01*
X105829161Y-141014250D01*
X106374075Y-141378349D01*
X106979550Y-141629145D01*
X107496636Y-141732000D01*
X60143364Y-141732000D01*
X60660450Y-141629145D01*
X61265925Y-141378349D01*
X61810839Y-141014250D01*
X62274250Y-140550839D01*
X62638349Y-140005925D01*
X62889145Y-139400450D01*
X63017000Y-138757681D01*
X63017000Y-138102319D01*
X62903159Y-137530000D01*
X64757157Y-137530000D01*
X64757157Y-139330000D01*
X64764513Y-139404689D01*
X64786299Y-139476508D01*
X64821678Y-139542696D01*
X64869289Y-139600711D01*
X64927304Y-139648322D01*
X64993492Y-139683701D01*
X65065311Y-139705487D01*
X65140000Y-139712843D01*
X66940000Y-139712843D01*
X67014689Y-139705487D01*
X67086508Y-139683701D01*
X67152696Y-139648322D01*
X67210711Y-139600711D01*
X67258322Y-139542696D01*
X67293701Y-139476508D01*
X67315487Y-139404689D01*
X67322843Y-139330000D01*
X67322843Y-138676034D01*
X67348228Y-138803654D01*
X67444793Y-139036781D01*
X67584982Y-139246590D01*
X67763410Y-139425018D01*
X67973219Y-139565207D01*
X68206346Y-139661772D01*
X68453833Y-139711000D01*
X68706167Y-139711000D01*
X68953654Y-139661772D01*
X69186781Y-139565207D01*
X69396590Y-139425018D01*
X69575018Y-139246590D01*
X69715207Y-139036781D01*
X69811772Y-138803654D01*
X69861000Y-138556167D01*
X69861000Y-138303833D01*
X69811772Y-138056346D01*
X69715207Y-137823219D01*
X69575018Y-137613410D01*
X69502608Y-137541000D01*
X72388157Y-137541000D01*
X72388157Y-139319000D01*
X72395513Y-139393689D01*
X72417299Y-139465508D01*
X72452678Y-139531696D01*
X72500289Y-139589711D01*
X72558304Y-139637322D01*
X72624492Y-139672701D01*
X72696311Y-139694487D01*
X72771000Y-139701843D01*
X74549000Y-139701843D01*
X74623689Y-139694487D01*
X74695508Y-139672701D01*
X74761696Y-139637322D01*
X74819711Y-139589711D01*
X74867322Y-139531696D01*
X74891624Y-139486231D01*
X75323374Y-139486231D01*
X75405727Y-139739289D01*
X75676418Y-139869086D01*
X75967230Y-139943580D01*
X76266988Y-139959908D01*
X76564171Y-139917443D01*
X76847359Y-139817816D01*
X76994273Y-139739289D01*
X77076626Y-139486231D01*
X76200000Y-138609605D01*
X75323374Y-139486231D01*
X74891624Y-139486231D01*
X74902701Y-139465508D01*
X74924487Y-139393689D01*
X74931843Y-139319000D01*
X74931843Y-139237659D01*
X75143769Y-139306626D01*
X76020395Y-138430000D01*
X76379605Y-138430000D01*
X77256231Y-139306626D01*
X77509289Y-139224273D01*
X77608585Y-139017192D01*
X77614541Y-139031571D01*
X77753527Y-139239578D01*
X77930422Y-139416473D01*
X78138429Y-139555459D01*
X78369555Y-139651195D01*
X78614916Y-139700000D01*
X78865084Y-139700000D01*
X79110445Y-139651195D01*
X79341571Y-139555459D01*
X79549578Y-139416473D01*
X79726473Y-139239578D01*
X79865459Y-139031571D01*
X79961195Y-138800445D01*
X80010000Y-138555084D01*
X80058805Y-138800445D01*
X80154541Y-139031571D01*
X80293527Y-139239578D01*
X80470422Y-139416473D01*
X80678429Y-139555459D01*
X80909555Y-139651195D01*
X81154916Y-139700000D01*
X81405084Y-139700000D01*
X81650445Y-139651195D01*
X81881571Y-139555459D01*
X82089578Y-139416473D01*
X82266473Y-139239578D01*
X82405459Y-139031571D01*
X82501195Y-138800445D01*
X82550000Y-138555084D01*
X82598805Y-138800445D01*
X82694541Y-139031571D01*
X82833527Y-139239578D01*
X83010422Y-139416473D01*
X83218429Y-139555459D01*
X83449555Y-139651195D01*
X83694916Y-139700000D01*
X83945084Y-139700000D01*
X84190445Y-139651195D01*
X84421571Y-139555459D01*
X84629578Y-139416473D01*
X84806473Y-139239578D01*
X84945459Y-139031571D01*
X85041195Y-138800445D01*
X85090000Y-138555084D01*
X85138805Y-138800445D01*
X85234541Y-139031571D01*
X85373527Y-139239578D01*
X85550422Y-139416473D01*
X85758429Y-139555459D01*
X85989555Y-139651195D01*
X86234916Y-139700000D01*
X86485084Y-139700000D01*
X86730445Y-139651195D01*
X86961571Y-139555459D01*
X87169578Y-139416473D01*
X87346473Y-139239578D01*
X87485459Y-139031571D01*
X87581195Y-138800445D01*
X87630000Y-138555084D01*
X87678805Y-138800445D01*
X87774541Y-139031571D01*
X87913527Y-139239578D01*
X88090422Y-139416473D01*
X88298429Y-139555459D01*
X88529555Y-139651195D01*
X88774916Y-139700000D01*
X89025084Y-139700000D01*
X89270445Y-139651195D01*
X89501571Y-139555459D01*
X89709578Y-139416473D01*
X89886473Y-139239578D01*
X90025459Y-139031571D01*
X90121195Y-138800445D01*
X90170000Y-138555084D01*
X90218805Y-138800445D01*
X90314541Y-139031571D01*
X90453527Y-139239578D01*
X90630422Y-139416473D01*
X90838429Y-139555459D01*
X91069555Y-139651195D01*
X91314916Y-139700000D01*
X91565084Y-139700000D01*
X91810445Y-139651195D01*
X92041571Y-139555459D01*
X92249578Y-139416473D01*
X92426473Y-139239578D01*
X92565459Y-139031571D01*
X92661195Y-138800445D01*
X92710000Y-138555084D01*
X92758805Y-138800445D01*
X92854541Y-139031571D01*
X92993527Y-139239578D01*
X93170422Y-139416473D01*
X93378429Y-139555459D01*
X93609555Y-139651195D01*
X93854916Y-139700000D01*
X94105084Y-139700000D01*
X94350445Y-139651195D01*
X94581571Y-139555459D01*
X94685177Y-139486231D01*
X95643374Y-139486231D01*
X95725727Y-139739289D01*
X95996418Y-139869086D01*
X96287230Y-139943580D01*
X96586988Y-139959908D01*
X96884171Y-139917443D01*
X97167359Y-139817816D01*
X97314273Y-139739289D01*
X97396626Y-139486231D01*
X96520000Y-138609605D01*
X95643374Y-139486231D01*
X94685177Y-139486231D01*
X94789578Y-139416473D01*
X94966473Y-139239578D01*
X95105459Y-139031571D01*
X95111200Y-139017712D01*
X95132184Y-139077359D01*
X95210711Y-139224273D01*
X95463769Y-139306626D01*
X96340395Y-138430000D01*
X96699605Y-138430000D01*
X97576231Y-139306626D01*
X97829289Y-139224273D01*
X97959086Y-138953582D01*
X98033580Y-138662770D01*
X98049908Y-138363012D01*
X98007443Y-138065829D01*
X97907816Y-137782641D01*
X97829289Y-137635727D01*
X97576231Y-137553374D01*
X96699605Y-138430000D01*
X96340395Y-138430000D01*
X95463769Y-137553374D01*
X95210711Y-137635727D01*
X95111415Y-137842808D01*
X95105459Y-137828429D01*
X94966473Y-137620422D01*
X94789578Y-137443527D01*
X94685178Y-137373769D01*
X95643374Y-137373769D01*
X96520000Y-138250395D01*
X97396626Y-137373769D01*
X97314273Y-137120711D01*
X97043582Y-136990914D01*
X96752770Y-136916420D01*
X96453012Y-136900092D01*
X96155829Y-136942557D01*
X95872641Y-137042184D01*
X95725727Y-137120711D01*
X95643374Y-137373769D01*
X94685178Y-137373769D01*
X94581571Y-137304541D01*
X94350445Y-137208805D01*
X94105084Y-137160000D01*
X93854916Y-137160000D01*
X93609555Y-137208805D01*
X93378429Y-137304541D01*
X93170422Y-137443527D01*
X92993527Y-137620422D01*
X92854541Y-137828429D01*
X92758805Y-138059555D01*
X92710000Y-138304916D01*
X92661195Y-138059555D01*
X92565459Y-137828429D01*
X92426473Y-137620422D01*
X92249578Y-137443527D01*
X92041571Y-137304541D01*
X91810445Y-137208805D01*
X91565084Y-137160000D01*
X91314916Y-137160000D01*
X91069555Y-137208805D01*
X90838429Y-137304541D01*
X90630422Y-137443527D01*
X90453527Y-137620422D01*
X90314541Y-137828429D01*
X90218805Y-138059555D01*
X90170000Y-138304916D01*
X90121195Y-138059555D01*
X90025459Y-137828429D01*
X89886473Y-137620422D01*
X89709578Y-137443527D01*
X89501571Y-137304541D01*
X89270445Y-137208805D01*
X89025084Y-137160000D01*
X88774916Y-137160000D01*
X88529555Y-137208805D01*
X88298429Y-137304541D01*
X88090422Y-137443527D01*
X87913527Y-137620422D01*
X87774541Y-137828429D01*
X87678805Y-138059555D01*
X87630000Y-138304916D01*
X87581195Y-138059555D01*
X87485459Y-137828429D01*
X87346473Y-137620422D01*
X87169578Y-137443527D01*
X86961571Y-137304541D01*
X86730445Y-137208805D01*
X86485084Y-137160000D01*
X86234916Y-137160000D01*
X85989555Y-137208805D01*
X85758429Y-137304541D01*
X85550422Y-137443527D01*
X85373527Y-137620422D01*
X85234541Y-137828429D01*
X85138805Y-138059555D01*
X85090000Y-138304916D01*
X85041195Y-138059555D01*
X84945459Y-137828429D01*
X84806473Y-137620422D01*
X84629578Y-137443527D01*
X84421571Y-137304541D01*
X84190445Y-137208805D01*
X83945084Y-137160000D01*
X83694916Y-137160000D01*
X83449555Y-137208805D01*
X83218429Y-137304541D01*
X83010422Y-137443527D01*
X82833527Y-137620422D01*
X82694541Y-137828429D01*
X82598805Y-138059555D01*
X82550000Y-138304916D01*
X82501195Y-138059555D01*
X82405459Y-137828429D01*
X82266473Y-137620422D01*
X82089578Y-137443527D01*
X81881571Y-137304541D01*
X81650445Y-137208805D01*
X81405084Y-137160000D01*
X81154916Y-137160000D01*
X80909555Y-137208805D01*
X80678429Y-137304541D01*
X80470422Y-137443527D01*
X80293527Y-137620422D01*
X80154541Y-137828429D01*
X80058805Y-138059555D01*
X80010000Y-138304916D01*
X79961195Y-138059555D01*
X79865459Y-137828429D01*
X79726473Y-137620422D01*
X79549578Y-137443527D01*
X79341571Y-137304541D01*
X79110445Y-137208805D01*
X78865084Y-137160000D01*
X78614916Y-137160000D01*
X78369555Y-137208805D01*
X78138429Y-137304541D01*
X77930422Y-137443527D01*
X77753527Y-137620422D01*
X77614541Y-137828429D01*
X77608800Y-137842288D01*
X77587816Y-137782641D01*
X77509289Y-137635727D01*
X77256231Y-137553374D01*
X76379605Y-138430000D01*
X76020395Y-138430000D01*
X75143769Y-137553374D01*
X74931843Y-137622341D01*
X74931843Y-137541000D01*
X74924487Y-137466311D01*
X74902701Y-137394492D01*
X74891625Y-137373769D01*
X75323374Y-137373769D01*
X76200000Y-138250395D01*
X77076626Y-137373769D01*
X76994273Y-137120711D01*
X76723582Y-136990914D01*
X76432770Y-136916420D01*
X76133012Y-136900092D01*
X75835829Y-136942557D01*
X75552641Y-137042184D01*
X75405727Y-137120711D01*
X75323374Y-137373769D01*
X74891625Y-137373769D01*
X74867322Y-137328304D01*
X74819711Y-137270289D01*
X74761696Y-137222678D01*
X74695508Y-137187299D01*
X74623689Y-137165513D01*
X74549000Y-137158157D01*
X74549000Y-136100333D01*
X74536136Y-135969726D01*
X74485303Y-135802149D01*
X74422000Y-135683718D01*
X74422000Y-122403923D01*
X74471318Y-122354605D01*
X74567732Y-122210310D01*
X74634144Y-122049978D01*
X74668000Y-121879771D01*
X74668000Y-121706229D01*
X74634144Y-121536022D01*
X74567732Y-121375690D01*
X74471318Y-121231395D01*
X74348605Y-121108682D01*
X74204310Y-121012268D01*
X74043978Y-120945856D01*
X73873771Y-120912000D01*
X73700229Y-120912000D01*
X73530022Y-120945856D01*
X73369690Y-121012268D01*
X73225395Y-121108682D01*
X73102682Y-121231395D01*
X73006268Y-121375690D01*
X72939856Y-121536022D01*
X72906000Y-121706229D01*
X72906000Y-121801347D01*
X72898276Y-121879771D01*
X72894314Y-121920000D01*
X72898000Y-121957423D01*
X72898001Y-135683717D01*
X72834697Y-135802150D01*
X72783864Y-135969727D01*
X72771000Y-136100334D01*
X72771000Y-137158157D01*
X72696311Y-137165513D01*
X72624492Y-137187299D01*
X72558304Y-137222678D01*
X72500289Y-137270289D01*
X72452678Y-137328304D01*
X72417299Y-137394492D01*
X72395513Y-137466311D01*
X72388157Y-137541000D01*
X69502608Y-137541000D01*
X69396590Y-137434982D01*
X69186781Y-137294793D01*
X68953654Y-137198228D01*
X68706167Y-137149000D01*
X68453833Y-137149000D01*
X68206346Y-137198228D01*
X67973219Y-137294793D01*
X67763410Y-137434982D01*
X67584982Y-137613410D01*
X67444793Y-137823219D01*
X67348228Y-138056346D01*
X67322843Y-138183966D01*
X67322843Y-137530000D01*
X67315487Y-137455311D01*
X67293701Y-137383492D01*
X67258322Y-137317304D01*
X67210711Y-137259289D01*
X67152696Y-137211678D01*
X67086508Y-137176299D01*
X67014689Y-137154513D01*
X66940000Y-137147157D01*
X65140000Y-137147157D01*
X65065311Y-137154513D01*
X64993492Y-137176299D01*
X64927304Y-137211678D01*
X64869289Y-137259289D01*
X64821678Y-137317304D01*
X64786299Y-137383492D01*
X64764513Y-137455311D01*
X64757157Y-137530000D01*
X62903159Y-137530000D01*
X62889145Y-137459550D01*
X62638349Y-136854075D01*
X62274250Y-136309161D01*
X61810839Y-135845750D01*
X61265925Y-135481651D01*
X60660450Y-135230855D01*
X60017681Y-135103000D01*
X59362319Y-135103000D01*
X58719550Y-135230855D01*
X58114075Y-135481651D01*
X57569161Y-135845750D01*
X57105750Y-136309161D01*
X56741651Y-136854075D01*
X56490855Y-137459550D01*
X56363000Y-138102319D01*
X56363000Y-138757681D01*
X56490855Y-139400450D01*
X56741651Y-140005925D01*
X57105750Y-140550839D01*
X57569161Y-141014250D01*
X58114075Y-141378349D01*
X58719550Y-141629145D01*
X59236636Y-141732000D01*
X55118000Y-141732000D01*
X55118000Y-127000000D01*
X56005157Y-127000000D01*
X56005157Y-128524000D01*
X56012513Y-128598689D01*
X56034299Y-128670508D01*
X56069678Y-128736696D01*
X56117289Y-128794711D01*
X56175304Y-128842322D01*
X56241492Y-128877701D01*
X56313311Y-128899487D01*
X56388000Y-128906843D01*
X57912000Y-128906843D01*
X57986689Y-128899487D01*
X58058508Y-128877701D01*
X58124696Y-128842322D01*
X58182711Y-128794711D01*
X58230322Y-128736696D01*
X58265701Y-128670508D01*
X58287487Y-128598689D01*
X58294843Y-128524000D01*
X58294843Y-127000000D01*
X58325157Y-127000000D01*
X58325157Y-128524000D01*
X58332513Y-128598689D01*
X58354299Y-128670508D01*
X58389678Y-128736696D01*
X58437289Y-128794711D01*
X58495304Y-128842322D01*
X58561492Y-128877701D01*
X58633311Y-128899487D01*
X58708000Y-128906843D01*
X60232000Y-128906843D01*
X60306689Y-128899487D01*
X60378508Y-128877701D01*
X60444696Y-128842322D01*
X60502711Y-128794711D01*
X60550322Y-128736696D01*
X60585701Y-128670508D01*
X60607487Y-128598689D01*
X60614843Y-128524000D01*
X60614843Y-127000000D01*
X60607487Y-126925311D01*
X60585701Y-126853492D01*
X60550322Y-126787304D01*
X60502711Y-126729289D01*
X60444696Y-126681678D01*
X60378508Y-126646299D01*
X60306689Y-126624513D01*
X60232000Y-126617157D01*
X58708000Y-126617157D01*
X58633311Y-126624513D01*
X58561492Y-126646299D01*
X58495304Y-126681678D01*
X58437289Y-126729289D01*
X58389678Y-126787304D01*
X58354299Y-126853492D01*
X58332513Y-126925311D01*
X58325157Y-127000000D01*
X58294843Y-127000000D01*
X58287487Y-126925311D01*
X58265701Y-126853492D01*
X58230322Y-126787304D01*
X58182711Y-126729289D01*
X58124696Y-126681678D01*
X58058508Y-126646299D01*
X57986689Y-126624513D01*
X57912000Y-126617157D01*
X56388000Y-126617157D01*
X56313311Y-126624513D01*
X56241492Y-126646299D01*
X56175304Y-126681678D01*
X56117289Y-126729289D01*
X56069678Y-126787304D01*
X56034299Y-126853492D01*
X56012513Y-126925311D01*
X56005157Y-127000000D01*
X55118000Y-127000000D01*
X55118000Y-103281380D01*
X61249000Y-103281380D01*
X61249000Y-103474620D01*
X61286699Y-103664147D01*
X61360649Y-103842678D01*
X61468007Y-104003351D01*
X61604649Y-104139993D01*
X61765322Y-104247351D01*
X61943853Y-104321301D01*
X62133380Y-104359000D01*
X62326620Y-104359000D01*
X62516147Y-104321301D01*
X62694678Y-104247351D01*
X62855351Y-104139993D01*
X62991993Y-104003351D01*
X63099351Y-103842678D01*
X63173301Y-103664147D01*
X63211000Y-103474620D01*
X63211000Y-103281380D01*
X63173301Y-103091853D01*
X63099351Y-102913322D01*
X62991993Y-102752649D01*
X62855351Y-102616007D01*
X62694678Y-102508649D01*
X62516147Y-102434699D01*
X62326620Y-102397000D01*
X62133380Y-102397000D01*
X61943853Y-102434699D01*
X61765322Y-102508649D01*
X61604649Y-102616007D01*
X61468007Y-102752649D01*
X61360649Y-102913322D01*
X61286699Y-103091853D01*
X61249000Y-103281380D01*
X55118000Y-103281380D01*
X55118000Y-86868000D01*
X59236636Y-86868000D01*
X58719550Y-86970855D01*
X58719550Y-86970855D01*
G37*
X58719550Y-86970855D02*
X58114075Y-87221651D01*
X57569161Y-87585750D01*
X57105750Y-88049161D01*
X56741651Y-88594075D01*
X56490855Y-89199550D01*
X56363000Y-89842319D01*
X56363000Y-90497681D01*
X56490855Y-91140450D01*
X56741651Y-91745925D01*
X57105750Y-92290839D01*
X57569161Y-92754250D01*
X58114075Y-93118349D01*
X58719550Y-93369145D01*
X59362319Y-93497000D01*
X60017681Y-93497000D01*
X60660450Y-93369145D01*
X61265925Y-93118349D01*
X61810839Y-92754250D01*
X62274250Y-92290839D01*
X62638349Y-91745925D01*
X62889145Y-91140450D01*
X63017000Y-90497681D01*
X63017000Y-89842319D01*
X62889145Y-89199550D01*
X62638349Y-88594075D01*
X62274250Y-88049161D01*
X61810839Y-87585750D01*
X61265925Y-87221651D01*
X60660450Y-86970855D01*
X60143364Y-86868000D01*
X78148580Y-86868000D01*
X78998150Y-87717571D01*
X79014052Y-87736948D01*
X79033429Y-87752850D01*
X79091404Y-87800429D01*
X79131853Y-87822049D01*
X79179657Y-87847601D01*
X79275415Y-87876649D01*
X79350053Y-87884000D01*
X79350056Y-87884000D01*
X79375000Y-87886457D01*
X79399944Y-87884000D01*
X88240056Y-87884000D01*
X88265000Y-87886457D01*
X88289944Y-87884000D01*
X88289947Y-87884000D01*
X88364585Y-87876649D01*
X88460343Y-87847601D01*
X88548595Y-87800429D01*
X88625948Y-87736948D01*
X88641855Y-87717565D01*
X89491421Y-86868000D01*
X104368600Y-86868000D01*
X104368600Y-97989061D01*
X100926900Y-94547362D01*
X100926900Y-91082077D01*
X100929173Y-91059000D01*
X100920100Y-90966883D01*
X100893231Y-90878307D01*
X100883569Y-90860231D01*
X100849598Y-90796675D01*
X100790877Y-90725123D01*
X100772948Y-90710409D01*
X100221395Y-90158857D01*
X100206677Y-90140923D01*
X100135125Y-90082202D01*
X100053493Y-90038569D01*
X99964916Y-90011700D01*
X99895877Y-90004900D01*
X99872800Y-90002627D01*
X99849723Y-90004900D01*
X99720281Y-90004900D01*
X99849459Y-89811571D01*
X99945195Y-89580445D01*
X99994000Y-89335084D01*
X99994000Y-89084916D01*
X99945195Y-88839555D01*
X99849459Y-88608429D01*
X99710473Y-88400422D01*
X99533578Y-88223527D01*
X99325571Y-88084541D01*
X99094445Y-87988805D01*
X98849084Y-87940000D01*
X98598916Y-87940000D01*
X98353555Y-87988805D01*
X98122429Y-88084541D01*
X97917000Y-88221804D01*
X97917000Y-87371149D01*
X97909679Y-87296820D01*
X97887998Y-87225347D01*
X97852790Y-87159477D01*
X97805408Y-87101741D01*
X97747672Y-87054359D01*
X97681802Y-87019151D01*
X97610329Y-86997470D01*
X97536000Y-86990149D01*
X90043000Y-86990149D01*
X89968671Y-86997470D01*
X89897198Y-87019151D01*
X89831328Y-87054359D01*
X89773592Y-87101741D01*
X88249592Y-88625741D01*
X88217684Y-88664622D01*
X88117028Y-88541972D01*
X87967651Y-88419382D01*
X87797229Y-88328289D01*
X87612310Y-88272195D01*
X87420000Y-88253254D01*
X87227691Y-88272195D01*
X87042772Y-88328289D01*
X86872350Y-88419382D01*
X86722973Y-88541972D01*
X86600383Y-88691349D01*
X86509290Y-88861771D01*
X86453195Y-89046690D01*
X86439000Y-89190813D01*
X86439000Y-89887186D01*
X86453195Y-90031309D01*
X86509289Y-90216228D01*
X86525309Y-90246200D01*
X81114691Y-90246200D01*
X81130711Y-90216229D01*
X81186805Y-90031310D01*
X81201000Y-89887187D01*
X81201000Y-89190814D01*
X81186805Y-89046691D01*
X81130711Y-88861771D01*
X81039618Y-88691349D01*
X80917028Y-88541972D01*
X80767651Y-88419382D01*
X80597229Y-88328289D01*
X80412310Y-88272195D01*
X80220000Y-88253254D01*
X80027691Y-88272195D01*
X79842772Y-88328289D01*
X79672350Y-88419382D01*
X79522973Y-88541972D01*
X79400383Y-88691349D01*
X79309290Y-88861771D01*
X79253195Y-89046690D01*
X79239000Y-89190813D01*
X79239000Y-89887186D01*
X79253195Y-90031309D01*
X79309289Y-90216228D01*
X79325309Y-90246200D01*
X77194739Y-90246200D01*
X74389595Y-87441057D01*
X74374877Y-87423123D01*
X74303325Y-87364402D01*
X74221693Y-87320769D01*
X74133116Y-87293900D01*
X74064077Y-87287100D01*
X74041000Y-87284827D01*
X74017923Y-87287100D01*
X72667076Y-87287100D01*
X72643999Y-87284827D01*
X72551882Y-87293900D01*
X72518436Y-87304046D01*
X72463307Y-87320769D01*
X72381675Y-87364402D01*
X72310123Y-87423123D01*
X72295409Y-87441052D01*
X72071110Y-87665352D01*
X72067655Y-87666400D01*
X71979404Y-87713571D01*
X71921429Y-87761150D01*
X71413434Y-88269145D01*
X71394052Y-88285052D01*
X71330571Y-88362405D01*
X71283399Y-88450658D01*
X71254351Y-88546416D01*
X71248072Y-88610173D01*
X71244543Y-88646000D01*
X71247000Y-88670945D01*
X71247001Y-89959579D01*
X70651435Y-90555145D01*
X70632052Y-90571052D01*
X70568571Y-90648405D01*
X70521399Y-90736658D01*
X70492351Y-90832416D01*
X70486559Y-90891225D01*
X70482543Y-90932000D01*
X70485000Y-90956945D01*
X70485001Y-91864579D01*
X68208752Y-94140829D01*
X68125605Y-94057682D01*
X67981310Y-93961268D01*
X67820978Y-93894856D01*
X67650771Y-93861000D01*
X67477229Y-93861000D01*
X67307022Y-93894856D01*
X67146690Y-93961268D01*
X67002395Y-94057682D01*
X66879682Y-94180395D01*
X66783268Y-94324690D01*
X66716856Y-94485022D01*
X66683000Y-94655229D01*
X66683000Y-94828771D01*
X66716856Y-94998978D01*
X66783268Y-95159310D01*
X66879682Y-95303605D01*
X67002395Y-95426318D01*
X67146690Y-95522732D01*
X67307022Y-95589144D01*
X67477229Y-95623000D01*
X67650771Y-95623000D01*
X67820978Y-95589144D01*
X67961743Y-95530837D01*
X65448580Y-98044000D01*
X64794943Y-98044000D01*
X64769999Y-98041543D01*
X64745055Y-98044000D01*
X64745053Y-98044000D01*
X64670415Y-98051351D01*
X64574657Y-98080399D01*
X64558753Y-98088900D01*
X64486404Y-98127571D01*
X64447618Y-98159402D01*
X64409052Y-98191052D01*
X64393150Y-98210429D01*
X63416580Y-99187000D01*
X57506923Y-99187000D01*
X57457605Y-99137682D01*
X57313310Y-99041268D01*
X57152978Y-98974856D01*
X56982771Y-98941000D01*
X56809229Y-98941000D01*
X56639022Y-98974856D01*
X56478690Y-99041268D01*
X56334395Y-99137682D01*
X56211682Y-99260395D01*
X56115268Y-99404690D01*
X56048856Y-99565022D01*
X56015000Y-99735229D01*
X56015000Y-99908771D01*
X56048856Y-100078978D01*
X56115268Y-100239310D01*
X56211682Y-100383605D01*
X56334395Y-100506318D01*
X56478690Y-100602732D01*
X56639022Y-100669144D01*
X56809229Y-100703000D01*
X56982771Y-100703000D01*
X57152978Y-100669144D01*
X57313310Y-100602732D01*
X57457605Y-100506318D01*
X57580318Y-100383605D01*
X57676732Y-100239310D01*
X57691772Y-100203000D01*
X58334865Y-100203000D01*
X58274268Y-100293690D01*
X58207856Y-100454022D01*
X58174000Y-100624229D01*
X58174000Y-100797771D01*
X58207856Y-100967978D01*
X58274268Y-101128310D01*
X58370682Y-101272605D01*
X58493395Y-101395318D01*
X58637690Y-101491732D01*
X58798022Y-101558144D01*
X58968229Y-101592000D01*
X59141771Y-101592000D01*
X59311978Y-101558144D01*
X59472310Y-101491732D01*
X59616605Y-101395318D01*
X59739318Y-101272605D01*
X59775135Y-101219000D01*
X65761056Y-101219000D01*
X65786000Y-101221457D01*
X65810944Y-101219000D01*
X65810947Y-101219000D01*
X65885585Y-101211649D01*
X65981343Y-101182601D01*
X66069595Y-101135429D01*
X66146948Y-101071948D01*
X66162855Y-101052565D01*
X67778432Y-99436988D01*
X71794092Y-99436988D01*
X71836557Y-99734171D01*
X71936184Y-100017359D01*
X72014711Y-100164273D01*
X72267769Y-100246626D01*
X73144395Y-99370000D01*
X72267769Y-98493374D01*
X72014711Y-98575727D01*
X71884914Y-98846418D01*
X71810420Y-99137230D01*
X71794092Y-99436988D01*
X67778432Y-99436988D01*
X71152621Y-96062800D01*
X72309211Y-96062800D01*
X72198541Y-96228429D01*
X72102805Y-96459555D01*
X72054000Y-96704916D01*
X72054000Y-96955084D01*
X72102805Y-97200445D01*
X72198541Y-97431571D01*
X72337527Y-97639578D01*
X72514422Y-97816473D01*
X72722429Y-97955459D01*
X72736288Y-97961200D01*
X72676641Y-97982184D01*
X72529727Y-98060711D01*
X72447374Y-98313769D01*
X73324000Y-99190395D01*
X73338143Y-99176253D01*
X73517748Y-99355858D01*
X73503605Y-99370000D01*
X73517748Y-99384143D01*
X73338143Y-99563748D01*
X73324000Y-99549605D01*
X72447374Y-100426231D01*
X72529727Y-100679289D01*
X72736808Y-100778585D01*
X72722429Y-100784541D01*
X72514422Y-100923527D01*
X72337527Y-101100422D01*
X72198541Y-101308429D01*
X72102805Y-101539555D01*
X72054000Y-101784916D01*
X72054000Y-102035084D01*
X72102805Y-102280445D01*
X72198541Y-102511571D01*
X72337527Y-102719578D01*
X72514422Y-102896473D01*
X72722429Y-103035459D01*
X72953555Y-103131195D01*
X73198916Y-103180000D01*
X72953555Y-103228805D01*
X72722429Y-103324541D01*
X72514422Y-103463527D01*
X72337527Y-103640422D01*
X72198541Y-103848429D01*
X72102805Y-104079555D01*
X72054000Y-104324916D01*
X72054000Y-104575084D01*
X72102805Y-104820445D01*
X72198541Y-105051571D01*
X72337527Y-105259578D01*
X72514422Y-105436473D01*
X72722429Y-105575459D01*
X72953555Y-105671195D01*
X73198916Y-105720000D01*
X72953555Y-105768805D01*
X72722429Y-105864541D01*
X72514422Y-106003527D01*
X72337527Y-106180422D01*
X72198541Y-106388429D01*
X72102805Y-106619555D01*
X72054000Y-106864916D01*
X72054000Y-107115084D01*
X72102805Y-107360445D01*
X72198541Y-107591571D01*
X72337527Y-107799578D01*
X72514422Y-107976473D01*
X72722429Y-108115459D01*
X72953555Y-108211195D01*
X73198916Y-108260000D01*
X72953555Y-108308805D01*
X72722429Y-108404541D01*
X72514422Y-108543527D01*
X72337527Y-108720422D01*
X72198541Y-108928429D01*
X72102805Y-109159555D01*
X72054000Y-109404916D01*
X72054000Y-109655084D01*
X72102805Y-109900445D01*
X72198541Y-110131571D01*
X72337527Y-110339578D01*
X72514422Y-110516473D01*
X72722429Y-110655459D01*
X72953555Y-110751195D01*
X73198916Y-110800000D01*
X72953555Y-110848805D01*
X72722429Y-110944541D01*
X72514422Y-111083527D01*
X72337527Y-111260422D01*
X72198541Y-111468429D01*
X72102805Y-111699555D01*
X72054000Y-111944916D01*
X72054000Y-112195084D01*
X72102805Y-112440445D01*
X72198541Y-112671571D01*
X72337527Y-112879578D01*
X72514422Y-113056473D01*
X72722429Y-113195459D01*
X72953555Y-113291195D01*
X73198916Y-113340000D01*
X72953555Y-113388805D01*
X72722429Y-113484541D01*
X72514422Y-113623527D01*
X72337527Y-113800422D01*
X72198541Y-114008429D01*
X72102805Y-114239555D01*
X72054000Y-114484916D01*
X72054000Y-114735084D01*
X72102805Y-114980445D01*
X72198541Y-115211571D01*
X72337527Y-115419578D01*
X72514422Y-115596473D01*
X72722429Y-115735459D01*
X72953555Y-115831195D01*
X73189651Y-115878157D01*
X72435000Y-115878157D01*
X72360311Y-115885513D01*
X72288492Y-115907299D01*
X72222304Y-115942678D01*
X72164289Y-115990289D01*
X72116678Y-116048304D01*
X72081299Y-116114492D01*
X72059513Y-116186311D01*
X72052157Y-116261000D01*
X72052157Y-117942736D01*
X70739000Y-116629580D01*
X70739000Y-111657944D01*
X70741457Y-111633000D01*
X70737872Y-111596601D01*
X70731649Y-111533415D01*
X70702601Y-111437657D01*
X70655429Y-111349405D01*
X70591948Y-111272052D01*
X70572565Y-111256145D01*
X69194423Y-109878003D01*
X69207000Y-109814771D01*
X69207000Y-109641229D01*
X69173144Y-109471022D01*
X69106732Y-109310690D01*
X69010318Y-109166395D01*
X68887605Y-109043682D01*
X68743310Y-108947268D01*
X68582978Y-108880856D01*
X68412771Y-108847000D01*
X68239229Y-108847000D01*
X68069022Y-108880856D01*
X67908690Y-108947268D01*
X67764395Y-109043682D01*
X67641682Y-109166395D01*
X67545268Y-109310690D01*
X67478856Y-109471022D01*
X67445000Y-109641229D01*
X67445000Y-109652580D01*
X66670855Y-108878435D01*
X66654948Y-108859052D01*
X66577595Y-108795571D01*
X66489343Y-108748399D01*
X66393585Y-108719351D01*
X66318947Y-108712000D01*
X66318944Y-108712000D01*
X66294000Y-108709543D01*
X66269056Y-108712000D01*
X62696135Y-108712000D01*
X62660318Y-108658395D01*
X62537605Y-108535682D01*
X62393310Y-108439268D01*
X62232978Y-108372856D01*
X62062771Y-108339000D01*
X61889229Y-108339000D01*
X61719022Y-108372856D01*
X61558690Y-108439268D01*
X61414395Y-108535682D01*
X61291682Y-108658395D01*
X61195268Y-108802690D01*
X61128856Y-108963022D01*
X61095000Y-109133229D01*
X61095000Y-109306771D01*
X61128856Y-109476978D01*
X61195268Y-109637310D01*
X61291682Y-109781605D01*
X61414395Y-109904318D01*
X61558690Y-110000732D01*
X61719022Y-110067144D01*
X61850615Y-110093319D01*
X61765322Y-110128649D01*
X61604649Y-110236007D01*
X61468007Y-110372649D01*
X61360649Y-110533322D01*
X61286699Y-110711853D01*
X61249000Y-110901380D01*
X61249000Y-111094620D01*
X61286699Y-111284147D01*
X61360649Y-111462678D01*
X61468007Y-111623351D01*
X61604649Y-111759993D01*
X61765322Y-111867351D01*
X61943853Y-111941301D01*
X62133380Y-111979000D01*
X62326620Y-111979000D01*
X62516147Y-111941301D01*
X62694678Y-111867351D01*
X62855351Y-111759993D01*
X62991993Y-111623351D01*
X63099351Y-111462678D01*
X63173301Y-111284147D01*
X63211000Y-111094620D01*
X63211000Y-110901380D01*
X63173301Y-110711853D01*
X63099351Y-110533322D01*
X62991993Y-110372649D01*
X62855351Y-110236007D01*
X62694678Y-110128649D01*
X62516147Y-110054699D01*
X62345142Y-110020684D01*
X62393310Y-110000732D01*
X62537605Y-109904318D01*
X62660318Y-109781605D01*
X62696135Y-109728000D01*
X66083580Y-109728000D01*
X68961001Y-112605422D01*
X68961000Y-117069056D01*
X68958543Y-117094000D01*
X68961000Y-117118944D01*
X68961000Y-117118946D01*
X68968351Y-117193584D01*
X68997399Y-117289342D01*
X69044571Y-117377595D01*
X69108052Y-117454948D01*
X69127435Y-117470855D01*
X71505149Y-119848570D01*
X71521052Y-119867948D01*
X71540429Y-119883850D01*
X71598404Y-119931429D01*
X71686655Y-119978600D01*
X71686657Y-119978601D01*
X71782415Y-120007649D01*
X71857053Y-120015000D01*
X71857055Y-120015000D01*
X71881999Y-120017457D01*
X71906943Y-120015000D01*
X76497580Y-120015000D01*
X79375001Y-122892422D01*
X79375000Y-123553210D01*
X79315195Y-123613015D01*
X79235196Y-123732742D01*
X79180092Y-123865775D01*
X79152000Y-124007003D01*
X79152000Y-124150997D01*
X79180092Y-124292225D01*
X79235196Y-124425258D01*
X79315195Y-124544985D01*
X79417015Y-124646805D01*
X79536742Y-124726804D01*
X79669775Y-124781908D01*
X79811003Y-124810000D01*
X79954997Y-124810000D01*
X80096225Y-124781908D01*
X80168000Y-124752178D01*
X80168000Y-124785997D01*
X80196092Y-124927225D01*
X80251196Y-125060258D01*
X80331195Y-125179985D01*
X80433015Y-125281805D01*
X80552742Y-125361804D01*
X80685775Y-125416908D01*
X80827003Y-125445000D01*
X80970997Y-125445000D01*
X81112225Y-125416908D01*
X81245258Y-125361804D01*
X81364985Y-125281805D01*
X81466805Y-125179985D01*
X81546804Y-125060258D01*
X81601908Y-124927225D01*
X81630000Y-124785997D01*
X81630000Y-124642003D01*
X81601908Y-124500775D01*
X81546804Y-124367742D01*
X81466805Y-124248015D01*
X81407000Y-124188210D01*
X81407000Y-122833944D01*
X81409457Y-122809000D01*
X81406542Y-122779404D01*
X81399649Y-122709415D01*
X81370601Y-122613657D01*
X81323429Y-122525405D01*
X81259948Y-122448052D01*
X81240565Y-122432145D01*
X77338855Y-118530435D01*
X77322948Y-118511052D01*
X77245595Y-118447571D01*
X77157343Y-118400399D01*
X77061585Y-118371351D01*
X76986947Y-118364000D01*
X76986944Y-118364000D01*
X76962000Y-118361543D01*
X76937056Y-118364000D01*
X74413203Y-118364000D01*
X74425696Y-118357322D01*
X74483711Y-118309711D01*
X74531322Y-118251696D01*
X74566701Y-118185508D01*
X74588487Y-118113689D01*
X74595843Y-118039000D01*
X74595843Y-116261000D01*
X74588487Y-116186311D01*
X74566701Y-116114492D01*
X74531322Y-116048304D01*
X74483711Y-115990289D01*
X74425696Y-115942678D01*
X74359508Y-115907299D01*
X74287689Y-115885513D01*
X74213000Y-115878157D01*
X73458349Y-115878157D01*
X73694445Y-115831195D01*
X73925571Y-115735459D01*
X74133578Y-115596473D01*
X74310473Y-115419578D01*
X74449459Y-115211571D01*
X74545195Y-114980445D01*
X74594000Y-114735084D01*
X74594000Y-114484916D01*
X74545195Y-114239555D01*
X74449459Y-114008429D01*
X74310473Y-113800422D01*
X74133578Y-113623527D01*
X73925571Y-113484541D01*
X73694445Y-113388805D01*
X73449084Y-113340000D01*
X73694445Y-113291195D01*
X73925571Y-113195459D01*
X74133578Y-113056473D01*
X74231051Y-112959000D01*
X74536667Y-112959000D01*
X74667274Y-112946136D01*
X74834851Y-112895303D01*
X74989291Y-112812753D01*
X75124659Y-112701659D01*
X75227785Y-112576000D01*
X76170580Y-112576000D01*
X77978001Y-114383422D01*
X77978001Y-114536209D01*
X77918195Y-114596015D01*
X77838196Y-114715742D01*
X77783092Y-114848775D01*
X77755000Y-114990003D01*
X77755000Y-115133997D01*
X77783092Y-115275225D01*
X77838196Y-115408258D01*
X77918195Y-115527985D01*
X78020015Y-115629805D01*
X78139742Y-115709804D01*
X78272775Y-115764908D01*
X78414003Y-115793000D01*
X78498580Y-115793000D01*
X79152000Y-116446421D01*
X79152000Y-116530997D01*
X79180092Y-116672225D01*
X79235196Y-116805258D01*
X79315195Y-116924985D01*
X79417015Y-117026805D01*
X79536742Y-117106804D01*
X79669775Y-117161908D01*
X79811003Y-117190000D01*
X79954997Y-117190000D01*
X80096225Y-117161908D01*
X80229258Y-117106804D01*
X80348985Y-117026805D01*
X80408790Y-116967000D01*
X80561580Y-116967000D01*
X88904150Y-125309571D01*
X88920052Y-125328948D01*
X88939429Y-125344850D01*
X88997404Y-125392429D01*
X89075150Y-125433985D01*
X89085657Y-125439601D01*
X89181415Y-125468649D01*
X89256053Y-125476000D01*
X89256055Y-125476000D01*
X89280999Y-125478457D01*
X89305943Y-125476000D01*
X90025210Y-125476000D01*
X90085015Y-125535805D01*
X90204742Y-125615804D01*
X90337775Y-125670908D01*
X90479003Y-125699000D01*
X90622997Y-125699000D01*
X90764225Y-125670908D01*
X90897258Y-125615804D01*
X91016985Y-125535805D01*
X91118805Y-125433985D01*
X91198804Y-125314258D01*
X91253908Y-125181225D01*
X91282000Y-125039997D01*
X91282000Y-125020420D01*
X98933001Y-132671422D01*
X98933000Y-136126210D01*
X98873195Y-136186015D01*
X98793196Y-136305742D01*
X98738092Y-136438775D01*
X98710000Y-136580003D01*
X98710000Y-136723997D01*
X98738092Y-136865225D01*
X98793196Y-136998258D01*
X98873195Y-137117985D01*
X98975015Y-137219805D01*
X99094742Y-137299804D01*
X99227775Y-137354908D01*
X99369003Y-137383000D01*
X99512997Y-137383000D01*
X99654225Y-137354908D01*
X99787258Y-137299804D01*
X99906985Y-137219805D01*
X100008805Y-137117985D01*
X100088804Y-136998258D01*
X100143908Y-136865225D01*
X100172000Y-136723997D01*
X100172000Y-136580003D01*
X100171359Y-136576779D01*
X100234000Y-136639420D01*
X100234000Y-136723997D01*
X100262092Y-136865225D01*
X100317196Y-136998258D01*
X100397195Y-137117985D01*
X100499015Y-137219805D01*
X100618742Y-137299804D01*
X100751775Y-137354908D01*
X100893003Y-137383000D01*
X101036997Y-137383000D01*
X101178225Y-137354908D01*
X101311258Y-137299804D01*
X101430985Y-137219805D01*
X101532805Y-137117985D01*
X101612804Y-136998258D01*
X101667908Y-136865225D01*
X101696000Y-136723997D01*
X101696000Y-136580003D01*
X101695359Y-136576780D01*
X101758000Y-136639421D01*
X101758000Y-136723997D01*
X101786092Y-136865225D01*
X101841196Y-136998258D01*
X101921195Y-137117985D01*
X102023015Y-137219805D01*
X102142742Y-137299804D01*
X102275775Y-137354908D01*
X102417003Y-137383000D01*
X102560997Y-137383000D01*
X102702225Y-137354908D01*
X102835258Y-137299804D01*
X102954985Y-137219805D01*
X103056805Y-137117985D01*
X103136804Y-136998258D01*
X103191908Y-136865225D01*
X103220000Y-136723997D01*
X103220000Y-136580003D01*
X103191908Y-136438775D01*
X103136804Y-136305742D01*
X103056805Y-136186015D01*
X102954985Y-136084195D01*
X102835258Y-136004196D01*
X102702225Y-135949092D01*
X102560997Y-135921000D01*
X102476421Y-135921000D01*
X101473000Y-134917580D01*
X101473000Y-132485943D01*
X101475457Y-132460999D01*
X101473000Y-132436053D01*
X101465649Y-132361415D01*
X101436601Y-132265657D01*
X101436600Y-132265655D01*
X101389429Y-132177404D01*
X101341850Y-132119429D01*
X101325948Y-132100052D01*
X101306571Y-132084150D01*
X97949986Y-128727565D01*
X109704040Y-128727565D01*
X109771020Y-128967656D01*
X110020048Y-129084756D01*
X110287135Y-129151023D01*
X110562017Y-129163910D01*
X110834133Y-129122922D01*
X111093023Y-129029636D01*
X111208980Y-128967656D01*
X111275960Y-128727565D01*
X110490000Y-127941605D01*
X109704040Y-128727565D01*
X97949986Y-128727565D01*
X97056438Y-127834017D01*
X109088090Y-127834017D01*
X109129078Y-128106133D01*
X109222364Y-128365023D01*
X109284344Y-128480980D01*
X109524435Y-128547960D01*
X110310395Y-127762000D01*
X110669605Y-127762000D01*
X111455565Y-128547960D01*
X111695656Y-128480980D01*
X111812756Y-128231952D01*
X111879023Y-127964865D01*
X111891910Y-127689983D01*
X111850922Y-127417867D01*
X111757636Y-127158977D01*
X111695656Y-127043020D01*
X111455565Y-126976040D01*
X110669605Y-127762000D01*
X110310395Y-127762000D01*
X109524435Y-126976040D01*
X109284344Y-127043020D01*
X109167244Y-127292048D01*
X109100977Y-127559135D01*
X109088090Y-127834017D01*
X97056438Y-127834017D01*
X96018856Y-126796435D01*
X109704040Y-126796435D01*
X110490000Y-127582395D01*
X111275960Y-126796435D01*
X111208980Y-126556344D01*
X110959952Y-126439244D01*
X110692865Y-126372977D01*
X110417983Y-126360090D01*
X110145867Y-126401078D01*
X109886977Y-126494364D01*
X109771020Y-126556344D01*
X109704040Y-126796435D01*
X96018856Y-126796435D01*
X93397420Y-124175000D01*
X93416997Y-124175000D01*
X93558225Y-124146908D01*
X93691258Y-124091804D01*
X93810985Y-124011805D01*
X93912805Y-123909985D01*
X93992804Y-123790258D01*
X94047908Y-123657225D01*
X94076000Y-123515997D01*
X94076000Y-123372003D01*
X94047908Y-123230775D01*
X93992804Y-123097742D01*
X93912805Y-122978015D01*
X93853000Y-122918210D01*
X93853000Y-122198944D01*
X93855457Y-122174000D01*
X93852542Y-122144404D01*
X93845649Y-122074415D01*
X93816601Y-121978657D01*
X93769429Y-121890405D01*
X93705948Y-121813052D01*
X93686565Y-121797145D01*
X92871597Y-120982177D01*
X92923225Y-120971908D01*
X93056258Y-120916804D01*
X93175985Y-120836805D01*
X93277805Y-120734985D01*
X93357804Y-120615258D01*
X93412908Y-120482225D01*
X93441000Y-120340997D01*
X93441000Y-120197003D01*
X93412908Y-120055775D01*
X93357804Y-119922742D01*
X93277805Y-119803015D01*
X93175985Y-119701195D01*
X93056258Y-119621196D01*
X92923225Y-119566092D01*
X92781997Y-119538000D01*
X92698933Y-119538000D01*
X92689948Y-119527052D01*
X92612595Y-119463571D01*
X92524343Y-119416399D01*
X92428585Y-119387351D01*
X92353947Y-119380000D01*
X92353944Y-119380000D01*
X92329000Y-119377543D01*
X92304056Y-119380000D01*
X89745421Y-119380000D01*
X84705650Y-114340229D01*
X88781000Y-114340229D01*
X88781000Y-114513771D01*
X88814856Y-114683978D01*
X88881268Y-114844310D01*
X88977682Y-114988605D01*
X89100395Y-115111318D01*
X89244690Y-115207732D01*
X89405022Y-115274144D01*
X89575229Y-115308000D01*
X89748771Y-115308000D01*
X89918978Y-115274144D01*
X90079310Y-115207732D01*
X90107345Y-115189000D01*
X90616370Y-115189000D01*
X95412278Y-119984909D01*
X95418856Y-120017978D01*
X95485268Y-120178310D01*
X95581682Y-120322605D01*
X95704395Y-120445318D01*
X95848690Y-120541732D01*
X96009022Y-120608144D01*
X96179229Y-120642000D01*
X96352771Y-120642000D01*
X96522978Y-120608144D01*
X96683310Y-120541732D01*
X96827605Y-120445318D01*
X96950318Y-120322605D01*
X97046732Y-120178310D01*
X97113144Y-120017978D01*
X97147000Y-119847771D01*
X97147000Y-119674229D01*
X97113144Y-119504022D01*
X97046732Y-119343690D01*
X96950318Y-119199395D01*
X96827605Y-119076682D01*
X96683310Y-118980268D01*
X96522978Y-118913856D01*
X96489909Y-118907278D01*
X91497284Y-113914654D01*
X91473422Y-113885578D01*
X91357392Y-113790355D01*
X91225015Y-113719598D01*
X91081378Y-113676026D01*
X90969426Y-113665000D01*
X90969423Y-113665000D01*
X90932000Y-113661314D01*
X90894577Y-113665000D01*
X90107345Y-113665000D01*
X90079310Y-113646268D01*
X89918978Y-113579856D01*
X89748771Y-113546000D01*
X89575229Y-113546000D01*
X89405022Y-113579856D01*
X89244690Y-113646268D01*
X89100395Y-113742682D01*
X88977682Y-113865395D01*
X88881268Y-114009690D01*
X88814856Y-114170022D01*
X88781000Y-114340229D01*
X84705650Y-114340229D01*
X81280000Y-110914580D01*
X81280000Y-109895229D01*
X86114000Y-109895229D01*
X86114000Y-110068771D01*
X86147856Y-110238978D01*
X86214268Y-110399310D01*
X86310682Y-110543605D01*
X86433395Y-110666318D01*
X86577690Y-110762732D01*
X86738022Y-110829144D01*
X86908229Y-110863000D01*
X87081771Y-110863000D01*
X87251978Y-110829144D01*
X87412310Y-110762732D01*
X87440345Y-110744000D01*
X89216655Y-110744000D01*
X89244690Y-110762732D01*
X89405022Y-110829144D01*
X89575229Y-110863000D01*
X89748771Y-110863000D01*
X89918978Y-110829144D01*
X90079310Y-110762732D01*
X90223605Y-110666318D01*
X90346318Y-110543605D01*
X90442732Y-110399310D01*
X90509144Y-110238978D01*
X90543000Y-110068771D01*
X90543000Y-109895229D01*
X90509144Y-109725022D01*
X90442732Y-109564690D01*
X90346318Y-109420395D01*
X90223605Y-109297682D01*
X90079310Y-109201268D01*
X89918978Y-109134856D01*
X89748771Y-109101000D01*
X89575229Y-109101000D01*
X89405022Y-109134856D01*
X89244690Y-109201268D01*
X89216655Y-109220000D01*
X87440345Y-109220000D01*
X87412310Y-109201268D01*
X87251978Y-109134856D01*
X87081771Y-109101000D01*
X86908229Y-109101000D01*
X86738022Y-109134856D01*
X86577690Y-109201268D01*
X86433395Y-109297682D01*
X86310682Y-109420395D01*
X86214268Y-109564690D01*
X86147856Y-109725022D01*
X86114000Y-109895229D01*
X81280000Y-109895229D01*
X81280000Y-105537000D01*
X84831699Y-105537000D01*
X84848864Y-105711274D01*
X84899697Y-105878851D01*
X84982247Y-106033291D01*
X85093341Y-106168659D01*
X85228709Y-106279753D01*
X85383149Y-106362303D01*
X85550726Y-106413136D01*
X85681333Y-106426000D01*
X85681340Y-106426000D01*
X85725000Y-106430300D01*
X85768660Y-106426000D01*
X88983340Y-106426000D01*
X89027000Y-106430300D01*
X89070660Y-106426000D01*
X89070667Y-106426000D01*
X89182724Y-106414963D01*
X93950040Y-106414963D01*
X93950040Y-106558957D01*
X93978132Y-106700185D01*
X94033236Y-106833218D01*
X94113235Y-106952945D01*
X94215055Y-107054765D01*
X94334782Y-107134764D01*
X94467815Y-107189868D01*
X94609043Y-107217960D01*
X94753037Y-107217960D01*
X94894265Y-107189868D01*
X95027298Y-107134764D01*
X95147025Y-107054765D01*
X95206830Y-106994960D01*
X95481540Y-106994960D01*
X96912379Y-108425799D01*
X96896700Y-108585000D01*
X96913864Y-108759274D01*
X96964698Y-108926852D01*
X97047248Y-109081291D01*
X97130505Y-109182740D01*
X97454000Y-109506235D01*
X97454000Y-109655084D01*
X97502805Y-109900445D01*
X97598541Y-110131571D01*
X97737527Y-110339578D01*
X97914422Y-110516473D01*
X98122429Y-110655459D01*
X98353555Y-110751195D01*
X98598916Y-110800000D01*
X98353555Y-110848805D01*
X98122429Y-110944541D01*
X97914422Y-111083527D01*
X97737527Y-111260422D01*
X97598541Y-111468429D01*
X97502805Y-111699555D01*
X97454000Y-111944916D01*
X97454000Y-112195084D01*
X97502805Y-112440445D01*
X97598541Y-112671571D01*
X97737527Y-112879578D01*
X97914422Y-113056473D01*
X98122429Y-113195459D01*
X98353555Y-113291195D01*
X98598916Y-113340000D01*
X98353555Y-113388805D01*
X98122429Y-113484541D01*
X97914422Y-113623527D01*
X97737527Y-113800422D01*
X97598541Y-114008429D01*
X97502805Y-114239555D01*
X97454000Y-114484916D01*
X97454000Y-114735084D01*
X97502805Y-114980445D01*
X97598541Y-115211571D01*
X97737527Y-115419578D01*
X97914422Y-115596473D01*
X98122429Y-115735459D01*
X98353555Y-115831195D01*
X98589651Y-115878157D01*
X97835000Y-115878157D01*
X97760311Y-115885513D01*
X97688492Y-115907299D01*
X97622304Y-115942678D01*
X97564289Y-115990289D01*
X97516678Y-116048304D01*
X97481299Y-116114492D01*
X97459513Y-116186311D01*
X97452157Y-116261000D01*
X97452157Y-118039000D01*
X97459513Y-118113689D01*
X97481299Y-118185508D01*
X97516678Y-118251696D01*
X97564289Y-118309711D01*
X97622304Y-118357322D01*
X97688492Y-118392701D01*
X97760311Y-118414487D01*
X97835000Y-118421843D01*
X99613000Y-118421843D01*
X99687689Y-118414487D01*
X99759508Y-118392701D01*
X99825696Y-118357322D01*
X99883711Y-118309711D01*
X99931322Y-118251696D01*
X99966701Y-118185508D01*
X99988487Y-118113689D01*
X99995843Y-118039000D01*
X99995843Y-116261000D01*
X99988487Y-116186311D01*
X99966701Y-116114492D01*
X99931322Y-116048304D01*
X99883711Y-115990289D01*
X99825696Y-115942678D01*
X99759508Y-115907299D01*
X99687689Y-115885513D01*
X99613000Y-115878157D01*
X98858349Y-115878157D01*
X99094445Y-115831195D01*
X99325571Y-115735459D01*
X99533578Y-115596473D01*
X99710473Y-115419578D01*
X99849459Y-115211571D01*
X99945195Y-114980445D01*
X99994000Y-114735084D01*
X99994000Y-114484916D01*
X99945195Y-114239555D01*
X99849459Y-114008429D01*
X99710473Y-113800422D01*
X99533578Y-113623527D01*
X99325571Y-113484541D01*
X99094445Y-113388805D01*
X98849084Y-113340000D01*
X99094445Y-113291195D01*
X99325571Y-113195459D01*
X99533578Y-113056473D01*
X99710473Y-112879578D01*
X99849459Y-112671571D01*
X99945195Y-112440445D01*
X99994000Y-112195084D01*
X99994000Y-111944916D01*
X99945195Y-111699555D01*
X99849459Y-111468429D01*
X99710473Y-111260422D01*
X99533578Y-111083527D01*
X99325571Y-110944541D01*
X99094445Y-110848805D01*
X98849084Y-110800000D01*
X99094445Y-110751195D01*
X99325571Y-110655459D01*
X99533578Y-110516473D01*
X99710473Y-110339578D01*
X99849459Y-110131571D01*
X99945195Y-109900445D01*
X99994000Y-109655084D01*
X99994000Y-109404916D01*
X99945195Y-109159555D01*
X99849459Y-108928429D01*
X99710473Y-108720422D01*
X99533578Y-108543527D01*
X99325571Y-108404541D01*
X99094445Y-108308805D01*
X98849084Y-108260000D01*
X99094445Y-108211195D01*
X99325571Y-108115459D01*
X99533578Y-107976473D01*
X99710473Y-107799578D01*
X99849459Y-107591571D01*
X99945195Y-107360445D01*
X99994000Y-107115084D01*
X99994000Y-106864916D01*
X99945195Y-106619555D01*
X99849459Y-106388429D01*
X99710473Y-106180422D01*
X99533578Y-106003527D01*
X99325571Y-105864541D01*
X99311712Y-105858800D01*
X99371359Y-105837816D01*
X99518273Y-105759289D01*
X99600626Y-105506231D01*
X98724000Y-104629605D01*
X97847374Y-105506231D01*
X97929727Y-105759289D01*
X98136808Y-105858585D01*
X98122429Y-105864541D01*
X97914422Y-106003527D01*
X97737527Y-106180422D01*
X97598541Y-106388429D01*
X97502805Y-106619555D01*
X97454000Y-106864916D01*
X97454000Y-107115084D01*
X97502805Y-107360445D01*
X97598541Y-107591571D01*
X97673136Y-107703210D01*
X97630799Y-107707379D01*
X96068815Y-106145395D01*
X96052908Y-106126012D01*
X95975555Y-106062531D01*
X95887303Y-106015359D01*
X95791545Y-105986311D01*
X95716907Y-105978960D01*
X95716904Y-105978960D01*
X95691960Y-105976503D01*
X95667016Y-105978960D01*
X95206830Y-105978960D01*
X95147025Y-105919155D01*
X95027298Y-105839156D01*
X94894265Y-105784052D01*
X94753037Y-105755960D01*
X94609043Y-105755960D01*
X94467815Y-105784052D01*
X94334782Y-105839156D01*
X94215055Y-105919155D01*
X94113235Y-106020975D01*
X94033236Y-106140702D01*
X93978132Y-106273735D01*
X93950040Y-106414963D01*
X89182724Y-106414963D01*
X89201274Y-106413136D01*
X89368851Y-106362303D01*
X89523291Y-106279753D01*
X89658659Y-106168659D01*
X89686499Y-106134736D01*
X91304247Y-104516988D01*
X97194092Y-104516988D01*
X97236557Y-104814171D01*
X97336184Y-105097359D01*
X97414711Y-105244273D01*
X97667769Y-105326626D01*
X98544395Y-104450000D01*
X98903605Y-104450000D01*
X99780231Y-105326626D01*
X100033289Y-105244273D01*
X100163086Y-104973582D01*
X100237580Y-104682770D01*
X100253908Y-104383012D01*
X100211443Y-104085829D01*
X100111816Y-103802641D01*
X100033289Y-103655727D01*
X99780231Y-103573374D01*
X98903605Y-104450000D01*
X98544395Y-104450000D01*
X97667769Y-103573374D01*
X97414711Y-103655727D01*
X97284914Y-103926418D01*
X97210420Y-104217230D01*
X97194092Y-104516988D01*
X91304247Y-104516988D01*
X95909495Y-99911741D01*
X95992752Y-99810292D01*
X96075302Y-99655853D01*
X96126136Y-99488275D01*
X96143300Y-99314000D01*
X96126136Y-99139726D01*
X96075302Y-98972148D01*
X95992752Y-98817709D01*
X95881659Y-98682341D01*
X95746291Y-98571248D01*
X95591852Y-98488698D01*
X95424274Y-98437864D01*
X95250000Y-98420700D01*
X95075725Y-98437864D01*
X94908147Y-98488698D01*
X94753708Y-98571248D01*
X94652259Y-98654505D01*
X88658765Y-104648000D01*
X86868000Y-104648000D01*
X86868000Y-100392328D01*
X88562400Y-100392328D01*
X88562400Y-100978873D01*
X88575148Y-101108306D01*
X88625525Y-101274375D01*
X88707333Y-101427425D01*
X88817426Y-101561575D01*
X88951576Y-101671668D01*
X89104626Y-101753475D01*
X89270695Y-101803852D01*
X89443400Y-101820862D01*
X89616106Y-101803852D01*
X89782175Y-101753475D01*
X89856275Y-101713868D01*
X89922725Y-101787083D01*
X90103649Y-101921073D01*
X90307237Y-102017192D01*
X90391526Y-102029719D01*
X90566400Y-101903554D01*
X90566400Y-100812600D01*
X90820400Y-100812600D01*
X90820400Y-101903554D01*
X90995274Y-102029719D01*
X91079563Y-102017192D01*
X91283151Y-101921073D01*
X91464075Y-101787083D01*
X91615383Y-101620371D01*
X91731259Y-101427343D01*
X91807251Y-101215418D01*
X91840438Y-100992740D01*
X91676505Y-100812600D01*
X90820400Y-100812600D01*
X90566400Y-100812600D01*
X90546400Y-100812600D01*
X90546400Y-100558600D01*
X90566400Y-100558600D01*
X90566400Y-99467646D01*
X90820400Y-99467646D01*
X90820400Y-100558600D01*
X91676505Y-100558600D01*
X91840438Y-100378460D01*
X91807251Y-100155782D01*
X91731259Y-99943857D01*
X91615383Y-99750829D01*
X91464075Y-99584117D01*
X91283151Y-99450127D01*
X91079563Y-99354008D01*
X90995274Y-99341481D01*
X90820400Y-99467646D01*
X90566400Y-99467646D01*
X90391526Y-99341481D01*
X90307237Y-99354008D01*
X90103649Y-99450127D01*
X89922725Y-99584117D01*
X89856274Y-99657333D01*
X89782174Y-99617725D01*
X89616105Y-99567348D01*
X89443400Y-99550338D01*
X89270694Y-99567348D01*
X89104625Y-99617725D01*
X88951575Y-99699532D01*
X88817425Y-99809625D01*
X88707332Y-99943776D01*
X88625525Y-100096826D01*
X88575148Y-100262895D01*
X88562400Y-100392328D01*
X86868000Y-100392328D01*
X86868000Y-100317235D01*
X88035494Y-99149741D01*
X88118751Y-99048292D01*
X88201302Y-98893853D01*
X88252136Y-98726276D01*
X88269300Y-98552001D01*
X88252136Y-98377726D01*
X88201302Y-98210149D01*
X88118751Y-98055709D01*
X88007658Y-97920342D01*
X87872291Y-97809249D01*
X87717851Y-97726698D01*
X87550274Y-97675864D01*
X87375999Y-97658700D01*
X87201724Y-97675864D01*
X87034147Y-97726698D01*
X86879708Y-97809249D01*
X86778259Y-97892506D01*
X85381259Y-99289506D01*
X85347342Y-99317341D01*
X85319507Y-99351258D01*
X85319505Y-99351260D01*
X85236248Y-99452709D01*
X85153698Y-99607148D01*
X85102864Y-99774726D01*
X85085700Y-99949000D01*
X85090001Y-99992670D01*
X85090000Y-104909412D01*
X84982247Y-105040709D01*
X84899697Y-105195149D01*
X84848864Y-105362726D01*
X84831699Y-105537000D01*
X81280000Y-105537000D01*
X81280000Y-105399590D01*
X81364985Y-105342805D01*
X81466805Y-105240985D01*
X81546804Y-105121258D01*
X81601908Y-104988225D01*
X81630000Y-104846997D01*
X81630000Y-104703003D01*
X81601908Y-104561775D01*
X81546804Y-104428742D01*
X81466805Y-104309015D01*
X81364985Y-104207195D01*
X81245258Y-104127196D01*
X81112225Y-104072092D01*
X80970997Y-104044000D01*
X80827003Y-104044000D01*
X80685775Y-104072092D01*
X80645000Y-104088982D01*
X80645000Y-101302420D01*
X82383565Y-99563855D01*
X82402948Y-99547948D01*
X82466429Y-99470595D01*
X82513601Y-99382343D01*
X82542649Y-99286585D01*
X82550000Y-99211947D01*
X82550000Y-99211944D01*
X82552457Y-99187000D01*
X82550000Y-99162056D01*
X82550000Y-98442790D01*
X82609805Y-98382985D01*
X82689804Y-98263258D01*
X82744908Y-98130225D01*
X82773000Y-97988997D01*
X82773000Y-97845003D01*
X82744908Y-97703775D01*
X82689804Y-97570742D01*
X82609805Y-97451015D01*
X82507985Y-97349195D01*
X82388258Y-97269196D01*
X82255225Y-97214092D01*
X82113997Y-97186000D01*
X81970003Y-97186000D01*
X81828775Y-97214092D01*
X81695742Y-97269196D01*
X81576015Y-97349195D01*
X81474195Y-97451015D01*
X81394196Y-97570742D01*
X81339092Y-97703775D01*
X81311000Y-97845003D01*
X81311000Y-97988997D01*
X81339092Y-98130225D01*
X81346209Y-98147406D01*
X81239225Y-98103092D01*
X81097997Y-98075000D01*
X80954003Y-98075000D01*
X80812775Y-98103092D01*
X80679742Y-98158196D01*
X80560015Y-98238195D01*
X80458195Y-98340015D01*
X80378196Y-98459742D01*
X80323092Y-98592775D01*
X80295000Y-98734003D01*
X80295000Y-98818579D01*
X79287430Y-99826150D01*
X79268053Y-99842052D01*
X79252151Y-99861429D01*
X79252150Y-99861430D01*
X79204571Y-99919405D01*
X79160053Y-100002693D01*
X79157400Y-100007657D01*
X79152437Y-100024017D01*
X78571466Y-99443046D01*
X78553908Y-99354775D01*
X78498804Y-99221742D01*
X78418805Y-99102015D01*
X78316985Y-99000195D01*
X78197258Y-98920196D01*
X78064225Y-98865092D01*
X77922997Y-98837000D01*
X77779003Y-98837000D01*
X77637775Y-98865092D01*
X77504742Y-98920196D01*
X77385015Y-99000195D01*
X77283195Y-99102015D01*
X77203196Y-99221742D01*
X77148092Y-99354775D01*
X77120000Y-99496003D01*
X77120000Y-99639997D01*
X77148092Y-99781225D01*
X77203196Y-99914258D01*
X77283195Y-100033985D01*
X77325210Y-100076000D01*
X77283195Y-100118015D01*
X77203196Y-100237742D01*
X77148092Y-100370775D01*
X77120000Y-100512003D01*
X77120000Y-100655997D01*
X77148092Y-100797225D01*
X77203196Y-100930258D01*
X77283195Y-101049985D01*
X77325210Y-101092000D01*
X77283195Y-101134015D01*
X77203196Y-101253742D01*
X77148092Y-101386775D01*
X77120000Y-101528003D01*
X77120000Y-101671997D01*
X77148092Y-101813225D01*
X77203196Y-101946258D01*
X77283195Y-102065985D01*
X77385015Y-102167805D01*
X77504742Y-102247804D01*
X77597001Y-102286019D01*
X77597000Y-111803580D01*
X75482621Y-109689201D01*
X75498301Y-109530000D01*
X75481136Y-109355726D01*
X75430303Y-109188149D01*
X75347753Y-109033709D01*
X75236659Y-108898341D01*
X75101291Y-108787247D01*
X74946851Y-108704697D01*
X74779274Y-108653864D01*
X74648667Y-108641000D01*
X74231051Y-108641000D01*
X74133578Y-108543527D01*
X73925571Y-108404541D01*
X73694445Y-108308805D01*
X73449084Y-108260000D01*
X73694445Y-108211195D01*
X73925571Y-108115459D01*
X74133578Y-107976473D01*
X74310473Y-107799578D01*
X74449459Y-107591571D01*
X74545195Y-107360445D01*
X74594000Y-107115084D01*
X74594000Y-106864916D01*
X74545195Y-106619555D01*
X74449459Y-106388429D01*
X74310473Y-106180422D01*
X74133578Y-106003527D01*
X73925571Y-105864541D01*
X73694445Y-105768805D01*
X73449084Y-105720000D01*
X73694445Y-105671195D01*
X73925571Y-105575459D01*
X74133578Y-105436473D01*
X74310473Y-105259578D01*
X74449459Y-105051571D01*
X74545195Y-104820445D01*
X74594000Y-104575084D01*
X74594000Y-104324916D01*
X74545195Y-104079555D01*
X74449459Y-103848429D01*
X74310473Y-103640422D01*
X74133578Y-103463527D01*
X73925571Y-103324541D01*
X73694445Y-103228805D01*
X73449084Y-103180000D01*
X73694445Y-103131195D01*
X73925571Y-103035459D01*
X74133578Y-102896473D01*
X74310473Y-102719578D01*
X74449459Y-102511571D01*
X74545195Y-102280445D01*
X74594000Y-102035084D01*
X74594000Y-101784916D01*
X74582837Y-101728794D01*
X75311001Y-101000630D01*
X75311000Y-105646210D01*
X75251195Y-105706015D01*
X75171196Y-105825742D01*
X75116092Y-105958775D01*
X75088000Y-106100003D01*
X75088000Y-106243997D01*
X75116092Y-106385225D01*
X75171196Y-106518258D01*
X75251195Y-106637985D01*
X75353015Y-106739805D01*
X75472742Y-106819804D01*
X75605775Y-106874908D01*
X75747003Y-106903000D01*
X75850000Y-106903000D01*
X75850000Y-107005997D01*
X75878092Y-107147225D01*
X75933196Y-107280258D01*
X76013195Y-107399985D01*
X76115015Y-107501805D01*
X76234742Y-107581804D01*
X76367775Y-107636908D01*
X76509003Y-107665000D01*
X76652997Y-107665000D01*
X76794225Y-107636908D01*
X76927258Y-107581804D01*
X77046985Y-107501805D01*
X77148805Y-107399985D01*
X77228804Y-107280258D01*
X77283908Y-107147225D01*
X77312000Y-107005997D01*
X77312000Y-106862003D01*
X77283908Y-106720775D01*
X77228804Y-106587742D01*
X77148805Y-106468015D01*
X77089000Y-106408210D01*
X77089000Y-105434943D01*
X77091457Y-105409999D01*
X77086801Y-105362726D01*
X77081649Y-105310415D01*
X77052601Y-105214657D01*
X77005429Y-105126405D01*
X76941948Y-105049052D01*
X76922565Y-105033145D01*
X76835000Y-104945580D01*
X76835000Y-99016420D01*
X77557565Y-98293855D01*
X77576948Y-98277948D01*
X77640429Y-98200595D01*
X77687601Y-98112343D01*
X77716649Y-98016585D01*
X77724000Y-97941947D01*
X77724000Y-97941944D01*
X77726457Y-97917000D01*
X77724000Y-97892053D01*
X77724000Y-97426790D01*
X77783805Y-97366985D01*
X77863804Y-97247258D01*
X77918908Y-97114225D01*
X77947000Y-96972997D01*
X77947000Y-96829003D01*
X77918908Y-96687775D01*
X77863804Y-96554742D01*
X77789675Y-96443800D01*
X91429170Y-96443800D01*
X91440001Y-96454631D01*
X91440000Y-97323264D01*
X91437022Y-97323856D01*
X91276690Y-97390268D01*
X91132395Y-97486682D01*
X91009682Y-97609395D01*
X90913268Y-97753690D01*
X90846856Y-97914022D01*
X90813000Y-98084229D01*
X90813000Y-98257771D01*
X90846856Y-98427978D01*
X90913268Y-98588310D01*
X91009682Y-98732605D01*
X91132395Y-98855318D01*
X91276690Y-98951732D01*
X91437022Y-99018144D01*
X91607229Y-99052000D01*
X91780771Y-99052000D01*
X91950978Y-99018144D01*
X92111310Y-98951732D01*
X92255605Y-98855318D01*
X92378318Y-98732605D01*
X92474732Y-98588310D01*
X92541144Y-98427978D01*
X92547722Y-98394908D01*
X92714347Y-98228283D01*
X92743422Y-98204422D01*
X92838645Y-98088392D01*
X92909402Y-97956015D01*
X92952974Y-97812378D01*
X92964000Y-97700426D01*
X92964000Y-97700417D01*
X92967685Y-97663001D01*
X92964000Y-97625585D01*
X92964000Y-96176422D01*
X92967686Y-96138999D01*
X92962589Y-96087247D01*
X92952974Y-95989622D01*
X92909402Y-95845985D01*
X92901488Y-95831178D01*
X92858173Y-95750143D01*
X92838645Y-95713608D01*
X92743422Y-95597578D01*
X92714346Y-95573716D01*
X92606530Y-95465900D01*
X96452362Y-95465900D01*
X96922551Y-95936089D01*
X96913864Y-95964726D01*
X96896700Y-96139000D01*
X96913864Y-96313274D01*
X96964698Y-96480852D01*
X97047248Y-96635291D01*
X97130505Y-96736740D01*
X97480109Y-97086345D01*
X97502805Y-97200445D01*
X97598541Y-97431571D01*
X97737527Y-97639578D01*
X97914422Y-97816473D01*
X98122429Y-97955459D01*
X98353555Y-98051195D01*
X98598916Y-98100000D01*
X98353555Y-98148805D01*
X98122429Y-98244541D01*
X97914422Y-98383527D01*
X97737527Y-98560422D01*
X97598541Y-98768429D01*
X97502805Y-98999555D01*
X97454000Y-99244916D01*
X97454000Y-99495084D01*
X97502805Y-99740445D01*
X97598541Y-99971571D01*
X97737527Y-100179578D01*
X97914422Y-100356473D01*
X98122429Y-100495459D01*
X98353555Y-100591195D01*
X98598916Y-100640000D01*
X98353555Y-100688805D01*
X98122429Y-100784541D01*
X97914422Y-100923527D01*
X97737527Y-101100422D01*
X97598541Y-101308429D01*
X97502805Y-101539555D01*
X97454000Y-101784916D01*
X97454000Y-102035084D01*
X97502805Y-102280445D01*
X97598541Y-102511571D01*
X97737527Y-102719578D01*
X97914422Y-102896473D01*
X98122429Y-103035459D01*
X98136288Y-103041200D01*
X98076641Y-103062184D01*
X97929727Y-103140711D01*
X97847374Y-103393769D01*
X98724000Y-104270395D01*
X99600626Y-103393769D01*
X99518273Y-103140711D01*
X99311192Y-103041415D01*
X99325571Y-103035459D01*
X99533578Y-102896473D01*
X99710473Y-102719578D01*
X99849459Y-102511571D01*
X99945195Y-102280445D01*
X99994000Y-102035084D01*
X99994000Y-101784916D01*
X99945195Y-101539555D01*
X99849459Y-101308429D01*
X99710473Y-101100422D01*
X99533578Y-100923527D01*
X99325571Y-100784541D01*
X99094445Y-100688805D01*
X98849084Y-100640000D01*
X99094445Y-100591195D01*
X99325571Y-100495459D01*
X99533578Y-100356473D01*
X99710473Y-100179578D01*
X99849459Y-99971571D01*
X99945195Y-99740445D01*
X99994000Y-99495084D01*
X99994000Y-99244916D01*
X99945195Y-98999555D01*
X99849459Y-98768429D01*
X99710473Y-98560422D01*
X99533578Y-98383527D01*
X99325571Y-98244541D01*
X99094445Y-98148805D01*
X98849084Y-98100000D01*
X99094445Y-98051195D01*
X99325571Y-97955459D01*
X99533578Y-97816473D01*
X99710473Y-97639578D01*
X99849459Y-97431571D01*
X99945195Y-97200445D01*
X99994000Y-96955084D01*
X99994000Y-96704916D01*
X99945195Y-96459555D01*
X99849459Y-96228429D01*
X99710473Y-96020422D01*
X99533578Y-95843527D01*
X99325571Y-95704541D01*
X99094445Y-95608805D01*
X98849084Y-95560000D01*
X99094445Y-95511195D01*
X99325571Y-95415459D01*
X99533578Y-95276473D01*
X99710473Y-95099578D01*
X99849459Y-94891571D01*
X99945195Y-94660445D01*
X99987100Y-94449772D01*
X99987100Y-94718923D01*
X99984827Y-94742000D01*
X99993900Y-94834116D01*
X99996166Y-94841585D01*
X100020769Y-94922692D01*
X100064402Y-95004325D01*
X100123123Y-95075877D01*
X100141057Y-95090595D01*
X103376243Y-98325782D01*
X103236576Y-98298000D01*
X103011424Y-98298000D01*
X102790599Y-98341925D01*
X102582587Y-98428087D01*
X102395380Y-98553174D01*
X102236174Y-98712380D01*
X102111087Y-98899587D01*
X102024925Y-99107599D01*
X101981000Y-99328424D01*
X101981000Y-99553576D01*
X102024925Y-99774401D01*
X102111087Y-99982413D01*
X102236174Y-100169620D01*
X102362000Y-100295446D01*
X102362001Y-101187808D01*
X102362000Y-101823574D01*
X102345289Y-101837289D01*
X102297678Y-101895304D01*
X102262299Y-101961492D01*
X102240513Y-102033311D01*
X102233157Y-102108000D01*
X102233157Y-102616000D01*
X102240513Y-102690689D01*
X102256381Y-102743000D01*
X102240513Y-102795311D01*
X102233157Y-102870000D01*
X102233157Y-103378000D01*
X102240513Y-103452689D01*
X102262299Y-103524508D01*
X102297678Y-103590696D01*
X102345289Y-103648711D01*
X102355593Y-103657168D01*
X102349196Y-103666742D01*
X102294092Y-103799775D01*
X102266000Y-103941003D01*
X102266000Y-104084997D01*
X102294092Y-104226225D01*
X102349196Y-104359258D01*
X102429195Y-104478985D01*
X102531015Y-104580805D01*
X102650742Y-104660804D01*
X102783775Y-104715908D01*
X102925003Y-104744000D01*
X103068997Y-104744000D01*
X103210225Y-104715908D01*
X103343258Y-104660804D01*
X103462985Y-104580805D01*
X103564805Y-104478985D01*
X103644804Y-104359258D01*
X103699908Y-104226225D01*
X103728000Y-104084997D01*
X103728000Y-103941003D01*
X103699908Y-103799775D01*
X103644804Y-103666742D01*
X103638407Y-103657168D01*
X103648711Y-103648711D01*
X103696322Y-103590696D01*
X103731701Y-103524508D01*
X103753487Y-103452689D01*
X103760843Y-103378000D01*
X103760843Y-102870000D01*
X103753487Y-102795311D01*
X103737619Y-102743000D01*
X103753487Y-102690689D01*
X103760843Y-102616000D01*
X103760843Y-102108000D01*
X103753487Y-102033311D01*
X103731701Y-101961492D01*
X103696322Y-101895304D01*
X103648711Y-101837289D01*
X103632000Y-101823575D01*
X103632000Y-100467753D01*
X103665413Y-100453913D01*
X103797100Y-100365923D01*
X103797100Y-100560923D01*
X103794827Y-100584000D01*
X103803900Y-100676116D01*
X103807749Y-100688805D01*
X103830769Y-100764692D01*
X103874402Y-100846325D01*
X103933123Y-100917877D01*
X103951057Y-100932595D01*
X104553409Y-101534948D01*
X104568123Y-101552877D01*
X104639675Y-101611598D01*
X104699227Y-101643429D01*
X104721307Y-101655231D01*
X104809883Y-101682100D01*
X104902000Y-101691173D01*
X104925077Y-101688900D01*
X108688923Y-101688900D01*
X108712000Y-101691173D01*
X108735077Y-101688900D01*
X108804116Y-101682100D01*
X108892693Y-101655231D01*
X108974325Y-101611598D01*
X109045877Y-101552877D01*
X109060595Y-101534943D01*
X109427338Y-101168200D01*
X112522000Y-101168200D01*
X112522001Y-141732000D01*
X108403364Y-141732000D01*
X108920450Y-141629145D01*
X109525925Y-141378349D01*
X110070839Y-141014250D01*
X110534250Y-140550839D01*
X110898349Y-140005925D01*
X111149145Y-139400450D01*
X111277000Y-138757681D01*
X111277000Y-138102319D01*
X111149145Y-137459550D01*
X110898349Y-136854075D01*
X110534250Y-136309161D01*
X110070839Y-135845750D01*
X109525925Y-135481651D01*
X108920450Y-135230855D01*
X108277681Y-135103000D01*
X107622319Y-135103000D01*
X106979550Y-135230855D01*
X106374075Y-135481651D01*
X105829161Y-135845750D01*
X105365750Y-136309161D01*
X105001651Y-136854075D01*
X104750855Y-137459550D01*
X104623000Y-138102319D01*
X104623000Y-138757681D01*
X104750855Y-139400450D01*
X105001651Y-140005925D01*
X105365750Y-140550839D01*
X105829161Y-141014250D01*
X106374075Y-141378349D01*
X106979550Y-141629145D01*
X107496636Y-141732000D01*
X60143364Y-141732000D01*
X60660450Y-141629145D01*
X61265925Y-141378349D01*
X61810839Y-141014250D01*
X62274250Y-140550839D01*
X62638349Y-140005925D01*
X62889145Y-139400450D01*
X63017000Y-138757681D01*
X63017000Y-138102319D01*
X62903159Y-137530000D01*
X64757157Y-137530000D01*
X64757157Y-139330000D01*
X64764513Y-139404689D01*
X64786299Y-139476508D01*
X64821678Y-139542696D01*
X64869289Y-139600711D01*
X64927304Y-139648322D01*
X64993492Y-139683701D01*
X65065311Y-139705487D01*
X65140000Y-139712843D01*
X66940000Y-139712843D01*
X67014689Y-139705487D01*
X67086508Y-139683701D01*
X67152696Y-139648322D01*
X67210711Y-139600711D01*
X67258322Y-139542696D01*
X67293701Y-139476508D01*
X67315487Y-139404689D01*
X67322843Y-139330000D01*
X67322843Y-138676034D01*
X67348228Y-138803654D01*
X67444793Y-139036781D01*
X67584982Y-139246590D01*
X67763410Y-139425018D01*
X67973219Y-139565207D01*
X68206346Y-139661772D01*
X68453833Y-139711000D01*
X68706167Y-139711000D01*
X68953654Y-139661772D01*
X69186781Y-139565207D01*
X69396590Y-139425018D01*
X69575018Y-139246590D01*
X69715207Y-139036781D01*
X69811772Y-138803654D01*
X69861000Y-138556167D01*
X69861000Y-138303833D01*
X69811772Y-138056346D01*
X69715207Y-137823219D01*
X69575018Y-137613410D01*
X69502608Y-137541000D01*
X72388157Y-137541000D01*
X72388157Y-139319000D01*
X72395513Y-139393689D01*
X72417299Y-139465508D01*
X72452678Y-139531696D01*
X72500289Y-139589711D01*
X72558304Y-139637322D01*
X72624492Y-139672701D01*
X72696311Y-139694487D01*
X72771000Y-139701843D01*
X74549000Y-139701843D01*
X74623689Y-139694487D01*
X74695508Y-139672701D01*
X74761696Y-139637322D01*
X74819711Y-139589711D01*
X74867322Y-139531696D01*
X74891624Y-139486231D01*
X75323374Y-139486231D01*
X75405727Y-139739289D01*
X75676418Y-139869086D01*
X75967230Y-139943580D01*
X76266988Y-139959908D01*
X76564171Y-139917443D01*
X76847359Y-139817816D01*
X76994273Y-139739289D01*
X77076626Y-139486231D01*
X76200000Y-138609605D01*
X75323374Y-139486231D01*
X74891624Y-139486231D01*
X74902701Y-139465508D01*
X74924487Y-139393689D01*
X74931843Y-139319000D01*
X74931843Y-139237659D01*
X75143769Y-139306626D01*
X76020395Y-138430000D01*
X76379605Y-138430000D01*
X77256231Y-139306626D01*
X77509289Y-139224273D01*
X77608585Y-139017192D01*
X77614541Y-139031571D01*
X77753527Y-139239578D01*
X77930422Y-139416473D01*
X78138429Y-139555459D01*
X78369555Y-139651195D01*
X78614916Y-139700000D01*
X78865084Y-139700000D01*
X79110445Y-139651195D01*
X79341571Y-139555459D01*
X79549578Y-139416473D01*
X79726473Y-139239578D01*
X79865459Y-139031571D01*
X79961195Y-138800445D01*
X80010000Y-138555084D01*
X80058805Y-138800445D01*
X80154541Y-139031571D01*
X80293527Y-139239578D01*
X80470422Y-139416473D01*
X80678429Y-139555459D01*
X80909555Y-139651195D01*
X81154916Y-139700000D01*
X81405084Y-139700000D01*
X81650445Y-139651195D01*
X81881571Y-139555459D01*
X82089578Y-139416473D01*
X82266473Y-139239578D01*
X82405459Y-139031571D01*
X82501195Y-138800445D01*
X82550000Y-138555084D01*
X82598805Y-138800445D01*
X82694541Y-139031571D01*
X82833527Y-139239578D01*
X83010422Y-139416473D01*
X83218429Y-139555459D01*
X83449555Y-139651195D01*
X83694916Y-139700000D01*
X83945084Y-139700000D01*
X84190445Y-139651195D01*
X84421571Y-139555459D01*
X84629578Y-139416473D01*
X84806473Y-139239578D01*
X84945459Y-139031571D01*
X85041195Y-138800445D01*
X85090000Y-138555084D01*
X85138805Y-138800445D01*
X85234541Y-139031571D01*
X85373527Y-139239578D01*
X85550422Y-139416473D01*
X85758429Y-139555459D01*
X85989555Y-139651195D01*
X86234916Y-139700000D01*
X86485084Y-139700000D01*
X86730445Y-139651195D01*
X86961571Y-139555459D01*
X87169578Y-139416473D01*
X87346473Y-139239578D01*
X87485459Y-139031571D01*
X87581195Y-138800445D01*
X87630000Y-138555084D01*
X87678805Y-138800445D01*
X87774541Y-139031571D01*
X87913527Y-139239578D01*
X88090422Y-139416473D01*
X88298429Y-139555459D01*
X88529555Y-139651195D01*
X88774916Y-139700000D01*
X89025084Y-139700000D01*
X89270445Y-139651195D01*
X89501571Y-139555459D01*
X89709578Y-139416473D01*
X89886473Y-139239578D01*
X90025459Y-139031571D01*
X90121195Y-138800445D01*
X90170000Y-138555084D01*
X90218805Y-138800445D01*
X90314541Y-139031571D01*
X90453527Y-139239578D01*
X90630422Y-139416473D01*
X90838429Y-139555459D01*
X91069555Y-139651195D01*
X91314916Y-139700000D01*
X91565084Y-139700000D01*
X91810445Y-139651195D01*
X92041571Y-139555459D01*
X92249578Y-139416473D01*
X92426473Y-139239578D01*
X92565459Y-139031571D01*
X92661195Y-138800445D01*
X92710000Y-138555084D01*
X92758805Y-138800445D01*
X92854541Y-139031571D01*
X92993527Y-139239578D01*
X93170422Y-139416473D01*
X93378429Y-139555459D01*
X93609555Y-139651195D01*
X93854916Y-139700000D01*
X94105084Y-139700000D01*
X94350445Y-139651195D01*
X94581571Y-139555459D01*
X94685177Y-139486231D01*
X95643374Y-139486231D01*
X95725727Y-139739289D01*
X95996418Y-139869086D01*
X96287230Y-139943580D01*
X96586988Y-139959908D01*
X96884171Y-139917443D01*
X97167359Y-139817816D01*
X97314273Y-139739289D01*
X97396626Y-139486231D01*
X96520000Y-138609605D01*
X95643374Y-139486231D01*
X94685177Y-139486231D01*
X94789578Y-139416473D01*
X94966473Y-139239578D01*
X95105459Y-139031571D01*
X95111200Y-139017712D01*
X95132184Y-139077359D01*
X95210711Y-139224273D01*
X95463769Y-139306626D01*
X96340395Y-138430000D01*
X96699605Y-138430000D01*
X97576231Y-139306626D01*
X97829289Y-139224273D01*
X97959086Y-138953582D01*
X98033580Y-138662770D01*
X98049908Y-138363012D01*
X98007443Y-138065829D01*
X97907816Y-137782641D01*
X97829289Y-137635727D01*
X97576231Y-137553374D01*
X96699605Y-138430000D01*
X96340395Y-138430000D01*
X95463769Y-137553374D01*
X95210711Y-137635727D01*
X95111415Y-137842808D01*
X95105459Y-137828429D01*
X94966473Y-137620422D01*
X94789578Y-137443527D01*
X94685178Y-137373769D01*
X95643374Y-137373769D01*
X96520000Y-138250395D01*
X97396626Y-137373769D01*
X97314273Y-137120711D01*
X97043582Y-136990914D01*
X96752770Y-136916420D01*
X96453012Y-136900092D01*
X96155829Y-136942557D01*
X95872641Y-137042184D01*
X95725727Y-137120711D01*
X95643374Y-137373769D01*
X94685178Y-137373769D01*
X94581571Y-137304541D01*
X94350445Y-137208805D01*
X94105084Y-137160000D01*
X93854916Y-137160000D01*
X93609555Y-137208805D01*
X93378429Y-137304541D01*
X93170422Y-137443527D01*
X92993527Y-137620422D01*
X92854541Y-137828429D01*
X92758805Y-138059555D01*
X92710000Y-138304916D01*
X92661195Y-138059555D01*
X92565459Y-137828429D01*
X92426473Y-137620422D01*
X92249578Y-137443527D01*
X92041571Y-137304541D01*
X91810445Y-137208805D01*
X91565084Y-137160000D01*
X91314916Y-137160000D01*
X91069555Y-137208805D01*
X90838429Y-137304541D01*
X90630422Y-137443527D01*
X90453527Y-137620422D01*
X90314541Y-137828429D01*
X90218805Y-138059555D01*
X90170000Y-138304916D01*
X90121195Y-138059555D01*
X90025459Y-137828429D01*
X89886473Y-137620422D01*
X89709578Y-137443527D01*
X89501571Y-137304541D01*
X89270445Y-137208805D01*
X89025084Y-137160000D01*
X88774916Y-137160000D01*
X88529555Y-137208805D01*
X88298429Y-137304541D01*
X88090422Y-137443527D01*
X87913527Y-137620422D01*
X87774541Y-137828429D01*
X87678805Y-138059555D01*
X87630000Y-138304916D01*
X87581195Y-138059555D01*
X87485459Y-137828429D01*
X87346473Y-137620422D01*
X87169578Y-137443527D01*
X86961571Y-137304541D01*
X86730445Y-137208805D01*
X86485084Y-137160000D01*
X86234916Y-137160000D01*
X85989555Y-137208805D01*
X85758429Y-137304541D01*
X85550422Y-137443527D01*
X85373527Y-137620422D01*
X85234541Y-137828429D01*
X85138805Y-138059555D01*
X85090000Y-138304916D01*
X85041195Y-138059555D01*
X84945459Y-137828429D01*
X84806473Y-137620422D01*
X84629578Y-137443527D01*
X84421571Y-137304541D01*
X84190445Y-137208805D01*
X83945084Y-137160000D01*
X83694916Y-137160000D01*
X83449555Y-137208805D01*
X83218429Y-137304541D01*
X83010422Y-137443527D01*
X82833527Y-137620422D01*
X82694541Y-137828429D01*
X82598805Y-138059555D01*
X82550000Y-138304916D01*
X82501195Y-138059555D01*
X82405459Y-137828429D01*
X82266473Y-137620422D01*
X82089578Y-137443527D01*
X81881571Y-137304541D01*
X81650445Y-137208805D01*
X81405084Y-137160000D01*
X81154916Y-137160000D01*
X80909555Y-137208805D01*
X80678429Y-137304541D01*
X80470422Y-137443527D01*
X80293527Y-137620422D01*
X80154541Y-137828429D01*
X80058805Y-138059555D01*
X80010000Y-138304916D01*
X79961195Y-138059555D01*
X79865459Y-137828429D01*
X79726473Y-137620422D01*
X79549578Y-137443527D01*
X79341571Y-137304541D01*
X79110445Y-137208805D01*
X78865084Y-137160000D01*
X78614916Y-137160000D01*
X78369555Y-137208805D01*
X78138429Y-137304541D01*
X77930422Y-137443527D01*
X77753527Y-137620422D01*
X77614541Y-137828429D01*
X77608800Y-137842288D01*
X77587816Y-137782641D01*
X77509289Y-137635727D01*
X77256231Y-137553374D01*
X76379605Y-138430000D01*
X76020395Y-138430000D01*
X75143769Y-137553374D01*
X74931843Y-137622341D01*
X74931843Y-137541000D01*
X74924487Y-137466311D01*
X74902701Y-137394492D01*
X74891625Y-137373769D01*
X75323374Y-137373769D01*
X76200000Y-138250395D01*
X77076626Y-137373769D01*
X76994273Y-137120711D01*
X76723582Y-136990914D01*
X76432770Y-136916420D01*
X76133012Y-136900092D01*
X75835829Y-136942557D01*
X75552641Y-137042184D01*
X75405727Y-137120711D01*
X75323374Y-137373769D01*
X74891625Y-137373769D01*
X74867322Y-137328304D01*
X74819711Y-137270289D01*
X74761696Y-137222678D01*
X74695508Y-137187299D01*
X74623689Y-137165513D01*
X74549000Y-137158157D01*
X74549000Y-136100333D01*
X74536136Y-135969726D01*
X74485303Y-135802149D01*
X74422000Y-135683718D01*
X74422000Y-122403923D01*
X74471318Y-122354605D01*
X74567732Y-122210310D01*
X74634144Y-122049978D01*
X74668000Y-121879771D01*
X74668000Y-121706229D01*
X74634144Y-121536022D01*
X74567732Y-121375690D01*
X74471318Y-121231395D01*
X74348605Y-121108682D01*
X74204310Y-121012268D01*
X74043978Y-120945856D01*
X73873771Y-120912000D01*
X73700229Y-120912000D01*
X73530022Y-120945856D01*
X73369690Y-121012268D01*
X73225395Y-121108682D01*
X73102682Y-121231395D01*
X73006268Y-121375690D01*
X72939856Y-121536022D01*
X72906000Y-121706229D01*
X72906000Y-121801347D01*
X72898276Y-121879771D01*
X72894314Y-121920000D01*
X72898000Y-121957423D01*
X72898001Y-135683717D01*
X72834697Y-135802150D01*
X72783864Y-135969727D01*
X72771000Y-136100334D01*
X72771000Y-137158157D01*
X72696311Y-137165513D01*
X72624492Y-137187299D01*
X72558304Y-137222678D01*
X72500289Y-137270289D01*
X72452678Y-137328304D01*
X72417299Y-137394492D01*
X72395513Y-137466311D01*
X72388157Y-137541000D01*
X69502608Y-137541000D01*
X69396590Y-137434982D01*
X69186781Y-137294793D01*
X68953654Y-137198228D01*
X68706167Y-137149000D01*
X68453833Y-137149000D01*
X68206346Y-137198228D01*
X67973219Y-137294793D01*
X67763410Y-137434982D01*
X67584982Y-137613410D01*
X67444793Y-137823219D01*
X67348228Y-138056346D01*
X67322843Y-138183966D01*
X67322843Y-137530000D01*
X67315487Y-137455311D01*
X67293701Y-137383492D01*
X67258322Y-137317304D01*
X67210711Y-137259289D01*
X67152696Y-137211678D01*
X67086508Y-137176299D01*
X67014689Y-137154513D01*
X66940000Y-137147157D01*
X65140000Y-137147157D01*
X65065311Y-137154513D01*
X64993492Y-137176299D01*
X64927304Y-137211678D01*
X64869289Y-137259289D01*
X64821678Y-137317304D01*
X64786299Y-137383492D01*
X64764513Y-137455311D01*
X64757157Y-137530000D01*
X62903159Y-137530000D01*
X62889145Y-137459550D01*
X62638349Y-136854075D01*
X62274250Y-136309161D01*
X61810839Y-135845750D01*
X61265925Y-135481651D01*
X60660450Y-135230855D01*
X60017681Y-135103000D01*
X59362319Y-135103000D01*
X58719550Y-135230855D01*
X58114075Y-135481651D01*
X57569161Y-135845750D01*
X57105750Y-136309161D01*
X56741651Y-136854075D01*
X56490855Y-137459550D01*
X56363000Y-138102319D01*
X56363000Y-138757681D01*
X56490855Y-139400450D01*
X56741651Y-140005925D01*
X57105750Y-140550839D01*
X57569161Y-141014250D01*
X58114075Y-141378349D01*
X58719550Y-141629145D01*
X59236636Y-141732000D01*
X55118000Y-141732000D01*
X55118000Y-127000000D01*
X56005157Y-127000000D01*
X56005157Y-128524000D01*
X56012513Y-128598689D01*
X56034299Y-128670508D01*
X56069678Y-128736696D01*
X56117289Y-128794711D01*
X56175304Y-128842322D01*
X56241492Y-128877701D01*
X56313311Y-128899487D01*
X56388000Y-128906843D01*
X57912000Y-128906843D01*
X57986689Y-128899487D01*
X58058508Y-128877701D01*
X58124696Y-128842322D01*
X58182711Y-128794711D01*
X58230322Y-128736696D01*
X58265701Y-128670508D01*
X58287487Y-128598689D01*
X58294843Y-128524000D01*
X58294843Y-127000000D01*
X58325157Y-127000000D01*
X58325157Y-128524000D01*
X58332513Y-128598689D01*
X58354299Y-128670508D01*
X58389678Y-128736696D01*
X58437289Y-128794711D01*
X58495304Y-128842322D01*
X58561492Y-128877701D01*
X58633311Y-128899487D01*
X58708000Y-128906843D01*
X60232000Y-128906843D01*
X60306689Y-128899487D01*
X60378508Y-128877701D01*
X60444696Y-128842322D01*
X60502711Y-128794711D01*
X60550322Y-128736696D01*
X60585701Y-128670508D01*
X60607487Y-128598689D01*
X60614843Y-128524000D01*
X60614843Y-127000000D01*
X60607487Y-126925311D01*
X60585701Y-126853492D01*
X60550322Y-126787304D01*
X60502711Y-126729289D01*
X60444696Y-126681678D01*
X60378508Y-126646299D01*
X60306689Y-126624513D01*
X60232000Y-126617157D01*
X58708000Y-126617157D01*
X58633311Y-126624513D01*
X58561492Y-126646299D01*
X58495304Y-126681678D01*
X58437289Y-126729289D01*
X58389678Y-126787304D01*
X58354299Y-126853492D01*
X58332513Y-126925311D01*
X58325157Y-127000000D01*
X58294843Y-127000000D01*
X58287487Y-126925311D01*
X58265701Y-126853492D01*
X58230322Y-126787304D01*
X58182711Y-126729289D01*
X58124696Y-126681678D01*
X58058508Y-126646299D01*
X57986689Y-126624513D01*
X57912000Y-126617157D01*
X56388000Y-126617157D01*
X56313311Y-126624513D01*
X56241492Y-126646299D01*
X56175304Y-126681678D01*
X56117289Y-126729289D01*
X56069678Y-126787304D01*
X56034299Y-126853492D01*
X56012513Y-126925311D01*
X56005157Y-127000000D01*
X55118000Y-127000000D01*
X55118000Y-103281380D01*
X61249000Y-103281380D01*
X61249000Y-103474620D01*
X61286699Y-103664147D01*
X61360649Y-103842678D01*
X61468007Y-104003351D01*
X61604649Y-104139993D01*
X61765322Y-104247351D01*
X61943853Y-104321301D01*
X62133380Y-104359000D01*
X62326620Y-104359000D01*
X62516147Y-104321301D01*
X62694678Y-104247351D01*
X62855351Y-104139993D01*
X62991993Y-104003351D01*
X63099351Y-103842678D01*
X63173301Y-103664147D01*
X63211000Y-103474620D01*
X63211000Y-103281380D01*
X63173301Y-103091853D01*
X63099351Y-102913322D01*
X62991993Y-102752649D01*
X62855351Y-102616007D01*
X62694678Y-102508649D01*
X62516147Y-102434699D01*
X62326620Y-102397000D01*
X62133380Y-102397000D01*
X61943853Y-102434699D01*
X61765322Y-102508649D01*
X61604649Y-102616007D01*
X61468007Y-102752649D01*
X61360649Y-102913322D01*
X61286699Y-103091853D01*
X61249000Y-103281380D01*
X55118000Y-103281380D01*
X55118000Y-86868000D01*
X59236636Y-86868000D01*
X58719550Y-86970855D01*
G36*
X75483109Y-91387648D02*
G01*
X75497823Y-91405577D01*
X75569375Y-91464298D01*
X75607919Y-91484900D01*
X75651007Y-91507931D01*
X75739583Y-91534800D01*
X75831700Y-91543873D01*
X75854777Y-91541600D01*
X81154978Y-91541600D01*
X81139000Y-91621927D01*
X81139000Y-91756073D01*
X81165171Y-91887640D01*
X81216506Y-92011574D01*
X81291033Y-92123112D01*
X81385888Y-92217967D01*
X81497426Y-92292494D01*
X81621360Y-92343829D01*
X81752927Y-92370000D01*
X81887073Y-92370000D01*
X82018640Y-92343829D01*
X82142574Y-92292494D01*
X82254112Y-92217967D01*
X82348967Y-92123112D01*
X82423494Y-92011574D01*
X82474829Y-91887640D01*
X82501000Y-91756073D01*
X82501000Y-91621927D01*
X82485022Y-91541600D01*
X85154978Y-91541600D01*
X85139000Y-91621927D01*
X85139000Y-91756073D01*
X85165171Y-91887640D01*
X85216506Y-92011574D01*
X85291033Y-92123112D01*
X85385888Y-92217967D01*
X85497426Y-92292494D01*
X85621360Y-92343829D01*
X85752927Y-92370000D01*
X85887073Y-92370000D01*
X86018640Y-92343829D01*
X86142574Y-92292494D01*
X86254112Y-92217967D01*
X86348967Y-92123112D01*
X86423494Y-92011574D01*
X86474829Y-91887640D01*
X86478790Y-91867729D01*
X86494009Y-91882948D01*
X86508723Y-91900877D01*
X86580275Y-91959598D01*
X86626677Y-91984400D01*
X86661907Y-92003231D01*
X86716545Y-92019805D01*
X86600383Y-92161349D01*
X86509290Y-92331771D01*
X86453195Y-92516690D01*
X86439000Y-92660813D01*
X86439000Y-93357186D01*
X86453195Y-93501309D01*
X86509289Y-93686228D01*
X86550912Y-93764100D01*
X81089088Y-93764100D01*
X81130711Y-93686229D01*
X81186805Y-93501310D01*
X81201000Y-93357187D01*
X81201000Y-92660814D01*
X81186805Y-92516691D01*
X81130711Y-92331771D01*
X81039618Y-92161349D01*
X80917028Y-92011972D01*
X80767651Y-91889382D01*
X80597229Y-91798289D01*
X80412310Y-91742195D01*
X80220000Y-91723254D01*
X80027691Y-91742195D01*
X79842772Y-91798289D01*
X79672350Y-91889382D01*
X79522973Y-92011972D01*
X79400383Y-92161349D01*
X79309290Y-92331771D01*
X79253195Y-92516690D01*
X79239000Y-92660813D01*
X79239000Y-93357186D01*
X79253195Y-93501309D01*
X79309289Y-93686228D01*
X79350912Y-93764100D01*
X76521639Y-93764100D01*
X75272900Y-92515362D01*
X75272900Y-91336077D01*
X75275173Y-91313000D01*
X75266100Y-91220883D01*
X75244222Y-91148761D01*
X75483109Y-91387648D01*
X75483109Y-91387648D01*
G37*
X75483109Y-91387648D02*
X75497823Y-91405577D01*
X75569375Y-91464298D01*
X75607919Y-91484900D01*
X75651007Y-91507931D01*
X75739583Y-91534800D01*
X75831700Y-91543873D01*
X75854777Y-91541600D01*
X81154978Y-91541600D01*
X81139000Y-91621927D01*
X81139000Y-91756073D01*
X81165171Y-91887640D01*
X81216506Y-92011574D01*
X81291033Y-92123112D01*
X81385888Y-92217967D01*
X81497426Y-92292494D01*
X81621360Y-92343829D01*
X81752927Y-92370000D01*
X81887073Y-92370000D01*
X82018640Y-92343829D01*
X82142574Y-92292494D01*
X82254112Y-92217967D01*
X82348967Y-92123112D01*
X82423494Y-92011574D01*
X82474829Y-91887640D01*
X82501000Y-91756073D01*
X82501000Y-91621927D01*
X82485022Y-91541600D01*
X85154978Y-91541600D01*
X85139000Y-91621927D01*
X85139000Y-91756073D01*
X85165171Y-91887640D01*
X85216506Y-92011574D01*
X85291033Y-92123112D01*
X85385888Y-92217967D01*
X85497426Y-92292494D01*
X85621360Y-92343829D01*
X85752927Y-92370000D01*
X85887073Y-92370000D01*
X86018640Y-92343829D01*
X86142574Y-92292494D01*
X86254112Y-92217967D01*
X86348967Y-92123112D01*
X86423494Y-92011574D01*
X86474829Y-91887640D01*
X86478790Y-91867729D01*
X86494009Y-91882948D01*
X86508723Y-91900877D01*
X86580275Y-91959598D01*
X86626677Y-91984400D01*
X86661907Y-92003231D01*
X86716545Y-92019805D01*
X86600383Y-92161349D01*
X86509290Y-92331771D01*
X86453195Y-92516690D01*
X86439000Y-92660813D01*
X86439000Y-93357186D01*
X86453195Y-93501309D01*
X86509289Y-93686228D01*
X86550912Y-93764100D01*
X81089088Y-93764100D01*
X81130711Y-93686229D01*
X81186805Y-93501310D01*
X81201000Y-93357187D01*
X81201000Y-92660814D01*
X81186805Y-92516691D01*
X81130711Y-92331771D01*
X81039618Y-92161349D01*
X80917028Y-92011972D01*
X80767651Y-91889382D01*
X80597229Y-91798289D01*
X80412310Y-91742195D01*
X80220000Y-91723254D01*
X80027691Y-91742195D01*
X79842772Y-91798289D01*
X79672350Y-91889382D01*
X79522973Y-92011972D01*
X79400383Y-92161349D01*
X79309290Y-92331771D01*
X79253195Y-92516690D01*
X79239000Y-92660813D01*
X79239000Y-93357186D01*
X79253195Y-93501309D01*
X79309289Y-93686228D01*
X79350912Y-93764100D01*
X76521639Y-93764100D01*
X75272900Y-92515362D01*
X75272900Y-91336077D01*
X75275173Y-91313000D01*
X75266100Y-91220883D01*
X75244222Y-91148761D01*
X75483109Y-91387648D01*
G36*
X97409000Y-88556048D02*
G01*
X97321149Y-88582697D01*
X97166709Y-88665247D01*
X97031341Y-88776341D01*
X96920247Y-88911709D01*
X96837697Y-89066149D01*
X96786864Y-89233726D01*
X96769699Y-89408000D01*
X96786864Y-89582274D01*
X96795551Y-89610911D01*
X96077057Y-90329405D01*
X96059123Y-90344123D01*
X96000402Y-90415675D01*
X95956770Y-90497307D01*
X95956769Y-90497308D01*
X95929900Y-90585884D01*
X95920827Y-90678000D01*
X95923100Y-90701077D01*
X95923101Y-92261360D01*
X95309362Y-92875100D01*
X89729639Y-92875100D01*
X89623900Y-92769362D01*
X89623900Y-91971077D01*
X89626173Y-91948000D01*
X89617100Y-91855883D01*
X89590231Y-91767307D01*
X89575047Y-91738900D01*
X89546598Y-91685675D01*
X89487877Y-91614123D01*
X89469948Y-91599409D01*
X88646000Y-90775462D01*
X88646000Y-88947755D01*
X90095606Y-87498149D01*
X97409000Y-87498149D01*
X97409000Y-88556048D01*
X97409000Y-88556048D01*
G37*
X97409000Y-88556048D02*
X97321149Y-88582697D01*
X97166709Y-88665247D01*
X97031341Y-88776341D01*
X96920247Y-88911709D01*
X96837697Y-89066149D01*
X96786864Y-89233726D01*
X96769699Y-89408000D01*
X96786864Y-89582274D01*
X96795551Y-89610911D01*
X96077057Y-90329405D01*
X96059123Y-90344123D01*
X96000402Y-90415675D01*
X95956770Y-90497307D01*
X95956769Y-90497308D01*
X95929900Y-90585884D01*
X95920827Y-90678000D01*
X95923100Y-90701077D01*
X95923101Y-92261360D01*
X95309362Y-92875100D01*
X89729639Y-92875100D01*
X89623900Y-92769362D01*
X89623900Y-91971077D01*
X89626173Y-91948000D01*
X89617100Y-91855883D01*
X89590231Y-91767307D01*
X89575047Y-91738900D01*
X89546598Y-91685675D01*
X89487877Y-91614123D01*
X89469948Y-91599409D01*
X88646000Y-90775462D01*
X88646000Y-88947755D01*
X90095606Y-87498149D01*
X97409000Y-87498149D01*
X97409000Y-88556048D01*
M02*
