M48
; DRILL file {KiCad 5.1.0-rc2-unknown-036be7d~80~ubuntu16.04.1} date 16.05.2022 (пн) 13:48:39 EEST
; FORMAT={-:-/ absolute / inch / decimal}
; #@! TF.CreationDate,2022-05-16T13:48:39+03:00*
; #@! TF.GenerationSoftware,Kicad,Pcbnew,5.1.0-rc2-unknown-036be7d~80~ubuntu16.04.1
; #@! TF.FileFunction,Plated,1,2,PTH
FMAT,2
INCH
T1C0.0118
T2C0.0118
T3C0.0157
T4C0.0197
T5C0.0236
T6C0.0300
T7C0.0315
T8C0.0394
T9C0.0472
%
G90
G05
T1
X3.3392Y-3.9713
T2
X3.2368Y-3.9713
X3.2368Y-4.0107
X3.2683Y-3.9398
X3.2683Y-4.0422
X3.3077Y-3.9398
X3.3077Y-4.0422
X3.3392Y-4.0107
T3
X2.985Y-4.18
X3.005Y-3.85
X3.015Y-4.21
X3.025Y-3.615
X3.04Y-3.815
X3.065Y-3.92
X3.065Y-3.96
X3.065Y-4.0
X3.09Y-4.53
X3.145Y-4.585
X3.145Y-4.885
X3.15Y-4.54
X3.185Y-4.125
X3.185Y-4.91
X3.19Y-3.89
X3.215Y-5.31
X3.23Y-3.855
X3.23Y-4.22
X3.315Y-5.31
X3.33Y-4.22
X3.415Y-5.31
X3.45Y-5.375
X3.51Y-3.5
X3.51Y-3.57
X3.53Y-4.885
X3.565Y-3.465
X3.565Y-3.54
X3.565Y-3.625
X3.565Y-4.92
X3.615Y-3.5
X3.615Y-3.585
X3.64Y-4.825
X3.65Y-4.735
X3.675Y-4.86
X3.715Y-4.73
X3.7276Y-4.1924
X3.745Y-3.465
X3.745Y-3.525
X3.745Y-3.585
X3.795Y-4.56
X3.795Y-4.64
X3.8Y-3.525
X3.82Y-3.465
X3.915Y-5.38
X3.975Y-5.38
X4.0Y-4.1
X4.035Y-4.37
X4.035Y-5.38
X4.055Y-4.095
X4.075Y-4.44
X4.215Y-3.8
X4.335Y-3.855
T4
X3.04Y-4.065
X3.215Y-4.365
T5
X2.205Y-5.31
X2.21Y-3.83
X2.24Y-3.93
X2.245Y-4.48
X2.245Y-4.875
X2.32Y-4.48
X2.325Y-3.965
X2.37Y-4.66
X2.44Y-4.3
X2.45Y-3.83
X2.51Y-5.54
X2.54Y-4.885
X2.545Y-3.515
X2.573Y-3.927
X2.6Y-3.61
X2.645Y-5.085
X2.66Y-3.73
X2.67Y-4.54
X2.69Y-4.32
X2.755Y-4.145
X2.765Y-3.925
X2.765Y-3.98
X2.785Y-3.525
X2.805Y-5.31
X2.805Y-5.54
X2.82Y-4.89
X2.905Y-4.795
X2.945Y-4.745
X2.975Y-4.26
X3.035Y-5.24
X3.04Y-3.455
X3.065Y-5.015
X3.08Y-3.87
X3.095Y-4.64
X3.1Y-3.82
X3.13Y-3.87
X3.15Y-3.82
X3.16Y-4.64
X3.16Y-4.745
X3.235Y-5.155
X3.33Y-3.815
X3.335Y-4.9
X3.335Y-5.04
X3.35Y-5.54
X3.375Y-4.155
X3.385Y-4.52
X3.41Y-4.445
X3.425Y-4.33
X3.44Y-3.88
X3.53Y-3.815
X3.53Y-4.33
X3.53Y-4.505
X3.57Y-5.265
X3.575Y-5.05
X3.58Y-3.815
X3.61Y-3.865
X3.615Y-4.265
X3.615Y-4.38
X3.655Y-5.54
X3.745Y-4.855
X3.75Y-3.91
X3.755Y-5.145
X3.79Y-4.715
X3.855Y-5.0
X3.855Y-5.275
X3.97Y-3.815
X3.985Y-3.54
X3.985Y-4.205
X3.985Y-4.855
X4.06Y-3.44
X4.06Y-3.72
X4.085Y-5.0
X4.085Y-5.23
X4.11Y-5.555
X4.2Y-4.68
X4.245Y-4.85
X4.27Y-4.295
X4.315Y-4.005
X4.37Y-4.255
X4.37Y-4.555
X4.38Y-4.73
X4.39Y-5.225
X4.41Y-4.005
X3.5214Y-3.964
X3.5706Y-3.964
T6
X2.3413Y-5.03
X4.06Y-3.915
X4.16Y-3.915
T7
X2.25Y-5.03
X4.35Y-5.03
T8
X2.9Y-5.45
X3.0Y-5.45
X3.1Y-5.45
X3.2Y-5.45
X3.3Y-5.45
X3.4Y-5.45
X3.5Y-5.45
X3.6Y-5.45
X3.7Y-5.45
X3.8Y-5.45
X2.8868Y-3.5122
X2.8868Y-3.6122
X2.8868Y-3.7122
X2.8868Y-3.8122
X2.8868Y-3.9122
X2.8868Y-4.0122
X2.8868Y-4.1122
X2.8868Y-4.2122
X2.8868Y-4.3122
X2.8868Y-4.4122
X2.8868Y-4.5122
X2.8868Y-4.6122
X3.8868Y-3.5122
X3.8868Y-3.6122
X3.8868Y-3.7122
X3.8868Y-3.8122
X3.8868Y-3.9122
X3.8868Y-4.0122
X3.8868Y-4.1122
X3.8868Y-4.2122
X3.8868Y-4.3122
X3.8868Y-4.4122
X3.8868Y-4.5122
X3.8868Y-4.6122
X2.6Y-5.45
X2.7Y-5.45
T9
X3.288Y-3.991
T5
G00X3.1583Y-3.537
M15
G01X3.1583Y-3.5133
M16
G05
G00X3.1583Y-3.6736
M15
G01X3.1583Y-3.65
M16
G05
G00X3.4417Y-3.537
M15
G01X3.4417Y-3.5133
M16
G05
G00X3.4417Y-3.6736
M15
G01X3.4417Y-3.65
M16
G05
T0
M30
