G04 #@! TF.GenerationSoftware,KiCad,Pcbnew,5.1.0-rc2-unknown-036be7d~80~ubuntu16.04.1*
G04 #@! TF.CreationDate,2022-05-16T13:48:37+03:00*
G04 #@! TF.ProjectId,LoRa-STM32WL-DevKit_RevD,4c6f5261-2d53-4544-9d33-32574c2d4465,D*
G04 #@! TF.SameCoordinates,Original*
G04 #@! TF.FileFunction,Soldermask,Bot*
G04 #@! TF.FilePolarity,Negative*
%FSLAX46Y46*%
G04 Gerber Fmt 4.6, Leading zero omitted, Abs format (unit mm)*
G04 Created by KiCad (PCBNEW 5.1.0-rc2-unknown-036be7d~80~ubuntu16.04.1) date 2022-05-16 13:48:37*
%MOMM*%
%LPD*%
G04 APERTURE LIST*
%ADD10C,1.301600*%
%ADD11C,0.701600*%
%ADD12O,1.301600X1.901600*%
%ADD13C,1.524000*%
%ADD14R,1.524000X1.524000*%
%ADD15O,1.101600X1.601600*%
%ADD16C,1.901600*%
%ADD17R,1.901600X1.901600*%
%ADD18R,0.863600X0.609600*%
%ADD19C,1.879600*%
%ADD20R,1.879600X1.879600*%
%ADD21R,1.625600X1.625600*%
%ADD22C,1.625600*%
%ADD23R,1.422400X1.422400*%
%ADD24C,1.778000*%
%ADD25R,1.778000X1.778000*%
%ADD26C,3.300000*%
G04 APERTURE END LIST*
D10*
X62230000Y-103378000D03*
X62230000Y-110998000D03*
D11*
X85820000Y-91689000D03*
X81820000Y-91689000D03*
D12*
X87420000Y-89539000D03*
X87420000Y-93009000D03*
X80220000Y-93009000D03*
X80220000Y-89539000D03*
D13*
X103124000Y-99441000D03*
D14*
X105664000Y-99441000D03*
D15*
X90693400Y-100685600D03*
X89443400Y-100685600D03*
D16*
X68580000Y-138430000D03*
D17*
X66040000Y-138430000D03*
D18*
X102997000Y-103124000D03*
X102997000Y-102362000D03*
D19*
X81280000Y-138430000D03*
X78740000Y-138430000D03*
X76200000Y-138430000D03*
D20*
X73660000Y-138430000D03*
D19*
X83820000Y-138430000D03*
X86360000Y-138430000D03*
X91440000Y-138430000D03*
X88900000Y-138430000D03*
X93980000Y-138430000D03*
X96520000Y-138430000D03*
D21*
X57150000Y-127762000D03*
D22*
X110490000Y-127762000D03*
D21*
X59470000Y-127762000D03*
D23*
X83515200Y-101371400D03*
D24*
X98724000Y-112070000D03*
X98724000Y-106990000D03*
X98724000Y-101910000D03*
X73324000Y-94290000D03*
X98724000Y-89210000D03*
X98724000Y-94290000D03*
X98724000Y-96830000D03*
X98724000Y-99370000D03*
X73324000Y-112070000D03*
X73324000Y-101910000D03*
X98724000Y-91750000D03*
X98724000Y-114610000D03*
X73324000Y-89210000D03*
X73324000Y-114610000D03*
X73324000Y-99370000D03*
D25*
X98724000Y-117150000D03*
D24*
X73324000Y-96830000D03*
X73324000Y-104450000D03*
X98724000Y-104450000D03*
X73324000Y-106990000D03*
X73324000Y-91750000D03*
X73324000Y-109530000D03*
X98724000Y-109530000D03*
D25*
X73324000Y-117150000D03*
D26*
X107950000Y-138430000D03*
X59690000Y-138430000D03*
X59690000Y-90170000D03*
X107950000Y-90170000D03*
M02*
